<svg width="104" height="50" viewBox="0 0 104 50" fill="none" xmlns="http://www.w3.org/2000/svg">
<path opacity="0.5" d="M81.2208 24.5994C80.1524 26.992 78.7218 29.0895 76.7577 30.7542C74.6012 32.5821 72.0478 33.3212 69.2285 33.0518C65.3581 32.6819 62.4532 30.7176 60.2695 27.5737C59.7642 26.8462 59.2304 26.1358 58.5389 25.5662C56.9472 24.2551 55.1904 24.5069 54.0191 26.201C53.3758 27.1313 52.965 28.1798 52.4723 29.1864C51.7948 30.5703 50.8786 31.7147 49.4122 32.3263C47.7815 33.0063 46.3173 32.6636 45.1431 31.3434C44.6089 30.7428 44.1162 30.088 43.2958 29.8296C42.6229 29.6178 42.092 29.824 41.7629 30.4531C41.2551 31.424 41.3688 32.4274 41.5849 33.4479C41.8085 34.5035 42.1366 35.5505 42.0348 36.65C41.8039 39.1437 40.3968 40.8614 38.3239 42.0799C36.6788 43.0469 34.8372 43.3747 32.9574 43.5438C30.3391 43.7794 27.7234 43.4935 25.107 43.544C24.1829 43.5619 23.2596 43.6237 22.3741 43.9375C21.9943 44.0721 21.6847 44.0072 21.4961 43.5382C22.3319 43.1045 23.2312 42.9423 24.1163 42.9007C25.6682 42.8279 27.2263 42.9173 28.7808 42.9308C31.4852 42.9543 34.2127 43.0928 36.8158 42.0643C38.5886 41.3639 39.9682 40.2454 40.8734 38.5514C41.4335 37.5034 41.434 36.3967 41.2728 35.2704C41.1418 34.3553 40.8931 33.4617 40.7842 32.5401C40.691 31.7509 40.8101 31.0033 41.1191 30.2908C41.6416 29.0857 42.8657 28.7183 44.0221 29.3903C44.5414 29.692 44.9782 30.0994 45.3279 30.5745C46.9142 32.7298 49.3944 32.1345 50.791 30.5223C51.4087 29.8092 51.797 28.9744 52.1526 28.1195C52.4631 27.3732 52.8053 26.6444 53.1932 25.9347C53.7392 24.9356 54.5533 24.2741 55.6199 23.895C56.6098 23.5431 57.4832 23.8806 58.3239 24.3444C59.5879 25.0416 60.4024 26.1853 61.218 27.3272C62.9579 29.7634 65.2278 31.4647 68.2089 31.9927C71.9956 32.6634 75.2059 31.5622 77.7089 28.5773C80.4109 25.3552 81.8476 21.6024 82.3733 17.4668C82.4055 17.2132 82.4393 16.9597 82.473 16.7063C82.4958 16.5357 82.4661 16.3167 82.7012 16.2848C82.9261 16.2543 83.0634 16.4272 83.1596 16.6001C83.2691 16.7971 83.2451 17.025 83.2161 17.2377C82.8711 19.7624 82.3164 22.2313 81.2208 24.5994Z" fill="url(#paint0_linear_367_10012)"/>
<path opacity="0.5" d="M77.6413 23.6327C79.0713 20.7049 79.9077 17.6582 80.0778 14.4258C80.654 14.4855 80.7987 14.7629 80.7651 15.2042C80.5799 17.6385 79.9884 19.9767 79.0881 22.2383C78.3333 24.1342 77.3741 25.9169 75.9973 27.4422C74.8846 28.6749 73.5915 29.6354 71.9532 30.0876C70.1278 30.5915 68.4839 30.139 66.9381 29.1902C65.2243 28.1382 64.0231 26.5669 62.8174 25.0055C61.7235 23.5888 60.7171 22.0964 59.341 20.9203C58.308 20.0376 57.1674 19.4284 55.7501 19.5355C54.5912 19.6231 53.7221 20.1371 53.2761 21.243C53.0704 21.753 52.9079 22.2809 52.7334 22.8032C52.1598 24.5197 51.2217 25.9999 49.8604 27.1983C48.725 28.1979 47.6458 28.333 46.3389 27.587C44.8001 26.7087 43.2473 25.8447 41.7761 24.8615C40.1832 23.797 38.8917 25.0724 38.7906 26.4857C38.6993 27.7632 39.0334 28.9848 39.2203 30.2265C39.5471 32.3983 39.7873 34.5729 39.0064 36.7017C38.3711 38.4338 37.3118 39.8185 35.5366 40.5078C34.2204 41.0189 32.8375 41.0108 31.4581 40.8579C28.0674 40.4821 24.7015 40.4542 21.4064 41.5129C20.9008 41.6753 20.4053 41.8695 19.9053 42.0492C19.5526 42.1758 19.2598 42.1349 19.043 41.7408C19.5341 41.3528 20.1075 41.2089 20.6542 41.0187C23.0187 40.1961 25.4594 39.7913 27.9581 39.8522C29.3719 39.8867 30.7813 40.0796 32.1945 40.173C32.9206 40.221 33.6556 40.2391 34.3749 40.1074C36.4848 39.7211 37.6723 38.3107 38.3676 36.4037C38.978 34.7293 38.9083 32.9984 38.6728 31.2704C38.495 29.9658 38.2299 28.6722 38.0793 27.365C37.9185 25.9687 38.4734 24.5245 39.6703 23.9446C40.3258 23.6271 40.9664 23.6117 41.5904 23.9728C43.09 24.8407 44.5887 25.7111 46.0663 26.6156C46.5437 26.9078 47.0597 27.0867 47.5612 27.3106C47.9032 27.4633 48.2198 27.3383 48.5265 27.1984C49.9553 26.5464 50.7431 25.2948 51.4801 24.0048C51.9425 23.1955 52.1959 22.2991 52.4609 21.414C53.2114 18.9068 55.8617 18.377 57.6727 19.0878C58.8963 19.568 59.8846 20.3534 60.7624 21.3052C62.2607 22.9296 63.4463 24.8056 64.9096 26.4578C66.1014 27.8034 67.4233 28.9656 69.2347 29.3936C71.2248 29.8638 72.9279 29.2361 74.429 27.955C75.8146 26.7725 76.7927 25.2749 77.6413 23.6327Z" fill="url(#paint1_linear_367_10012)"/>
<path opacity="0.5" d="M36.2815 24.5764C35.8001 26.4215 35.7149 28.2753 35.4747 30.1067C35.2622 31.7263 35.0249 33.3401 34.4352 34.8799C33.5008 37.3201 32.0554 38.3207 29.2162 38.4236C27.0525 38.5021 24.8835 38.4346 22.7168 38.4335C20.6971 38.4325 18.7671 38.8222 16.9631 39.7592C16.8763 39.8043 16.7858 39.8475 16.692 39.8728C16.5 39.9245 16.3305 39.8795 16.2492 39.6852C16.1637 39.4807 16.3384 39.4061 16.4705 39.3302C17.312 38.8467 18.2121 38.5031 19.1491 38.2632C20.6455 37.88 22.1749 37.7599 23.7135 37.7632C25.4072 37.7668 27.1007 37.8017 28.7944 37.8116C29.7264 37.8169 30.6381 37.67 31.5108 37.3366C32.9524 36.7859 33.5272 35.5233 33.9852 34.2056C34.6171 32.3878 34.7546 30.4755 34.9561 28.5784C35.1935 26.3437 35.4816 24.1216 36.4653 22.0587C37.3665 20.1689 38.8803 19.3653 40.9348 19.7042C41.988 19.878 42.9857 20.2485 43.9917 20.5869C45.0751 20.9514 46.1539 21.2831 47.3303 21.1442C48.1993 21.0415 48.8438 20.627 49.3351 19.9381C49.7399 19.3705 49.9795 18.7239 50.1839 18.0626C50.3348 17.5742 50.4762 17.0816 50.6558 16.6036C51.5432 14.2412 53.1317 13.4003 55.5477 14.1381C58.4703 15.0304 60.8321 16.7605 62.793 19.1081C64.0165 20.5728 64.7176 22.3023 65.5729 23.9585C65.8545 24.5039 66.1762 25.0192 66.5536 25.5001C67.7753 27.0573 69.5072 27.4471 71.2979 26.5755C73.0218 25.7363 74.2117 24.3222 75.3114 22.8208C77.0423 20.4573 77.9832 17.7993 78.1858 14.8808C78.2116 14.5102 78.1661 14.1347 78.1567 13.7614C78.1501 13.4954 78.04 13.2185 78.2445 12.9375C78.7875 13.0262 78.8204 13.4645 78.8471 13.8617C78.8948 14.57 78.8365 15.2768 78.7437 15.9818C78.198 20.1295 76.2902 23.5355 73.131 26.248C72.4737 26.8123 71.7258 27.2438 70.8864 27.5235C69.1814 28.0916 67.4788 27.6731 66.2609 26.3407C65.4511 25.4548 64.9058 24.4032 64.4417 23.3168C63.3921 20.8597 61.8918 18.7461 59.7724 17.1078C58.3807 16.032 56.8962 15.1009 55.1594 14.6692C53.2893 14.2043 52.1349 14.7674 51.328 16.4986C50.9185 17.3772 50.7466 18.3333 50.3979 19.2327C49.4812 21.5965 47.667 22.1063 45.4905 21.7079C44.051 21.4444 42.7509 20.7312 41.3185 20.4305C39.2189 19.9899 37.8535 20.639 36.966 22.5789C36.6789 23.2064 36.473 23.8638 36.2815 24.5764Z" fill="url(#paint2_linear_367_10012)"/>
<path opacity="0.5" d="M41.7968 16.5756C42.443 16.8351 43.0599 17.0285 43.6987 17.1652C44.7772 17.3959 45.674 17.0771 46.462 16.3462C47.3368 15.5348 47.8086 14.4682 48.3419 13.4366C48.6851 12.7727 49.014 12.0927 49.4369 11.4803C50.4705 9.98382 52.0047 9.36982 53.7518 9.30968C56.2976 9.22204 58.3975 10.2955 60.2362 11.976C62.0027 13.5906 63.3919 15.5415 65.0013 17.2959C66.2751 18.6845 67.6463 19.9332 69.4352 20.6503C70.8492 21.2172 72.2226 21.4421 73.4744 20.3242C74.186 19.6886 74.5401 18.8268 74.7975 17.9268C75.1584 16.6653 75.2016 15.3635 75.2399 14.0672C75.2683 13.1055 75.3193 12.138 75.1532 11.1789C75.1277 11.0318 75.0986 10.8629 75.2634 10.7169C75.605 10.7297 75.7696 10.9472 75.7971 11.2719C75.9958 13.6127 76.0928 15.9587 75.4842 18.2537C75.0085 20.0478 74.0411 21.4606 72.057 21.831C71.0605 22.0171 70.0998 21.7901 69.174 21.4149C67.2775 20.6464 65.8517 19.2655 64.4955 17.7977C63.0526 16.2361 61.8611 14.4595 60.3635 12.9451C58.8706 11.4355 57.2057 10.2013 55.0294 9.90644C52.6657 9.58622 50.7077 10.2388 49.478 12.4572C49.0204 13.2828 48.6404 14.151 48.2023 14.9879C47.7036 15.9403 47.0765 16.7861 46.1343 17.3595C45.1999 17.9282 44.215 18.0294 43.1852 17.6978C42.5114 17.4809 41.839 17.2555 41.1799 16.9981C38.479 15.9431 35.2745 17.1092 33.8371 19.6522C33 21.1333 33.0099 22.6936 33.2956 24.2943C33.6359 26.2 33.9002 28.1 33.3625 30.0223C33.0292 31.214 32.5379 32.3193 31.7797 33.2947C31.0256 34.2647 29.9666 34.345 28.8819 34.1418C28.0014 33.9768 27.3017 34.1614 26.7042 34.8326C25.8251 35.8201 24.6495 36.027 23.4141 35.9598C21.6682 35.8648 19.9954 36.1757 18.3963 36.8382C17.2886 37.2971 16.2234 37.8591 15.1415 38.3797C14.8447 38.5225 14.5582 38.6714 14.3438 38.162C15.1381 37.6216 16.0189 37.2428 16.8725 36.8151C19.0412 35.7287 21.3049 35.109 23.7616 35.2914C24.7631 35.3658 25.6608 35.0742 26.3367 34.2456C26.8921 33.5646 27.6748 33.2691 28.5081 33.4443C30.7823 33.9222 31.4572 33.1314 32.3794 30.8145C33.067 29.0872 33.096 27.2845 32.7732 25.465C32.5291 24.0894 32.228 22.6971 32.5139 21.3061C33.1037 18.4367 34.9832 16.8016 37.739 16.05C39.155 15.6638 40.4624 16.0248 41.7968 16.5756Z" fill="url(#paint3_linear_367_10012)"/>
<path opacity="0.5" d="M13.0765 33.9954C14.8257 33.211 16.6274 32.8211 18.487 32.7297C19.28 32.6908 19.9783 32.4942 20.4873 31.8876C21.3488 30.861 22.4803 30.3375 23.7548 30.1612C26.6087 29.7663 28.1574 27.9238 29.1285 25.431C29.7092 23.9402 29.9473 22.3609 30.2212 20.7912C30.6424 18.3775 31.151 15.9945 32.8468 14.0688C34.2608 12.4631 36.0007 11.7785 38.1242 12.0951C38.8443 12.2025 39.5708 12.2794 40.2831 12.4252C42.1644 12.81 43.5778 12.027 44.7687 10.6747C45.486 9.86005 46.0888 8.95588 46.6855 8.05409C49.1201 4.37507 52.8066 4.00293 56.3573 5.44064C57.9229 6.07457 59.408 6.90406 61.1423 7.03958C61.8469 7.09463 62.533 7.29312 63.2017 7.53299C64.7402 8.08489 65.6399 9.34507 66.565 10.5738C66.9438 11.0769 67.2903 11.6043 67.6705 12.1063C67.8718 12.3719 68.0959 12.6261 68.341 12.8516C68.9171 13.3819 69.5339 13.5043 69.93 13.1464C70.4829 12.6468 70.0596 12.1435 69.8253 11.7118C69.2821 10.7106 68.3187 10.0607 67.6008 9.20006C66.5609 7.9534 66.2404 6.5667 66.7384 5.01231C66.803 4.81074 66.8066 4.46154 67.1391 4.53814C67.5081 4.62316 67.3738 4.92923 67.2964 5.16952C66.8185 6.65284 67.2512 7.91263 68.2374 9.03863C68.8078 9.6898 69.4904 10.2349 70.0115 10.9339C70.3084 11.3321 70.5484 11.7544 70.7073 12.2258C70.8647 12.6927 70.8493 13.1194 70.4576 13.4693C70.0242 13.8564 69.543 14.0877 68.9475 13.8814C68.126 13.5968 67.5754 12.9789 67.0736 12.3162C66.4681 11.5164 65.9035 10.6852 65.2917 9.89025C64.3653 8.68643 63.1618 7.88938 61.6407 7.70139C59.5593 7.44415 57.6718 6.64248 55.7659 5.83405C54.0779 5.11806 52.3066 4.9784 50.5186 5.56378C49.0964 6.02944 48.1278 7.03776 47.2831 8.20147C46.6704 9.04563 46.1045 9.92612 45.4566 10.7419C43.848 12.7677 41.8221 13.5696 39.2381 12.8866C38.1653 12.6031 37.0405 12.4098 35.9176 12.7668C33.8546 13.4225 32.6397 14.9365 31.8414 16.8404C31.0273 18.7824 30.8285 20.8771 30.4226 22.9194C30.0591 24.7482 29.5143 26.5029 28.4132 28.0455C27.3499 29.5352 25.9075 30.4311 24.1206 30.7162C22.7882 30.9288 21.6219 31.3775 20.7384 32.4428C20.1771 33.1196 19.3766 33.2826 18.5592 33.3299C15.9729 33.4795 13.5497 34.1039 11.4395 35.6847C11.2504 35.8264 11.0326 35.9164 10.8723 35.6814C10.6899 35.414 10.9541 35.2914 11.118 35.1749C11.7282 34.7411 12.3566 34.335 13.0765 33.9954Z" fill="url(#paint4_linear_367_10012)"/>
<path opacity="0.5" d="M31.7002 47.7504C30.1119 47.4824 28.567 47.3563 27.0068 47.4351C26.6889 47.4511 26.319 47.5248 26.1367 47.0585C26.5613 46.7972 27.0475 46.8144 27.4965 46.8062C29.2113 46.7752 30.9057 47.0108 32.5904 47.3071C34.782 47.6925 36.971 48.0701 39.2133 47.9601C41.8392 47.8313 43.5631 46.4693 44.6219 44.1273C45.3023 42.6223 45.8565 41.0601 46.7062 39.6307C48.1366 37.2242 49.9304 35.1645 52.5512 34.0619C55.7552 32.7139 58.8293 32.9205 61.5219 35.3435C62.4566 36.1847 63.3112 37.1146 64.2081 37.9982C65.5551 39.3252 67.1314 40.0792 69.0606 39.7824C70.4406 39.5701 71.6896 38.9816 72.8697 38.2465C78.4239 34.7869 82.3269 29.9631 84.7571 23.9092C85.302 22.5518 85.7184 21.1633 86.0221 19.7364C86.0743 19.4915 86.0905 19.2265 86.3195 19.0273C86.8184 19.1166 86.7065 19.4693 86.6399 19.79C86.145 22.1752 85.3155 24.4463 84.2163 26.6126C81.5019 31.9621 77.6025 36.218 72.3765 39.2001C70.8374 40.0783 69.1842 40.6276 67.3504 40.3518C65.8934 40.1327 64.7765 39.3205 63.7358 38.3687C62.8209 37.532 62.0264 36.5744 61.1023 35.7429C59.0515 33.8976 56.6559 33.5664 54.0898 34.1853C50.9498 34.9426 48.9106 37.0997 47.298 39.754C46.5072 41.0557 45.9676 42.473 45.363 43.8613C44.9049 44.9133 44.3422 45.9012 43.5457 46.7429C42.5495 47.7956 41.2815 48.2909 39.8883 48.4811C37.3675 48.8253 34.9156 48.249 32.4515 47.8611C32.2186 47.8245 31.9849 47.7939 31.7002 47.7504Z" fill="url(#paint5_linear_367_10012)"/>
<path opacity="0.5" d="M45.7972 13.4149C46.4351 12.0827 46.9335 10.724 47.9858 9.67981C50.4021 7.28202 53.2602 6.44265 56.5843 7.19035C58.128 7.53757 59.5932 8.10697 61.0267 8.76085C62.9778 9.65086 64.4414 11.0511 65.4105 12.9739C65.6933 13.5351 66.0372 14.0672 66.3757 14.5982C66.7837 15.2381 67.3298 15.7375 67.9683 16.1538C70.0806 17.5313 72.0231 16.3469 72.4274 14.1474C72.7595 12.3412 72.5317 10.5812 71.9205 8.86016C71.8322 8.61164 71.6615 8.38008 71.6906 8.06547C72.0251 8.04408 72.2096 8.22799 72.2964 8.46556C73.1164 10.7114 73.5696 12.9854 72.5706 15.2955C71.9441 16.7444 70.5274 17.5531 69.2193 17.2184C68.1518 16.9452 67.215 16.4095 66.4833 15.5594C65.993 14.9897 65.5407 14.3843 65.2306 13.7035C64.0542 11.1209 62.0376 9.52192 59.4113 8.59162C57.8308 8.03176 56.246 7.47304 54.557 7.40783C52.8587 7.34228 51.2988 7.85865 49.8672 8.76599C48.477 9.64703 47.4902 10.8687 46.8179 12.3607C46.4949 13.0774 46.2132 13.8152 45.7314 14.4519C45.014 15.3999 44.0163 15.7259 42.8568 15.4243C42.0144 15.2052 41.2924 14.6966 40.4294 14.5152C37.8851 13.9802 35.7418 14.7334 33.9953 16.5662C31.7849 18.8858 31.2835 21.7662 31.5091 24.8423C31.5998 26.0794 31.6929 27.3164 31.4565 28.5492C31.1039 30.3878 29.9957 31.5056 28.1988 31.9647C27.5511 32.1302 26.9039 32.2991 26.2516 32.4443C25.4104 32.6315 24.6409 32.9771 23.9624 33.4984C23.0301 34.2147 21.9598 34.4821 20.8186 34.5302C19.6597 34.5789 18.4915 34.4616 17.3437 34.7046C15.7957 35.0323 14.4198 35.7396 13.1371 36.6457C13.0087 36.7364 12.8847 36.8374 12.7456 36.9079C12.612 36.9757 12.4716 36.9584 12.3882 36.8111C12.318 36.6872 12.3682 36.5728 12.4687 36.4988C12.8013 36.2539 13.132 36.0045 13.4802 35.7831C15.3172 34.6154 17.3 33.9299 19.5042 34.0294C21.2668 34.109 22.8904 33.7914 24.3343 32.6723C25.1743 32.0212 26.2536 31.8842 27.2721 31.6617C28.1426 31.4715 29.0087 31.2722 29.7127 30.6851C30.6587 29.8961 30.9696 28.8162 31.0562 27.6415C31.1724 26.0642 30.8331 24.4943 30.9458 22.9224C31.1918 19.4915 32.347 16.5183 35.5351 14.7641C37.4891 13.6889 39.5637 13.4694 41.6716 14.4066C42.3009 14.6865 42.9277 15.0359 43.6241 15.0456C44.7127 15.0609 45.3113 14.3272 45.7972 13.4149Z" fill="url(#paint6_linear_367_10012)"/>
<path opacity="0.5" d="M75.5768 34.8033C78.2992 33.0901 80.1071 30.6436 81.5595 27.8878C83.0769 25.0087 83.9289 21.8929 84.8123 18.7878C84.866 18.599 84.9227 18.4107 84.9896 18.2265C85.0069 18.1791 85.0684 18.1478 85.1383 18.082C85.473 18.2735 85.3277 18.545 85.2639 18.788C84.5287 21.5897 83.6448 24.3377 82.4658 26.9914C81.1883 29.8669 79.4402 32.3826 76.9655 34.3435C74.2583 36.4886 71.1787 37.4209 67.7367 36.8834C66.1813 36.6406 64.7603 36.0039 63.5196 35.0049C62.398 34.1018 61.4479 33.0143 60.3587 32.0767C59.1157 31.0066 57.7626 30.224 56.0325 30.3964C54.9871 30.5005 54.0271 30.8785 53.1761 31.4459C50.4427 33.2687 47.9671 35.3865 45.9817 38.0327C45.0548 39.2681 44.5692 40.7044 44.1052 42.151C43.661 43.5361 42.9388 44.6995 41.5127 45.2572C40.6828 45.5818 39.8078 45.722 38.92 45.7787C36.599 45.9272 34.2809 45.8983 31.9557 45.8069C29.4976 45.7103 27.0362 45.6008 24.5733 45.6562C24.3309 45.6616 24.0489 45.7337 23.9102 45.3832C24.1058 45.1505 24.3783 45.2423 24.6123 45.2397C29.0635 45.1898 33.5121 45.4656 37.9641 45.3521C38.9314 45.3275 39.889 45.2132 40.8201 44.9586C42.2604 44.5648 43.1761 43.5673 43.534 42.171C44.4923 38.4313 46.8609 35.7162 49.7348 33.3359C50.8121 32.4436 51.8868 31.545 53.0836 30.8192C55.9908 29.0562 58.3897 29.5417 60.839 31.7284C62.0125 32.7761 62.9799 34.0572 64.2875 34.9502C66.8245 36.6826 69.5973 36.9696 72.5253 36.1654C73.6009 35.87 74.574 35.3595 75.5768 34.8033Z" fill="url(#paint7_linear_367_10012)"/>
<path d="M25.9596 39.5143C25.0384 39.5136 24.1717 39.5023 23.3055 39.5158C22.9207 39.5218 22.6947 39.3711 22.5313 39.0178C21.9199 37.6958 21.267 36.3929 20.6669 35.0659C20.4931 34.6815 20.2698 34.5365 19.862 34.538C17.0854 34.5482 14.3087 34.5478 11.5321 34.5389C11.1265 34.5376 10.896 34.6794 10.723 35.0656C10.1279 36.3944 9.48814 37.7031 8.87243 39.0227C8.74834 39.2886 8.60358 39.507 8.27407 39.5065C7.21083 39.5051 6.14756 39.5056 5.08438 39.4964C4.97496 39.4955 4.86605 39.4341 4.77535 39.4064C4.67181 39.154 4.8223 38.9953 4.9039 38.8267C6.08735 36.3818 7.28639 33.9444 8.45193 31.491C8.68303 31.0046 8.99338 30.8507 9.51003 30.8541C12.2276 30.8716 14.9453 30.8599 17.6629 30.8584C17.9356 30.8583 18.2083 30.8584 18.4647 30.8584C18.6125 30.5457 18.4272 30.3529 18.3344 30.1531C16.9588 27.1905 15.588 24.2256 14.1844 21.2763C13.9132 20.7064 13.88 20.2301 14.2008 19.6703C14.611 18.9545 14.9354 18.1898 15.3062 17.4509C15.3992 17.2657 15.4417 17.0297 15.8364 16.918C19.4576 24.3624 23.089 31.8281 26.7059 39.2639C26.4944 39.5635 26.2401 39.4902 25.9596 39.5143Z" fill="white"/>
<path d="M57.0478 34.5752C55.964 33.1455 54.9048 31.7496 53.842 30.3564C53.6557 30.1122 52.5227 29.8804 52.2699 30.0283C52.0653 30.148 52.0734 30.372 52.0711 30.555C52.0638 31.1249 52.1014 31.6953 52.1034 32.2656C52.1111 34.393 52.1133 36.5204 52.1137 38.6477C52.1138 39.4636 52.0659 39.5088 51.2408 39.511C50.3938 39.5131 49.5467 39.5007 48.6998 39.5121C48.2609 39.518 48.0654 39.3607 48.0664 38.8898C48.0768 33.8668 48.0715 28.8437 48.0733 23.8207C48.0733 23.6699 48.0375 23.5013 48.1965 23.3762C48.4531 23.3349 48.5658 23.5557 48.7088 23.6971C49.6471 24.6247 50.5899 25.5485 51.5022 26.5014C51.8308 26.8446 52.1769 26.9895 52.6464 26.964C53.4701 26.9192 54.3005 27.0135 55.1185 26.838C55.4672 26.7632 55.7073 26.9148 55.9301 27.185C59.1496 31.0894 62.3772 34.9871 65.6016 38.8874C65.7125 39.0216 65.8462 39.1468 65.8556 39.3435C65.6949 39.5428 65.4669 39.5052 65.2573 39.5057C63.9376 39.5087 62.6177 39.4986 61.2981 39.5091C60.9308 39.512 60.6743 39.3907 60.4496 39.0884C59.3339 37.5877 58.1991 36.1013 57.0478 34.5752Z" fill="white"/>
<path d="M34.4911 37.4983C34.4912 30.9816 34.4905 24.5239 34.4925 18.0661C34.4928 17.1907 34.5242 17.1638 35.382 17.1606C36.1695 17.1577 36.957 17.1546 37.7445 17.1573C38.4972 17.1599 38.5416 17.2016 38.5419 17.9686C38.5441 22.6545 38.5428 27.3404 38.5432 32.0263C38.5434 34.2708 38.5288 36.5155 38.5568 38.7596C38.5639 39.3282 38.3759 39.5388 37.8132 39.521C36.9084 39.4923 36.0021 39.5048 35.0965 39.5112C34.6836 39.5142 34.4735 39.352 34.4891 38.9156C34.5052 38.4634 34.4917 38.0101 34.4911 37.4983Z" fill="white"/>
<path d="M73.0208 34.8965C73.022 29.2432 73.022 23.649 73.0241 18.0548C73.0244 17.2026 73.0672 17.1619 73.9284 17.1582C74.7163 17.1548 75.5042 17.1564 76.2921 17.1588C77.0061 17.161 77.0631 17.2149 77.0635 17.9378C77.0658 22.3502 77.0652 26.7625 77.0662 31.1748C77.0669 33.6962 77.0543 36.2176 77.0815 38.7387C77.0876 39.3028 76.9051 39.5292 76.3434 39.5152C75.4772 39.4938 74.6098 39.4935 73.7436 39.5145C73.2244 39.527 72.9993 39.35 73.0122 38.7963C73.0421 37.5167 73.0209 36.2359 73.0208 34.8965Z" fill="white"/>
<path d="M87.7019 22.8127C88.4295 22.8125 89.0986 22.8141 89.7677 22.811C90.0123 22.8099 90.2459 22.8188 90.3579 23.0924C90.9275 24.4843 92.1679 25.0664 93.4385 25.5629C94.5972 26.0157 95.7374 26.4827 96.7595 27.2059C98.6474 28.5417 99.5445 30.3966 99.6776 32.6715C99.7069 33.1704 99.5602 33.3983 99.0275 33.3808C98.1428 33.3517 97.2565 33.3594 96.3711 33.37C96.0123 33.3743 95.8225 33.2429 95.7861 32.8739C95.641 31.4003 94.6786 30.5847 93.4341 30.0241C92.592 29.6448 91.7192 29.3335 90.8794 28.9496C89.1995 28.1817 87.7273 27.1662 86.9095 25.422C86.6309 24.8279 86.4933 24.1963 86.4007 23.5504C86.3269 23.0358 86.4694 22.7426 87.0534 22.8105C87.2475 22.833 87.4465 22.8132 87.7019 22.8127Z" fill="white"/>
<path d="M60.952 19.9303C61.6108 20.8543 61.92 21.8615 62.041 22.9328C62.111 23.5522 61.9961 23.684 61.3939 23.6894C60.4494 23.6978 59.5048 23.6918 58.5603 23.6945C58.2592 23.6954 58.011 23.6449 57.9818 23.2679C57.83 21.308 56.527 20.9812 55.0501 20.8743C54.2082 20.8133 53.3583 20.8474 52.5125 20.8623C52.1346 20.8689 51.8367 20.7612 51.5562 20.501C50.5321 19.5513 49.4906 18.6204 48.4574 17.6805C48.358 17.59 48.2377 17.5064 48.251 17.3365C48.3639 17.1146 48.581 17.1623 48.7664 17.1655C51.1263 17.2061 53.4911 17.0403 55.8455 17.2664C57.8776 17.4615 59.6534 18.207 60.952 19.9303Z" fill="white"/>
<path d="M87.2307 34.7786C87.6936 34.5122 88.1036 34.116 88.5519 34.0662C89.0968 34.0058 89.2258 34.6935 89.5273 35.0445C90.6767 36.3832 92.9345 36.8608 94.3694 35.9998C94.5529 35.8897 94.7521 35.837 94.8989 36.0362C95.5264 36.8872 96.1433 37.746 96.8007 38.6525C96.0554 39.2304 95.2365 39.5216 94.398 39.686C92.3463 40.0883 90.3576 39.8756 88.526 38.7997C87.4311 38.1565 86.6524 37.197 86.0139 36.1102C85.8051 35.7549 85.8614 35.537 86.2172 35.3529C86.5491 35.1811 86.8694 34.9867 87.2307 34.7786Z" fill="white"/>
<path d="M93.3554 16.7879C95.5309 16.9046 97.2812 17.725 98.5921 19.4383C98.9032 19.845 98.9651 20.1166 98.5208 20.4616C98.0096 20.8586 97.5451 21.3162 97.0647 21.7524C96.4789 22.2844 96.4524 22.2955 95.9596 21.7069C95.0447 20.6143 93.9045 20.106 92.4698 20.2611C91.9791 20.3142 91.5554 20.4993 91.1708 20.777C90.8715 20.9931 90.6605 20.9508 90.4053 20.6992C89.7889 20.0916 89.161 19.4941 88.5112 18.9227C88.1462 18.6017 88.2288 18.4038 88.5732 18.1452C89.9789 17.09 91.5832 16.7503 93.3554 16.7879Z" fill="white"/>
<defs>
<linearGradient id="paint0_linear_367_10012" x1="22.7421" y1="20.5238" x2="84.1057" y2="23.0592" gradientUnits="userSpaceOnUse">
<stop stop-color="#636361"/>
<stop offset="1" stop-color="#F9F9FA"/>
</linearGradient>
<linearGradient id="paint1_linear_367_10012" x1="20.2886" y1="18.6637" x2="81.6344" y2="21.2004" gradientUnits="userSpaceOnUse">
<stop stop-color="#636361"/>
<stop offset="1" stop-color="#F9F9FA"/>
</linearGradient>
<linearGradient id="paint2_linear_367_10012" x1="17.4905" y1="17.0633" x2="79.7325" y2="19.746" gradientUnits="userSpaceOnUse">
<stop stop-color="#636361"/>
<stop offset="1" stop-color="#F9F9FA"/>
</linearGradient>
<linearGradient id="paint3_linear_367_10012" x1="15.5869" y1="13.7758" x2="76.8231" y2="16.1712" gradientUnits="userSpaceOnUse">
<stop stop-color="#636361"/>
<stop offset="1" stop-color="#F9F9FA"/>
</linearGradient>
<linearGradient id="paint4_linear_367_10012" x1="12.0211" y1="9.31798" x2="71.6678" y2="11.4385" gradientUnits="userSpaceOnUse">
<stop stop-color="#636361"/>
<stop offset="1" stop-color="#F9F9FA"/>
</linearGradient>
<linearGradient id="paint5_linear_367_10012" x1="27.3588" y1="23.5517" x2="87.564" y2="25.8397" gradientUnits="userSpaceOnUse">
<stop stop-color="#636361"/>
<stop offset="1" stop-color="#F9F9FA"/>
</linearGradient>
<linearGradient id="paint6_linear_367_10012" x1="13.5821" y1="11.5207" x2="74.0116" y2="13.7903" gradientUnits="userSpaceOnUse">
<stop stop-color="#636361"/>
<stop offset="1" stop-color="#F9F9FA"/>
</linearGradient>
<linearGradient id="paint7_linear_367_10012" x1="25.15" y1="22.3372" x2="86.2132" y2="24.8404" gradientUnits="userSpaceOnUse">
<stop stop-color="#636361"/>
<stop offset="1" stop-color="#F9F9FA"/>
</linearGradient>
</defs>
</svg>
