<svg width="132" height="40" viewBox="0 0 132 40" fill="none" xmlns="http://www.w3.org/2000/svg">
<path d="M102.651 34C96.0092 34 92.7725 31.631 92.7725 26.7323V26.6119H98.7836V27.4551C98.7836 28.9407 99.7083 29.2619 102.777 29.2619C105.341 29.2619 105.761 28.9006 105.761 27.8967C105.761 26.8126 105.173 26.5717 102.357 26.0899L99.1619 25.5277C95.0004 24.805 92.7305 23.1185 92.7305 19.3843C92.7305 15.6501 95.9252 13 101.936 13C107.107 13 111.058 15.3289 111.058 19.8662V20.4283H105.047V19.8662C105.047 18.5411 104.458 17.8184 101.768 17.8184C99.246 17.8184 98.6575 18.3403 98.6575 19.304C98.6575 20.2677 99.0358 20.5488 101.558 21.0306L105.425 21.7935C109.881 22.5966 111.73 24.5239 111.73 27.8164C111.73 31.5908 108.494 34 102.651 34Z" fill="#636361"/>
<path d="M89.5923 10.597H82.8226L82.7305 6H89.5923V10.597ZM89.7305 34H82.8226V12.9791H89.7305V34Z" fill="#636361"/>
<path d="M68.6212 34H62.7305V13.4094H68.2258V16.7251H68.463C69.4514 14.6374 71.2305 13 74.0374 13C78.1886 13 79.7305 16.193 79.7305 20.3275V22.2105H73.8398V21.1053C73.8398 18.8947 73.1677 18.1988 71.3095 18.1988C69.4909 18.1988 68.6212 18.8538 68.6212 21.1053V34Z" fill="#636361"/>
<path d="M57.7305 34H51.7305V6H57.7305V34Z" fill="url(#paint0_linear_206_1469)"/>
<path d="M26.0844 34H19.7305L29.7909 6H38.6701L48.7305 34H42.0914L39.892 27.7731H28.3246L26.0844 34ZM31.8681 17.8269L30.3204 22.1731H37.8962L36.3484 17.8269L34.3527 11.5164H33.9454L31.8681 17.8269Z" fill="url(#paint1_linear_206_1469)"/>
<defs>
<linearGradient id="paint0_linear_206_1469" x1="51.8515" y1="10.2857" x2="57.8246" y2="10.3095" gradientUnits="userSpaceOnUse">
<stop stop-color="#636361"/>
<stop offset="1" stop-color="#F9F9FA"/>
</linearGradient>
<linearGradient id="paint1_linear_206_1469" x1="20.3157" y1="10.2857" x2="49.1754" y2="10.8401" gradientUnits="userSpaceOnUse">
<stop stop-color="#636361"/>
<stop offset="1" stop-color="#F9F9FA"/>
</linearGradient>
</defs>
</svg>
