<svg width="108" height="26" viewBox="0 0 108 26" fill="none" xmlns="http://www.w3.org/2000/svg">
<path fill-rule="evenodd" clip-rule="evenodd" d="M0 7.59802C0 6.38429 1.29995 5.61488 2.36235 6.1998L12.1741 11.6018C13.2753 12.208 13.2753 13.792 12.1741 14.3982L2.36235 19.8002C1.29995 20.3851 0 19.6157 0 18.402V7.59802ZM1.74777 7.31838C1.53528 7.20139 1.27529 7.35527 1.27529 7.59802V18.402C1.27529 18.6447 1.53528 18.7986 1.74776 18.6816L11.5595 13.2796C11.7798 13.1584 11.7798 12.8416 11.5595 12.7204L1.74777 7.31838Z" fill="white"/>
<path d="M1.27529 7.59802C1.27529 7.35527 1.53528 7.20139 1.74777 7.31838L11.5595 12.7204C11.7798 12.8416 11.7798 13.1584 11.5595 13.2796L1.74776 18.6816C1.53528 18.7986 1.27529 18.6447 1.27529 18.402V7.59802Z" fill="white"/>
<path d="M27.952 18.5H26.008V6.44H31.138C33.658 6.44 35.512 7.934 35.512 10.526C35.512 13.118 33.658 14.612 31.138 14.612H27.952V18.5ZM31.372 8.186H27.952V12.866H31.372C32.956 12.866 33.586 12.254 33.586 10.526C33.586 8.798 32.956 8.186 31.372 8.186ZM38.7789 18.5H36.8349V6.44H38.7789V18.5ZM43.0446 18.68C41.4426 18.68 40.2006 17.852 40.2006 16.286C40.2006 14.81 41.2806 14.036 43.1886 13.766L46.3206 13.298V12.812C46.3206 11.48 45.7086 11.084 44.3046 11.084C42.8826 11.084 42.3246 11.534 42.3246 12.722V12.992H40.4526V12.812C40.4526 10.814 42.0186 9.374 44.4126 9.374C46.9146 9.374 48.1746 10.886 48.1746 13.064V18.5H46.3746V17.096H46.2846C45.7626 17.942 44.7366 18.68 43.0446 18.68ZM42.0906 16.142C42.0906 16.844 42.5406 17.132 43.6746 17.132C44.9346 17.132 46.3206 16.628 46.3206 14.828V14.666L43.4766 15.098C42.4506 15.242 42.0906 15.476 42.0906 16.142ZM51.0563 21.56C50.5703 21.56 50.0123 21.488 49.7063 21.398V19.814H50.9303C51.7043 19.814 51.9743 19.688 52.2623 19.022L52.6043 18.266L48.8063 9.554H50.9483L52.7483 13.892L53.5583 15.836H53.7023L54.4403 13.892L56.0783 9.554H58.2203L53.9903 19.562C53.3243 21.146 52.4603 21.56 51.0563 21.56ZM69.171 18.5H66.597L62.025 6.44H64.203L67.839 16.34H67.983L71.583 6.44H73.743L69.171 18.5ZM76.481 8.42H74.555L74.537 6.44H76.481V8.42ZM76.499 18.5H74.555V9.5H76.499V18.5ZM81.7782 18.68C79.2222 18.68 77.8362 16.862 77.8362 14.018C77.8362 11.192 79.2042 9.374 81.6702 9.374C83.2542 9.374 84.2082 10.13 84.6042 10.94H84.6582V6.44H86.5842V18.5H84.8022V17.024H84.7302C84.2982 18.05 83.3082 18.68 81.7782 18.68ZM79.7802 14.018C79.7802 16.232 80.4822 17.024 82.2102 17.024C83.7942 17.024 84.6582 16.322 84.6582 14.828V13.226C84.6582 11.732 83.7942 11.03 82.2102 11.03C80.5002 11.03 79.7802 11.822 79.7802 14.018ZM92.4047 18.68C89.4527 18.68 88.0667 16.808 88.0667 14.018C88.0667 11.246 89.7227 9.374 92.3867 9.374C94.7987 9.374 96.4907 10.814 96.4907 13.262C96.4907 13.73 96.4367 14.216 96.3827 14.486H89.8847C89.9567 16.124 90.5507 16.952 92.4227 16.952C93.9167 16.952 94.4927 16.448 94.4927 15.638V15.494H96.4187V15.656C96.4187 17.492 94.8167 18.68 92.4047 18.68ZM92.3507 11.012C90.6587 11.012 90.0107 11.804 89.9027 13.19H94.6367C94.7087 11.66 93.8807 11.012 92.3507 11.012ZM102.234 18.68C99.4798 18.68 97.7698 16.808 97.7698 14.018C97.7698 11.246 99.4798 9.374 102.234 9.374C104.97 9.374 106.626 11.246 106.626 14.018C106.626 16.808 104.97 18.68 102.234 18.68ZM102.234 16.952C104.106 16.952 104.754 16.034 104.754 14.018C104.754 12.02 104.106 11.102 102.234 11.102C100.344 11.102 99.6778 12.02 99.6778 14.018C99.6778 16.034 100.344 16.952 102.234 16.952Z" fill="white"/>
</svg>
