<svg width="154" height="72" viewBox="0 0 154 72" fill="none" xmlns="http://www.w3.org/2000/svg">
<rect width="154" height="72" rx="8" fill="white" fill-opacity="0.07"/>
<rect x="0.25" y="0.25" width="153.5" height="71.5" rx="7.75" stroke="#EDEDED" stroke-opacity="0.2" stroke-width="0.5"/>
<path fill-rule="evenodd" clip-rule="evenodd" d="M25.166 25.4185C25.166 23.0416 27.7143 21.5349 29.797 22.6803L49.0313 33.2592C51.19 34.4465 51.19 37.5483 49.0313 38.7356L29.797 49.3144C27.7143 50.4599 25.166 48.9531 25.166 46.5762V25.4185ZM28.5922 24.8709C28.1757 24.6418 27.666 24.9431 27.666 25.4185V46.5762C27.666 47.0516 28.1757 47.353 28.5922 47.1239L47.8265 36.545C48.2583 36.3076 48.2582 35.6872 47.8265 35.4497L28.5922 24.8709Z" fill="white"/>
<path d="M64.304 44.632H63.008V32.608H64.178V34.336H64.232C64.628 33.202 65.69 32.428 67.364 32.428C69.866 32.428 71.252 34.246 71.252 37.072C71.252 39.862 69.938 41.68 67.508 41.68C65.798 41.68 64.7 40.78 64.304 39.808V44.632ZM64.304 37.828C64.304 39.646 65.384 40.564 67.148 40.564C68.876 40.564 69.956 39.772 69.956 37.072C69.956 34.336 68.894 33.544 67.148 33.544C65.384 33.544 64.304 34.462 64.304 36.298V37.828ZM74.1302 41.5H72.8342V29.44H74.1302V41.5ZM78.5161 41.68C76.8961 41.68 75.6721 40.852 75.6721 39.358C75.6721 37.81 76.8241 37.126 78.7681 36.856L81.9001 36.424V35.776C81.9001 34.21 81.2341 33.58 79.5601 33.58C77.9401 33.58 77.1841 34.21 77.1841 35.632V35.902H75.9421V35.758C75.9421 33.904 77.3641 32.428 79.6681 32.428C82.0441 32.428 83.1241 33.958 83.1241 35.938V41.5H81.9541V39.862L81.8641 39.844C81.3421 40.87 80.2081 41.68 78.5161 41.68ZM76.9321 39.268C76.9321 40.186 77.5081 40.6 78.8761 40.6C80.4061 40.6 81.9001 39.808 81.9001 37.702V37.396L78.8761 37.828C77.4541 38.026 76.9321 38.314 76.9321 39.268ZM85.8887 44.56C85.4567 44.56 84.9887 44.488 84.7367 44.434V43.39H85.7447C86.5547 43.39 86.8247 43.228 87.1487 42.526L87.6527 41.374L83.8367 32.608H85.2407L87.3287 37.558L88.2647 39.736H88.3727L89.2547 37.558L91.2167 32.608H92.6207L88.2827 42.922C87.7067 44.272 86.8607 44.56 85.8887 44.56ZM101.501 41.5H99.8991L96.2631 32.608H97.6671L100.673 40.24H100.763L103.751 32.608H105.137L101.501 41.5ZM107.334 31.42H106.056V29.44H107.334V31.42ZM107.334 41.5H106.056V32.5H107.334V41.5ZM112.749 41.68C110.247 41.68 108.843 39.862 108.843 37.054C108.843 34.246 110.175 32.428 112.605 32.428C114.315 32.428 115.413 33.328 115.791 34.3V29.44H117.087V41.5H115.935V39.79H115.863C115.467 40.906 114.423 41.68 112.749 41.68ZM110.139 37.054C110.139 39.772 111.201 40.564 112.965 40.564C114.729 40.564 115.791 39.646 115.791 37.828V36.298C115.791 34.462 114.729 33.544 112.965 33.544C111.219 33.544 110.139 34.336 110.139 37.054ZM122.827 41.68C120.091 41.68 118.669 39.754 118.669 37.054C118.669 34.354 120.271 32.428 122.809 32.428C124.951 32.428 126.715 33.724 126.715 36.352C126.715 36.766 126.679 37.162 126.625 37.414H119.893C119.947 39.376 120.721 40.528 122.845 40.528C124.645 40.528 125.365 39.718 125.365 38.638V38.53H126.643V38.656C126.643 40.366 125.095 41.68 122.827 41.68ZM122.773 33.544C120.793 33.544 120.001 34.678 119.893 36.478H125.491C125.563 34.372 124.519 33.544 122.773 33.544ZM132.429 41.68C129.819 41.68 128.109 39.754 128.109 37.054C128.109 34.354 129.819 32.428 132.429 32.428C135.021 32.428 136.677 34.354 136.677 37.054C136.677 39.754 135.021 41.68 132.429 41.68ZM132.429 40.528C134.571 40.528 135.417 39.268 135.417 37.054C135.417 34.84 134.571 33.598 132.429 33.598C130.251 33.598 129.387 34.84 129.387 37.054C129.387 39.268 130.251 40.528 132.429 40.528Z" fill="white"/>
</svg>
