<svg width="24" height="24" viewBox="0 0 24 24" fill="none" xmlns="http://www.w3.org/2000/svg">
<path d="M19 8.26953C18.308 8.26953 17.718 8.02586 17.23 7.53853C16.742 7.0512 16.4987 6.4612 16.5 5.76853C16.5013 5.07586 16.7447 4.4862 17.23 3.99953C17.7153 3.51286 18.3053 3.26953 19 3.26953C19.6947 3.26953 20.2847 3.51286 20.77 3.99953C21.2553 4.4862 21.4987 5.0762 21.5 5.76953C21.5013 6.46286 21.258 7.05253 20.77 7.53853C20.282 8.02453 19.692 8.26786 19 8.26853M4.616 18.9995C4.15533 18.9995 3.771 18.8455 3.463 18.5375C3.155 18.2295 3.00067 17.8449 3 17.3835V6.61553C3 6.15486 3.15433 5.77053 3.463 5.46253C3.77167 5.15453 4.15567 5.0002 4.615 4.99953H13.792C13.9947 4.99953 14.1673 5.0772 14.31 5.23253C14.4527 5.38786 14.516 5.56653 14.5 5.76853C14.5 5.8112 14.502 5.85086 14.506 5.88753C14.51 5.9242 14.5157 5.96153 14.523 5.99953C14.5497 6.50753 14.655 6.98753 14.839 7.43953C15.0223 7.89086 15.267 8.29786 15.573 8.66053L12 10.9995L4.82 6.31953C4.69 6.2382 4.556 6.2232 4.418 6.27453C4.28 6.32586 4.192 6.4222 4.154 6.56353C4.10267 6.6622 4.09433 6.7612 4.129 6.86053C4.16367 6.95986 4.22833 7.0382 4.323 7.09553L11.552 11.8285C11.6933 11.9152 11.8427 11.9585 12 11.9585C12.1573 11.9585 12.3067 11.9152 12.448 11.8285L16.314 9.29553C16.674 9.60086 17.0823 9.83953 17.539 10.0115C17.995 10.1829 18.482 10.2685 19 10.2685C19.172 10.2685 19.347 10.2595 19.525 10.2415C19.703 10.2235 19.8763 10.1882 20.045 10.1355C20.2897 10.0835 20.5097 10.1229 20.705 10.2535C20.9017 10.3842 21 10.5655 21 10.7975V17.3845C21 17.8445 20.846 18.2289 20.538 18.5375C20.23 18.8462 19.8457 19.0002 19.385 18.9995H4.616Z" fill="white"/>
</svg>
