<svg width="119" height="44" viewBox="0 0 119 44" fill="none" xmlns="http://www.w3.org/2000/svg">
<path fill-rule="evenodd" clip-rule="evenodd" d="M42.55 13.0005V26.0005H45.75H48.95V21.0005C48.95 17.7005 48.95 15.9005 48.95 15.7005C49.05 15.2005 49.15 14.7005 49.45 14.3005C49.85 13.6005 50.55 13.3005 51.35 13.4005C52.45 13.5005 53.15 14.1005 53.35 15.4005C53.35 15.6005 53.35 17.6005 53.35 20.8005V25.9005H56.55H59.75V19.9005C59.75 14.8005 59.75 13.8005 59.65 13.3005C59.45 11.5005 58.85 10.1005 57.75 9.10049C56.85 8.20049 55.75 7.70049 54.45 7.50049C53.95 7.40049 52.55 7.50049 52.15 7.60049C50.95 7.90049 50.05 8.30049 49.25 9.20049L48.75 9.60049V4.80049V0.000488281H45.55H42.35V13.0005H42.55ZM110.55 0.200489C110.35 0.600489 103.85 16.3005 103.85 16.3005C103.85 16.3005 105.55 16.3005 107.65 16.3005H111.45L114.85 8.20049C116.75 3.70049 118.25 0.000488281 118.25 0.000488281C118.25 0.000488281 116.55 0.000488281 114.45 0.000488281H110.65L110.55 0.200489ZM28.55 7.60049C27.15 7.80049 26.05 8.20049 24.95 8.90049C22.75 10.3005 21.35 12.7005 20.95 15.5005C20.75 16.8005 20.85 18.4005 21.15 19.6005C21.95 22.7005 24.05 25.1005 26.75 26.0005C27.75 26.3005 28.15 26.4005 29.35 26.4005C30.25 26.4005 30.55 26.4005 30.85 26.3005C32.15 26.0005 33.05 25.5005 33.85 24.7005L34.25 24.3005V25.1005V25.9005H37.35H40.45V16.9005V7.90049H37.35H34.25V8.70049V9.50049L33.95 9.20049C33.25 8.40049 32.25 7.90049 30.95 7.60049C30.55 7.50049 30.35 7.50049 29.55 7.50049C29.05 7.60049 28.65 7.60049 28.55 7.60049ZM69.35 7.60049C67.65 7.80049 65.85 8.60049 64.55 9.60049C62.05 11.7005 60.75 15.0005 61.25 18.4005C61.75 22.2005 64.45 25.1005 68.25 26.1005C69.05 26.3005 69.85 26.4005 70.85 26.4005C72.65 26.4005 73.95 26.1005 75.35 25.4005C78.15 24.0005 79.95 21.5005 80.35 18.4005C80.45 17.6005 80.45 16.3005 80.35 15.6005C80.15 14.1005 79.55 12.6005 78.65 11.4005C78.25 10.9005 77.45 10.0005 76.95 9.60049C75.55 8.50049 73.95 7.80049 72.15 7.60049C71.45 7.50049 70.05 7.50049 69.35 7.60049ZM89.75 7.60049C88.05 7.80049 86.35 8.50049 85.05 9.60049C84.55 10.0005 83.65 10.9005 83.35 11.4005C82.45 12.6005 81.95 14.1005 81.65 15.6005C81.55 16.3005 81.55 17.7005 81.65 18.4005C82.25 22.4005 85.15 25.5005 89.15 26.3005C89.95 26.5005 90.35 26.5005 91.25 26.5005C92.95 26.5005 94.45 26.2005 95.85 25.4005C99.55 23.5005 101.55 19.3005 100.65 15.0005C99.85 11.0005 96.65 8.10049 92.55 7.60049C91.85 7.50049 90.45 7.50049 89.75 7.60049ZM0.25 8.00049C0.25 8.00049 1.95 12.1005 4.05 17.1005C6.15 22.1005 7.85 26.2005 7.85 26.2005C7.85 26.2005 7.25 27.7005 6.45 29.5005C5.65 31.3005 5.05 32.7005 5.05 32.8005C5.05 32.9005 6.55 32.8005 8.45 32.8005H11.85L16.95 20.5005C19.75 13.7005 22.05 8.20049 22.05 8.10049C22.05 8.10049 21.35 8.00049 18.65 8.10049H15.25L13.15 13.3005C12.25 16.1005 11.35 18.5005 11.35 18.5005C11.35 18.5005 10.45 16.1005 9.25 13.3005L7.25 8.10049H3.75C1.85 8.00049 0.25 8.00049 0.25 8.00049ZM31.65 13.4005C32.95 13.7005 33.95 14.7005 34.35 16.0005C34.45 16.5005 34.45 17.4005 34.35 17.9005C34.05 19.2005 33.05 20.2005 31.75 20.5005C31.25 20.6005 30.35 20.6005 29.85 20.5005C28.75 20.2005 27.75 19.4005 27.35 18.4005C26.85 17.3005 27.05 15.9005 27.65 14.9005C28.55 13.6005 30.05 13.1005 31.65 13.4005ZM71.55 13.5005C72.95 13.7005 74.05 14.8005 74.35 16.2005C74.45 16.7005 74.45 17.5005 74.35 18.0005C74.05 19.3005 73.05 20.2005 71.85 20.6005C71.45 20.7005 70.35 20.7005 69.95 20.6005C68.95 20.3005 68.15 19.6005 67.65 18.7005C67.35 18.1005 67.35 17.8005 67.35 17.1005C67.35 16.5005 67.45 16.2005 67.65 15.7005C67.95 15.1005 68.35 14.5005 68.95 14.1005C69.55 13.5005 70.55 13.3005 71.55 13.5005ZM91.85 13.5005C93.05 13.7005 94.05 14.5005 94.45 15.6005C94.65 16.1005 94.75 16.4005 94.75 17.0005C94.75 17.7005 94.65 18.0005 94.45 18.6005C94.05 19.5005 93.15 20.2005 92.15 20.5005C91.75 20.6005 90.65 20.6005 90.25 20.5005C89.05 20.2005 88.05 19.2005 87.75 17.9005C87.65 17.4005 87.65 16.5005 87.75 16.0005C88.15 14.4005 89.55 13.3005 91.15 13.3005C91.35 13.4005 91.65 13.4005 91.85 13.5005ZM105.45 17.9005C103.55 18.1005 102.15 19.5005 101.75 21.3005C101.65 21.8005 101.65 22.7005 101.75 23.2005C102.15 24.8005 103.35 25.9005 104.95 26.3005C105.15 26.3005 105.55 26.4005 105.85 26.4005C107.05 26.4005 108.05 26.0005 108.85 25.2005C109.75 24.3005 110.05 23.4005 110.05 22.2005C110.05 20.7005 109.35 19.4005 108.15 18.7005C107.35 18.0005 106.25 17.8005 105.45 17.9005ZM52.75 27.7005C51.45 28.1005 50.85 29.6005 51.55 30.7005C51.75 31.0005 52.15 31.4005 52.45 31.5005C52.75 31.6005 52.75 31.6005 53.35 31.6005C53.85 31.6005 53.95 31.6005 54.25 31.5005C54.65 31.3005 55.05 30.9005 55.25 30.5005C55.75 29.5005 55.25 28.3005 54.25 27.8005C53.95 27.6005 53.85 27.6005 53.45 27.6005C53.05 27.6005 52.95 27.6005 52.75 27.7005ZM47.35 27.8005C45.65 28.1005 44.55 29.2005 44.05 31.0005C43.95 31.3005 43.95 31.6005 43.95 32.0005V32.7005H43.25H42.55V34.2005V35.7005H43.25H43.95V39.3005V42.9005H45.85H47.75V39.3005V35.7005H49.05H50.35V34.2005V32.7005H49.05H47.75V32.4005C47.85 31.7005 48.15 31.2005 48.75 31.1005C49.15 31.0005 49.75 31.0005 50.15 31.2005C50.35 31.3005 50.45 31.3005 50.45 31.3005C50.45 31.3005 50.45 30.6005 50.45 29.7005V28.1005L50.15 28.0005C49.75 27.8005 49.25 27.8005 48.55 27.8005C48.05 27.7005 47.65 27.8005 47.35 27.8005ZM62.55 32.5005C61.75 32.7005 61.15 33.1005 60.75 33.6005L60.55 33.9005V33.3005V32.7005H58.65H56.75V37.8005V42.9005H58.65H60.55V40.1005C60.55 38.5005 60.55 37.2005 60.55 37.0005C60.65 36.6005 60.85 36.2005 61.05 36.0005C61.55 35.6005 62.45 35.7005 62.85 36.2005C63.15 36.6005 63.15 36.6005 63.15 39.8005V42.8005H65.05H66.95V39.4005C66.95 35.8005 66.95 35.4005 66.75 34.7005C66.55 34.1005 66.35 33.6005 65.85 33.2005C65.45 32.8005 65.05 32.5005 64.45 32.4005C63.95 32.4005 62.95 32.4005 62.55 32.5005ZM72.05 32.4005C71.45 32.5005 70.55 32.8005 70.05 33.2005C68.95 34.0005 68.25 35.2005 67.95 36.7005C67.85 37.3005 67.85 38.4005 67.95 39.0005C68.15 39.9005 68.45 40.8005 68.95 41.4005C69.65 42.3005 70.55 42.9005 71.65 43.1005C72.25 43.2005 73.25 43.2005 73.75 43.0005C74.35 42.8005 74.75 42.6005 75.25 42.2005L75.65 41.8005V42.3005V42.8005H77.55H79.45V37.7005V32.6005H77.55H75.65V33.1005V33.6005L75.35 33.5005C74.85 33.0005 74.15 32.6005 73.35 32.5005C73.05 32.4005 72.35 32.4005 72.05 32.4005ZM86.55 32.5005C85.85 32.6005 85.15 33.1005 84.75 33.6005L84.55 33.8005V33.2005V32.6005H82.65H80.75V37.7005V42.8005H82.65H84.55V39.9005C84.55 36.8005 84.55 36.8005 84.75 36.3005C84.95 35.9005 85.35 35.7005 85.75 35.7005C86.15 35.7005 86.35 35.8005 86.65 36.0005C87.05 36.4005 87.05 36.3005 87.05 39.7005V42.7005H88.95H90.85V39.0005C90.85 35.3005 90.85 35.3005 90.75 34.9005C90.65 34.7005 90.55 34.3005 90.45 34.0005C90.25 33.6005 90.15 33.5005 89.85 33.2005C89.45 32.8005 89.15 32.6005 88.75 32.4005C88.05 32.4005 87.25 32.3005 86.55 32.5005ZM96.45 32.5005C94.75 32.8005 93.45 33.6005 92.65 35.0005C92.45 35.4005 92.25 35.9005 92.05 36.4005C91.95 36.9005 91.95 37.0005 91.95 37.8005C91.95 38.7005 91.95 39.0005 92.25 39.7005C92.85 41.4005 94.25 42.7005 96.15 43.1005C96.45 43.2005 96.75 43.2005 97.45 43.2005C98.45 43.2005 98.85 43.1005 99.55 42.8005L99.95 42.6005V40.9005V39.2005L99.65 39.4005C99.15 39.7005 98.85 39.8005 98.25 39.8005C97.65 39.8005 97.35 39.8005 96.95 39.6005C96.55 39.4005 96.25 39.1005 96.05 38.7005C95.95 38.4005 95.95 38.4005 95.95 37.9005C95.95 37.5005 95.95 37.4005 96.05 37.1005C96.35 36.3005 97.05 35.9005 98.05 35.8005C98.75 35.8005 99.05 35.8005 100.05 36.3005C100.05 36.3005 100.05 35.5005 100.05 34.6005V32.9005L99.75 32.8005C98.65 32.4005 97.45 32.3005 96.45 32.5005ZM105.05 32.5005C102.15 33.0005 100.35 35.5005 100.55 38.4005C100.65 39.4005 100.95 40.3005 101.45 41.0005C102.15 42.1005 103.25 42.8005 104.65 43.1005C105.25 43.2005 106.85 43.2005 107.55 43.1005C108.55 42.9005 109.45 42.4005 110.15 41.7005C110.45 41.4005 110.95 40.7005 110.95 40.7005C110.95 40.7005 110.25 40.4005 109.35 40.1005L107.75 39.5005L107.55 39.7005C107.25 40.0005 107.05 40.1005 106.65 40.2005C105.55 40.5005 104.45 39.9005 104.25 38.9005V38.7005H107.75H111.25V37.8005C111.25 37.2005 111.25 36.8005 111.15 36.6005C110.95 35.4005 110.45 34.6005 109.75 33.8005C109.05 33.1005 108.25 32.7005 107.15 32.5005C106.75 32.4005 105.55 32.4005 105.05 32.5005ZM51.45 37.8005V42.9005H53.35H55.25V37.8005V32.7005H53.35H51.45V37.8005ZM106.55 35.3005C106.85 35.4005 106.95 35.5005 107.25 35.7005C107.45 35.9005 107.65 36.1005 107.65 36.4005V36.6005H105.95C104.05 36.6005 104.15 36.6005 104.35 36.2005C104.65 35.5005 105.55 35.1005 106.55 35.3005ZM74.25 35.8005C74.75 35.9005 75.35 36.4005 75.55 36.9005C76.05 38.0005 75.55 39.3005 74.35 39.7005C73.95 39.8005 73.35 39.8005 72.95 39.7005C72.35 39.5005 71.75 39.0005 71.65 38.4005C71.55 38.1005 71.55 38.0005 71.55 37.7005C71.55 37.3005 71.55 37.2005 71.75 36.9005C72.15 36.0005 73.15 35.6005 74.25 35.8005Z" fill="white"/>
</svg>
