<svg width="61" height="60" viewBox="0 0 61 60" fill="none" xmlns="http://www.w3.org/2000/svg">
<g clip-path="url(#clip0_872_26400)">
<path fill-rule="evenodd" clip-rule="evenodd" d="M0.25 60.0005H60.25V0.000488281H0.25V60.0005Z" fill="#111111"/>
<path fill-rule="evenodd" clip-rule="evenodd" d="M12.9943 2.05713V5.88208C12.6914 5.90098 12.4453 5.95786 12.1422 5.97658L11.4792 3.55291C11.2899 2.90942 11.1574 2.73878 10.3431 2.73878H8.9798V14.1949H10.7789V14.8768H4.62475V14.1949H6.40494V2.73896H5.07925C4.32163 2.73896 4.09448 2.85254 3.9053 3.55309L3.24255 5.97676C2.9398 5.95786 2.69356 5.90117 2.39062 5.88227L2.5231 2.05731L12.9943 2.05713Z" fill="white"/>
<path fill-rule="evenodd" clip-rule="evenodd" d="M25.1058 14.8769H19.5389V14.1951H20.8266V8.96869H16.9447V14.1951H18.2512V14.8769H12.9115V14.1951H14.3697V2.73896H12.8359V2.05713H18.2513V2.73896H16.9449V7.98392H20.8268V2.73896H19.5391V2.05713H24.7082V2.73896H23.4016V14.1951H25.1058V14.8769Z" fill="white"/>
<path fill-rule="evenodd" clip-rule="evenodd" d="M34.3661 10.9191L34.2335 14.8769H24.8984V14.1951H26.5267V2.73896H25.3339V2.05713H33.8172V5.84428C33.5142 5.88227 33.2676 5.88227 32.9839 5.91988L32.321 3.66667C32.1128 3.0041 31.8098 2.73896 31.1091 2.73896H29.1019V7.92704H32.3779V8.9874H29.1019C29.1019 9.19566 29.083 10.5402 29.083 11.2786C29.0641 12.4525 29.0641 13.7591 29.0641 14.1949H31.6392C32.3206 14.1949 32.7377 13.7779 33.0025 12.9259L33.5329 10.7674L34.3661 10.9191Z" fill="white"/>
<path fill-rule="evenodd" clip-rule="evenodd" d="M12.4772 28.5571L11.3032 28.6519C10.5269 28.9169 9.16362 29.22 8.406 29.22C5.28196 29.22 2.82031 27.1369 2.82031 22.8006C2.82031 19.449 4.95995 15.9653 8.48196 15.9653C10.5838 15.9653 11.7765 16.4576 12.1554 16.7037V20.1121L11.2466 20.3198C10.6783 18.1613 10.1102 16.7984 8.51958 16.7984C6.34215 16.7984 5.58472 19.4679 5.58472 22.4406C5.58472 26.9666 6.77756 28.3108 8.55738 28.3108C9.06875 28.3108 9.54215 28.1782 9.97756 28.0459V24.5239H8.67095V23.842H12.477L12.4772 28.5571Z" fill="white"/>
<path fill-rule="evenodd" clip-rule="evenodd" d="M13.1797 28.3108H14.5432V16.8547H13.2366V16.1729H18.5386V16.8549H17.1184C17.1184 26.9284 17.1184 28.1974 17.0424 28.311H18.9171C19.6557 28.311 20.0155 27.9888 20.3373 27.0231L21.0568 24.827C21.3408 24.8646 21.5678 24.8646 21.8522 24.9024L21.5678 28.9927H13.1797V28.3108Z" fill="white"/>
<path fill-rule="evenodd" clip-rule="evenodd" d="M29.804 22.6111C29.804 17.5364 28.2514 16.8544 27.2286 16.8544C25.7138 16.8544 24.6723 18.237 24.6723 22.5727C24.6723 27.3261 26.0925 28.3294 27.2286 28.3294C28.5352 28.3294 29.804 27.1742 29.804 22.6111ZM21.9453 22.7437C21.9453 19.1267 23.5552 15.9648 27.2286 15.9648C30.5422 15.9648 32.5305 18.3694 32.5305 22.4404C32.5305 26.0575 30.902 29.2197 27.2286 29.2197C24.1235 29.2197 21.9453 27.0799 21.9453 22.7437Z" fill="white"/>
<path fill-rule="evenodd" clip-rule="evenodd" d="M38.4034 22.8004H36.9076V27.8751C36.9076 28.1406 36.9076 28.3108 37.0972 28.3108H38.3847C39.2746 28.3108 40.0133 27.8185 40.0133 25.6029C40.0132 23.9932 39.6341 22.8004 38.4034 22.8004ZM36.9076 22.0057H38.4981C39.4069 22.0057 39.9183 20.9264 39.9183 19.6763C39.9183 17.6121 39.1801 16.8549 38.2332 16.8549H36.9076V22.0057ZM38.3658 28.9927H32.9688V28.3108H34.3133V16.8547H32.9688V16.1729H38.2519C40.9405 16.1729 42.3609 17.4231 42.3609 19.4868C42.3609 20.5472 41.3198 21.9108 39.8994 22.327V22.4407C41.4897 22.8006 42.6449 24.0883 42.6449 25.622C42.6449 27.6103 41.0543 28.9927 38.3658 28.9927Z" fill="white"/>
<path fill-rule="evenodd" clip-rule="evenodd" d="M52.374 25.0349L52.2415 28.9927H42.9062V28.3108H44.5345V16.8547H43.3417V16.1729H51.8244V19.9602C51.5218 19.9985 51.2754 19.9985 50.9912 20.0362L50.3286 17.7829C50.1207 17.1198 49.8173 16.8549 49.1167 16.8549H47.1097V22.0433H50.3857V23.1037H47.1097C47.1097 23.3121 47.0908 24.6562 47.0908 25.3945C47.0718 26.5684 47.0718 27.8751 47.0718 28.3108H49.6474C50.3286 28.3108 50.7451 27.894 51.0101 27.042L51.5409 24.8835L52.374 25.0349Z" fill="white"/>
<path fill-rule="evenodd" clip-rule="evenodd" d="M6.93127 32.8825L5.58705 37.5972H8.27567L6.93127 32.8825ZM5.39787 38.2792L4.73494 40.5889C4.65916 40.968 4.64044 41.2519 4.64044 41.4981C4.64044 42.3124 4.98136 42.3311 6.09824 42.4264H6.212V43.108H2.14062V42.4449H2.15971C2.9931 42.4449 3.42833 41.7629 3.69365 40.9488C3.69365 40.9488 6.49585 32.2203 6.96925 30.2886H8.73035L12.4419 42.4264H13.5399V43.108H8.27585V42.4264H9.67714L8.48429 38.2792H5.39787Z" fill="white"/>
<path fill-rule="evenodd" clip-rule="evenodd" d="M23.8375 30.9702C22.9096 30.9893 22.3986 31.1974 22.3986 32.0306V43.1078H21.3947C19.4067 39.8319 17.4751 36.5374 15.5059 33.2425V41.1759C15.5059 41.9713 15.6008 42.4071 17.1722 42.4449V43.1078H13.4419V42.4264C14.0289 42.4071 14.5971 42.2559 14.5971 41.1574V31.8985C14.2751 31.4814 13.8773 31.0653 13.3281 30.8943V30.2886H16.6799C18.2892 33.0152 19.8988 35.7044 21.527 38.4117V32.0306C21.527 31.33 21.3002 30.9702 19.9556 30.9702V30.2886H23.8375V30.9702Z" fill="white"/>
<path fill-rule="evenodd" clip-rule="evenodd" d="M27.7418 30.9702V41.8577C27.7418 42.2174 27.8745 42.426 28.177 42.426C30.7524 42.426 31.9079 40.8359 31.9079 36.6884C31.9077 32.6741 30.4495 30.9702 27.7418 30.9702ZM28.8776 43.1078H23.7273V42.4264H25.1473V30.9702H23.6328V30.2886H28.7077C32.324 30.2886 34.8046 32.8827 34.8046 36.5374C34.8046 40.1348 32.6273 43.1078 28.8776 43.1078Z" fill="white"/>
<path fill-rule="evenodd" clip-rule="evenodd" d="M11.3223 57.2235V56.5415H12.572L12.0799 46.7894C11.0003 49.6679 9.95898 52.451 8.89862 55.3485L8.48192 55.5374C7.40265 52.4705 6.24742 49.3457 5.16816 46.2782V46.1833C5.09219 48.4365 5.01641 49.8763 4.941 52.0912C4.88412 53.682 4.82724 55.3485 4.82724 55.5756C4.82724 55.973 5.07348 56.5224 6.68284 56.56V57.2231H2.19531V56.5976C3.33164 56.5411 3.76687 56.1053 3.80504 55.5756C3.9755 53.1899 4.22173 48.9672 4.33531 46.6949V46.5622C4.33531 45.2936 4.24045 45.0852 2.93403 45.0852V44.4033H7.15641C7.91384 46.6565 8.74706 48.9672 9.54247 51.22L11.9661 44.4033H15.9614V45.0852H14.5036L15.185 56.5413H16.5296V57.2233L11.3223 57.2235Z" fill="white"/>
<path fill-rule="evenodd" clip-rule="evenodd" d="M20.7748 46.9974L19.4308 51.7125H22.1194L20.7748 46.9974ZM19.2416 52.3941L18.5787 54.7042C18.5029 55.0833 18.4842 55.367 18.4842 55.613C18.4842 56.4275 18.8251 56.4463 19.942 56.5413H20.0556V57.2231H15.9844V56.56H16.0035C16.8365 56.56 17.2719 55.8782 17.5372 55.0641C17.5372 55.0641 20.3396 46.3356 20.813 44.4033H22.5741L26.2853 56.5413H27.3836V57.2231H22.1196V56.5413H23.5209L22.328 52.3941H19.2416Z" fill="white"/>
<path fill-rule="evenodd" clip-rule="evenodd" d="M31.0514 56.5416V45.0853H32.2255V44.4038H27.0938V45.0853H28.287V56.5416H27.1317V57.2236H32.2255V56.5416H31.0514Z" fill="white"/>
<path fill-rule="evenodd" clip-rule="evenodd" d="M40.7342 53.0579L40.0148 55.2541C39.6928 56.2196 39.3328 56.5418 38.5946 56.5418H36.7199C36.7959 56.4282 36.7959 55.1594 36.7959 45.0856H38.2161V44.4038H32.9141V45.0856H34.2207V56.5418H32.9141V57.2238H41.2453L41.5298 53.1334C41.2453 53.0956 41.0183 53.0956 40.7342 53.0579Z" fill="white"/>
<path fill-rule="evenodd" clip-rule="evenodd" d="M44.6218 54.6679C44.6218 54.6679 44.282 54.5644 44.2334 54.9503C44.2136 55.1108 44.2703 55.2488 44.4517 55.3917C44.4875 55.4195 44.5492 55.4398 44.5936 55.4437C45.2793 55.5 46.0829 54.302 46.5985 53.4088C46.8349 53.0004 46.9229 52.865 47.0327 52.865C47.0815 52.865 47.2732 52.8453 47.4839 53.2189C47.7662 53.7136 49.1796 55.1262 50.9804 54.7382C51.0523 54.5611 50.7343 54.4198 50.5209 54.3136C50.5209 54.3136 49.78 53.7136 50.7343 53.4317C51.6875 53.2189 52.1462 53.5721 52.9596 52.9004C52.9943 52.6897 52.5343 52.5831 52.5343 52.5831C52.5343 52.5831 51.9694 52.2308 53.6299 51.736C54.4435 51.5233 54.4435 51.3806 54.3029 51.2763C54.1611 51.1703 53.7703 51.0286 54.3365 50.6402C54.9384 50.2519 55.3257 49.722 55.2912 49.5446C55.1844 49.4037 54.9384 49.4396 54.6189 49.6165C54.2666 49.7925 53.8079 49.687 53.5607 49.2974C53.3128 48.9092 53.0659 48.9798 52.7488 49.227C52.429 49.4749 51.7939 49.827 51.5116 49.227C51.3341 48.5561 51.4055 48.7323 51.8989 47.8141C52.3938 46.8958 52.5 46.1538 52.5 46.0121C52.5 45.8721 52.4286 45.8007 51.9692 46.0121C51.58 46.1187 51.5455 44.1415 51.5114 43.8584C51.5114 43.8584 51.5114 43.3277 51.1927 43.7877C50.9461 44.105 49.9562 45.0593 49.6387 45.165C49.3218 45.2703 48.8628 44.9872 48.9319 44.5995C48.9319 44.2103 48.6844 44.3514 48.5776 44.5995C48.4727 44.8473 47.7297 47.2492 47.5547 47.3905C47.3774 47.5317 47.2354 47.8837 46.9187 47.2844C46.6007 46.6839 46.0472 45.2591 45.5281 45.965C45.3868 45.824 44.4806 44.5995 43.7395 44.5639C43.6332 44.7059 43.8101 45.0593 43.9514 45.165C44.0925 45.342 44.0925 45.8365 43.9514 46.1888C43.8099 46.5426 43.8099 47.0013 43.9861 47.4257C44.0923 47.638 43.9514 47.9912 43.3506 48.0617C42.7495 48.1327 42.8552 48.3086 43.1031 48.6264C43.3506 48.9446 44.269 49.722 44.4804 50.0044C44.6921 50.2879 44.4446 50.6402 44.0206 50.6752C43.5965 50.7106 43.2095 50.5695 43.1031 50.8169C43.0683 51.0639 43.4211 50.9576 43.5631 51.1703C43.5631 51.1703 44.3391 52.5829 45.3644 52.5123C46.3879 52.4407 46.4349 52.58 46.3173 53.0066C46.2145 53.3782 45.3888 54.578 44.6218 54.6679Z" fill="white"/>
</g>
<defs>
<clipPath id="clip0_872_26400">
<rect width="60" height="60" fill="white" transform="translate(0.25 0.000488281)"/>
</clipPath>
</defs>
</svg>
