<svg width="130" height="40" viewBox="0 0 130 40" fill="none" xmlns="http://www.w3.org/2000/svg">
<g clip-path="url(#clip0_872_26382)">
<path fill-rule="evenodd" clip-rule="evenodd" d="M10.7494 40.0005H13.7502V24.0005H10.7494V40.0005ZM21.7494 39.7605H24.4372V29.6655L35.7503 40.0005V24.2405H33.0701V34.163L21.7494 24.0005V39.7605ZM41.886 35.8855C43.3488 37.023 45.1047 37.6805 46.9871 37.6805C48.8207 37.6805 50.1069 37.0505 50.1069 35.6592C50.1069 34.4467 49.2866 33.9717 47.85 33.4405L45.5243 32.6342C43.3801 31.8742 41.7495 30.7642 41.7495 28.213C41.7495 25.4842 44.218 24.0005 47.17 24.0005C48.9785 24.0005 50.6267 24.4542 51.9142 25.258V27.9642C50.5753 26.9767 49.11 26.2967 47.2276 26.2967C45.6069 26.2967 44.3958 26.9005 44.3958 28.1592C44.3958 29.2967 45.1561 29.7517 46.4949 30.2092L49.0862 31.1167C51.5973 31.998 52.7495 33.3642 52.7495 35.6117C52.7495 38.4392 50.2572 40.0005 46.9871 40.0005C44.8379 40.0005 43.0107 39.4005 41.886 38.643V35.8855ZM59.7506 40.0005H62.7502V24.0005H59.7506V40.0005ZM76.8224 37.5792C80.204 37.5792 82.0112 35.4142 82.0112 31.9967C82.0112 28.5542 80.2027 26.3967 76.8224 26.3967H73.4784V37.5792H76.8224ZM70.7482 24.0005H76.9226C81.6756 24.0005 84.749 27.1255 84.749 31.9967C84.749 36.8717 81.6756 40.0005 76.9226 40.0005H70.7482V24.0005ZM99.7506 24.0005V26.3967H92.4903V30.2467H99.0017V32.6155H92.489V37.5792H99.7506V40.0005H89.75V24.0005H99.7506ZM110.399 31.2455H113.376C115.138 31.2455 116.131 30.2805 116.131 28.7967C116.131 27.313 115.138 26.3467 113.376 26.3467H110.399V31.2455ZM110.399 33.508V40.0005H107.75V24.0005H113.426C116.662 24.0005 118.756 25.6642 118.756 28.7967C118.756 31.4755 117.594 33.0142 115.118 33.4092L120.75 40.0005H117.737L112.284 33.5092H110.4L110.399 33.508ZM9.7011 8.23799C10.8746 7.80924 11.7889 6.52299 11.7889 4.75424C11.7889 1.80674 9.7011 0.279238 6.36087 0.279238H0.75V16.733H6.88188C10.2221 16.733 12.3099 15.098 12.3099 12.0167C12.3099 10.2742 11.214 8.74674 9.7011 8.23799ZM3.38511 7.19299V2.69174H6.33583C8.18942 2.69174 9.18009 3.36174 9.18009 4.91549C9.18009 6.46924 8.18817 7.19299 6.33583 7.19299H3.38511ZM3.38511 9.49799H6.82928C8.65783 9.49799 9.6485 10.408 9.6485 11.9092C9.6485 13.383 8.65657 14.3217 6.83053 14.3217H3.38636V9.49674L3.38511 9.49799ZM24.5524 17.0005C28.3886 17.0005 30.9723 14.6955 30.9723 10.1942V0.279238H28.2583V9.87174C28.2583 13.0342 26.9533 14.5092 24.5524 14.5092C22.1515 14.5092 20.8477 13.0342 20.8477 9.87174V0.279238H18.1337V10.1667C18.1337 14.6955 20.7425 17.0005 24.5524 17.0005ZM37.3622 15.553C38.4844 16.358 40.3117 17.0005 42.4508 17.0005C45.7134 17.0005 48.1919 15.338 48.1919 12.338C48.1919 9.95299 47.0447 8.50549 44.5386 7.56799L41.9561 6.60299C40.6248 6.12174 39.8683 5.63924 39.8683 4.43299C39.8683 3.09299 41.0681 2.45049 42.6863 2.45049C44.5649 2.45049 46.0265 3.17299 47.3578 4.21924V1.35049C46.0791 0.494238 44.4347 0.0117383 42.6337 0.0117383C39.6855 0.0117383 37.232 1.59299 37.232 4.48674C37.232 7.19299 38.8501 8.37174 40.9892 9.17549L43.3125 10.033C44.7478 10.5955 45.5568 11.1055 45.5568 12.3917C45.5568 13.8655 44.2781 14.5355 42.4508 14.5355C40.5722 14.5355 38.8238 13.838 37.3622 12.633V15.553ZM57.8895 0.279238H55.1767V16.7317H57.8895V0.279238ZM65.632 16.7117H68.2471V6.00799L79.2534 16.9667V0.254238H76.6458V10.7755L65.632 0.000488281V16.7117ZM96.2125 0.282988V2.74674H89.1664V6.70674H95.4848V9.14299H89.1664V14.2467H96.2125V16.7367H86.5062V0.282988H96.2125ZM102.531 15.5417C103.653 16.3467 105.479 16.9892 107.62 16.9892C110.881 16.9892 113.361 15.328 113.361 12.3267C113.361 9.94174 112.212 8.49549 109.707 7.55674L107.124 6.59299C105.792 6.11049 105.036 5.62799 105.036 4.42174C105.036 3.08174 106.236 2.43924 107.854 2.43924C109.732 2.43924 111.194 3.16299 112.525 4.20799V1.34049C111.247 0.482988 109.602 0.000488281 107.801 0.000488281C104.853 0.000488281 102.399 1.58174 102.399 4.47549C102.399 7.18174 104.018 8.36049 106.157 9.16424L108.48 10.0217C109.915 10.5842 110.724 11.0942 110.724 12.3805C110.724 13.8542 109.447 14.5242 107.618 14.5242C105.74 14.5242 103.991 13.828 102.531 12.6217V15.5417ZM118.92 15.5417C120.042 16.3467 121.87 16.9892 124.009 16.9892C127.271 16.9892 129.75 15.328 129.75 12.3267C129.75 9.94174 128.602 8.49549 126.097 7.55674L123.513 6.59299C122.183 6.11049 121.425 5.62799 121.425 4.42174C121.425 3.08174 122.626 2.43924 124.243 2.43924C126.122 2.43924 127.585 3.16299 128.915 4.20799V1.34049C127.637 0.482988 125.993 0.000488281 124.192 0.000488281C121.242 0.000488281 118.79 1.58174 118.79 4.47549C118.79 7.18174 120.408 8.36049 122.547 9.16424L124.871 10.0217C126.306 10.5842 127.115 11.0942 127.115 12.3805C127.115 13.8542 125.836 14.5242 124.009 14.5242C122.13 14.5242 120.382 13.828 118.92 12.6217V15.5417Z" fill="white"/>
</g>
<defs>
<clipPath id="clip0_872_26382">
<rect width="129" height="40" fill="white" transform="translate(0.75 0.000488281)"/>
</clipPath>
</defs>
</svg>
