<svg width="178" height="24" viewBox="0 0 178 24" fill="none" xmlns="http://www.w3.org/2000/svg">
<g clip-path="url(#clip0_872_26424)">
<path d="M25.7128 23.9123H42.7176V19.4564H30.8497V13.9858H40.6806V9.5299H30.8497V4.45637H42.7619V0.000488281H25.7128V23.9123ZM63.1764 15.0446L52.0171 0.000488281H44.3561L46.7474 3.04461V24.0005H51.8399V8.29461L63.3536 23.9123H68.269V0.000488281H63.1322L63.1764 15.0446ZM17.9633 11.6034C20.2217 11.2064 22.0816 9.08872 22.0816 6.13284C22.0816 2.95637 19.7789 0.000488281 15.1292 0.000488281H0.25L2.59701 2.95637V23.9123H15.6606C20.266 23.9123 22.7016 21.0446 22.7016 17.427C22.5687 14.5152 20.576 11.9564 17.9633 11.6034ZM7.68958 4.50049H14.1106C15.8377 4.50049 16.9448 5.51519 16.9448 7.01519C16.9448 8.51519 15.8377 9.5299 14.1106 9.5299H7.68958V4.50049ZM14.3321 19.5005H7.68958V13.9858H14.3321C16.2805 13.9858 17.3876 15.2211 17.3876 16.7211C17.3876 18.4417 16.2362 19.4564 14.3321 19.5005ZM143.418 15.0446H146.075V17.8681C144.702 18.9711 142.975 19.6328 141.159 19.677C136.864 19.677 133.852 16.4123 133.852 12.0446C133.852 7.67696 136.908 4.41225 141.159 4.41225C143.373 4.41225 145.455 5.55931 146.65 7.45637L150.724 5.20637C148.997 2.42696 145.942 0.000488281 141.115 0.000488281C134.34 0.000488281 128.671 4.67696 128.671 11.9564C128.671 19.2358 134.251 23.9123 141.115 23.9123C144.879 24.0005 148.466 22.3681 150.946 19.5887V10.7652H139.964L143.418 15.0446ZM120.302 15.0446L109.142 0.000488281H101.526L103.873 3.04461V24.0005H109.01V8.29461L120.523 23.9123H125.394V0.000488281H120.302V15.0446ZM167.951 0.000488281H158.075L160.422 3.04461L160.024 4.19166L152.363 23.9564H158.164L159.67 19.8975H169.988L171.493 23.9564H177.294L167.951 0.000488281ZM160.954 15.4417L164.718 5.16225L168.482 15.4417H160.954ZM93.3776 0.000488281H98.5145V24.0005H93.3776V0.000488281ZM89.3035 4.10343V0.000488281H71.236V4.45637H82.5725L71.236 19.8093V23.9123H89.525V19.4564H77.9228L89.3035 4.10343Z" fill="white"/>
</g>
<defs>
<clipPath id="clip0_872_26424">
<rect width="177" height="24" fill="white" transform="translate(0.25 0.000488281)"/>
</clipPath>
</defs>
</svg>
