<svg width="259" height="283" viewBox="0 0 259 283" fill="none" xmlns="http://www.w3.org/2000/svg">
<path d="M17.9208 30.9328V39.66H16.864V32.0407H16.8129L14.6822 33.4555V32.3816L16.864 30.9328H17.9208ZM21.4322 38.4669L21.364 38.9271C21.3157 39.2509 21.2418 39.5975 21.1424 39.9669C21.0458 40.3362 20.945 40.6842 20.8398 41.0109C20.7347 41.3376 20.6481 41.5975 20.5799 41.7907H19.8129C19.8498 41.6089 19.8981 41.3688 19.9577 41.0705C20.0174 40.7723 20.0771 40.4384 20.1367 40.0691C20.1992 39.7026 20.2504 39.3276 20.2901 38.9441L20.3413 38.4669H21.4322ZM25.8043 39.7794C25.2191 39.7794 24.7021 39.6757 24.2532 39.4683C23.8072 39.258 23.4592 38.9697 23.2092 38.6032C22.9592 38.2339 22.8356 37.8134 22.8384 37.3419C22.8356 36.9725 22.908 36.6316 23.0558 36.3191C23.2035 36.0038 23.4052 35.741 23.6609 35.5308C23.9194 35.3177 24.2077 35.1828 24.5259 35.1259V35.0748C24.1083 34.9669 23.7759 34.7325 23.5288 34.3717C23.2816 34.008 23.1594 33.5947 23.1623 33.1316C23.1594 32.6884 23.2717 32.2921 23.4989 31.9427C23.7262 31.5933 24.0387 31.3177 24.4364 31.116C24.837 30.9143 25.293 30.8134 25.8043 30.8134C26.31 30.8134 26.7617 30.9143 27.1594 31.116C27.5572 31.3177 27.8697 31.5933 28.0969 31.9427C28.3271 32.2921 28.4435 32.6884 28.4464 33.1316C28.4435 33.5947 28.3171 34.008 28.0671 34.3717C27.82 34.7325 27.4918 34.9669 27.0827 35.0748V35.1259C27.3981 35.1828 27.6822 35.3177 27.935 35.5308C28.1879 35.741 28.3896 36.0038 28.5401 36.3191C28.6907 36.6316 28.7674 36.9725 28.7702 37.3419C28.7674 37.8134 28.6396 38.2339 28.3867 38.6032C28.1367 38.9697 27.7887 39.258 27.3427 39.4683C26.8995 39.6757 26.3867 39.7794 25.8043 39.7794ZM25.8043 38.8419C26.1992 38.8419 26.5401 38.7779 26.8271 38.6501C27.114 38.5223 27.3356 38.3419 27.4918 38.1089C27.6481 37.8759 27.7276 37.6032 27.7305 37.2907C27.7276 36.9612 27.6424 36.67 27.4748 36.4171C27.3072 36.1643 27.0785 35.9654 26.7887 35.8205C26.5018 35.6757 26.1737 35.6032 25.8043 35.6032C25.4322 35.6032 25.0998 35.6757 24.8072 35.8205C24.5174 35.9654 24.2887 36.1643 24.1211 36.4171C23.9563 36.67 23.8754 36.9612 23.8782 37.2907C23.8754 37.6032 23.9506 37.8759 24.104 38.1089C24.2603 38.3419 24.4833 38.5223 24.7731 38.6501C25.0629 38.7779 25.4066 38.8419 25.8043 38.8419ZM25.8043 34.6998C26.1168 34.6998 26.3938 34.6373 26.6353 34.5123C26.8796 34.3873 27.0714 34.2126 27.2106 33.9882C27.3498 33.7637 27.4208 33.5009 27.4237 33.1998C27.4208 32.9044 27.3512 32.6472 27.2148 32.4285C27.0785 32.2069 26.8896 32.0365 26.6481 31.9171C26.4066 31.795 26.1254 31.7339 25.8043 31.7339C25.4776 31.7339 25.1921 31.795 24.9478 31.9171C24.7035 32.0365 24.5146 32.2069 24.381 32.4285C24.2475 32.6472 24.1822 32.9044 24.185 33.1998C24.1822 33.5009 24.2489 33.7637 24.3853 33.9882C24.5245 34.2126 24.7163 34.3873 24.9606 34.5123C25.2049 34.6373 25.4862 34.6998 25.8043 34.6998ZM33.25 39.7794C32.608 39.7794 32.0611 39.6046 31.6094 39.2552C31.1577 38.9029 30.8125 38.393 30.5739 37.7254C30.3352 37.0549 30.2159 36.2453 30.2159 35.2964C30.2159 34.3532 30.3352 33.5478 30.5739 32.8802C30.8153 32.2097 31.1619 31.6984 31.6136 31.3461C32.0682 30.991 32.6136 30.8134 33.25 30.8134C33.8864 30.8134 34.4304 30.991 34.8821 31.3461C35.3366 31.6984 35.6832 32.2097 35.9219 32.8802C36.1634 33.5478 36.2841 34.3532 36.2841 35.2964C36.2841 36.2453 36.1648 37.0549 35.9261 37.7254C35.6875 38.393 35.3423 38.9029 34.8906 39.2552C34.4389 39.6046 33.892 39.7794 33.25 39.7794ZM33.25 38.8419C33.8864 38.8419 34.3807 38.535 34.733 37.9214C35.0852 37.3078 35.2614 36.4328 35.2614 35.2964C35.2614 34.5407 35.1804 33.8972 35.0185 33.366C34.8594 32.8347 34.6293 32.4299 34.3281 32.1515C34.0298 31.8731 33.6705 31.7339 33.25 31.7339C32.6193 31.7339 32.1264 32.045 31.7713 32.6671C31.4162 33.2865 31.2386 34.1629 31.2386 35.2964C31.2386 36.0521 31.3182 36.6941 31.4773 37.2225C31.6364 37.7509 31.8651 38.1529 32.1634 38.4285C32.4645 38.7041 32.8267 38.8419 33.25 38.8419ZM40.75 39.7794C40.108 39.7794 39.5611 39.6046 39.1094 39.2552C38.6577 38.9029 38.3125 38.393 38.0739 37.7254C37.8352 37.0549 37.7159 36.2453 37.7159 35.2964C37.7159 34.3532 37.8352 33.5478 38.0739 32.8802C38.3153 32.2097 38.6619 31.6984 39.1136 31.3461C39.5682 30.991 40.1136 30.8134 40.75 30.8134C41.3864 30.8134 41.9304 30.991 42.3821 31.3461C42.8366 31.6984 43.1832 32.2097 43.4219 32.8802C43.6634 33.5478 43.7841 34.3532 43.7841 35.2964C43.7841 36.2453 43.6648 37.0549 43.4261 37.7254C43.1875 38.393 42.8423 38.9029 42.3906 39.2552C41.9389 39.6046 41.392 39.7794 40.75 39.7794ZM40.75 38.8419C41.3864 38.8419 41.8807 38.535 42.233 37.9214C42.5852 37.3078 42.7614 36.4328 42.7614 35.2964C42.7614 34.5407 42.6804 33.8972 42.5185 33.366C42.3594 32.8347 42.1293 32.4299 41.8281 32.1515C41.5298 31.8731 41.1705 31.7339 40.75 31.7339C40.1193 31.7339 39.6264 32.045 39.2713 32.6671C38.9162 33.2865 38.7386 34.1629 38.7386 35.2964C38.7386 36.0521 38.8182 36.6941 38.9773 37.2225C39.1364 37.7509 39.3651 38.1529 39.6634 38.4285C39.9645 38.7041 40.3267 38.8419 40.75 38.8419Z" fill="#B8C0CC"/>
<path d="M17.3466 69.2527V77.98H16.2898V70.3607H16.2386L14.108 71.7754V70.7016L16.2898 69.2527H17.3466ZM20.858 76.7868L20.7898 77.247C20.7415 77.5709 20.6676 77.9175 20.5682 78.2868C20.4716 78.6561 20.3707 79.0041 20.2656 79.3308C20.1605 79.6575 20.0739 79.9175 20.0057 80.1107H19.2386C19.2756 79.9288 19.3239 79.6888 19.3835 79.3905C19.4432 79.0922 19.5028 78.7584 19.5625 78.3891C19.625 78.0226 19.6761 77.6476 19.7159 77.2641L19.767 76.7868H20.858ZM22.4996 76.1902V75.3209L26.3349 69.2527H26.9656V70.5993H26.5394L23.6417 75.1845V75.2527H28.8065V76.1902H22.4996ZM26.6076 77.98V75.926V75.5212V69.2527H27.6133V77.98H26.6076ZM33.25 78.0993C32.608 78.0993 32.0611 77.9246 31.6094 77.5752C31.1577 77.2229 30.8125 76.7129 30.5739 76.0453C30.3352 75.3749 30.2159 74.5652 30.2159 73.6163C30.2159 72.6732 30.3352 71.8678 30.5739 71.2002C30.8153 70.5297 31.1619 70.0183 31.6136 69.6661C32.0682 69.3109 32.6136 69.1334 33.25 69.1334C33.8864 69.1334 34.4304 69.3109 34.8821 69.6661C35.3366 70.0183 35.6832 70.5297 35.9219 71.2002C36.1634 71.8678 36.2841 72.6732 36.2841 73.6163C36.2841 74.5652 36.1648 75.3749 35.9261 76.0453C35.6875 76.7129 35.3423 77.2229 34.8906 77.5752C34.4389 77.9246 33.892 78.0993 33.25 78.0993ZM33.25 77.1618C33.8864 77.1618 34.3807 76.855 34.733 76.2413C35.0852 75.6277 35.2614 74.7527 35.2614 73.6163C35.2614 72.8607 35.1804 72.2172 35.0185 71.6859C34.8594 71.1547 34.6293 70.7499 34.3281 70.4715C34.0298 70.193 33.6705 70.0538 33.25 70.0538C32.6193 70.0538 32.1264 70.3649 31.7713 70.9871C31.4162 71.6064 31.2386 72.4828 31.2386 73.6163C31.2386 74.372 31.3182 75.0141 31.4773 75.5425C31.6364 76.0709 31.8651 76.4729 32.1634 76.7484C32.4645 77.024 32.8267 77.1618 33.25 77.1618ZM40.75 78.0993C40.108 78.0993 39.5611 77.9246 39.1094 77.5752C38.6577 77.2229 38.3125 76.7129 38.0739 76.0453C37.8352 75.3749 37.7159 74.5652 37.7159 73.6163C37.7159 72.6732 37.8352 71.8678 38.0739 71.2002C38.3153 70.5297 38.6619 70.0183 39.1136 69.6661C39.5682 69.3109 40.1136 69.1334 40.75 69.1334C41.3864 69.1334 41.9304 69.3109 42.3821 69.6661C42.8366 70.0183 43.1832 70.5297 43.4219 71.2002C43.6634 71.8678 43.7841 72.6732 43.7841 73.6163C43.7841 74.5652 43.6648 75.3749 43.4261 76.0453C43.1875 76.7129 42.8423 77.2229 42.3906 77.5752C41.9389 77.9246 41.392 78.0993 40.75 78.0993ZM40.75 77.1618C41.3864 77.1618 41.8807 76.855 42.233 76.2413C42.5852 75.6277 42.7614 74.7527 42.7614 73.6163C42.7614 72.8607 42.6804 72.2172 42.5185 71.6859C42.3594 71.1547 42.1293 70.7499 41.8281 70.4715C41.5298 70.193 41.1705 70.0538 40.75 70.0538C40.1193 70.0538 39.6264 70.3649 39.2713 70.9871C38.9162 71.6064 38.7386 72.4828 38.7386 73.6163C38.7386 74.372 38.8182 75.0141 38.9773 75.5425C39.1364 76.0709 39.3651 76.4729 39.6634 76.7484C39.9645 77.024 40.3267 77.1618 40.75 77.1618Z" fill="#B8C0CC"/>
<path d="M52.5 73.48H258" stroke="#334E68"/>
<path d="M17.7802 107.573V116.3H16.7234V108.681H16.6722L14.5415 110.096V109.022L16.7234 107.573H17.7802ZM21.2915 115.107L21.2234 115.567C21.1751 115.891 21.1012 116.238 21.0018 116.607C20.9052 116.976 20.8043 117.324 20.6992 117.651C20.5941 117.978 20.5075 118.238 20.4393 118.431H19.6722C19.7092 118.249 19.7575 118.009 19.8171 117.711C19.8768 117.412 19.9364 117.078 19.9961 116.709C20.0586 116.343 20.1097 115.968 20.1495 115.584L20.2006 115.107H21.2915ZM23.1378 116.3V115.533L26.0185 112.38C26.3565 112.01 26.6349 111.689 26.8537 111.417C27.0724 111.141 27.2344 110.882 27.3395 110.641C27.4474 110.397 27.5014 110.141 27.5014 109.874C27.5014 109.567 27.4276 109.301 27.2798 109.077C27.1349 108.853 26.9361 108.679 26.6832 108.557C26.4304 108.435 26.1463 108.374 25.831 108.374C25.4957 108.374 25.2031 108.444 24.9531 108.583C24.706 108.719 24.5142 108.911 24.3778 109.158C24.2443 109.405 24.1776 109.695 24.1776 110.027H23.1719C23.1719 109.516 23.2898 109.067 23.5256 108.681C23.7614 108.294 24.0824 107.993 24.4886 107.777C24.8977 107.561 25.3565 107.453 25.8651 107.453C26.3764 107.453 26.8295 107.561 27.2244 107.777C27.6193 107.993 27.929 108.284 28.1534 108.651C28.3778 109.017 28.4901 109.425 28.4901 109.874C28.4901 110.195 28.4318 110.509 28.3153 110.816C28.2017 111.12 28.0028 111.459 27.7188 111.834C27.4375 112.206 27.0469 112.661 26.5469 113.198L24.5866 115.294V115.363H28.6435V116.3H23.1378ZM33.25 116.419C32.608 116.419 32.0611 116.245 31.6094 115.895C31.1577 115.543 30.8125 115.033 30.5739 114.365C30.3352 113.695 30.2159 112.885 30.2159 111.936C30.2159 110.993 30.3352 110.188 30.5739 109.52C30.8153 108.85 31.1619 108.338 31.6136 107.986C32.0682 107.631 32.6136 107.453 33.25 107.453C33.8864 107.453 34.4304 107.631 34.8821 107.986C35.3366 108.338 35.6832 108.85 35.9219 109.52C36.1634 110.188 36.2841 110.993 36.2841 111.936C36.2841 112.885 36.1648 113.695 35.9261 114.365C35.6875 115.033 35.3423 115.543 34.8906 115.895C34.4389 116.245 33.892 116.419 33.25 116.419ZM33.25 115.482C33.8864 115.482 34.3807 115.175 34.733 114.561C35.0852 113.948 35.2614 113.073 35.2614 111.936C35.2614 111.181 35.1804 110.537 35.0185 110.006C34.8594 109.475 34.6293 109.07 34.3281 108.792C34.0298 108.513 33.6705 108.374 33.25 108.374C32.6193 108.374 32.1264 108.685 31.7713 109.307C31.4162 109.926 31.2386 110.803 31.2386 111.936C31.2386 112.692 31.3182 113.334 31.4773 113.863C31.6364 114.391 31.8651 114.793 32.1634 115.069C32.4645 115.344 32.8267 115.482 33.25 115.482ZM40.75 116.419C40.108 116.419 39.5611 116.245 39.1094 115.895C38.6577 115.543 38.3125 115.033 38.0739 114.365C37.8352 113.695 37.7159 112.885 37.7159 111.936C37.7159 110.993 37.8352 110.188 38.0739 109.52C38.3153 108.85 38.6619 108.338 39.1136 107.986C39.5682 107.631 40.1136 107.453 40.75 107.453C41.3864 107.453 41.9304 107.631 42.3821 107.986C42.8366 108.338 43.1832 108.85 43.4219 109.52C43.6634 110.188 43.7841 110.993 43.7841 111.936C43.7841 112.885 43.6648 113.695 43.4261 114.365C43.1875 115.033 42.8423 115.543 42.3906 115.895C41.9389 116.245 41.392 116.419 40.75 116.419ZM40.75 115.482C41.3864 115.482 41.8807 115.175 42.233 114.561C42.5852 113.948 42.7614 113.073 42.7614 111.936C42.7614 111.181 42.6804 110.537 42.5185 110.006C42.3594 109.475 42.1293 109.07 41.8281 108.792C41.5298 108.513 41.1705 108.374 40.75 108.374C40.1193 108.374 39.6264 108.685 39.2713 109.307C38.9162 109.926 38.7386 110.803 38.7386 111.936C38.7386 112.692 38.8182 113.334 38.9773 113.863C39.1364 114.391 39.3651 114.793 39.6634 115.069C39.9645 115.344 40.3267 115.482 40.75 115.482Z" fill="#B8C0CC"/>
<path d="M52.5 111.8H258" stroke="#334E68"/>
<path d="M25.8043 154.739C25.2191 154.739 24.7021 154.636 24.2532 154.428C23.8072 154.218 23.4592 153.93 23.2092 153.563C22.9592 153.194 22.8356 152.773 22.8384 152.302C22.8356 151.932 22.908 151.592 23.0558 151.279C23.2035 150.964 23.4052 150.701 23.6609 150.491C23.9194 150.278 24.2077 150.143 24.5259 150.086V150.035C24.1083 149.927 23.7759 149.692 23.5288 149.332C23.2816 148.968 23.1594 148.555 23.1623 148.092C23.1594 147.648 23.2717 147.252 23.4989 146.903C23.7262 146.553 24.0387 146.278 24.4364 146.076C24.837 145.874 25.293 145.773 25.8043 145.773C26.31 145.773 26.7617 145.874 27.1594 146.076C27.5572 146.278 27.8697 146.553 28.0969 146.903C28.3271 147.252 28.4435 147.648 28.4464 148.092C28.4435 148.555 28.3171 148.968 28.0671 149.332C27.82 149.692 27.4918 149.927 27.0827 150.035V150.086C27.3981 150.143 27.6822 150.278 27.935 150.491C28.1879 150.701 28.3896 150.964 28.5401 151.279C28.6907 151.592 28.7674 151.932 28.7702 152.302C28.7674 152.773 28.6396 153.194 28.3867 153.563C28.1367 153.93 27.7887 154.218 27.3427 154.428C26.8995 154.636 26.3867 154.739 25.8043 154.739ZM25.8043 153.802C26.1992 153.802 26.5401 153.738 26.8271 153.61C27.114 153.482 27.3356 153.302 27.4918 153.069C27.6481 152.836 27.7276 152.563 27.7305 152.251C27.7276 151.921 27.6424 151.63 27.4748 151.377C27.3072 151.124 27.0785 150.925 26.7887 150.781C26.5018 150.636 26.1737 150.563 25.8043 150.563C25.4322 150.563 25.0998 150.636 24.8072 150.781C24.5174 150.925 24.2887 151.124 24.1211 151.377C23.9563 151.63 23.8754 151.921 23.8782 152.251C23.8754 152.563 23.9506 152.836 24.104 153.069C24.2603 153.302 24.4833 153.482 24.7731 153.61C25.0629 153.738 25.4066 153.802 25.8043 153.802ZM25.8043 149.66C26.1168 149.66 26.3938 149.597 26.6353 149.472C26.8796 149.347 27.0714 149.173 27.2106 148.948C27.3498 148.724 27.4208 148.461 27.4237 148.16C27.4208 147.864 27.3512 147.607 27.2148 147.388C27.0785 147.167 26.8896 146.996 26.6481 146.877C26.4066 146.755 26.1254 146.694 25.8043 146.694C25.4776 146.694 25.1921 146.755 24.9478 146.877C24.7035 146.996 24.5146 147.167 24.381 147.388C24.2475 147.607 24.1822 147.864 24.185 148.16C24.1822 148.461 24.2489 148.724 24.3853 148.948C24.5245 149.173 24.7163 149.347 24.9606 149.472C25.2049 149.597 25.4862 149.66 25.8043 149.66ZM33.25 154.739C32.608 154.739 32.0611 154.565 31.6094 154.215C31.1577 153.863 30.8125 153.353 30.5739 152.685C30.3352 152.015 30.2159 151.205 30.2159 150.256C30.2159 149.313 30.3352 148.508 30.5739 147.84C30.8153 147.17 31.1619 146.658 31.6136 146.306C32.0682 145.951 32.6136 145.773 33.25 145.773C33.8864 145.773 34.4304 145.951 34.8821 146.306C35.3366 146.658 35.6832 147.17 35.9219 147.84C36.1634 148.508 36.2841 149.313 36.2841 150.256C36.2841 151.205 36.1648 152.015 35.9261 152.685C35.6875 153.353 35.3423 153.863 34.8906 154.215C34.4389 154.565 33.892 154.739 33.25 154.739ZM33.25 153.802C33.8864 153.802 34.3807 153.495 34.733 152.881C35.0852 152.268 35.2614 151.393 35.2614 150.256C35.2614 149.501 35.1804 148.857 35.0185 148.326C34.8594 147.795 34.6293 147.39 34.3281 147.111C34.0298 146.833 33.6705 146.694 33.25 146.694C32.6193 146.694 32.1264 147.005 31.7713 147.627C31.4162 148.246 31.2386 149.123 31.2386 150.256C31.2386 151.012 31.3182 151.654 31.4773 152.182C31.6364 152.711 31.8651 153.113 32.1634 153.388C32.4645 153.664 32.8267 153.802 33.25 153.802ZM40.75 154.739C40.108 154.739 39.5611 154.565 39.1094 154.215C38.6577 153.863 38.3125 153.353 38.0739 152.685C37.8352 152.015 37.7159 151.205 37.7159 150.256C37.7159 149.313 37.8352 148.508 38.0739 147.84C38.3153 147.17 38.6619 146.658 39.1136 146.306C39.5682 145.951 40.1136 145.773 40.75 145.773C41.3864 145.773 41.9304 145.951 42.3821 146.306C42.8366 146.658 43.1832 147.17 43.4219 147.84C43.6634 148.508 43.7841 149.313 43.7841 150.256C43.7841 151.205 43.6648 152.015 43.4261 152.685C43.1875 153.353 42.8423 153.863 42.3906 154.215C41.9389 154.565 41.392 154.739 40.75 154.739ZM40.75 153.802C41.3864 153.802 41.8807 153.495 42.233 152.881C42.5852 152.268 42.7614 151.393 42.7614 150.256C42.7614 149.501 42.6804 148.857 42.5185 148.326C42.3594 147.795 42.1293 147.39 41.8281 147.111C41.5298 146.833 41.1705 146.694 40.75 146.694C40.1193 146.694 39.6264 147.005 39.2713 147.627C38.9162 148.246 38.7386 149.123 38.7386 150.256C38.7386 151.012 38.8182 151.654 38.9773 152.182C39.1364 152.711 39.3651 153.113 39.6634 153.388C39.9645 153.664 40.3267 153.802 40.75 153.802Z" fill="#B8C0CC"/>
<path d="M52.5 150.12H258" stroke="#334E68"/>
<path d="M22.4996 191.15V190.281L26.3349 184.213H26.9656V185.559H26.5394L23.6417 190.145V190.213H28.8065V191.15H22.4996ZM26.6076 192.94V190.886V190.481V184.213H27.6133V192.94H26.6076ZM33.25 193.059C32.608 193.059 32.0611 192.885 31.6094 192.535C31.1577 192.183 30.8125 191.673 30.5739 191.005C30.3352 190.335 30.2159 189.525 30.2159 188.576C30.2159 187.633 30.3352 186.828 30.5739 186.16C30.8153 185.49 31.1619 184.978 31.6136 184.626C32.0682 184.271 32.6136 184.093 33.25 184.093C33.8864 184.093 34.4304 184.271 34.8821 184.626C35.3366 184.978 35.6832 185.49 35.9219 186.16C36.1634 186.828 36.2841 187.633 36.2841 188.576C36.2841 189.525 36.1648 190.335 35.9261 191.005C35.6875 191.673 35.3423 192.183 34.8906 192.535C34.4389 192.885 33.892 193.059 33.25 193.059ZM33.25 192.122C33.8864 192.122 34.3807 191.815 34.733 191.201C35.0852 190.588 35.2614 189.713 35.2614 188.576C35.2614 187.821 35.1804 187.177 35.0185 186.646C34.8594 186.115 34.6293 185.71 34.3281 185.432C34.0298 185.153 33.6705 185.014 33.25 185.014C32.6193 185.014 32.1264 185.325 31.7713 185.947C31.4162 186.566 31.2386 187.443 31.2386 188.576C31.2386 189.332 31.3182 189.974 31.4773 190.503C31.6364 191.031 31.8651 191.433 32.1634 191.709C32.4645 191.984 32.8267 192.122 33.25 192.122ZM40.75 193.059C40.108 193.059 39.5611 192.885 39.1094 192.535C38.6577 192.183 38.3125 191.673 38.0739 191.005C37.8352 190.335 37.7159 189.525 37.7159 188.576C37.7159 187.633 37.8352 186.828 38.0739 186.16C38.3153 185.49 38.6619 184.978 39.1136 184.626C39.5682 184.271 40.1136 184.093 40.75 184.093C41.3864 184.093 41.9304 184.271 42.3821 184.626C42.8366 184.978 43.1832 185.49 43.4219 186.16C43.6634 186.828 43.7841 187.633 43.7841 188.576C43.7841 189.525 43.6648 190.335 43.4261 191.005C43.1875 191.673 42.8423 192.183 42.3906 192.535C41.9389 192.885 41.392 193.059 40.75 193.059ZM40.75 192.122C41.3864 192.122 41.8807 191.815 42.233 191.201C42.5852 190.588 42.7614 189.713 42.7614 188.576C42.7614 187.821 42.6804 187.177 42.5185 186.646C42.3594 186.115 42.1293 185.71 41.8281 185.432C41.5298 185.153 41.1705 185.014 40.75 185.014C40.1193 185.014 39.6264 185.325 39.2713 185.947C38.9162 186.566 38.7386 187.443 38.7386 188.576C38.7386 189.332 38.8182 189.974 38.9773 190.503C39.1364 191.031 39.3651 191.433 39.6634 191.709C39.9645 191.984 40.3267 192.122 40.75 192.122Z" fill="#B8C0CC"/>
<path d="M52.5 188.44H258" stroke="#334E68"/>
<path d="M40.75 229.919C40.108 229.919 39.5611 229.745 39.1094 229.395C38.6577 229.043 38.3125 228.533 38.0739 227.865C37.8352 227.195 37.7159 226.385 37.7159 225.436C37.7159 224.493 37.8352 223.688 38.0739 223.02C38.3153 222.35 38.6619 221.838 39.1136 221.486C39.5682 221.131 40.1136 220.953 40.75 220.953C41.3864 220.953 41.9304 221.131 42.3821 221.486C42.8366 221.838 43.1832 222.35 43.4219 223.02C43.6634 223.688 43.7841 224.493 43.7841 225.436C43.7841 226.385 43.6648 227.195 43.4261 227.865C43.1875 228.533 42.8423 229.043 42.3906 229.395C41.9389 229.745 41.392 229.919 40.75 229.919ZM40.75 228.982C41.3864 228.982 41.8807 228.675 42.233 228.061C42.5852 227.448 42.7614 226.573 42.7614 225.436C42.7614 224.681 42.6804 224.037 42.5185 223.506C42.3594 222.975 42.1293 222.57 41.8281 222.291C41.5298 222.013 41.1705 221.874 40.75 221.874C40.1193 221.874 39.6264 222.185 39.2713 222.807C38.9162 223.426 38.7386 224.303 38.7386 225.436C38.7386 226.192 38.8182 226.834 38.9773 227.362C39.1364 227.891 39.3651 228.293 39.6634 228.568C39.9645 228.844 40.3267 228.982 40.75 228.982Z" fill="#B8C0CC"/>
<rect x="53" y="31.5" width="205" height="195" stroke="#334E68"/>
<path d="M86.4299 239V230.273H89.481C90.089 230.273 90.5904 230.378 90.9853 230.588C91.3801 230.795 91.6742 231.075 91.8674 231.428C92.0605 231.777 92.1571 232.165 92.1571 232.591C92.1571 232.966 92.0904 233.276 91.9569 233.52C91.8262 233.764 91.6529 233.957 91.437 234.099C91.2239 234.241 90.9924 234.347 90.7424 234.415V234.5C91.0094 234.517 91.2779 234.611 91.5478 234.781C91.8176 234.952 92.0435 235.196 92.2253 235.514C92.4071 235.832 92.498 236.222 92.498 236.682C92.498 237.119 92.3986 237.513 92.1998 237.862C92.0009 238.212 91.687 238.489 91.258 238.693C90.829 238.898 90.2708 239 89.5833 239H86.4299ZM87.4867 238.062H89.5833C90.2736 238.062 90.7637 237.929 91.0534 237.662C91.3461 237.392 91.4924 237.065 91.4924 236.682C91.4924 236.386 91.4171 236.114 91.2665 235.864C91.1159 235.611 90.9015 235.409 90.623 235.259C90.3446 235.105 90.0151 235.028 89.6344 235.028H87.4867V238.062ZM87.4867 234.108H89.4469C89.7651 234.108 90.052 234.045 90.3077 233.92C90.5662 233.795 90.7708 233.619 90.9213 233.392C91.0748 233.165 91.1515 232.898 91.1515 232.591C91.1515 232.207 91.0179 231.882 90.7509 231.615C90.4838 231.345 90.0605 231.21 89.481 231.21H87.4867V234.108ZM96.8425 239.136C96.2118 239.136 95.6678 238.997 95.2104 238.719C94.7559 238.438 94.405 238.045 94.1578 237.543C93.9135 237.037 93.7914 236.449 93.7914 235.778C93.7914 235.108 93.9135 234.517 94.1578 234.006C94.405 233.491 94.7488 233.091 95.1891 232.804C95.6323 232.514 96.1493 232.369 96.7402 232.369C97.0811 232.369 97.4178 232.426 97.7502 232.54C98.0826 232.653 98.3851 232.838 98.6578 233.094C98.9306 233.347 99.1479 233.682 99.3098 234.099C99.4718 234.517 99.5527 235.031 99.5527 235.642V236.068H94.5073V235.199H98.53C98.53 234.83 98.4561 234.5 98.3084 234.21C98.1635 233.92 97.9561 233.692 97.6863 233.524C97.4192 233.357 97.1039 233.273 96.7402 233.273C96.3397 233.273 95.9931 233.372 95.7005 233.571C95.4107 233.767 95.1877 234.023 95.0314 234.338C94.8752 234.653 94.7971 234.991 94.7971 235.352V235.932C94.7971 236.426 94.8823 236.845 95.0527 237.189C95.226 237.53 95.4661 237.79 95.7729 237.969C96.0797 238.145 96.4363 238.233 96.8425 238.233C97.1067 238.233 97.3453 238.196 97.5584 238.122C97.7743 238.045 97.9604 237.932 98.1167 237.781C98.2729 237.628 98.3936 237.437 98.4789 237.21L99.4505 237.483C99.3482 237.812 99.1763 238.102 98.9348 238.352C98.6934 238.599 98.3951 238.793 98.04 238.932C97.6848 239.068 97.2857 239.136 96.8425 239.136ZM103.997 232.455V233.307H100.469V232.455H103.997ZM101.526 239V231.551C101.526 231.176 101.614 230.864 101.79 230.614C101.966 230.364 102.195 230.176 102.476 230.051C102.757 229.926 103.054 229.864 103.367 229.864C103.614 229.864 103.816 229.884 103.972 229.923C104.128 229.963 104.244 230 104.321 230.034L104.031 230.903C103.98 230.886 103.909 230.865 103.818 230.839C103.73 230.814 103.614 230.801 103.469 230.801C103.137 230.801 102.896 230.885 102.749 231.053C102.604 231.22 102.531 231.466 102.531 231.79V239H101.526ZM107.796 239.136C107.205 239.136 106.687 238.996 106.241 238.714C105.798 238.433 105.451 238.04 105.201 237.534C104.954 237.028 104.83 236.437 104.83 235.761C104.83 235.08 104.954 234.484 105.201 233.976C105.451 233.467 105.798 233.072 106.241 232.791C106.687 232.51 107.205 232.369 107.796 232.369C108.387 232.369 108.904 232.51 109.347 232.791C109.794 233.072 110.14 233.467 110.387 233.976C110.637 234.484 110.762 235.08 110.762 235.761C110.762 236.437 110.637 237.028 110.387 237.534C110.14 238.04 109.794 238.433 109.347 238.714C108.904 238.996 108.387 239.136 107.796 239.136ZM107.796 238.233C108.245 238.233 108.615 238.118 108.904 237.888C109.194 237.658 109.409 237.355 109.548 236.98C109.687 236.605 109.757 236.199 109.757 235.761C109.757 235.324 109.687 234.916 109.548 234.538C109.409 234.161 109.194 233.855 108.904 233.622C108.615 233.389 108.245 233.273 107.796 233.273C107.347 233.273 106.978 233.389 106.688 233.622C106.399 233.855 106.184 234.161 106.045 234.538C105.906 234.916 105.836 235.324 105.836 235.761C105.836 236.199 105.906 236.605 106.045 236.98C106.184 237.355 106.399 237.658 106.688 237.888C106.978 238.118 107.347 238.233 107.796 238.233ZM112.297 239V232.455H113.269V233.443H113.337C113.456 233.119 113.672 232.857 113.985 232.655C114.297 232.453 114.65 232.352 115.042 232.352C115.116 232.352 115.208 232.354 115.319 232.357C115.43 232.359 115.513 232.364 115.57 232.369V233.392C115.536 233.384 115.458 233.371 115.336 233.354C115.216 233.334 115.09 233.324 114.956 233.324C114.638 233.324 114.354 233.391 114.104 233.524C113.857 233.655 113.661 233.837 113.516 234.07C113.374 234.3 113.303 234.562 113.303 234.858V239H112.297ZM119.307 239.136C118.677 239.136 118.133 238.997 117.675 238.719C117.221 238.438 116.87 238.045 116.623 237.543C116.378 237.037 116.256 236.449 116.256 235.778C116.256 235.108 116.378 234.517 116.623 234.006C116.87 233.491 117.214 233.091 117.654 232.804C118.097 232.514 118.614 232.369 119.205 232.369C119.546 232.369 119.883 232.426 120.215 232.54C120.547 232.653 120.85 232.838 121.123 233.094C121.395 233.347 121.613 233.682 121.775 234.099C121.937 234.517 122.018 235.031 122.018 235.642V236.068H116.972V235.199H120.995C120.995 234.83 120.921 234.5 120.773 234.21C120.628 233.92 120.421 233.692 120.151 233.524C119.884 233.357 119.569 233.273 119.205 233.273C118.805 233.273 118.458 233.372 118.165 233.571C117.876 233.767 117.653 234.023 117.496 234.338C117.34 234.653 117.262 234.991 117.262 235.352V235.932C117.262 236.426 117.347 236.845 117.518 237.189C117.691 237.53 117.931 237.79 118.238 237.969C118.545 238.145 118.901 238.233 119.307 238.233C119.572 238.233 119.81 238.196 120.023 238.122C120.239 238.045 120.425 237.932 120.581 237.781C120.738 237.628 120.858 237.437 120.944 237.21L121.915 237.483C121.813 237.812 121.641 238.102 121.4 238.352C121.158 238.599 120.86 238.793 120.505 238.932C120.15 239.068 119.751 239.136 119.307 239.136Z" fill="#B8C0CC"/>
<path d="M194.329 239H193.221L196.425 230.273H197.516L200.721 239H199.613L197.005 231.653H196.937L194.329 239ZM194.738 235.591H199.204V236.528H194.738V235.591ZM204.859 232.455V233.307H201.33V232.455H204.859ZM202.387 239V231.551C202.387 231.176 202.475 230.864 202.651 230.614C202.827 230.364 203.056 230.176 203.337 230.051C203.619 229.926 203.915 229.864 204.228 229.864C204.475 229.864 204.677 229.884 204.833 229.923C204.989 229.963 205.106 230 205.183 230.034L204.893 230.903C204.842 230.886 204.771 230.865 204.68 230.839C204.592 230.814 204.475 230.801 204.33 230.801C203.998 230.801 203.758 230.885 203.61 231.053C203.465 231.22 203.393 231.466 203.393 231.79V239H202.387ZM209.115 232.455V233.307H205.723V232.455H209.115ZM206.711 230.886H207.717V237.125C207.717 237.409 207.758 237.622 207.841 237.764C207.926 237.903 208.034 237.997 208.164 238.045C208.298 238.091 208.439 238.114 208.586 238.114C208.697 238.114 208.788 238.108 208.859 238.097C208.93 238.082 208.987 238.071 209.029 238.062L209.234 238.966C209.166 238.991 209.071 239.017 208.949 239.043C208.826 239.071 208.672 239.085 208.484 239.085C208.2 239.085 207.922 239.024 207.649 238.902C207.379 238.78 207.154 238.594 206.975 238.344C206.799 238.094 206.711 237.778 206.711 237.398V230.886ZM213.301 239.136C212.671 239.136 212.127 238.997 211.669 238.719C211.215 238.438 210.864 238.045 210.617 237.543C210.373 237.037 210.25 236.449 210.25 235.778C210.25 235.108 210.373 234.517 210.617 234.006C210.864 233.491 211.208 233.091 211.648 232.804C212.091 232.514 212.608 232.369 213.199 232.369C213.54 232.369 213.877 232.426 214.209 232.54C214.542 232.653 214.844 232.838 215.117 233.094C215.39 233.347 215.607 233.682 215.769 234.099C215.931 234.517 216.012 235.031 216.012 235.642V236.068H210.966V235.199H214.989C214.989 234.83 214.915 234.5 214.767 234.21C214.623 233.92 214.415 233.692 214.145 233.524C213.878 233.357 213.563 233.273 213.199 233.273C212.799 233.273 212.452 233.372 212.159 233.571C211.87 233.767 211.647 234.023 211.49 234.338C211.334 234.653 211.256 234.991 211.256 235.352V235.932C211.256 236.426 211.341 236.845 211.512 237.189C211.685 237.53 211.925 237.79 212.232 237.969C212.539 238.145 212.895 238.233 213.301 238.233C213.566 238.233 213.804 238.196 214.017 238.122C214.233 238.045 214.419 237.932 214.576 237.781C214.732 237.628 214.853 237.437 214.938 237.21L215.909 237.483C215.807 237.812 215.635 238.102 215.394 238.352C215.152 238.599 214.854 238.793 214.499 238.932C214.144 239.068 213.745 239.136 213.301 239.136ZM217.542 239V232.455H218.513V233.443H218.581C218.701 233.119 218.917 232.857 219.229 232.655C219.542 232.453 219.894 232.352 220.286 232.352C220.36 232.352 220.452 232.354 220.563 232.357C220.674 232.359 220.757 232.364 220.814 232.369V233.392C220.78 233.384 220.702 233.371 220.58 233.354C220.461 233.334 220.334 233.324 220.201 233.324C219.882 233.324 219.598 233.391 219.348 233.524C219.101 233.655 218.905 233.837 218.76 234.07C218.618 234.3 218.547 234.562 218.547 234.858V239H217.542Z" fill="#B8C0CC"/>
<rect x="52.5" y="169" width="102" height="58" rx="1.5" fill="#475569"/>
<rect x="155.5" y="31" width="103" height="196" rx="1.5" fill="#4006DE" fill-opacity="0.8"/>
<path d="M0.901999 158.62L9.5 158.62L9.5 159.784L5.588 159.784L5.588 164.422L9.5 164.422L9.5 165.586L0.901999 165.586L0.901999 164.422L4.736 164.422L4.736 159.784L0.901999 159.784L0.901999 158.62ZM3.326 153.799C3.326 153.355 3.4 152.955 3.548 152.599C3.696 152.243 3.906 151.939 4.178 151.687C4.45 151.435 4.78 151.243 5.168 151.111C5.552 150.975 5.982 150.907 6.458 150.907C6.938 150.907 7.37 150.975 7.754 151.111C8.138 151.243 8.466 151.435 8.738 151.687C9.01 151.939 9.22 152.243 9.368 152.599C9.512 152.955 9.584 153.355 9.584 153.799C9.584 154.247 9.512 154.651 9.368 155.011C9.22 155.367 9.01 155.671 8.738 155.923C8.466 156.175 8.138 156.369 7.754 156.505C7.37 156.637 6.938 156.703 6.458 156.703C5.982 156.703 5.552 156.637 5.168 156.505C4.78 156.369 4.45 156.175 4.178 155.923C3.906 155.671 3.696 155.367 3.548 155.011C3.4 154.651 3.326 154.247 3.326 153.799ZM8.75 153.799C8.75 153.199 8.55 152.751 8.15 152.455C7.746 152.159 7.184 152.011 6.464 152.011C5.74 152.011 5.176 152.159 4.772 152.455C4.368 152.751 4.166 153.199 4.166 153.799C4.166 154.103 4.218 154.369 4.322 154.597C4.426 154.821 4.576 155.009 4.772 155.161C4.968 155.309 5.21 155.421 5.498 155.497C5.782 155.569 6.104 155.605 6.464 155.605C7.184 155.605 7.746 155.457 8.15 155.161C8.55 154.861 8.75 154.407 8.75 153.799ZM3.422 144.054L9.5 144.054L9.5 144.69C9.5 144.842 9.426 144.938 9.278 144.978L8.624 145.062C8.916 145.326 9.152 145.622 9.332 145.95C9.508 146.278 9.596 146.654 9.596 147.078C9.596 147.41 9.542 147.704 9.434 147.96C9.322 148.212 9.166 148.424 8.966 148.596C8.766 148.768 8.524 148.898 8.24 148.986C7.956 149.07 7.642 149.112 7.298 149.112L3.422 149.112L3.422 148.044L7.298 148.044C7.758 148.044 8.114 147.94 8.366 147.732C8.618 147.52 8.744 147.198 8.744 146.766C8.744 146.45 8.67 146.156 8.522 145.884C8.37 145.608 8.162 145.354 7.898 145.122L3.422 145.122L3.422 144.054ZM4.64 140.847C4.224 140.655 3.9 140.419 3.668 140.139C3.432 139.859 3.314 139.517 3.314 139.113C3.314 138.985 3.328 138.863 3.356 138.747C3.384 138.627 3.428 138.521 3.488 138.429L4.286 138.507C4.386 138.531 4.436 138.591 4.436 138.687C4.436 138.743 4.424 138.825 4.4 138.933C4.376 139.041 4.364 139.163 4.364 139.299C4.364 139.491 4.392 139.663 4.448 139.815C4.504 139.963 4.588 140.097 4.7 140.217C4.808 140.333 4.944 140.439 5.108 140.535C5.268 140.627 5.452 140.711 5.66 140.787L9.5 140.787L9.5 141.861L3.422 141.861L3.422 141.249C3.422 141.133 3.444 141.053 3.488 141.009C3.532 140.965 3.608 140.935 3.716 140.919L4.64 140.847ZM4.424 133.485C4.512 133.533 4.556 133.607 4.556 133.707C4.556 133.767 4.534 133.835 4.49 133.911C4.446 133.987 4.398 134.081 4.346 134.193C4.29 134.301 4.24 134.431 4.196 134.583C4.148 134.735 4.124 134.915 4.124 135.123C4.124 135.303 4.148 135.465 4.196 135.609C4.24 135.753 4.302 135.877 4.382 135.981C4.462 136.081 4.556 136.159 4.664 136.215C4.768 136.267 4.882 136.293 5.006 136.293C5.162 136.293 5.292 136.249 5.396 136.161C5.5 136.069 5.59 135.949 5.666 135.801C5.742 135.653 5.81 135.485 5.87 135.297C5.926 135.109 5.988 134.917 6.056 134.721C6.12 134.521 6.192 134.327 6.272 134.139C6.352 133.951 6.452 133.783 6.572 133.635C6.692 133.487 6.84 133.369 7.016 133.281C7.188 133.189 7.396 133.143 7.64 133.143C7.92 133.143 8.18 133.193 8.42 133.293C8.656 133.393 8.862 133.541 9.038 133.737C9.21 133.933 9.346 134.173 9.446 134.457C9.546 134.741 9.596 135.069 9.596 135.441C9.596 135.865 9.528 136.249 9.392 136.593C9.252 136.937 9.074 137.229 8.858 137.469L8.45 137.217C8.398 137.185 8.358 137.147 8.33 137.103C8.302 137.059 8.288 137.003 8.288 136.935C8.288 136.863 8.316 136.787 8.372 136.707C8.428 136.627 8.49 136.531 8.558 136.419C8.626 136.303 8.688 136.163 8.744 135.999C8.8 135.835 8.828 135.631 8.828 135.387C8.828 135.179 8.802 134.997 8.75 134.841C8.694 134.685 8.62 134.555 8.528 134.451C8.436 134.347 8.33 134.271 8.21 134.223C8.09 134.171 7.962 134.145 7.826 134.145C7.658 134.145 7.52 134.191 7.412 134.283C7.3 134.371 7.206 134.489 7.13 134.637C7.05 134.785 6.982 134.955 6.926 135.147C6.866 135.335 6.804 135.529 6.74 135.729C6.676 135.925 6.604 136.119 6.524 136.311C6.44 136.499 6.336 136.667 6.212 136.815C6.088 136.963 5.936 137.083 5.756 137.175C5.572 137.263 5.35 137.307 5.09 137.307C4.858 137.307 4.636 137.259 4.424 137.163C4.208 137.067 4.02 136.927 3.86 136.743C3.696 136.559 3.566 136.333 3.47 136.065C3.374 135.797 3.326 135.491 3.326 135.147C3.326 134.747 3.39 134.389 3.518 134.073C3.642 133.753 3.814 133.477 4.034 133.245L4.424 133.485ZM9.626 130.746C9.766 130.798 9.87 130.88 9.938 130.992C10.006 131.1 10.04 131.212 10.04 131.328L10.04 131.778L1.058 128.172C0.929998 128.124 0.831998 128.052 0.763998 127.956C0.695998 127.856 0.661998 127.742 0.661998 127.614L0.661998 127.158L9.626 130.746ZM9.5 125.748L3.422 125.748L3.422 125.106C3.422 124.954 3.496 124.86 3.644 124.824L4.268 124.746C3.992 124.522 3.766 124.27 3.59 123.99C3.414 123.71 3.326 123.386 3.326 123.018C3.326 122.61 3.44 122.28 3.668 122.028C3.896 121.772 4.204 121.588 4.592 121.476C4.372 121.388 4.182 121.276 4.022 121.14C3.862 121 3.73 120.844 3.626 120.672C3.522 120.5 3.446 120.318 3.398 120.126C3.35 119.93 3.326 119.732 3.326 119.532C3.326 119.212 3.378 118.928 3.482 118.68C3.582 118.428 3.73 118.216 3.926 118.044C4.122 117.868 4.364 117.734 4.652 117.642C4.936 117.55 5.262 117.504 5.63 117.504L9.5 117.504L9.5 118.578L5.63 118.578C5.154 118.578 4.794 118.682 4.55 118.89C4.302 119.098 4.178 119.398 4.178 119.79C4.178 119.966 4.21 120.134 4.274 120.294C4.334 120.45 4.424 120.588 4.544 120.708C4.664 120.828 4.816 120.924 5 120.996C5.18 121.064 5.39 121.098 5.63 121.098L9.5 121.098L9.5 122.172L5.63 122.172C5.142 122.172 4.778 122.27 4.538 122.466C4.298 122.662 4.178 122.948 4.178 123.324C4.178 123.588 4.25 123.832 4.394 124.056C4.534 124.28 4.726 124.486 4.97 124.674L9.5 124.674L9.5 125.748ZM3.326 112.819C3.326 112.375 3.4 111.975 3.548 111.619C3.696 111.263 3.906 110.959 4.178 110.707C4.45 110.455 4.78 110.263 5.168 110.131C5.552 109.995 5.982 109.927 6.458 109.927C6.938 109.927 7.37 109.995 7.754 110.131C8.138 110.263 8.466 110.455 8.738 110.707C9.01 110.959 9.22 111.263 9.368 111.619C9.512 111.975 9.584 112.375 9.584 112.819C9.584 113.267 9.512 113.671 9.368 114.031C9.22 114.387 9.01 114.691 8.738 114.943C8.466 115.195 8.138 115.389 7.754 115.525C7.37 115.657 6.938 115.723 6.458 115.723C5.982 115.723 5.552 115.657 5.168 115.525C4.78 115.389 4.45 115.195 4.178 114.943C3.906 114.691 3.696 114.387 3.548 114.031C3.4 113.671 3.326 113.267 3.326 112.819ZM8.75 112.819C8.75 112.219 8.55 111.771 8.15 111.475C7.746 111.179 7.184 111.031 6.464 111.031C5.74 111.031 5.176 111.179 4.772 111.475C4.368 111.771 4.166 112.219 4.166 112.819C4.166 113.123 4.218 113.389 4.322 113.617C4.426 113.841 4.576 114.029 4.772 114.181C4.968 114.329 5.21 114.441 5.498 114.517C5.782 114.589 6.104 114.625 6.464 114.625C7.184 114.625 7.746 114.477 8.15 114.181C8.55 113.881 8.75 113.427 8.75 112.819ZM4.304 107.064C4.156 106.932 4.022 106.792 3.902 106.644C3.782 106.496 3.68 106.34 3.596 106.176C3.508 106.008 3.442 105.832 3.398 105.648C3.35 105.46 3.326 105.258 3.326 105.042C3.326 104.71 3.382 104.418 3.494 104.166C3.602 103.91 3.758 103.698 3.962 103.53C4.162 103.358 4.404 103.228 4.688 103.14C4.972 103.052 5.286 103.008 5.63 103.008L9.5 103.008L9.5 104.082L5.63 104.082C5.17 104.082 4.814 104.188 4.562 104.4C4.306 104.608 4.178 104.926 4.178 105.354C4.178 105.67 4.254 105.966 4.406 106.242C4.558 106.514 4.764 106.766 5.024 106.998L9.5 106.998L9.5 108.072L3.422 108.072L3.422 107.43C3.422 107.278 3.496 107.184 3.644 107.148L4.304 107.064ZM9.596 99.0966C9.596 99.5766 9.462 99.9466 9.194 100.207C8.926 100.463 8.54 100.591 8.036 100.591L4.316 100.591L4.316 101.323C4.316 101.387 4.298 101.441 4.262 101.485C4.222 101.529 4.162 101.551 4.082 101.551L3.656 101.551L3.53 100.555L1.652 100.309C1.592 100.297 1.544 100.271 1.508 100.231C1.468 100.187 1.448 100.131 1.448 100.063L1.448 99.5226L3.542 99.5226L3.542 97.7646L4.316 97.7646L4.316 99.5226L7.964 99.5226C8.22 99.5226 8.41 99.4606 8.534 99.3366C8.658 99.2126 8.72 99.0526 8.72 98.8566C8.72 98.7446 8.706 98.6486 8.678 98.5686C8.646 98.4846 8.612 98.4126 8.576 98.3526C8.54 98.2926 8.508 98.2426 8.48 98.2026C8.448 98.1586 8.432 98.1206 8.432 98.0886C8.432 98.0326 8.466 97.9826 8.534 97.9386L9.044 97.6266C9.216 97.8106 9.352 98.0326 9.452 98.2926C9.548 98.5526 9.596 98.8206 9.596 99.0966ZM4.232 95.0878C3.956 94.8278 3.736 94.5398 3.572 94.2238C3.408 93.9078 3.326 93.5438 3.326 93.1318C3.326 92.7998 3.382 92.5078 3.494 92.2558C3.602 91.9998 3.758 91.7878 3.962 91.6198C4.162 91.4478 4.404 91.3178 4.688 91.2298C4.972 91.1418 5.286 91.0978 5.63 91.0978L9.5 91.0978L9.5 92.1718L5.63 92.1718C5.17 92.1718 4.814 92.2778 4.562 92.4898C4.306 92.6978 4.178 93.0158 4.178 93.4438C4.178 93.7598 4.254 94.0558 4.406 94.3318C4.558 94.6038 4.764 94.8558 5.024 95.0878L9.5 95.0878L9.5 96.1618L0.661997 96.1618L0.661997 95.0878L4.232 95.0878Z" fill="white"/>
</svg>
