<svg width="538" height="283" viewBox="0 0 538 283" fill="none" xmlns="http://www.w3.org/2000/svg">
<path d="M32.9109 34.3049C32.3484 34.3049 31.8469 34.2083 31.4066 34.0151C30.9691 33.8219 30.6211 33.5534 30.3626 33.2097C30.1069 32.8631 29.9677 32.4611 29.945 32.0037H31.0188C31.0415 32.285 31.1381 32.5279 31.3086 32.7324C31.479 32.9341 31.7021 33.0904 31.9776 33.2012C32.2532 33.312 32.5586 33.3674 32.8938 33.3674C33.2688 33.3674 33.6012 33.302 33.891 33.1713C34.1808 33.0407 34.408 32.8588 34.5728 32.6259C34.7376 32.3929 34.82 32.123 34.82 31.8162C34.82 31.4952 34.7404 31.2125 34.5813 30.9682C34.4222 30.7211 34.1893 30.5279 33.8825 30.3887C33.5756 30.2495 33.2006 30.1799 32.7575 30.1799H32.0586V29.2424H32.7575C33.104 29.2424 33.408 29.1799 33.6694 29.0549C33.9336 28.9299 34.1396 28.7537 34.2873 28.5265C34.4379 28.2992 34.5131 28.0321 34.5131 27.7253C34.5131 27.4299 34.4478 27.1728 34.3171 26.954C34.1864 26.7353 34.0018 26.5648 33.7631 26.4426C33.5273 26.3205 33.2489 26.2594 32.9279 26.2594C32.6268 26.2594 32.3427 26.3148 32.0756 26.4256C31.8114 26.5336 31.5955 26.6912 31.4279 26.8986C31.2603 27.1032 31.1694 27.3503 31.1552 27.6401H30.1325C30.1495 27.1827 30.2873 26.7821 30.5458 26.4384C30.8043 26.0918 31.1424 25.8219 31.56 25.6287C31.9805 25.4355 32.4421 25.339 32.945 25.339C33.4847 25.339 33.9478 25.4483 34.3342 25.6671C34.7205 25.883 35.0174 26.1685 35.2248 26.5236C35.4322 26.8787 35.5359 27.2623 35.5359 27.6742C35.5359 28.1657 35.4066 28.5847 35.1481 28.9313C34.8924 29.2779 34.5444 29.5179 34.104 29.6515V29.7196C34.6552 29.8105 35.0856 30.0449 35.3952 30.4228C35.7049 30.7978 35.8597 31.2623 35.8597 31.8162C35.8597 32.2907 35.7305 32.7168 35.4719 33.0946C35.2163 33.4696 34.8668 33.7651 34.4237 33.981C33.9805 34.1969 33.4762 34.3049 32.9109 34.3049ZM40.3299 34.3049C39.8299 34.3049 39.3796 34.2054 38.979 34.0066C38.5785 33.8077 38.2575 33.535 38.016 33.1884C37.7745 32.8418 37.6424 32.4469 37.6197 32.0037H38.6424C38.6822 32.3986 38.8612 32.7253 39.1793 32.9838C39.5004 33.2395 39.8839 33.3674 40.3299 33.3674C40.6879 33.3674 41.006 33.2836 41.2844 33.1159C41.5657 32.9483 41.7859 32.7182 41.945 32.4256C42.1069 32.1301 42.1879 31.7963 42.1879 31.4242C42.1879 31.0435 42.104 30.704 41.9364 30.4057C41.7717 30.1046 41.5444 29.8674 41.2546 29.6941C40.9648 29.5208 40.6339 29.4327 40.2617 29.4299C39.9947 29.427 39.7205 29.4682 39.4393 29.5534C39.158 29.6358 38.9265 29.7424 38.7447 29.873L37.756 29.7537L38.2844 25.4583H42.8185V26.3958H39.1708L38.864 28.9696H38.9151C39.0941 28.8276 39.3185 28.7097 39.5884 28.6159C39.8583 28.5222 40.1396 28.4753 40.4322 28.4753C40.9663 28.4753 41.4421 28.6032 41.8597 28.8588C42.2802 29.1117 42.6097 29.4583 42.8484 29.8986C43.0898 30.339 43.2106 30.8418 43.2106 31.4071C43.2106 31.964 43.0856 32.4611 42.8356 32.8986C42.5884 33.3333 42.2475 33.677 41.8129 33.9299C41.3782 34.1799 40.8839 34.3049 40.3299 34.3049Z" fill="#B8C0CC"/>
<path d="M32.7116 61.6764C32.1491 61.6764 31.6477 61.5799 31.2074 61.3867C30.7699 61.1935 30.4219 60.925 30.1634 60.5813C29.9077 60.2347 29.7685 59.8327 29.7457 59.3753H30.8196C30.8423 59.6566 30.9389 59.8995 31.1094 60.104C31.2798 60.3057 31.5028 60.462 31.7784 60.5728C32.054 60.6835 32.3594 60.7389 32.6946 60.7389C33.0696 60.7389 33.402 60.6736 33.6918 60.5429C33.9815 60.4122 34.2088 60.2304 34.3736 59.9975C34.5384 59.7645 34.6207 59.4946 34.6207 59.1878C34.6207 58.8668 34.5412 58.5841 34.3821 58.3398C34.223 58.0926 33.9901 57.8995 33.6832 57.7603C33.3764 57.621 33.0014 57.5514 32.5582 57.5514H31.8594V56.6139H32.5582C32.9048 56.6139 33.2088 56.5514 33.4702 56.4264C33.7344 56.3014 33.9403 56.1253 34.0881 55.898C34.2386 55.6708 34.3139 55.4037 34.3139 55.0969C34.3139 54.8014 34.2486 54.5443 34.1179 54.3256C33.9872 54.1068 33.8026 53.9364 33.5639 53.8142C33.3281 53.6921 33.0497 53.631 32.7287 53.631C32.4276 53.631 32.1435 53.6864 31.8764 53.7972C31.6122 53.9051 31.3963 54.0628 31.2287 54.2702C31.0611 54.4747 30.9702 54.7219 30.956 55.0117H29.9332C29.9503 54.5543 30.0881 54.1537 30.3466 53.81C30.6051 53.4634 30.9432 53.1935 31.3608 53.0003C31.7813 52.8071 32.2429 52.7105 32.7457 52.7105C33.2855 52.7105 33.7486 52.8199 34.1349 53.0387C34.5213 53.2546 34.8182 53.5401 35.0256 53.8952C35.233 54.2503 35.3366 54.6338 35.3366 55.0458C35.3366 55.5372 35.2074 55.9563 34.9489 56.3029C34.6932 56.6495 34.3452 56.8895 33.9048 57.023V57.0912C34.456 57.1821 34.8864 57.4165 35.196 57.7943C35.5057 58.1693 35.6605 58.6338 35.6605 59.1878C35.6605 59.6622 35.5313 60.0884 35.2727 60.4662C35.017 60.8412 34.6676 61.1367 34.2244 61.3526C33.7813 61.5685 33.277 61.6764 32.7116 61.6764ZM40.25 61.6764C39.608 61.6764 39.0611 61.5017 38.6094 61.1523C38.1577 60.8 37.8125 60.2901 37.5739 59.6225C37.3352 58.952 37.2159 58.1424 37.2159 57.1935C37.2159 56.2503 37.3352 55.4449 37.5739 54.7773C37.8153 54.1068 38.1619 53.5955 38.6136 53.2432C39.0682 52.8881 39.6136 52.7105 40.25 52.7105C40.8864 52.7105 41.4304 52.8881 41.8821 53.2432C42.3366 53.5955 42.6832 54.1068 42.9219 54.7773C43.1634 55.4449 43.2841 56.2503 43.2841 57.1935C43.2841 58.1424 43.1648 58.952 42.9261 59.6225C42.6875 60.2901 42.3423 60.8 41.8906 61.1523C41.4389 61.5017 40.892 61.6764 40.25 61.6764ZM40.25 60.7389C40.8864 60.7389 41.3807 60.4321 41.733 59.8185C42.0852 59.2049 42.2614 58.3299 42.2614 57.1935C42.2614 56.4378 42.1804 55.7943 42.0185 55.2631C41.8594 54.7318 41.6293 54.327 41.3281 54.0486C41.0298 53.7702 40.6705 53.631 40.25 53.631C39.6193 53.631 39.1264 53.9421 38.7713 54.5642C38.4162 55.1835 38.2386 56.06 38.2386 57.1935C38.2386 57.9492 38.3182 58.5912 38.4773 59.1196C38.6364 59.648 38.8651 60.05 39.1634 60.3256C39.4645 60.6012 39.8267 60.7389 40.25 60.7389Z" fill="#B8C0CC"/>
<path d="M52 57.0571H538" stroke="#334E68"/>
<path d="M30.337 88.9282V88.1612L33.2177 85.0078C33.5558 84.6384 33.8342 84.3174 34.0529 84.0447C34.2717 83.7691 34.4336 83.5106 34.5387 83.2691C34.6467 83.0248 34.7006 82.7691 34.7006 82.5021C34.7006 82.1953 34.6268 81.9296 34.479 81.7052C34.3342 81.4808 34.1353 81.3075 33.8825 81.1853C33.6296 81.0632 33.3455 81.0021 33.0302 81.0021C32.695 81.0021 32.4023 81.0717 32.1523 81.2109C31.9052 81.3473 31.7134 81.539 31.5771 81.7862C31.4435 82.0333 31.3768 82.3231 31.3768 82.6555H30.3711C30.3711 82.1441 30.489 81.6953 30.7248 81.3089C30.9606 80.9225 31.2816 80.6214 31.6879 80.4055C32.0969 80.1896 32.5558 80.0816 33.0643 80.0816C33.5756 80.0816 34.0288 80.1896 34.4237 80.4055C34.8185 80.6214 35.1282 80.9126 35.3526 81.2791C35.5771 81.6456 35.6893 82.0532 35.6893 82.5021C35.6893 82.8231 35.631 83.137 35.5146 83.4438C35.4009 83.7478 35.2021 84.0873 34.918 84.4623C34.6367 84.8345 34.2461 85.289 33.7461 85.8259L31.7859 87.9225V87.9907H35.8427V88.9282H30.337ZM40.3299 89.0475C39.8299 89.0475 39.3796 88.9481 38.979 88.7492C38.5785 88.5504 38.2575 88.2777 38.016 87.9311C37.7745 87.5845 37.6424 87.1896 37.6197 86.7464H38.6424C38.6822 87.1413 38.8612 87.468 39.1793 87.7265C39.5004 87.9822 39.8839 88.11 40.3299 88.11C40.6879 88.11 41.006 88.0262 41.2844 87.8586C41.5657 87.691 41.7859 87.4609 41.945 87.1683C42.1069 86.8728 42.1879 86.539 42.1879 86.1669C42.1879 85.7862 42.104 85.4467 41.9364 85.1484C41.7717 84.8473 41.5444 84.61 41.2546 84.4367C40.9648 84.2634 40.6339 84.1754 40.2617 84.1725C39.9947 84.1697 39.7205 84.2109 39.4393 84.2961C39.158 84.3785 38.9265 84.485 38.7447 84.6157L37.756 84.4964L38.2844 80.2009H42.8185V81.1384H39.1708L38.864 83.7123H38.9151C39.0941 83.5703 39.3185 83.4524 39.5884 83.3586C39.8583 83.2649 40.1396 83.218 40.4322 83.218C40.9663 83.218 41.4421 83.3458 41.8597 83.6015C42.2802 83.8544 42.6097 84.2009 42.8484 84.6413C43.0898 85.0816 43.2106 85.5845 43.2106 86.1498C43.2106 86.7066 43.0856 87.2038 42.8356 87.6413C42.5884 88.0759 42.2475 88.4197 41.8129 88.6725C41.3782 88.9225 40.8839 89.0475 40.3299 89.0475Z" fill="#B8C0CC"/>
<path d="M52 84.4282H538" stroke="#334E68"/>
<path d="M30.1378 116.3V115.533L33.0185 112.379C33.3565 112.01 33.6349 111.689 33.8537 111.416C34.0724 111.141 34.2344 110.882 34.3395 110.641C34.4474 110.396 34.5014 110.141 34.5014 109.874C34.5014 109.567 34.4276 109.301 34.2798 109.077C34.1349 108.852 33.9361 108.679 33.6832 108.557C33.4304 108.435 33.1463 108.374 32.831 108.374C32.4957 108.374 32.2031 108.443 31.9531 108.582C31.706 108.719 31.5142 108.911 31.3778 109.158C31.2443 109.405 31.1776 109.695 31.1776 110.027H30.1719C30.1719 109.516 30.2898 109.067 30.5256 108.68C30.7614 108.294 31.0824 107.993 31.4886 107.777C31.8977 107.561 32.3565 107.453 32.8651 107.453C33.3764 107.453 33.8295 107.561 34.2244 107.777C34.6193 107.993 34.929 108.284 35.1534 108.651C35.3778 109.017 35.4901 109.425 35.4901 109.874C35.4901 110.195 35.4318 110.509 35.3153 110.815C35.2017 111.119 35.0028 111.459 34.7188 111.834C34.4375 112.206 34.0469 112.661 33.5469 113.198L31.5866 115.294V115.362H35.6435V116.3H30.1378ZM40.25 116.419C39.608 116.419 39.0611 116.244 38.6094 115.895C38.1577 115.543 37.8125 115.033 37.5739 114.365C37.3352 113.695 37.2159 112.885 37.2159 111.936C37.2159 110.993 37.3352 110.188 37.5739 109.52C37.8153 108.85 38.1619 108.338 38.6136 107.986C39.0682 107.631 39.6136 107.453 40.25 107.453C40.8864 107.453 41.4304 107.631 41.8821 107.986C42.3366 108.338 42.6832 108.85 42.9219 109.52C43.1634 110.188 43.2841 110.993 43.2841 111.936C43.2841 112.885 43.1648 113.695 42.9261 114.365C42.6875 115.033 42.3423 115.543 41.8906 115.895C41.4389 116.244 40.892 116.419 40.25 116.419ZM40.25 115.482C40.8864 115.482 41.3807 115.175 41.733 114.561C42.0852 113.948 42.2614 113.073 42.2614 111.936C42.2614 111.18 42.1804 110.537 42.0185 110.006C41.8594 109.475 41.6293 109.07 41.3281 108.791C41.0298 108.513 40.6705 108.374 40.25 108.374C39.6193 108.374 39.1264 108.685 38.7713 109.307C38.4162 109.926 38.2386 110.803 38.2386 111.936C38.2386 112.692 38.3182 113.334 38.4773 113.862C38.6364 114.391 38.8651 114.793 39.1634 115.068C39.4645 115.344 39.8267 115.482 40.25 115.482Z" fill="#B8C0CC"/>
<path d="M52 111.8H538" stroke="#334E68"/>
<path d="M35.0927 134.944V143.671H34.0359V136.052H33.9847L31.854 137.467V136.393L34.0359 134.944H35.0927ZM40.3299 143.791C39.8299 143.791 39.3796 143.691 38.979 143.492C38.5785 143.294 38.2575 143.021 38.016 142.674C37.7745 142.328 37.6424 141.933 37.6197 141.49H38.6424C38.6822 141.884 38.8612 142.211 39.1793 142.47C39.5004 142.725 39.8839 142.853 40.3299 142.853C40.6879 142.853 41.006 142.769 41.2844 142.602C41.5657 142.434 41.7859 142.204 41.945 141.911C42.1069 141.616 42.1879 141.282 42.1879 140.91C42.1879 140.529 42.104 140.19 41.9364 139.892C41.7717 139.59 41.5444 139.353 41.2546 139.18C40.9648 139.007 40.6339 138.919 40.2617 138.916C39.9947 138.913 39.7205 138.954 39.4393 139.039C39.158 139.122 38.9265 139.228 38.7447 139.359L37.756 139.24L38.2844 134.944H42.8185V135.882H39.1708L38.864 138.455H38.9151C39.0941 138.313 39.3185 138.196 39.5884 138.102C39.8583 138.008 40.1396 137.961 40.4322 137.961C40.9663 137.961 41.4421 138.089 41.8597 138.345C42.2802 138.598 42.6097 138.944 42.8484 139.384C43.0898 139.825 43.2106 140.328 43.2106 140.893C43.2106 141.45 43.0856 141.947 42.8356 142.384C42.5884 142.819 42.2475 143.163 41.8129 143.416C41.3782 143.666 40.8839 143.791 40.3299 143.791Z" fill="#B8C0CC"/>
<path d="M52 139.171H538" stroke="#334E68"/>
<path d="M34.8935 162.315V171.042H33.8366V163.423H33.7855L31.6548 164.838V163.764L33.8366 162.315H34.8935ZM40.25 171.162C39.608 171.162 39.0611 170.987 38.6094 170.638C38.1577 170.285 37.8125 169.775 37.5739 169.108C37.3352 168.437 37.2159 167.628 37.2159 166.679C37.2159 165.736 37.3352 164.93 37.5739 164.263C37.8153 163.592 38.1619 163.081 38.6136 162.729C39.0682 162.373 39.6136 162.196 40.25 162.196C40.8864 162.196 41.4304 162.373 41.8821 162.729C42.3366 163.081 42.6832 163.592 42.9219 164.263C43.1634 164.93 43.2841 165.736 43.2841 166.679C43.2841 167.628 43.1648 168.437 42.9261 169.108C42.6875 169.775 42.3423 170.285 41.8906 170.638C41.4389 170.987 40.892 171.162 40.25 171.162ZM40.25 170.224C40.8864 170.224 41.3807 169.917 41.733 169.304C42.0852 168.69 42.2614 167.815 42.2614 166.679C42.2614 165.923 42.1804 165.28 42.0185 164.748C41.8594 164.217 41.6293 163.812 41.3281 163.534C41.0298 163.256 40.6705 163.116 40.25 163.116C39.6193 163.116 39.1264 163.427 38.7713 164.05C38.4162 164.669 38.2386 165.545 38.2386 166.679C38.2386 167.435 38.3182 168.077 38.4773 168.605C38.6364 169.133 38.8651 169.535 39.1634 169.811C39.4645 170.087 39.8267 170.224 40.25 170.224Z" fill="#B8C0CC"/>
<path d="M52 166.542H538" stroke="#334E68"/>
<path d="M40.3299 198.533C39.8299 198.533 39.3796 198.434 38.979 198.235C38.5785 198.036 38.2575 197.763 38.016 197.417C37.7745 197.07 37.6424 196.675 37.6197 196.232H38.6424C38.6822 196.627 38.8612 196.954 39.1793 197.212C39.5004 197.468 39.8839 197.596 40.3299 197.596C40.6879 197.596 41.006 197.512 41.2844 197.344C41.5657 197.177 41.7859 196.947 41.945 196.654C42.1069 196.359 42.1879 196.025 42.1879 195.653C42.1879 195.272 42.104 194.933 41.9364 194.634C41.7717 194.333 41.5444 194.096 41.2546 193.923C40.9648 193.749 40.6339 193.661 40.2617 193.658C39.9947 193.656 39.7205 193.697 39.4393 193.782C39.158 193.864 38.9265 193.971 38.7447 194.102L37.756 193.982L38.2844 189.687H42.8185V190.624H39.1708L38.864 193.198H38.9151C39.0941 193.056 39.3185 192.938 39.5884 192.844C39.8583 192.751 40.1396 192.704 40.4322 192.704C40.9663 192.704 41.4421 192.832 41.8597 193.087C42.2802 193.34 42.6097 193.687 42.8484 194.127C43.0898 194.567 43.2106 195.07 43.2106 195.636C43.2106 196.192 43.0856 196.69 42.8356 197.127C42.5884 197.562 42.2475 197.906 41.8129 198.158C41.3782 198.408 40.8839 198.533 40.3299 198.533Z" fill="#B8C0CC"/>
<path d="M52 193.914H538" stroke="#334E68"/>
<path d="M40.25 229.92C39.608 229.92 39.0611 229.745 38.6094 229.395C38.1577 229.043 37.8125 228.533 37.5739 227.866C37.3352 227.195 37.2159 226.386 37.2159 225.437C37.2159 224.493 37.3352 223.688 37.5739 223.02C37.8153 222.35 38.1619 221.839 38.6136 221.486C39.0682 221.131 39.6136 220.954 40.25 220.954C40.8864 220.954 41.4304 221.131 41.8821 221.486C42.3366 221.839 42.6832 222.35 42.9219 223.02C43.1634 223.688 43.2841 224.493 43.2841 225.437C43.2841 226.386 43.1648 227.195 42.9261 227.866C42.6875 228.533 42.3423 229.043 41.8906 229.395C41.4389 229.745 40.892 229.92 40.25 229.92ZM40.25 228.982C40.8864 228.982 41.3807 228.675 41.733 228.062C42.0852 227.448 42.2614 226.573 42.2614 225.437C42.2614 224.681 42.1804 224.038 42.0185 223.506C41.8594 222.975 41.6293 222.57 41.3281 222.292C41.0298 222.013 40.6705 221.874 40.25 221.874C39.6193 221.874 39.1264 222.185 38.7713 222.807C38.4162 223.427 38.2386 224.303 38.2386 225.437C38.2386 226.192 38.3182 226.834 38.4773 227.363C38.6364 227.891 38.8651 228.293 39.1634 228.569C39.4645 228.844 39.8267 228.982 40.25 228.982Z" fill="#B8C0CC"/>
<rect x="52.5" y="31.5" width="485" height="195" stroke="#334E68"/>
<path d="M155.93 239V230.273H158.981C159.589 230.273 160.09 230.378 160.485 230.588C160.88 230.795 161.174 231.075 161.367 231.428C161.561 231.777 161.657 232.165 161.657 232.591C161.657 232.966 161.59 233.276 161.457 233.52C161.326 233.764 161.153 233.957 160.937 234.099C160.724 234.241 160.492 234.347 160.242 234.415V234.5C160.509 234.517 160.778 234.611 161.048 234.781C161.318 234.952 161.544 235.196 161.725 235.514C161.907 235.832 161.998 236.222 161.998 236.682C161.998 237.119 161.899 237.513 161.7 237.862C161.501 238.212 161.187 238.489 160.758 238.693C160.329 238.898 159.771 239 159.083 239H155.93ZM156.987 238.062H159.083C159.774 238.062 160.264 237.929 160.553 237.662C160.846 237.392 160.992 237.065 160.992 236.682C160.992 236.386 160.917 236.114 160.767 235.864C160.616 235.611 160.401 235.409 160.123 235.259C159.845 235.105 159.515 235.028 159.134 235.028H156.987V238.062ZM156.987 234.108H158.947C159.265 234.108 159.552 234.045 159.808 233.92C160.066 233.795 160.271 233.619 160.421 233.392C160.575 233.165 160.651 232.898 160.651 232.591C160.651 232.207 160.518 231.882 160.251 231.615C159.984 231.345 159.561 231.21 158.981 231.21H156.987V234.108ZM166.343 239.136C165.712 239.136 165.168 238.997 164.71 238.719C164.256 238.438 163.905 238.045 163.658 237.543C163.414 237.037 163.291 236.449 163.291 235.778C163.291 235.108 163.414 234.517 163.658 234.006C163.905 233.491 164.249 233.091 164.689 232.804C165.132 232.514 165.649 232.369 166.24 232.369C166.581 232.369 166.918 232.426 167.25 232.54C167.583 232.653 167.885 232.838 168.158 233.094C168.431 233.347 168.648 233.682 168.81 234.099C168.972 234.517 169.053 235.031 169.053 235.642V236.068H164.007V235.199H168.03C168.03 234.83 167.956 234.5 167.808 234.21C167.664 233.92 167.456 233.692 167.186 233.524C166.919 233.357 166.604 233.273 166.24 233.273C165.84 233.273 165.493 233.372 165.2 233.571C164.911 233.767 164.688 234.023 164.531 234.338C164.375 234.653 164.297 234.991 164.297 235.352V235.932C164.297 236.426 164.382 236.845 164.553 237.189C164.726 237.53 164.966 237.79 165.273 237.969C165.58 238.145 165.936 238.233 166.343 238.233C166.607 238.233 166.845 238.196 167.058 238.122C167.274 238.045 167.46 237.932 167.617 237.781C167.773 237.628 167.894 237.437 167.979 237.21L168.95 237.483C168.848 237.812 168.676 238.102 168.435 238.352C168.193 238.599 167.895 238.793 167.54 238.932C167.185 239.068 166.786 239.136 166.343 239.136ZM173.497 232.455V233.307H169.969V232.455H173.497ZM171.026 239V231.551C171.026 231.176 171.114 230.864 171.29 230.614C171.466 230.364 171.695 230.176 171.976 230.051C172.257 229.926 172.554 229.864 172.867 229.864C173.114 229.864 173.316 229.884 173.472 229.923C173.628 229.963 173.744 230 173.821 230.034L173.531 230.903C173.48 230.886 173.409 230.865 173.318 230.839C173.23 230.814 173.114 230.801 172.969 230.801C172.637 230.801 172.396 230.885 172.249 231.053C172.104 231.22 172.031 231.466 172.031 231.79V239H171.026ZM177.296 239.136C176.705 239.136 176.187 238.996 175.741 238.714C175.298 238.433 174.951 238.04 174.701 237.534C174.454 237.028 174.33 236.437 174.33 235.761C174.33 235.08 174.454 234.484 174.701 233.976C174.951 233.467 175.298 233.072 175.741 232.791C176.187 232.51 176.705 232.369 177.296 232.369C177.887 232.369 178.404 232.51 178.847 232.791C179.294 233.072 179.64 233.467 179.887 233.976C180.137 234.484 180.262 235.08 180.262 235.761C180.262 236.437 180.137 237.028 179.887 237.534C179.64 238.04 179.294 238.433 178.847 238.714C178.404 238.996 177.887 239.136 177.296 239.136ZM177.296 238.233C177.745 238.233 178.115 238.118 178.404 237.888C178.694 237.658 178.909 237.355 179.048 236.98C179.187 236.605 179.257 236.199 179.257 235.761C179.257 235.324 179.187 234.916 179.048 234.538C178.909 234.161 178.694 233.855 178.404 233.622C178.115 233.389 177.745 233.273 177.296 233.273C176.847 233.273 176.478 233.389 176.188 233.622C175.899 233.855 175.684 234.161 175.545 234.538C175.406 234.916 175.336 235.324 175.336 235.761C175.336 236.199 175.406 236.605 175.545 236.98C175.684 237.355 175.899 237.658 176.188 237.888C176.478 238.118 176.847 238.233 177.296 238.233ZM181.797 239V232.455H182.769V233.443H182.837C182.956 233.119 183.172 232.857 183.485 232.655C183.797 232.453 184.15 232.352 184.542 232.352C184.616 232.352 184.708 232.354 184.819 232.357C184.93 232.359 185.013 232.364 185.07 232.369V233.392C185.036 233.384 184.958 233.371 184.836 233.354C184.716 233.334 184.59 233.324 184.456 233.324C184.138 233.324 183.854 233.391 183.604 233.524C183.357 233.655 183.161 233.837 183.016 234.07C182.874 234.3 182.803 234.562 182.803 234.858V239H181.797ZM188.807 239.136C188.177 239.136 187.633 238.997 187.175 238.719C186.721 238.438 186.37 238.045 186.123 237.543C185.878 237.037 185.756 236.449 185.756 235.778C185.756 235.108 185.878 234.517 186.123 234.006C186.37 233.491 186.714 233.091 187.154 232.804C187.597 232.514 188.114 232.369 188.705 232.369C189.046 232.369 189.383 232.426 189.715 232.54C190.047 232.653 190.35 232.838 190.623 233.094C190.895 233.347 191.113 233.682 191.275 234.099C191.437 234.517 191.518 235.031 191.518 235.642V236.068H186.472V235.199H190.495C190.495 234.83 190.421 234.5 190.273 234.21C190.128 233.92 189.921 233.692 189.651 233.524C189.384 233.357 189.069 233.273 188.705 233.273C188.305 233.273 187.958 233.372 187.665 233.571C187.376 233.767 187.153 234.023 186.996 234.338C186.84 234.653 186.762 234.991 186.762 235.352V235.932C186.762 236.426 186.847 236.845 187.018 237.189C187.191 237.53 187.431 237.79 187.738 237.969C188.045 238.145 188.401 238.233 188.807 238.233C189.072 238.233 189.31 238.196 189.523 238.122C189.739 238.045 189.925 237.932 190.081 237.781C190.238 237.628 190.358 237.437 190.444 237.21L191.415 237.483C191.313 237.812 191.141 238.102 190.9 238.352C190.658 238.599 190.36 238.793 190.005 238.932C189.65 239.068 189.251 239.136 188.807 239.136Z" fill="#B8C0CC"/>
<path d="M403.829 239H402.721L405.925 230.273H407.016L410.221 239H409.113L406.505 231.653H406.437L403.829 239ZM404.238 235.591H408.704V236.528H404.238V235.591ZM414.359 232.455V233.307H410.83V232.455H414.359ZM411.887 239V231.551C411.887 231.176 411.975 230.864 412.151 230.614C412.327 230.364 412.556 230.176 412.837 230.051C413.119 229.926 413.415 229.864 413.728 229.864C413.975 229.864 414.177 229.884 414.333 229.923C414.489 229.963 414.606 230 414.683 230.034L414.393 230.903C414.342 230.886 414.271 230.865 414.18 230.839C414.092 230.814 413.975 230.801 413.83 230.801C413.498 230.801 413.258 230.885 413.11 231.053C412.965 231.22 412.893 231.466 412.893 231.79V239H411.887ZM418.615 232.455V233.307H415.223V232.455H418.615ZM416.211 230.886H417.217V237.125C417.217 237.409 417.258 237.622 417.341 237.764C417.426 237.903 417.534 237.997 417.664 238.045C417.798 238.091 417.939 238.114 418.086 238.114C418.197 238.114 418.288 238.108 418.359 238.097C418.43 238.082 418.487 238.071 418.529 238.062L418.734 238.966C418.666 238.991 418.571 239.017 418.449 239.043C418.326 239.071 418.172 239.085 417.984 239.085C417.7 239.085 417.422 239.024 417.149 238.902C416.879 238.78 416.654 238.594 416.475 238.344C416.299 238.094 416.211 237.778 416.211 237.398V230.886ZM422.801 239.136C422.171 239.136 421.627 238.997 421.169 238.719C420.715 238.438 420.364 238.045 420.117 237.543C419.873 237.037 419.75 236.449 419.75 235.778C419.75 235.108 419.873 234.517 420.117 234.006C420.364 233.491 420.708 233.091 421.148 232.804C421.591 232.514 422.108 232.369 422.699 232.369C423.04 232.369 423.377 232.426 423.709 232.54C424.042 232.653 424.344 232.838 424.617 233.094C424.89 233.347 425.107 233.682 425.269 234.099C425.431 234.517 425.512 235.031 425.512 235.642V236.068H420.466V235.199H424.489C424.489 234.83 424.415 234.5 424.267 234.21C424.123 233.92 423.915 233.692 423.645 233.524C423.378 233.357 423.063 233.273 422.699 233.273C422.299 233.273 421.952 233.372 421.659 233.571C421.37 233.767 421.147 234.023 420.99 234.338C420.834 234.653 420.756 234.991 420.756 235.352V235.932C420.756 236.426 420.841 236.845 421.012 237.189C421.185 237.53 421.425 237.79 421.732 237.969C422.039 238.145 422.395 238.233 422.801 238.233C423.066 238.233 423.304 238.196 423.517 238.122C423.733 238.045 423.919 237.932 424.076 237.781C424.232 237.628 424.353 237.437 424.438 237.21L425.409 237.483C425.307 237.812 425.135 238.102 424.894 238.352C424.652 238.599 424.354 238.793 423.999 238.932C423.644 239.068 423.245 239.136 422.801 239.136ZM427.042 239V232.455H428.013V233.443H428.081C428.201 233.119 428.417 232.857 428.729 232.655C429.042 232.453 429.394 232.352 429.786 232.352C429.86 232.352 429.952 232.354 430.063 232.357C430.174 232.359 430.257 232.364 430.314 232.369V233.392C430.28 233.384 430.202 233.371 430.08 233.354C429.961 233.334 429.834 233.324 429.701 233.324C429.382 233.324 429.098 233.391 428.848 233.524C428.601 233.655 428.405 233.837 428.26 234.07C428.118 234.3 428.047 234.562 428.047 234.858V239H427.042Z" fill="#B8C0CC"/>
<rect x="52" y="31" width="244" height="196" rx="1.5" fill="#475569"/>
<rect x="297" y="155" width="241" height="72" rx="1.5" fill="#4006DE" fill-opacity="0.8"/>
<path d="M0.401999 161.795L9 161.795L9 162.377C9 162.469 8.984 162.547 8.952 162.611C8.92 162.671 8.866 162.731 8.79 162.791L2.31 167.765C2.41 167.757 2.508 167.751 2.604 167.747C2.7 167.743 2.79 167.741 2.874 167.741L9 167.741L9 168.761L0.401999 168.761L0.401999 168.161C0.401999 168.109 0.405999 168.065 0.413999 168.029C0.417999 167.993 0.427999 167.961 0.443999 167.933C0.455999 167.905 0.476 167.877 0.504 167.849C0.528 167.821 0.559999 167.791 0.599999 167.759L7.074 162.785C6.97 162.793 6.87 162.801 6.774 162.809C6.674 162.813 6.58 162.815 6.492 162.815L0.401999 162.815L0.401999 161.795ZM2.826 156.975C2.826 156.531 2.9 156.131 3.048 155.775C3.196 155.419 3.406 155.115 3.678 154.863C3.95 154.611 4.28 154.419 4.668 154.287C5.052 154.151 5.482 154.083 5.958 154.083C6.438 154.083 6.87 154.151 7.254 154.287C7.638 154.419 7.966 154.611 8.238 154.863C8.51 155.115 8.72 155.419 8.868 155.775C9.012 156.131 9.084 156.531 9.084 156.975C9.084 157.423 9.012 157.827 8.868 158.187C8.72 158.543 8.51 158.847 8.238 159.099C7.966 159.351 7.638 159.545 7.254 159.681C6.87 159.813 6.438 159.879 5.958 159.879C5.482 159.879 5.052 159.813 4.668 159.681C4.28 159.545 3.95 159.351 3.678 159.099C3.406 158.847 3.196 158.543 3.048 158.187C2.9 157.827 2.826 157.423 2.826 156.975ZM8.25 156.975C8.25 156.375 8.05 155.927 7.65 155.631C7.246 155.335 6.684 155.187 5.964 155.187C5.24 155.187 4.676 155.335 4.272 155.631C3.868 155.927 3.666 156.375 3.666 156.975C3.666 157.279 3.718 157.545 3.822 157.773C3.926 157.997 4.076 158.185 4.272 158.337C4.468 158.485 4.71 158.597 4.998 158.673C5.282 158.745 5.604 158.781 5.964 158.781C6.684 158.781 7.246 158.633 7.65 158.337C8.05 158.037 8.25 157.583 8.25 156.975ZM4.95 152.324L4.95 149.36L5.856 149.36L5.856 152.324L4.95 152.324ZM1.746 142.625C1.806 142.661 1.852 142.701 1.884 142.745C1.912 142.785 1.926 142.835 1.926 142.895C1.926 142.963 1.892 143.043 1.824 143.135C1.756 143.227 1.682 143.343 1.602 143.483C1.518 143.619 1.442 143.785 1.374 143.981C1.306 144.173 1.272 144.407 1.272 144.683C1.272 144.943 1.308 145.173 1.38 145.373C1.448 145.569 1.542 145.735 1.662 145.871C1.782 146.003 1.924 146.103 2.088 146.171C2.248 146.239 2.422 146.273 2.61 146.273C2.85 146.273 3.05 146.215 3.21 146.099C3.366 145.979 3.5 145.823 3.612 145.631C3.724 145.435 3.822 145.215 3.906 144.971C3.986 144.723 4.07 144.471 4.158 144.215C4.246 143.955 4.346 143.703 4.458 143.459C4.566 143.211 4.704 142.991 4.872 142.799C5.04 142.603 5.246 142.447 5.49 142.331C5.734 142.211 6.034 142.151 6.39 142.151C6.766 142.151 7.12 142.215 7.452 142.343C7.78 142.471 8.066 142.659 8.31 142.907C8.554 143.151 8.746 143.453 8.886 143.813C9.026 144.169 9.096 144.575 9.096 145.031C9.096 145.591 8.996 146.099 8.796 146.555C8.592 147.011 8.318 147.401 7.974 147.725L7.422 147.389C7.378 147.357 7.342 147.319 7.314 147.275C7.282 147.227 7.266 147.175 7.266 147.119C7.266 147.067 7.288 147.009 7.332 146.945C7.372 146.877 7.424 146.801 7.488 146.717C7.552 146.633 7.622 146.537 7.698 146.429C7.774 146.321 7.844 146.199 7.908 146.063C7.972 145.923 8.026 145.765 8.07 145.589C8.11 145.413 8.13 145.215 8.13 144.995C8.13 144.719 8.092 144.473 8.016 144.257C7.94 144.041 7.834 143.859 7.698 143.711C7.558 143.559 7.392 143.443 7.2 143.363C7.008 143.283 6.794 143.243 6.558 143.243C6.298 143.243 6.086 143.303 5.922 143.423C5.754 143.539 5.614 143.693 5.502 143.885C5.39 144.077 5.296 144.297 5.22 144.545C5.14 144.793 5.06 145.045 4.98 145.301C4.896 145.557 4.8 145.809 4.692 146.057C4.584 146.305 4.444 146.525 4.272 146.717C4.1 146.909 3.886 147.065 3.63 147.185C3.37 147.301 3.05 147.359 2.67 147.359C2.366 147.359 2.072 147.301 1.788 147.185C1.504 147.065 1.252 146.893 1.032 146.669C0.811999 146.441 0.635999 146.163 0.503999 145.835C0.371998 145.503 0.305998 145.123 0.305998 144.695C0.305998 144.215 0.381998 143.779 0.533999 143.387C0.685999 142.991 0.905998 142.643 1.194 142.343L1.746 142.625ZM3.732 139.291C3.456 139.031 3.236 138.743 3.072 138.427C2.908 138.111 2.826 137.747 2.826 137.335C2.826 137.003 2.882 136.711 2.994 136.459C3.102 136.203 3.258 135.991 3.462 135.823C3.662 135.651 3.904 135.521 4.188 135.433C4.472 135.345 4.786 135.301 5.13 135.301L9 135.301L9 136.375L5.13 136.375C4.67 136.375 4.314 136.481 4.062 136.693C3.806 136.901 3.678 137.219 3.678 137.647C3.678 137.963 3.754 138.259 3.906 138.535C4.058 138.807 4.264 139.059 4.524 139.291L9 139.291L9 140.365L0.161998 140.365L0.161998 139.291L3.732 139.291ZM2.826 130.612C2.826 130.168 2.9 129.768 3.048 129.412C3.196 129.056 3.406 128.752 3.678 128.5C3.95 128.248 4.28 128.056 4.668 127.924C5.052 127.788 5.482 127.72 5.958 127.72C6.438 127.72 6.87 127.788 7.254 127.924C7.638 128.056 7.966 128.248 8.238 128.5C8.51 128.752 8.72 129.056 8.868 129.412C9.012 129.768 9.084 130.168 9.084 130.612C9.084 131.06 9.012 131.464 8.868 131.824C8.72 132.18 8.51 132.484 8.238 132.736C7.966 132.988 7.638 133.182 7.254 133.318C6.87 133.45 6.438 133.516 5.958 133.516C5.482 133.516 5.052 133.45 4.668 133.318C4.28 133.182 3.95 132.988 3.678 132.736C3.406 132.484 3.196 132.18 3.048 131.824C2.9 131.464 2.826 131.06 2.826 130.612ZM8.25 130.612C8.25 130.012 8.05 129.564 7.65 129.268C7.246 128.972 6.684 128.824 5.964 128.824C5.24 128.824 4.676 128.972 4.272 129.268C3.868 129.564 3.666 130.012 3.666 130.612C3.666 130.916 3.718 131.182 3.822 131.41C3.926 131.634 4.076 131.822 4.272 131.974C4.468 132.122 4.71 132.234 4.998 132.31C5.282 132.382 5.604 132.418 5.964 132.418C6.684 132.418 7.246 132.27 7.65 131.974C8.05 131.674 8.25 131.22 8.25 130.612ZM2.922 117.577L9 119.545L9 120.391C9 120.495 8.932 120.567 8.796 120.607L4.674 121.951C4.582 121.983 4.49 122.009 4.398 122.029C4.302 122.049 4.208 122.069 4.116 122.089C4.208 122.109 4.302 122.129 4.398 122.149C4.49 122.169 4.584 122.195 4.68 122.227L8.796 123.595C8.932 123.631 9 123.711 9 123.835L9 124.639L2.922 126.607L2.922 125.767C2.922 125.683 2.944 125.613 2.988 125.557C3.032 125.497 3.084 125.457 3.144 125.437L7.056 124.273C7.344 124.205 7.616 124.151 7.872 124.111C7.74 124.075 7.606 124.039 7.47 124.003C7.334 123.963 7.196 123.921 7.056 123.877L3.12 122.593C3.06 122.573 3.01 122.539 2.97 122.491C2.93 122.439 2.91 122.377 2.91 122.305L2.91 121.837C2.91 121.757 2.93 121.691 2.97 121.639C3.01 121.587 3.06 121.551 3.12 121.531L7.056 120.277C7.196 120.233 7.334 120.193 7.47 120.157C7.606 120.121 7.74 120.087 7.872 120.055C7.74 120.035 7.608 120.011 7.476 119.983C7.34 119.951 7.2 119.917 7.056 119.881L3.144 118.693C3.08 118.673 3.028 118.635 2.988 118.579C2.944 118.523 2.922 118.457 2.922 118.381L2.922 117.577ZM4.566 110.079C4.566 109.743 4.526 109.447 4.446 109.191C4.362 108.931 4.246 108.715 4.098 108.543C3.946 108.367 3.766 108.235 3.558 108.147C3.35 108.059 3.12 108.015 2.868 108.015C2.356 108.015 1.97 108.183 1.71 108.519C1.45 108.855 1.32 109.359 1.32 110.031L1.32 111.303L4.566 111.303L4.566 110.079ZM9 106.107L9 107.139C9 107.351 8.918 107.507 8.754 107.607L5.682 109.839C5.586 109.907 5.518 109.981 5.478 110.061C5.434 110.137 5.412 110.257 5.412 110.421L5.412 111.303L9 111.303L9 112.461L0.401997 112.461L0.401997 110.031C0.401997 109.487 0.457997 109.017 0.569997 108.621C0.677997 108.225 0.835997 107.899 1.044 107.643C1.252 107.383 1.504 107.191 1.8 107.067C2.092 106.943 2.42 106.881 2.784 106.881C3.088 106.881 3.372 106.929 3.636 107.025C3.9 107.121 4.138 107.261 4.35 107.445C4.558 107.625 4.736 107.847 4.884 108.111C5.032 108.371 5.144 108.667 5.22 108.999C5.304 108.851 5.426 108.723 5.586 108.615L9 106.107ZM6.264 101.489C6.28 101.981 6.32 102.401 6.384 102.749C6.444 103.093 6.524 103.375 6.624 103.595C6.724 103.811 6.842 103.969 6.978 104.069C7.114 104.165 7.266 104.213 7.434 104.213C7.594 104.213 7.732 104.187 7.848 104.135C7.964 104.083 8.06 104.013 8.136 103.925C8.208 103.833 8.262 103.727 8.298 103.607C8.33 103.483 8.346 103.351 8.346 103.211C8.346 103.023 8.328 102.851 8.292 102.695C8.252 102.539 8.196 102.393 8.124 102.257C8.052 102.117 7.966 101.985 7.866 101.861C7.766 101.733 7.652 101.609 7.524 101.489L6.264 101.489ZM3.78 104.939C3.456 104.603 3.214 104.241 3.054 103.853C2.894 103.465 2.814 103.035 2.814 102.563C2.814 102.223 2.87 101.921 2.982 101.657C3.094 101.393 3.25 101.171 3.45 100.991C3.65 100.811 3.892 100.675 4.176 100.583C4.46 100.491 4.772 100.445 5.112 100.445L9 100.445L9 100.919C9 101.023 8.984 101.103 8.952 101.159C8.916 101.215 8.848 101.259 8.748 101.291L8.172 101.411C8.32 101.571 8.452 101.727 8.568 101.879C8.68 102.031 8.776 102.191 8.856 102.359C8.932 102.527 8.99 102.707 9.03 102.899C9.074 103.087 9.096 103.297 9.096 103.529C9.096 103.765 9.064 103.987 9 104.195C8.932 104.403 8.832 104.585 8.7 104.741C8.568 104.893 8.402 105.015 8.202 105.107C7.998 105.195 7.758 105.239 7.482 105.239C7.242 105.239 7.012 105.173 6.792 105.041C6.568 104.909 6.37 104.695 6.198 104.399C6.026 104.103 5.886 103.717 5.778 103.241C5.666 102.765 5.602 102.181 5.586 101.489L5.112 101.489C4.64 101.489 4.284 101.591 4.044 101.795C3.8 101.999 3.678 102.297 3.678 102.689C3.678 102.953 3.712 103.175 3.78 103.355C3.844 103.531 3.918 103.685 4.002 103.817C4.082 103.945 4.156 104.057 4.224 104.153C4.288 104.245 4.32 104.337 4.32 104.429C4.32 104.501 4.302 104.563 4.266 104.615C4.226 104.667 4.178 104.711 4.122 104.747L3.78 104.939ZM9.096 96.5341C9.096 97.0141 8.962 97.3841 8.694 97.6441C8.426 97.9001 8.04 98.0281 7.536 98.0281L3.816 98.0281L3.816 98.7601C3.816 98.8241 3.798 98.8781 3.762 98.9221C3.722 98.9661 3.662 98.9881 3.582 98.9881L3.156 98.9881L3.03 97.9921L1.152 97.7461C1.092 97.7341 1.044 97.7081 1.008 97.6681C0.967997 97.6241 0.947997 97.5681 0.947997 97.5001L0.947997 96.9601L3.042 96.9601L3.042 95.2021L3.816 95.2021L3.816 96.9601L7.464 96.9601C7.72 96.9601 7.91 96.8981 8.034 96.7741C8.158 96.6501 8.22 96.4901 8.22 96.2941C8.22 96.1821 8.206 96.0861 8.178 96.0061C8.146 95.9221 8.112 95.8501 8.076 95.7901C8.04 95.7301 8.008 95.6801 7.98 95.6401C7.948 95.5961 7.932 95.5581 7.932 95.5261C7.932 95.4701 7.966 95.4201 8.034 95.3761L8.544 95.0641C8.716 95.2481 8.852 95.4701 8.952 95.7301C9.048 95.9901 9.096 96.2581 9.096 96.5341ZM5.298 89.5665C5.05 89.5665 4.824 89.6025 4.62 89.6745C4.412 89.7425 4.234 89.8445 4.086 89.9805C3.934 90.1125 3.818 90.2745 3.738 90.4665C3.654 90.6585 3.612 90.8765 3.612 91.1205C3.612 91.6325 3.762 92.0385 4.062 92.3385C4.358 92.6345 4.77 92.8185 5.298 92.8905L5.298 89.5665ZM8.148 88.7025C8.308 88.8345 8.448 88.9925 8.568 89.1765C8.684 89.3605 8.78 89.5585 8.856 89.7705C8.932 89.9785 8.988 90.1945 9.024 90.4185C9.064 90.6425 9.084 90.8645 9.084 91.0845C9.084 91.5045 9.014 91.8925 8.874 92.2485C8.73 92.6005 8.522 92.9065 8.25 93.1665C7.974 93.4225 7.634 93.6225 7.23 93.7665C6.826 93.9105 6.362 93.9825 5.838 93.9825C5.414 93.9825 5.018 93.9185 4.65 93.7905C4.282 93.6585 3.964 93.4705 3.696 93.2265C3.424 92.9825 3.212 92.6845 3.06 92.3325C2.904 91.9805 2.826 91.5845 2.826 91.1445C2.826 90.7805 2.888 90.4445 3.012 90.1365C3.132 89.8245 3.308 89.5565 3.54 89.3325C3.768 89.1045 4.052 88.9265 4.392 88.7985C4.728 88.6705 5.112 88.6065 5.544 88.6065C5.712 88.6065 5.824 88.6245 5.88 88.6605C5.936 88.6965 5.964 88.7645 5.964 88.8645L5.964 92.9265C6.348 92.9145 6.682 92.8625 6.966 92.7705C7.25 92.6745 7.488 92.5425 7.68 92.3745C7.868 92.2065 8.01 92.0065 8.106 91.7745C8.198 91.5425 8.244 91.2825 8.244 90.9945C8.244 90.7265 8.214 90.4965 8.154 90.3045C8.09 90.1085 8.022 89.9405 7.95 89.8005C7.878 89.6605 7.812 89.5445 7.752 89.4525C7.688 89.3565 7.656 89.2745 7.656 89.2065C7.656 89.1185 7.69 89.0505 7.758 89.0025L8.148 88.7025Z" fill="white"/>
</svg>
