<svg width="327" height="283" viewBox="0 0 327 283" fill="none" xmlns="http://www.w3.org/2000/svg">
<path d="M51.8299 39.7795C51.3299 39.7795 50.8796 39.68 50.479 39.4812C50.0785 39.2823 49.7575 39.0096 49.516 38.663C49.2745 38.3164 49.1424 37.9215 49.1197 37.4783H50.1424C50.1822 37.8732 50.3612 38.1999 50.6793 38.4585C51.0004 38.7141 51.3839 38.842 51.8299 38.842C52.1879 38.842 52.506 38.7582 52.7844 38.5906C53.0657 38.4229 53.2859 38.1928 53.445 37.9002C53.6069 37.6048 53.6879 37.271 53.6879 36.8988C53.6879 36.5181 53.604 36.1786 53.4364 35.8803C53.2717 35.5792 53.0444 35.342 52.7546 35.1687C52.4648 34.9954 52.1339 34.9073 51.7617 34.9045C51.4947 34.9016 51.2205 34.9428 50.9393 35.0281C50.658 35.1104 50.4265 35.217 50.2447 35.3477L49.256 35.2283L49.7844 30.9329H54.3185V31.8704H50.6708L50.364 34.4442H50.4151C50.5941 34.3022 50.8185 34.1843 51.0884 34.0906C51.3583 33.9968 51.6396 33.9499 51.9322 33.9499C52.4663 33.9499 52.9421 34.0778 53.3597 34.3335C53.7802 34.5863 54.1097 34.9329 54.3484 35.3732C54.5898 35.8136 54.7106 36.3164 54.7106 36.8817C54.7106 37.4386 54.5856 37.9357 54.3356 38.3732C54.0884 38.8079 53.7475 39.1516 53.3129 39.4045C52.8782 39.6545 52.3839 39.7795 51.8299 39.7795ZM59.25 39.7795C58.608 39.7795 58.0611 39.6048 57.6094 39.2553C57.1577 38.9031 56.8125 38.3931 56.5739 37.7255C56.3352 37.055 56.2159 36.2454 56.2159 35.2965C56.2159 34.3533 56.3352 33.5479 56.5739 32.8803C56.8153 32.2099 57.1619 31.6985 57.6136 31.3462C58.0682 30.9911 58.6136 30.8136 59.25 30.8136C59.8864 30.8136 60.4304 30.9911 60.8821 31.3462C61.3366 31.6985 61.6832 32.2099 61.9219 32.8803C62.1634 33.5479 62.2841 34.3533 62.2841 35.2965C62.2841 36.2454 62.1648 37.055 61.9261 37.7255C61.6875 38.3931 61.3423 38.9031 60.8906 39.2553C60.4389 39.6048 59.892 39.7795 59.25 39.7795ZM59.25 38.842C59.8864 38.842 60.3807 38.5352 60.733 37.9215C61.0852 37.3079 61.2614 36.4329 61.2614 35.2965C61.2614 34.5408 61.1804 33.8974 61.0185 33.3661C60.8594 32.8349 60.6293 32.43 60.3281 32.1516C60.0298 31.8732 59.6705 31.734 59.25 31.734C58.6193 31.734 58.1264 32.0451 57.7713 32.6673C57.4162 33.2866 57.2386 34.163 57.2386 35.2965C57.2386 36.0522 57.3182 36.6942 57.4773 37.2227C57.6364 37.7511 57.8651 38.1531 58.1634 38.4286C58.4645 38.7042 58.8267 38.842 59.25 38.842Z" fill="#B8C0CC"/>
<path d="M71 35.1602H303" stroke="#334E68"/>
<path d="M48.4996 76.1902V75.3209L52.3349 69.2527H52.9656V70.5993H52.5394L49.6417 75.1845V75.2527H54.8065V76.1902H48.4996ZM52.6076 77.98V75.926V75.5212V69.2527H53.6133V77.98H52.6076ZM59.25 78.0993C58.608 78.0993 58.0611 77.9246 57.6094 77.5752C57.1577 77.2229 56.8125 76.7129 56.5739 76.0453C56.3352 75.3749 56.2159 74.5652 56.2159 73.6163C56.2159 72.6732 56.3352 71.8678 56.5739 71.2002C56.8153 70.5297 57.1619 70.0183 57.6136 69.6661C58.0682 69.3109 58.6136 69.1334 59.25 69.1334C59.8864 69.1334 60.4304 69.3109 60.8821 69.6661C61.3366 70.0183 61.6832 70.5297 61.9219 71.2002C62.1634 71.8678 62.2841 72.6732 62.2841 73.6163C62.2841 74.5652 62.1648 75.3749 61.9261 76.0453C61.6875 76.7129 61.3423 77.2229 60.8906 77.5752C60.4389 77.9246 59.892 78.0993 59.25 78.0993ZM59.25 77.1618C59.8864 77.1618 60.3807 76.855 60.733 76.2413C61.0852 75.6277 61.2614 74.7527 61.2614 73.6163C61.2614 72.8607 61.1804 72.2172 61.0185 71.6859C60.8594 71.1547 60.6293 70.7499 60.3281 70.4715C60.0298 70.193 59.6705 70.0538 59.25 70.0538C58.6193 70.0538 58.1264 70.3649 57.7713 70.9871C57.4162 71.6064 57.2386 72.4828 57.2386 73.6163C57.2386 74.372 57.3182 75.0141 57.4773 75.5425C57.6364 76.0709 57.8651 76.4729 58.1634 76.7484C58.4645 77.024 58.8267 77.1618 59.25 77.1618Z" fill="#B8C0CC"/>
<path d="M71 73.48H303" stroke="#334E68"/>
<path d="M51.7116 116.42C51.1491 116.42 50.6477 116.323 50.2074 116.13C49.7699 115.937 49.4219 115.668 49.1634 115.324C48.9077 114.978 48.7685 114.576 48.7457 114.118H49.8196C49.8423 114.4 49.9389 114.643 50.1094 114.847C50.2798 115.049 50.5028 115.205 50.7784 115.316C51.054 115.427 51.3594 115.482 51.6946 115.482C52.0696 115.482 52.402 115.417 52.6918 115.286C52.9815 115.155 53.2088 114.974 53.3736 114.741C53.5384 114.508 53.6207 114.238 53.6207 113.931C53.6207 113.61 53.5412 113.327 53.3821 113.083C53.223 112.836 52.9901 112.643 52.6832 112.503C52.3764 112.364 52.0014 112.295 51.5582 112.295H50.8594V111.357H51.5582C51.9048 111.357 52.2088 111.295 52.4702 111.17C52.7344 111.045 52.9403 110.868 53.0881 110.641C53.2386 110.414 53.3139 110.147 53.3139 109.84C53.3139 109.545 53.2486 109.288 53.1179 109.069C52.9872 108.85 52.8026 108.68 52.5639 108.557C52.3281 108.435 52.0497 108.374 51.7287 108.374C51.4276 108.374 51.1435 108.43 50.8764 108.54C50.6122 108.648 50.3963 108.806 50.2287 109.013C50.0611 109.218 49.9702 109.465 49.956 109.755H48.9332C48.9503 109.297 49.0881 108.897 49.3466 108.553C49.6051 108.207 49.9432 107.937 50.3608 107.743C50.7813 107.55 51.2429 107.454 51.7457 107.454C52.2855 107.454 52.7486 107.563 53.1349 107.782C53.5213 107.998 53.8182 108.283 54.0256 108.638C54.233 108.993 54.3366 109.377 54.3366 109.789C54.3366 110.28 54.2074 110.699 53.9489 111.046C53.6932 111.393 53.3452 111.633 52.9048 111.766V111.834C53.456 111.925 53.8864 112.16 54.196 112.538C54.5057 112.913 54.6605 113.377 54.6605 113.931C54.6605 114.405 54.5313 114.832 54.2727 115.209C54.017 115.584 53.6676 115.88 53.2244 116.096C52.7813 116.312 52.277 116.42 51.7116 116.42ZM59.25 116.42C58.608 116.42 58.0611 116.245 57.6094 115.895C57.1577 115.543 56.8125 115.033 56.5739 114.366C56.3352 113.695 56.2159 112.886 56.2159 111.937C56.2159 110.993 56.3352 110.188 56.5739 109.52C56.8153 108.85 57.1619 108.339 57.6136 107.986C58.0682 107.631 58.6136 107.454 59.25 107.454C59.8864 107.454 60.4304 107.631 60.8821 107.986C61.3366 108.339 61.6832 108.85 61.9219 109.52C62.1634 110.188 62.2841 110.993 62.2841 111.937C62.2841 112.886 62.1648 113.695 61.9261 114.366C61.6875 115.033 61.3423 115.543 60.8906 115.895C60.4389 116.245 59.892 116.42 59.25 116.42ZM59.25 115.482C59.8864 115.482 60.3807 115.175 60.733 114.562C61.0852 113.948 61.2614 113.073 61.2614 111.937C61.2614 111.181 61.1804 110.538 61.0185 110.006C60.8594 109.475 60.6293 109.07 60.3281 108.792C60.0298 108.513 59.6705 108.374 59.25 108.374C58.6193 108.374 58.1264 108.685 57.7713 109.307C57.4162 109.927 57.2386 110.803 57.2386 111.937C57.2386 112.692 57.3182 113.334 57.4773 113.863C57.6364 114.391 57.8651 114.793 58.1634 115.069C58.4645 115.344 58.8267 115.482 59.25 115.482Z" fill="#B8C0CC"/>
<path d="M71 111.8H303" stroke="#334E68"/>
<path d="M49.1378 154.62V153.853L52.0185 150.7C52.3565 150.33 52.6349 150.009 52.8537 149.737C53.0724 149.461 53.2344 149.203 53.3395 148.961C53.4474 148.717 53.5014 148.461 53.5014 148.194C53.5014 147.887 53.4276 147.622 53.2798 147.397C53.1349 147.173 52.9361 146.999 52.6832 146.877C52.4304 146.755 52.1463 146.694 51.831 146.694C51.4957 146.694 51.2031 146.764 50.9531 146.903C50.706 147.039 50.5142 147.231 50.3778 147.478C50.2443 147.725 50.1776 148.015 50.1776 148.347H49.1719C49.1719 147.836 49.2898 147.387 49.5256 147.001C49.7614 146.614 50.0824 146.313 50.4886 146.097C50.8977 145.881 51.3565 145.774 51.8651 145.774C52.3764 145.774 52.8295 145.881 53.2244 146.097C53.6193 146.313 53.929 146.604 54.1534 146.971C54.3778 147.337 54.4901 147.745 54.4901 148.194C54.4901 148.515 54.4318 148.829 54.3153 149.136C54.2017 149.44 54.0028 149.779 53.7188 150.154C53.4375 150.526 53.0469 150.981 52.5469 151.518L50.5866 153.614V153.683H54.6435V154.62H49.1378ZM59.25 154.739C58.608 154.739 58.0611 154.565 57.6094 154.215C57.1577 153.863 56.8125 153.353 56.5739 152.685C56.3352 152.015 56.2159 151.205 56.2159 150.256C56.2159 149.313 56.3352 148.508 56.5739 147.84C56.8153 147.17 57.1619 146.658 57.6136 146.306C58.0682 145.951 58.6136 145.774 59.25 145.774C59.8864 145.774 60.4304 145.951 60.8821 146.306C61.3366 146.658 61.6832 147.17 61.9219 147.84C62.1634 148.508 62.2841 149.313 62.2841 150.256C62.2841 151.205 62.1648 152.015 61.9261 152.685C61.6875 153.353 61.3423 153.863 60.8906 154.215C60.4389 154.565 59.892 154.739 59.25 154.739ZM59.25 153.802C59.8864 153.802 60.3807 153.495 60.733 152.881C61.0852 152.268 61.2614 151.393 61.2614 150.256C61.2614 149.501 61.1804 148.857 61.0185 148.326C60.8594 147.795 60.6293 147.39 60.3281 147.112C60.0298 146.833 59.6705 146.694 59.25 146.694C58.6193 146.694 58.1264 147.005 57.7713 147.627C57.4162 148.247 57.2386 149.123 57.2386 150.256C57.2386 151.012 57.3182 151.654 57.4773 152.183C57.6364 152.711 57.8651 153.113 58.1634 153.389C58.4645 153.664 58.8267 153.802 59.25 153.802Z" fill="#B8C0CC"/>
<path d="M71 150.12H303" stroke="#334E68"/>
<path d="M53.8935 184.213V192.94H52.8366V185.321H52.7855L50.6548 186.735V185.662L52.8366 184.213H53.8935ZM59.25 193.059C58.608 193.059 58.0611 192.885 57.6094 192.535C57.1577 192.183 56.8125 191.673 56.5739 191.005C56.3352 190.335 56.2159 189.525 56.2159 188.576C56.2159 187.633 56.3352 186.828 56.5739 186.16C56.8153 185.49 57.1619 184.978 57.6136 184.626C58.0682 184.271 58.6136 184.093 59.25 184.093C59.8864 184.093 60.4304 184.271 60.8821 184.626C61.3366 184.978 61.6832 185.49 61.9219 186.16C62.1634 186.828 62.2841 187.633 62.2841 188.576C62.2841 189.525 62.1648 190.335 61.9261 191.005C61.6875 191.673 61.3423 192.183 60.8906 192.535C60.4389 192.885 59.892 193.059 59.25 193.059ZM59.25 192.122C59.8864 192.122 60.3807 191.815 60.733 191.201C61.0852 190.588 61.2614 189.713 61.2614 188.576C61.2614 187.821 61.1804 187.177 61.0185 186.646C60.8594 186.115 60.6293 185.71 60.3281 185.431C60.0298 185.153 59.6705 185.014 59.25 185.014C58.6193 185.014 58.1264 185.325 57.7713 185.947C57.4162 186.566 57.2386 187.443 57.2386 188.576C57.2386 189.332 57.3182 189.974 57.4773 190.502C57.6364 191.031 57.8651 191.433 58.1634 191.708C58.4645 191.984 58.8267 192.122 59.25 192.122Z" fill="#B8C0CC"/>
<path d="M71 188.44H303" stroke="#334E68"/>
<path d="M59.25 229.92C58.608 229.92 58.0611 229.745 57.6094 229.395C57.1577 229.043 56.8125 228.533 56.5739 227.866C56.3352 227.195 56.2159 226.386 56.2159 225.437C56.2159 224.493 56.3352 223.688 56.5739 223.02C56.8153 222.35 57.1619 221.839 57.6136 221.486C58.0682 221.131 58.6136 220.954 59.25 220.954C59.8864 220.954 60.4304 221.131 60.8821 221.486C61.3366 221.839 61.6832 222.35 61.9219 223.02C62.1634 223.688 62.2841 224.493 62.2841 225.437C62.2841 226.386 62.1648 227.195 61.9261 227.866C61.6875 228.533 61.3423 229.043 60.8906 229.395C60.4389 229.745 59.892 229.92 59.25 229.92ZM59.25 228.982C59.8864 228.982 60.3807 228.675 60.733 228.062C61.0852 227.448 61.2614 226.573 61.2614 225.437C61.2614 224.681 61.1804 224.038 61.0185 223.506C60.8594 222.975 60.6293 222.57 60.3281 222.292C60.0298 222.013 59.6705 221.874 59.25 221.874C58.6193 221.874 58.1264 222.185 57.7713 222.807C57.4162 223.427 57.2386 224.303 57.2386 225.437C57.2386 226.192 57.3182 226.834 57.4773 227.363C57.6364 227.891 57.8651 228.293 58.1634 228.569C58.4645 228.844 58.8267 228.982 59.25 228.982Z" fill="#B8C0CC"/>
<rect x="-0.5" y="0.5" width="231" height="195" transform="matrix(-1 0 0 1 302 31)" stroke="#334E68"/>
<path d="M72.0568 241V232.273H75.108C75.7159 232.273 76.2173 232.378 76.6122 232.588C77.0071 232.795 77.3011 233.075 77.4943 233.428C77.6875 233.777 77.7841 234.165 77.7841 234.591C77.7841 234.966 77.7173 235.276 77.5838 235.52C77.4531 235.764 77.2798 235.957 77.0639 236.099C76.8509 236.241 76.6193 236.347 76.3693 236.415V236.5C76.6364 236.517 76.9048 236.611 77.1747 236.781C77.4446 236.952 77.6705 237.196 77.8523 237.514C78.0341 237.832 78.125 238.222 78.125 238.682C78.125 239.119 78.0256 239.513 77.8267 239.862C77.6278 240.212 77.3139 240.489 76.8849 240.693C76.456 240.898 75.8977 241 75.2102 241H72.0568ZM73.1136 240.062H75.2102C75.9006 240.062 76.3906 239.929 76.6804 239.662C76.973 239.392 77.1193 239.065 77.1193 238.682C77.1193 238.386 77.044 238.114 76.8935 237.864C76.7429 237.611 76.5284 237.409 76.25 237.259C75.9716 237.105 75.642 237.028 75.2614 237.028H73.1136V240.062ZM73.1136 236.108H75.0739C75.392 236.108 75.679 236.045 75.9347 235.92C76.1932 235.795 76.3977 235.619 76.5483 235.392C76.7017 235.165 76.7784 234.898 76.7784 234.591C76.7784 234.207 76.6449 233.882 76.3778 233.615C76.1108 233.345 75.6875 233.21 75.108 233.21H73.1136V236.108ZM82.4695 241.136C81.8388 241.136 81.2947 240.997 80.8374 240.719C80.3828 240.438 80.032 240.045 79.7848 239.543C79.5405 239.037 79.4183 238.449 79.4183 237.778C79.4183 237.108 79.5405 236.517 79.7848 236.006C80.032 235.491 80.3757 235.091 80.8161 234.804C81.2592 234.514 81.7763 234.369 82.3672 234.369C82.7081 234.369 83.0447 234.426 83.3771 234.54C83.7095 234.653 84.0121 234.838 84.2848 235.094C84.5575 235.347 84.7749 235.682 84.9368 236.099C85.0987 236.517 85.1797 237.031 85.1797 237.642V238.068H80.1342V237.199H84.157C84.157 236.83 84.0831 236.5 83.9354 236.21C83.7905 235.92 83.5831 235.692 83.3132 235.524C83.0462 235.357 82.7308 235.273 82.3672 235.273C81.9666 235.273 81.62 235.372 81.3274 235.571C81.0376 235.767 80.8146 236.023 80.6584 236.338C80.5021 236.653 80.424 236.991 80.424 237.352V237.932C80.424 238.426 80.5092 238.845 80.6797 239.189C80.853 239.53 81.093 239.79 81.3999 239.969C81.7067 240.145 82.0632 240.233 82.4695 240.233C82.7337 240.233 82.9723 240.196 83.1854 240.122C83.4013 240.045 83.5874 239.932 83.7436 239.781C83.8999 239.628 84.0206 239.437 84.1058 239.21L85.0774 239.483C84.9751 239.812 84.8033 240.102 84.5618 240.352C84.3203 240.599 84.022 240.793 83.6669 240.932C83.3118 241.068 82.9126 241.136 82.4695 241.136ZM89.6243 234.455V235.307H86.0959V234.455H89.6243ZM87.1527 241V233.551C87.1527 233.176 87.2408 232.864 87.4169 232.614C87.593 232.364 87.8217 232.176 88.103 232.051C88.3842 231.926 88.6811 231.864 88.9936 231.864C89.2408 231.864 89.4425 231.884 89.5987 231.923C89.755 231.963 89.8714 232 89.9482 232.034L89.6584 232.903C89.6072 232.886 89.5362 232.865 89.4453 232.839C89.3572 232.814 89.2408 232.801 89.0959 232.801C88.7635 232.801 88.5234 232.885 88.3757 233.053C88.2308 233.22 88.1584 233.466 88.1584 233.79V241H87.1527ZM93.4233 241.136C92.8324 241.136 92.3139 240.996 91.8679 240.714C91.4247 240.433 91.0781 240.04 90.8281 239.534C90.581 239.028 90.4574 238.437 90.4574 237.761C90.4574 237.08 90.581 236.484 90.8281 235.976C91.0781 235.467 91.4247 235.072 91.8679 234.791C92.3139 234.51 92.8324 234.369 93.4233 234.369C94.0142 234.369 94.5313 234.51 94.9744 234.791C95.4205 235.072 95.767 235.467 96.0142 235.976C96.2642 236.484 96.3892 237.08 96.3892 237.761C96.3892 238.437 96.2642 239.028 96.0142 239.534C95.767 240.04 95.4205 240.433 94.9744 240.714C94.5313 240.996 94.0142 241.136 93.4233 241.136ZM93.4233 240.233C93.8722 240.233 94.2415 240.118 94.5312 239.888C94.821 239.658 95.0355 239.355 95.1747 238.98C95.3139 238.605 95.3835 238.199 95.3835 237.761C95.3835 237.324 95.3139 236.916 95.1747 236.538C95.0355 236.161 94.821 235.855 94.5312 235.622C94.2415 235.389 93.8722 235.273 93.4233 235.273C92.9744 235.273 92.6051 235.389 92.3153 235.622C92.0256 235.855 91.8111 236.161 91.6719 236.538C91.5327 236.916 91.4631 237.324 91.4631 237.761C91.4631 238.199 91.5327 238.605 91.6719 238.98C91.8111 239.355 92.0256 239.658 92.3153 239.888C92.6051 240.118 92.9744 240.233 93.4233 240.233ZM97.9244 241V234.455H98.896V235.443H98.9641C99.0835 235.119 99.2994 234.857 99.6119 234.655C99.9244 234.453 100.277 234.352 100.669 234.352C100.743 234.352 100.835 234.354 100.946 234.357C101.056 234.359 101.14 234.364 101.197 234.369V235.392C101.163 235.384 101.085 235.371 100.963 235.354C100.843 235.334 100.717 235.324 100.583 235.324C100.265 235.324 99.9812 235.391 99.7312 235.524C99.484 235.655 99.288 235.837 99.1431 236.07C99.0011 236.3 98.93 236.562 98.93 236.858V241H97.9244ZM104.934 241.136C104.304 241.136 103.76 240.997 103.302 240.719C102.848 240.438 102.497 240.045 102.25 239.543C102.005 239.037 101.883 238.449 101.883 237.778C101.883 237.108 102.005 236.517 102.25 236.006C102.497 235.491 102.841 235.091 103.281 234.804C103.724 234.514 104.241 234.369 104.832 234.369C105.173 234.369 105.51 234.426 105.842 234.54C106.174 234.653 106.477 234.838 106.75 235.094C107.022 235.347 107.24 235.682 107.402 236.099C107.564 236.517 107.645 237.031 107.645 237.642V238.068H102.599V237.199H106.622C106.622 236.83 106.548 236.5 106.4 236.21C106.255 235.92 106.048 235.692 105.778 235.524C105.511 235.357 105.196 235.273 104.832 235.273C104.431 235.273 104.085 235.372 103.792 235.571C103.502 235.767 103.279 236.023 103.123 236.338C102.967 236.653 102.889 236.991 102.889 237.352V237.932C102.889 238.426 102.974 238.845 103.145 239.189C103.318 239.53 103.558 239.79 103.865 239.969C104.172 240.145 104.528 240.233 104.934 240.233C105.199 240.233 105.437 240.196 105.65 240.122C105.866 240.045 106.052 239.932 106.208 239.781C106.365 239.628 106.485 239.437 106.571 239.21L107.542 239.483C107.44 239.812 107.268 240.102 107.027 240.352C106.785 240.599 106.487 240.793 106.132 240.932C105.777 241.068 105.377 241.136 104.934 241.136Z" fill="#B8C0CC"/>
<line x1="186.5" y1="226" x2="186.5" y2="30" stroke="#334E68"/>
<path d="M276.243 241H275.135L278.339 232.273H279.43L282.635 241H281.527L278.919 233.653H278.851L276.243 241ZM276.652 237.591H281.118V238.528H276.652V237.591ZM286.773 234.455V235.307H283.244V234.455H286.773ZM284.301 241V233.551C284.301 233.176 284.389 232.864 284.565 232.614C284.741 232.364 284.97 232.176 285.251 232.051C285.533 231.926 285.83 231.864 286.142 231.864C286.389 231.864 286.591 231.884 286.747 231.923C286.903 231.963 287.02 232 287.097 232.034L286.807 232.903C286.756 232.886 286.685 232.865 286.594 232.839C286.506 232.814 286.389 232.801 286.244 232.801C285.912 232.801 285.672 232.885 285.524 233.053C285.379 233.22 285.307 233.466 285.307 233.79V241H284.301ZM291.029 234.455V235.307H287.637V234.455H291.029ZM288.625 232.886H289.631V239.125C289.631 239.409 289.672 239.622 289.755 239.764C289.84 239.903 289.948 239.997 290.078 240.045C290.212 240.091 290.353 240.114 290.5 240.114C290.611 240.114 290.702 240.108 290.773 240.097C290.844 240.082 290.901 240.071 290.944 240.062L291.148 240.966C291.08 240.991 290.985 241.017 290.863 241.043C290.74 241.071 290.586 241.085 290.398 241.085C290.114 241.085 289.836 241.024 289.563 240.902C289.293 240.78 289.069 240.594 288.89 240.344C288.713 240.094 288.625 239.778 288.625 239.398V232.886ZM295.216 241.136C294.585 241.136 294.041 240.997 293.583 240.719C293.129 240.438 292.778 240.045 292.531 239.543C292.287 239.037 292.164 238.449 292.164 237.778C292.164 237.108 292.287 236.517 292.531 236.006C292.778 235.491 293.122 235.091 293.562 234.804C294.005 234.514 294.522 234.369 295.113 234.369C295.454 234.369 295.791 234.426 296.123 234.54C296.456 234.653 296.758 234.838 297.031 235.094C297.304 235.347 297.521 235.682 297.683 236.099C297.845 236.517 297.926 237.031 297.926 237.642V238.068H292.88V237.199H296.903C296.903 236.83 296.829 236.5 296.681 236.21C296.537 235.92 296.329 235.692 296.059 235.524C295.792 235.357 295.477 235.273 295.113 235.273C294.713 235.273 294.366 235.372 294.074 235.571C293.784 235.767 293.561 236.023 293.404 236.338C293.248 236.653 293.17 236.991 293.17 237.352V237.932C293.17 238.426 293.255 238.845 293.426 239.189C293.599 239.53 293.839 239.79 294.146 239.969C294.453 240.145 294.809 240.233 295.216 240.233C295.48 240.233 295.718 240.196 295.931 240.122C296.147 240.045 296.333 239.932 296.49 239.781C296.646 239.628 296.767 239.437 296.852 239.21L297.824 239.483C297.721 239.812 297.549 240.102 297.308 240.352C297.066 240.599 296.768 240.793 296.413 240.932C296.058 241.068 295.659 241.136 295.216 241.136ZM299.456 241V234.455H300.427V235.443H300.495C300.615 235.119 300.831 234.857 301.143 234.655C301.456 234.453 301.808 234.352 302.2 234.352C302.274 234.352 302.366 234.354 302.477 234.357C302.588 234.359 302.672 234.364 302.728 234.369V235.392C302.694 235.384 302.616 235.371 302.494 235.354C302.375 235.334 302.248 235.324 302.115 235.324C301.797 235.324 301.512 235.391 301.262 235.524C301.015 235.655 300.819 235.837 300.674 236.07C300.532 236.3 300.461 236.562 300.461 236.858V241H299.456Z" fill="#B8C0CC"/>
<path d="M185.513 130.395C236.573 163.144 258.211 217.69 303 225.431V228H71V36L78.3418 40.495C125.438 59.1814 154.282 95.7191 185.513 130.395Z" fill="url(#paint0_linear_872_24665)"/>
<path d="M302.5 226.716C264.979 222.359 210.653 136.56 186.006 131.037C143.871 81.3652 118.517 59.8401 71 36" stroke="#00C7F2"/>
<path d="M11.35 185.367L14.356 185.367L14.356 181.833L15.304 181.833L15.304 185.367L19 185.367L19 186.531L10.402 186.531L10.402 181.233L11.35 181.233L11.35 185.367ZM12.826 177.463C12.826 177.019 12.9 176.619 13.048 176.263C13.196 175.907 13.406 175.603 13.678 175.351C13.95 175.099 14.28 174.907 14.668 174.775C15.052 174.639 15.482 174.571 15.958 174.571C16.438 174.571 16.87 174.639 17.254 174.775C17.638 174.907 17.966 175.099 18.238 175.351C18.51 175.603 18.72 175.907 18.868 176.263C19.012 176.619 19.084 177.019 19.084 177.463C19.084 177.911 19.012 178.315 18.868 178.675C18.72 179.031 18.51 179.335 18.238 179.587C17.966 179.839 17.638 180.033 17.254 180.169C16.87 180.301 16.438 180.367 15.958 180.367C15.482 180.367 15.052 180.301 14.668 180.169C14.28 180.033 13.95 179.839 13.678 179.587C13.406 179.335 13.196 179.031 13.048 178.675C12.9 178.315 12.826 177.911 12.826 177.463ZM18.25 177.463C18.25 176.863 18.05 176.415 17.65 176.119C17.246 175.823 16.684 175.675 15.964 175.675C15.24 175.675 14.676 175.823 14.272 176.119C13.868 176.415 13.666 176.863 13.666 177.463C13.666 177.767 13.718 178.033 13.822 178.261C13.926 178.485 14.076 178.673 14.272 178.825C14.468 178.973 14.71 179.085 14.998 179.161C15.282 179.233 15.604 179.269 15.964 179.269C16.684 179.269 17.246 179.121 17.65 178.825C18.05 178.525 18.25 178.071 18.25 177.463ZM10.162 171.612L19 171.612L19 172.68L10.162 172.68L10.162 171.612ZM10.162 168.277L19 168.277L19 169.345L10.162 169.345L10.162 168.277ZM12.826 163.483C12.826 163.039 12.9 162.639 13.048 162.283C13.196 161.927 13.406 161.623 13.678 161.371C13.95 161.119 14.28 160.927 14.668 160.795C15.052 160.659 15.482 160.591 15.958 160.591C16.438 160.591 16.87 160.659 17.254 160.795C17.638 160.927 17.966 161.119 18.238 161.371C18.51 161.623 18.72 161.927 18.868 162.283C19.012 162.639 19.084 163.039 19.084 163.483C19.084 163.931 19.012 164.335 18.868 164.695C18.72 165.051 18.51 165.355 18.238 165.607C17.966 165.859 17.638 166.053 17.254 166.189C16.87 166.321 16.438 166.387 15.958 166.387C15.482 166.387 15.052 166.321 14.668 166.189C14.28 166.053 13.95 165.859 13.678 165.607C13.406 165.355 13.196 165.051 13.048 164.695C12.9 164.335 12.826 163.931 12.826 163.483ZM18.25 163.483C18.25 162.883 18.05 162.435 17.65 162.139C17.246 161.843 16.684 161.695 15.964 161.695C15.24 161.695 14.676 161.843 14.272 162.139C13.868 162.435 13.666 162.883 13.666 163.483C13.666 163.787 13.718 164.053 13.822 164.281C13.926 164.505 14.076 164.693 14.272 164.845C14.468 164.993 14.71 165.105 14.998 165.181C15.282 165.253 15.604 165.289 15.964 165.289C16.684 165.289 17.246 165.141 17.65 164.845C18.05 164.545 18.25 164.091 18.25 163.483ZM12.922 150.448L19 152.416L19 153.262C19 153.366 18.932 153.438 18.796 153.478L14.674 154.822C14.582 154.854 14.49 154.88 14.398 154.9C14.302 154.92 14.208 154.94 14.116 154.96C14.208 154.98 14.302 155 14.398 155.02C14.49 155.04 14.584 155.066 14.68 155.098L18.796 156.466C18.932 156.502 19 156.582 19 156.706L19 157.51L12.922 159.478L12.922 158.638C12.922 158.554 12.944 158.484 12.988 158.428C13.032 158.368 13.084 158.328 13.144 158.308L17.056 157.144C17.344 157.076 17.616 157.022 17.872 156.982C17.74 156.946 17.606 156.91 17.47 156.874C17.334 156.834 17.196 156.792 17.056 156.748L13.12 155.464C13.06 155.444 13.01 155.41 12.97 155.362C12.93 155.31 12.91 155.248 12.91 155.176L12.91 154.708C12.91 154.628 12.93 154.562 12.97 154.51C13.01 154.458 13.06 154.422 13.12 154.402L17.056 153.148C17.196 153.104 17.334 153.064 17.47 153.028C17.606 152.992 17.74 152.958 17.872 152.926C17.74 152.906 17.608 152.882 17.476 152.854C17.34 152.822 17.2 152.788 17.056 152.752L13.144 151.564C13.08 151.544 13.028 151.506 12.988 151.45C12.944 151.394 12.922 151.328 12.922 151.252L12.922 150.448ZM14.95 149.004L14.95 146.04L15.856 146.04L15.856 149.004L14.95 149.004ZM18.076 140.385C18.076 140.029 18.016 139.711 17.896 139.431C17.776 139.151 17.608 138.915 17.392 138.723C17.176 138.527 16.918 138.379 16.618 138.279C16.318 138.175 15.988 138.123 15.628 138.123L10.402 138.123L10.402 136.965L15.628 136.965C16.124 136.965 16.584 137.045 17.008 137.205C17.432 137.361 17.8 137.587 18.112 137.883C18.42 138.175 18.662 138.533 18.838 138.957C19.014 139.381 19.102 139.857 19.102 140.385C19.102 140.913 19.014 141.389 18.838 141.813C18.662 142.237 18.42 142.597 18.112 142.893C17.8 143.189 17.432 143.417 17.008 143.577C16.584 143.733 16.124 143.811 15.628 143.811L10.402 143.811L10.402 142.653L15.622 142.653C15.982 142.653 16.312 142.603 16.612 142.503C16.912 142.399 17.17 142.251 17.386 142.059C17.602 141.863 17.772 141.625 17.896 141.345C18.016 141.061 18.076 140.741 18.076 140.385ZM17.536 133.732C17.8 133.536 17.986 133.322 18.094 133.09C18.202 132.858 18.256 132.598 18.256 132.31C18.256 131.742 18.054 131.306 17.65 131.002C17.246 130.698 16.67 130.546 15.922 130.546C15.526 130.546 15.186 130.582 14.902 130.654C14.618 130.722 14.386 130.822 14.206 130.954C14.022 131.086 13.888 131.248 13.804 131.44C13.72 131.632 13.678 131.85 13.678 132.094C13.678 132.442 13.758 132.748 13.918 133.012C14.078 133.272 14.304 133.512 14.596 133.732L17.536 133.732ZM13.864 133.786C13.548 133.53 13.294 133.234 13.102 132.898C12.91 132.562 12.814 132.178 12.814 131.746C12.814 131.394 12.882 131.076 13.018 130.792C13.15 130.508 13.348 130.266 13.612 130.066C13.872 129.866 14.196 129.712 14.584 129.604C14.972 129.496 15.418 129.442 15.922 129.442C16.37 129.442 16.788 129.502 17.176 129.622C17.56 129.742 17.894 129.916 18.178 130.144C18.458 130.368 18.68 130.644 18.844 130.972C19.004 131.296 19.084 131.662 19.084 132.07C19.084 132.442 19.022 132.762 18.898 133.03C18.77 133.294 18.594 133.528 18.37 133.732L21.058 133.732L21.058 134.806L12.922 134.806L12.922 134.164C12.922 134.012 12.996 133.918 13.144 133.882L13.864 133.786ZM11.38 118.307L11.38 121.091L19 121.091L19 122.249L11.38 122.249L11.38 125.039L10.402 125.039L10.402 118.307L11.38 118.307ZM12.922 115.69L19 115.69L19 116.758L12.922 116.758L12.922 115.69ZM11.014 115.462C11.118 115.462 11.216 115.484 11.308 115.528C11.396 115.568 11.476 115.624 11.548 115.696C11.616 115.764 11.67 115.846 11.71 115.942C11.75 116.034 11.77 116.132 11.77 116.236C11.77 116.34 11.75 116.438 11.71 116.53C11.67 116.618 11.616 116.696 11.548 116.764C11.476 116.832 11.396 116.886 11.308 116.926C11.216 116.966 11.118 116.986 11.014 116.986C10.91 116.986 10.812 116.966 10.72 116.926C10.624 116.886 10.542 116.832 10.474 116.764C10.402 116.696 10.346 116.618 10.306 116.53C10.266 116.438 10.246 116.34 10.246 116.236C10.246 116.132 10.266 116.034 10.306 115.942C10.346 115.846 10.402 115.764 10.474 115.696C10.542 115.624 10.624 115.568 10.72 115.528C10.812 115.484 10.91 115.462 11.014 115.462ZM19 113.435L12.922 113.435L12.922 112.793C12.922 112.641 12.996 112.547 13.144 112.511L13.768 112.433C13.492 112.209 13.266 111.957 13.09 111.677C12.914 111.397 12.826 111.073 12.826 110.705C12.826 110.297 12.94 109.967 13.168 109.715C13.396 109.459 13.704 109.275 14.092 109.163C13.872 109.075 13.682 108.963 13.522 108.827C13.362 108.687 13.23 108.531 13.126 108.359C13.022 108.187 12.946 108.005 12.898 107.813C12.85 107.617 12.826 107.419 12.826 107.219C12.826 106.899 12.878 106.615 12.982 106.367C13.082 106.115 13.23 105.903 13.426 105.731C13.622 105.555 13.864 105.421 14.152 105.329C14.436 105.237 14.762 105.191 15.13 105.191L19 105.191L19 106.265L15.13 106.265C14.654 106.265 14.294 106.369 14.05 106.577C13.802 106.785 13.678 107.085 13.678 107.477C13.678 107.653 13.71 107.821 13.774 107.981C13.834 108.137 13.924 108.275 14.044 108.395C14.164 108.515 14.316 108.611 14.5 108.683C14.68 108.751 14.89 108.785 15.13 108.785L19 108.785L19 109.859L15.13 109.859C14.642 109.859 14.278 109.957 14.038 110.153C13.798 110.349 13.678 110.635 13.678 111.011C13.678 111.275 13.75 111.519 13.894 111.743C14.034 111.967 14.226 112.173 14.47 112.361L19 112.361L19 113.435ZM15.298 99.0001C15.05 99.0001 14.824 99.0361 14.62 99.1081C14.412 99.1761 14.234 99.2781 14.086 99.4141C13.934 99.5461 13.818 99.7081 13.738 99.9001C13.654 100.092 13.612 100.31 13.612 100.554C13.612 101.066 13.762 101.472 14.062 101.772C14.358 102.068 14.77 102.252 15.298 102.324L15.298 99.0001ZM18.148 98.1361C18.308 98.2681 18.448 98.4261 18.568 98.6101C18.684 98.7941 18.78 98.9921 18.856 99.2041C18.932 99.4121 18.988 99.6281 19.024 99.8521C19.064 100.076 19.084 100.298 19.084 100.518C19.084 100.938 19.014 101.326 18.874 101.682C18.73 102.034 18.522 102.34 18.25 102.6C17.974 102.856 17.634 103.056 17.23 103.2C16.826 103.344 16.362 103.416 15.838 103.416C15.414 103.416 15.018 103.352 14.65 103.224C14.282 103.092 13.964 102.904 13.696 102.66C13.424 102.416 13.212 102.118 13.06 101.766C12.904 101.414 12.826 101.018 12.826 100.578C12.826 100.214 12.888 99.8781 13.012 99.5701C13.132 99.2581 13.308 98.9901 13.54 98.7661C13.768 98.5381 14.052 98.3601 14.392 98.2321C14.728 98.1041 15.112 98.0401 15.544 98.0401C15.712 98.0401 15.824 98.0581 15.88 98.0941C15.936 98.1301 15.964 98.1981 15.964 98.2981L15.964 102.36C16.348 102.348 16.682 102.296 16.966 102.204C17.25 102.108 17.488 101.976 17.68 101.808C17.868 101.64 18.01 101.44 18.106 101.208C18.198 100.976 18.244 100.716 18.244 100.428C18.244 100.16 18.214 99.9301 18.154 99.7381C18.09 99.5421 18.022 99.3741 17.95 99.2341C17.878 99.0941 17.812 98.9781 17.752 98.8861C17.688 98.7901 17.656 98.7081 17.656 98.6401C17.656 98.5521 17.69 98.4841 17.758 98.4361L18.148 98.1361ZM15.226 92.0339C16.082 92.0339 16.914 91.9259 17.722 91.7099C18.53 91.4899 19.298 91.1699 20.026 90.7499C20.15 90.6859 20.244 90.6699 20.308 90.7019C20.376 90.7339 20.43 90.7799 20.47 90.8399L20.758 91.3139C20.298 91.6139 19.842 91.8699 19.39 92.0819C18.938 92.2899 18.484 92.4599 18.028 92.5919C17.572 92.7199 17.114 92.8139 16.654 92.8739C16.19 92.9339 15.714 92.9639 15.226 92.9639C14.742 92.9639 14.268 92.9339 13.804 92.8739C13.34 92.8139 12.882 92.7199 12.43 92.5919C11.974 92.4599 11.52 92.2899 11.068 92.0819C10.616 91.8699 10.158 91.6139 9.694 91.3139L9.988 90.8399C10.028 90.7799 10.082 90.7339 10.15 90.7019C10.214 90.6699 10.306 90.6859 10.426 90.7499C11.154 91.1699 11.922 91.4899 12.73 91.7099C13.538 91.9259 14.37 92.0339 15.226 92.0339ZM10.402 81.7407L19 81.7407L19 82.9047L15.088 82.9047L15.088 87.5427L19 87.5427L19 88.7067L10.402 88.7067L10.402 87.5427L14.236 87.5427L14.236 82.9047L10.402 82.9047L10.402 81.7407ZM12.826 76.9201C12.826 76.4761 12.9 76.0761 13.048 75.7201C13.196 75.3641 13.406 75.0601 13.678 74.8081C13.95 74.5561 14.28 74.3641 14.668 74.2321C15.052 74.0961 15.482 74.0281 15.958 74.0281C16.438 74.0281 16.87 74.0961 17.254 74.2321C17.638 74.3641 17.966 74.5561 18.238 74.8081C18.51 75.0601 18.72 75.3641 18.868 75.7201C19.012 76.0761 19.084 76.4761 19.084 76.9201C19.084 77.3681 19.012 77.7721 18.868 78.1321C18.72 78.4881 18.51 78.7921 18.238 79.0441C17.966 79.2961 17.638 79.4901 17.254 79.6261C16.87 79.7581 16.438 79.8241 15.958 79.8241C15.482 79.8241 15.052 79.7581 14.668 79.6261C14.28 79.4901 13.95 79.2961 13.678 79.0441C13.406 78.7921 13.196 78.4881 13.048 78.1321C12.9 77.7721 12.826 77.3681 12.826 76.9201ZM18.25 76.9201C18.25 76.3201 18.05 75.8721 17.65 75.5761C17.246 75.2801 16.684 75.1321 15.964 75.1321C15.24 75.1321 14.676 75.2801 14.272 75.5761C13.868 75.8721 13.666 76.3201 13.666 76.9201C13.666 77.2241 13.718 77.4901 13.822 77.7181C13.926 77.9421 14.076 78.1301 14.272 78.2821C14.468 78.4301 14.71 78.5421 14.998 78.6181C15.282 78.6901 15.604 78.7261 15.964 78.7261C16.684 78.7261 17.246 78.5781 17.65 78.2821C18.05 77.9821 18.25 77.5281 18.25 76.9201ZM12.922 67.1755L19 67.1755L19 67.8115C19 67.9635 18.926 68.0595 18.778 68.0995L18.124 68.1835C18.416 68.4475 18.652 68.7435 18.832 69.0715C19.008 69.3995 19.096 69.7755 19.096 70.1995C19.096 70.5315 19.042 70.8255 18.934 71.0815C18.822 71.3335 18.666 71.5455 18.466 71.7175C18.266 71.8895 18.024 72.0195 17.74 72.1075C17.456 72.1915 17.142 72.2335 16.798 72.2335L12.922 72.2335L12.922 71.1655L16.798 71.1655C17.258 71.1655 17.614 71.0615 17.866 70.8535C18.118 70.6415 18.244 70.3195 18.244 69.8875C18.244 69.5715 18.17 69.2775 18.022 69.0055C17.87 68.7295 17.662 68.4755 17.398 68.2435L12.922 68.2435L12.922 67.1755ZM14.14 63.9681C13.724 63.7761 13.4 63.5401 13.168 63.2601C12.932 62.9801 12.814 62.6381 12.814 62.2341C12.814 62.1061 12.828 61.9841 12.856 61.8681C12.884 61.7481 12.928 61.6421 12.988 61.5501L13.786 61.6281C13.886 61.6521 13.936 61.7121 13.936 61.8081C13.936 61.8641 13.924 61.9461 13.9 62.0541C13.876 62.1621 13.864 62.2841 13.864 62.4201C13.864 62.6121 13.892 62.7841 13.948 62.9361C14.004 63.0841 14.088 63.2181 14.2 63.3381C14.308 63.4541 14.444 63.5601 14.608 63.6561C14.768 63.7481 14.952 63.8321 15.16 63.9081L19 63.9081L19 64.9821L12.922 64.9821L12.922 64.3701C12.922 64.2541 12.944 64.1741 12.988 64.1301C13.032 64.0861 13.108 64.0561 13.216 64.0401L14.14 63.9681ZM13.924 56.6062C14.012 56.6542 14.056 56.7282 14.056 56.8282C14.056 56.8882 14.034 56.9562 13.99 57.0322C13.946 57.1082 13.898 57.2022 13.846 57.3142C13.79 57.4222 13.74 57.5522 13.696 57.7042C13.648 57.8562 13.624 58.0362 13.624 58.2442C13.624 58.4242 13.648 58.5862 13.696 58.7302C13.74 58.8742 13.802 58.9982 13.882 59.1022C13.962 59.2022 14.056 59.2802 14.164 59.3362C14.268 59.3882 14.382 59.4142 14.506 59.4142C14.662 59.4142 14.792 59.3702 14.896 59.2822C15 59.1902 15.09 59.0702 15.166 58.9222C15.242 58.7742 15.31 58.6062 15.37 58.4182C15.426 58.2302 15.488 58.0382 15.556 57.8422C15.62 57.6422 15.692 57.4482 15.772 57.2602C15.852 57.0722 15.952 56.9042 16.072 56.7562C16.192 56.6082 16.34 56.4902 16.516 56.4022C16.688 56.3102 16.896 56.2642 17.14 56.2642C17.42 56.2642 17.68 56.3142 17.92 56.4142C18.156 56.5142 18.362 56.6622 18.538 56.8582C18.71 57.0542 18.846 57.2942 18.946 57.5782C19.046 57.8622 19.096 58.1902 19.096 58.5622C19.096 58.9862 19.028 59.3702 18.892 59.7142C18.752 60.0582 18.574 60.3502 18.358 60.5902L17.95 60.3382C17.898 60.3062 17.858 60.2682 17.83 60.2242C17.802 60.1802 17.788 60.1242 17.788 60.0562C17.788 59.9842 17.816 59.9082 17.872 59.8282C17.928 59.7482 17.99 59.6522 18.058 59.5402C18.126 59.4242 18.188 59.2842 18.244 59.1202C18.3 58.9562 18.328 58.7522 18.328 58.5082C18.328 58.3002 18.302 58.1182 18.25 57.9622C18.194 57.8062 18.12 57.6762 18.028 57.5722C17.936 57.4682 17.83 57.3922 17.71 57.3442C17.59 57.2922 17.462 57.2662 17.326 57.2662C17.158 57.2662 17.02 57.3122 16.912 57.4042C16.8 57.4922 16.706 57.6102 16.63 57.7582C16.55 57.9062 16.482 58.0762 16.426 58.2682C16.366 58.4562 16.304 58.6502 16.24 58.8502C16.176 59.0462 16.104 59.2402 16.024 59.4322C15.94 59.6202 15.836 59.7882 15.712 59.9362C15.588 60.0842 15.436 60.2042 15.256 60.2962C15.072 60.3842 14.85 60.4282 14.59 60.4282C14.358 60.4282 14.136 60.3802 13.924 60.2842C13.708 60.1882 13.52 60.0482 13.36 59.8642C13.196 59.6802 13.066 59.4542 12.97 59.1862C12.874 58.9182 12.826 58.6122 12.826 58.2682C12.826 57.8682 12.89 57.5102 13.018 57.1942C13.142 56.8742 13.314 56.5982 13.534 56.3662L13.924 56.6062ZM15.226 53.8363C14.37 53.8363 13.538 53.9463 12.73 54.1663C11.922 54.3823 11.154 54.7003 10.426 55.1203C10.366 55.1523 10.314 55.1723 10.27 55.1803C10.222 55.1883 10.182 55.1863 10.15 55.1743C10.114 55.1623 10.084 55.1443 10.06 55.1203C10.032 55.0923 10.008 55.0623 9.98799 55.0303L9.69399 54.5563C10.158 54.2563 10.616 54.0023 11.068 53.7943C11.52 53.5823 11.974 53.4123 12.43 53.2843C12.882 53.1523 13.34 53.0563 13.804 52.9963C14.268 52.9363 14.742 52.9063 15.226 52.9063C15.714 52.9063 16.19 52.9363 16.654 52.9963C17.114 53.0563 17.572 53.1523 18.028 53.2843C18.484 53.4123 18.938 53.5823 19.39 53.7943C19.842 54.0023 20.298 54.2563 20.758 54.5563L20.47 55.0303C20.45 55.0623 20.426 55.0923 20.398 55.1203C20.374 55.1443 20.344 55.1623 20.308 55.1743C20.276 55.1863 20.236 55.1883 20.188 55.1803C20.14 55.1723 20.086 55.1523 20.026 55.1203C19.298 54.7003 18.53 54.3823 17.722 54.1663C16.914 53.9463 16.082 53.8363 15.226 53.8363Z" fill="white"/>
<defs>
<linearGradient id="paint0_linear_872_24665" x1="187" y1="-3.17056" x2="187" y2="228" gradientUnits="userSpaceOnUse">
<stop stop-color="#03BAE2"/>
<stop offset="1" stop-color="#03BAE2" stop-opacity="0"/>
</linearGradient>
</defs>
</svg>
