<svg width="270" height="330" viewBox="0 0 270 330" fill="none" xmlns="http://www.w3.org/2000/svg">
<g opacity="0.2">
<path fill-rule="evenodd" clip-rule="evenodd" d="M-18.75 30.9375C-24.4454 30.9375 -29.0625 35.5546 -29.0625 41.25C-29.0625 46.9454 -24.4454 51.5625 -18.75 51.5625V278.438H-29.0625C-34.7579 278.438 -39.375 283.055 -39.375 288.75C-39.375 294.445 -34.7579 299.062 -29.0625 299.062H146.25V51.5625C151.945 51.5625 156.562 46.9454 156.562 41.25C156.562 35.5546 151.945 30.9375 146.25 30.9375H-18.75ZM32.8125 268.125V237.188C32.8125 231.492 37.4296 226.875 43.125 226.875H84.375C90.0704 226.875 94.6875 231.492 94.6875 237.188V268.125C94.6875 273.82 90.0704 278.438 84.375 278.438H43.125C37.4296 278.438 32.8125 273.82 32.8125 268.125ZM22.5 92.8125C22.5 87.1171 27.1171 82.5 32.8125 82.5H43.125C48.8204 82.5 53.4375 87.1171 53.4375 92.8125C53.4375 98.5079 48.8204 103.125 43.125 103.125H32.8125C27.1171 103.125 22.5 98.5079 22.5 92.8125ZM32.8125 123.75C27.1171 123.75 22.5 128.367 22.5 134.062C22.5 139.758 27.1171 144.375 32.8125 144.375H43.125C48.8204 144.375 53.4375 139.758 53.4375 134.062C53.4375 128.367 48.8204 123.75 43.125 123.75H32.8125ZM22.5 175.312C22.5 169.617 27.1171 165 32.8125 165H43.125C48.8204 165 53.4375 169.617 53.4375 175.312C53.4375 181.008 48.8204 185.625 43.125 185.625H32.8125C27.1171 185.625 22.5 181.008 22.5 175.312ZM84.375 82.5C78.6796 82.5 74.0625 87.1171 74.0625 92.8125C74.0625 98.5079 78.6796 103.125 84.375 103.125H94.6875C100.383 103.125 105 98.5079 105 92.8125C105 87.1171 100.383 82.5 94.6875 82.5H84.375ZM74.0625 134.062C74.0625 128.367 78.6796 123.75 84.375 123.75H94.6875C100.383 123.75 105 128.367 105 134.062C105 139.758 100.383 144.375 94.6875 144.375H84.375C78.6796 144.375 74.0625 139.758 74.0625 134.062ZM84.375 165C78.6796 165 74.0625 169.617 74.0625 175.312C74.0625 181.008 78.6796 185.625 84.375 185.625H94.6875C100.383 185.625 105 181.008 105 175.312C105 169.617 100.383 165 94.6875 165H84.375Z" fill="white"/>
<path fill-rule="evenodd" clip-rule="evenodd" d="M166.875 92.8125V299.062H239.062C244.758 299.062 249.375 294.445 249.375 288.75C249.375 283.055 244.758 278.438 239.062 278.438H228.75V113.438C234.445 113.438 239.062 108.82 239.062 103.125C239.062 97.4296 234.445 92.8125 228.75 92.8125H166.875ZM187.5 154.688C187.5 148.992 192.117 144.375 197.812 144.375H197.916C203.611 144.375 208.228 148.992 208.228 154.688V154.791C208.228 160.486 203.611 165.103 197.916 165.103H197.812C192.117 165.103 187.5 160.486 187.5 154.791V154.688ZM197.812 185.625C192.117 185.625 187.5 190.242 187.5 195.938V196.041C187.5 201.736 192.117 206.353 197.812 206.353H197.916C203.611 206.353 208.228 201.736 208.228 196.041V195.938C208.228 190.242 203.611 185.625 197.916 185.625H197.812ZM187.5 237.188C187.5 231.492 192.117 226.875 197.812 226.875H197.916C203.611 226.875 208.228 231.492 208.228 237.188V237.291C208.228 242.986 203.611 247.603 197.916 247.603H197.812C192.117 247.603 187.5 242.986 187.5 237.291V237.188Z" fill="white"/>
</g>
</svg>
