<svg width="259" height="283" viewBox="0 0 259 283" fill="none" xmlns="http://www.w3.org/2000/svg">
<path d="M21.5653 43.7061V52.4333H20.5085V44.814H20.4574L18.3267 46.2288V45.1549L20.5085 43.7061H21.5653ZM26.8026 52.5527C26.3026 52.5527 25.8523 52.4532 25.4517 52.2544C25.0511 52.0555 24.7301 51.7828 24.4886 51.4362C24.2472 51.0896 24.1151 50.6947 24.0923 50.2515H25.1151C25.1548 50.6464 25.3338 50.9731 25.652 51.2316C25.973 51.4873 26.3565 51.6152 26.8026 51.6152C27.1605 51.6152 27.4787 51.5314 27.7571 51.3637C28.0384 51.1961 28.2585 50.966 28.4176 50.6734C28.5795 50.378 28.6605 50.0441 28.6605 49.672C28.6605 49.2913 28.5767 48.9518 28.4091 48.6535C28.2443 48.3524 28.017 48.1152 27.7273 47.9419C27.4375 47.7686 27.1065 47.6805 26.7344 47.6777C26.4673 47.6748 26.1932 47.716 25.9119 47.8012C25.6307 47.8836 25.3991 47.9902 25.2173 48.1208L24.2287 48.0015L24.7571 43.7061H29.2912V44.6436H25.6435L25.3366 47.2174H25.3878C25.5668 47.0754 25.7912 46.9575 26.0611 46.8637C26.331 46.77 26.6122 46.7231 26.9048 46.7231C27.4389 46.7231 27.9148 46.851 28.3324 47.1066C28.7528 47.3595 29.0824 47.7061 29.321 48.1464C29.5625 48.5868 29.6832 49.0896 29.6832 49.6549C29.6832 50.2118 29.5582 50.7089 29.3082 51.1464C29.0611 51.5811 28.7202 51.9248 28.2855 52.1777C27.8509 52.4277 27.3565 52.5527 26.8026 52.5527ZM34.2227 52.5527C33.5806 52.5527 33.0337 52.378 32.582 52.0285C32.1303 51.6762 31.7852 51.1663 31.5465 50.4987C31.3079 49.8282 31.1886 49.0186 31.1886 48.0697C31.1886 47.1265 31.3079 46.3211 31.5465 45.6535C31.788 44.9831 32.1346 44.4717 32.5863 44.1194C33.0408 43.7643 33.5863 43.5868 34.2227 43.5868C34.859 43.5868 35.4031 43.7643 35.8548 44.1194C36.3093 44.4717 36.6559 44.9831 36.8945 45.6535C37.136 46.3211 37.2567 47.1265 37.2567 48.0697C37.2567 49.0186 37.1374 49.8282 36.8988 50.4987C36.6602 51.1663 36.315 51.6762 35.8633 52.0285C35.4116 52.378 34.8647 52.5527 34.2227 52.5527ZM34.2227 51.6152C34.859 51.6152 35.3533 51.3083 35.7056 50.6947C36.0579 50.0811 36.234 49.2061 36.234 48.0697C36.234 47.314 36.1531 46.6706 35.9911 46.1393C35.832 45.6081 35.6019 45.2032 35.3008 44.9248C35.0025 44.6464 34.6431 44.5072 34.2227 44.5072C33.592 44.5072 33.0991 44.8183 32.744 45.4405C32.3888 46.0598 32.2113 46.9362 32.2113 48.0697C32.2113 48.8254 32.2908 49.4674 32.4499 49.9958C32.609 50.5243 32.8377 50.9262 33.136 51.2018C33.4371 51.4774 33.7994 51.6152 34.2227 51.6152ZM39.8306 50.047L39.8136 48.8027H40.0181L42.8817 45.8879H44.1261L41.0749 48.9731H40.9897L39.8306 50.047ZM38.8931 52.4333V43.7061H39.8988V52.4333H38.8931ZM43.0522 52.4333L40.4954 49.1947L41.2113 48.4958L44.3306 52.4333H43.0522Z" fill="#B8C0CC"/>
<path d="M52.5 47.9333H258" stroke="#334E68"/>
<path d="M21.3661 107.573V116.3H20.3093V108.681H20.2582L18.1275 110.096V109.022L20.3093 107.573H21.3661ZM26.7227 116.419C26.0806 116.419 25.5337 116.245 25.082 115.895C24.6303 115.543 24.2852 115.033 24.0465 114.365C23.8079 113.695 23.6886 112.885 23.6886 111.936C23.6886 110.993 23.8079 110.188 24.0465 109.52C24.288 108.85 24.6346 108.338 25.0863 107.986C25.5408 107.631 26.0863 107.453 26.7227 107.453C27.359 107.453 27.9031 107.631 28.3548 107.986C28.8093 108.338 29.1559 108.85 29.3945 109.52C29.636 110.188 29.7567 110.993 29.7567 111.936C29.7567 112.885 29.6374 113.695 29.3988 114.365C29.1602 115.033 28.815 115.543 28.3633 115.895C27.9116 116.245 27.3647 116.419 26.7227 116.419ZM26.7227 115.482C27.359 115.482 27.8533 115.175 28.2056 114.561C28.5579 113.948 28.734 113.073 28.734 111.936C28.734 111.181 28.6531 110.537 28.4911 110.006C28.332 109.475 28.1019 109.07 27.8008 108.792C27.5025 108.513 27.1431 108.374 26.7227 108.374C26.092 108.374 25.5991 108.685 25.244 109.307C24.8888 109.926 24.7113 110.803 24.7113 111.936C24.7113 112.692 24.7908 113.334 24.9499 113.863C25.109 114.391 25.3377 114.793 25.636 115.069C25.9371 115.344 26.2994 115.482 26.7227 115.482ZM34.2227 116.419C33.5806 116.419 33.0337 116.245 32.582 115.895C32.1303 115.543 31.7852 115.033 31.5465 114.365C31.3079 113.695 31.1886 112.885 31.1886 111.936C31.1886 110.993 31.3079 110.188 31.5465 109.52C31.788 108.85 32.1346 108.338 32.5863 107.986C33.0408 107.631 33.5863 107.453 34.2227 107.453C34.859 107.453 35.4031 107.631 35.8548 107.986C36.3093 108.338 36.6559 108.85 36.8945 109.52C37.136 110.188 37.2567 110.993 37.2567 111.936C37.2567 112.885 37.1374 113.695 36.8988 114.365C36.6602 115.033 36.315 115.543 35.8633 115.895C35.4116 116.245 34.8647 116.419 34.2227 116.419ZM34.2227 115.482C34.859 115.482 35.3533 115.175 35.7056 114.561C36.0579 113.948 36.234 113.073 36.234 111.936C36.234 111.181 36.1531 110.537 35.9911 110.006C35.832 109.475 35.6019 109.07 35.3008 108.792C35.0025 108.513 34.6431 108.374 34.2227 108.374C33.592 108.374 33.0991 108.685 32.744 109.307C32.3888 109.926 32.2113 110.803 32.2113 111.936C32.2113 112.692 32.2908 113.334 32.4499 113.863C32.609 114.391 32.8377 114.793 33.136 115.069C33.4371 115.344 33.7994 115.482 34.2227 115.482ZM39.8306 113.914L39.8136 112.669H40.0181L42.8817 109.755H44.1261L41.0749 112.84H40.9897L39.8306 113.914ZM38.8931 116.3V107.573H39.8988V116.3H38.8931ZM43.0522 116.3L40.4954 113.061L41.2113 112.363L44.3306 116.3H43.0522Z" fill="#B8C0CC"/>
<path d="M52.5 111.8H258" stroke="#334E68"/>
<path d="M26.8026 180.286C26.3026 180.286 25.8523 180.187 25.4517 179.988C25.0511 179.789 24.7301 179.516 24.4886 179.17C24.2472 178.823 24.1151 178.428 24.0923 177.985H25.1151C25.1548 178.38 25.3338 178.707 25.652 178.965C25.973 179.221 26.3565 179.349 26.8026 179.349C27.1605 179.349 27.4787 179.265 27.7571 179.097C28.0384 178.93 28.2585 178.699 28.4176 178.407C28.5795 178.111 28.6605 177.778 28.6605 177.405C28.6605 177.025 28.5767 176.685 28.4091 176.387C28.2443 176.086 28.017 175.849 27.7273 175.675C27.4375 175.502 27.1065 175.414 26.7344 175.411C26.4673 175.408 26.1932 175.449 25.9119 175.535C25.6307 175.617 25.3991 175.724 25.2173 175.854L24.2287 175.735L24.7571 171.439H29.2912V172.377H25.6435L25.3366 174.951H25.3878C25.5668 174.809 25.7912 174.691 26.0611 174.597C26.331 174.503 26.6122 174.457 26.9048 174.457C27.4389 174.457 27.9148 174.584 28.3324 174.84C28.7528 175.093 29.0824 175.439 29.321 175.88C29.5625 176.32 29.6832 176.823 29.6832 177.388C29.6832 177.945 29.5582 178.442 29.3082 178.88C29.0611 179.314 28.7202 179.658 28.2855 179.911C27.8509 180.161 27.3565 180.286 26.8026 180.286ZM34.2227 180.286C33.5806 180.286 33.0337 180.111 32.582 179.762C32.1303 179.41 31.7852 178.9 31.5465 178.232C31.3079 177.562 31.1886 176.752 31.1886 175.803C31.1886 174.86 31.3079 174.055 31.5465 173.387C31.788 172.716 32.1346 172.205 32.5863 171.853C33.0408 171.498 33.5863 171.32 34.2227 171.32C34.859 171.32 35.4031 171.498 35.8548 171.853C36.3093 172.205 36.6559 172.716 36.8945 173.387C37.136 174.055 37.2567 174.86 37.2567 175.803C37.2567 176.752 37.1374 177.562 36.8988 178.232C36.6602 178.9 36.315 179.41 35.8633 179.762C35.4116 180.111 34.8647 180.286 34.2227 180.286ZM34.2227 179.349C34.859 179.349 35.3533 179.042 35.7056 178.428C36.0579 177.814 36.234 176.939 36.234 175.803C36.234 175.047 36.1531 174.404 35.9911 173.873C35.832 173.341 35.6019 172.937 35.3008 172.658C35.0025 172.38 34.6431 172.241 34.2227 172.241C33.592 172.241 33.0991 172.552 32.744 173.174C32.3888 173.793 32.2113 174.67 32.2113 175.803C32.2113 176.559 32.2908 177.201 32.4499 177.729C32.609 178.258 32.8377 178.66 33.136 178.935C33.4371 179.211 33.7994 179.349 34.2227 179.349ZM39.8306 177.78L39.8136 176.536H40.0181L42.8817 173.621H44.1261L41.0749 176.707H40.9897L39.8306 177.78ZM38.8931 180.167V171.439H39.8988V180.167H38.8931ZM43.0522 180.167L40.4954 176.928L41.2113 176.229L44.3306 180.167H43.0522Z" fill="#B8C0CC"/>
<path d="M52.5 175.667H258" stroke="#334E68"/>
<path d="M40.75 229.919C40.108 229.919 39.5611 229.745 39.1094 229.395C38.6577 229.043 38.3125 228.533 38.0739 227.865C37.8352 227.195 37.7159 226.385 37.7159 225.436C37.7159 224.493 37.8352 223.688 38.0739 223.02C38.3153 222.35 38.6619 221.838 39.1136 221.486C39.5682 221.131 40.1136 220.953 40.75 220.953C41.3864 220.953 41.9304 221.131 42.3821 221.486C42.8366 221.838 43.1832 222.35 43.4219 223.02C43.6634 223.688 43.7841 224.493 43.7841 225.436C43.7841 226.385 43.6648 227.195 43.4261 227.865C43.1875 228.533 42.8423 229.043 42.3906 229.395C41.9389 229.745 41.392 229.919 40.75 229.919ZM40.75 228.982C41.3864 228.982 41.8807 228.675 42.233 228.061C42.5852 227.448 42.7614 226.573 42.7614 225.436C42.7614 224.681 42.6804 224.037 42.5185 223.506C42.3594 222.975 42.1293 222.57 41.8281 222.292C41.5298 222.013 41.1705 221.874 40.75 221.874C40.1193 221.874 39.6264 222.185 39.2713 222.807C38.9162 223.426 38.7386 224.303 38.7386 225.436C38.7386 226.192 38.8182 226.834 38.9773 227.363C39.1364 227.891 39.3651 228.293 39.6634 228.569C39.9645 228.844 40.3267 228.982 40.75 228.982Z" fill="#B8C0CC"/>
<rect x="53" y="31.5" width="205" height="195" stroke="#334E68"/>
<path d="M91.3288 239H90.2209L93.4254 230.273H94.5163L97.7209 239H96.6129L94.005 231.653H93.9368L91.3288 239ZM91.7379 235.591H96.2038V236.528H91.7379V235.591ZM101.859 232.455V233.307H98.3303V232.455H101.859ZM99.3871 239V231.551C99.3871 231.176 99.4751 230.864 99.6513 230.614C99.8274 230.364 100.056 230.176 100.337 230.051C100.619 229.926 100.915 229.864 101.228 229.864C101.475 229.864 101.677 229.884 101.833 229.923C101.989 229.963 102.106 230 102.183 230.034L101.893 230.903C101.842 230.886 101.771 230.865 101.68 230.839C101.592 230.814 101.475 230.801 101.33 230.801C100.998 230.801 100.758 230.885 100.61 231.053C100.465 231.22 100.393 231.466 100.393 231.79V239H99.3871ZM106.115 232.455V233.307H102.723V232.455H106.115ZM103.711 230.886H104.717V237.125C104.717 237.409 104.758 237.622 104.841 237.764C104.926 237.903 105.034 237.997 105.164 238.045C105.298 238.091 105.439 238.114 105.586 238.114C105.697 238.114 105.788 238.108 105.859 238.097C105.93 238.082 105.987 238.071 106.029 238.062L106.234 238.966C106.166 238.991 106.071 239.017 105.949 239.043C105.826 239.071 105.672 239.085 105.484 239.085C105.2 239.085 104.922 239.024 104.649 238.902C104.379 238.78 104.154 238.594 103.975 238.344C103.799 238.094 103.711 237.778 103.711 237.398V230.886ZM110.301 239.136C109.671 239.136 109.127 238.997 108.669 238.719C108.215 238.438 107.864 238.045 107.617 237.543C107.373 237.037 107.25 236.449 107.25 235.778C107.25 235.108 107.373 234.517 107.617 234.006C107.864 233.491 108.208 233.091 108.648 232.804C109.091 232.514 109.608 232.369 110.199 232.369C110.54 232.369 110.877 232.426 111.209 232.54C111.542 232.653 111.844 232.838 112.117 233.094C112.39 233.347 112.607 233.682 112.769 234.099C112.931 234.517 113.012 235.031 113.012 235.642V236.068H107.966V235.199H111.989C111.989 234.83 111.915 234.5 111.767 234.21C111.623 233.92 111.415 233.692 111.145 233.524C110.878 233.357 110.563 233.273 110.199 233.273C109.799 233.273 109.452 233.372 109.159 233.571C108.87 233.767 108.647 234.023 108.49 234.338C108.334 234.653 108.256 234.991 108.256 235.352V235.932C108.256 236.426 108.341 236.845 108.512 237.189C108.685 237.53 108.925 237.79 109.232 237.969C109.539 238.145 109.895 238.233 110.301 238.233C110.566 238.233 110.804 238.196 111.017 238.122C111.233 238.045 111.419 237.932 111.576 237.781C111.732 237.628 111.853 237.437 111.938 237.21L112.909 237.483C112.807 237.812 112.635 238.102 112.394 238.352C112.152 238.599 111.854 238.793 111.499 238.932C111.144 239.068 110.745 239.136 110.301 239.136ZM114.542 239V232.455H115.513V233.443H115.581C115.701 233.119 115.917 232.857 116.229 232.655C116.542 232.453 116.894 232.352 117.286 232.352C117.36 232.352 117.452 232.354 117.563 232.357C117.674 232.359 117.757 232.364 117.814 232.369V233.392C117.78 233.384 117.702 233.371 117.58 233.354C117.461 233.334 117.334 233.324 117.201 233.324C116.882 233.324 116.598 233.391 116.348 233.524C116.101 233.655 115.905 233.837 115.76 234.07C115.618 234.3 115.547 234.562 115.547 234.858V239H114.542Z" fill="#B8C0CC"/>
<path d="M189.43 239V230.273H192.481C193.089 230.273 193.59 230.378 193.985 230.588C194.38 230.795 194.674 231.075 194.867 231.428C195.061 231.777 195.157 232.165 195.157 232.591C195.157 232.966 195.09 233.276 194.957 233.52C194.826 233.764 194.653 233.957 194.437 234.099C194.224 234.241 193.992 234.347 193.742 234.415V234.5C194.009 234.517 194.278 234.611 194.548 234.781C194.818 234.952 195.044 235.196 195.225 235.514C195.407 235.832 195.498 236.222 195.498 236.682C195.498 237.119 195.399 237.513 195.2 237.862C195.001 238.212 194.687 238.489 194.258 238.693C193.829 238.898 193.271 239 192.583 239H189.43ZM190.487 238.062H192.583C193.274 238.062 193.764 237.929 194.053 237.662C194.346 237.392 194.492 237.065 194.492 236.682C194.492 236.386 194.417 236.114 194.267 235.864C194.116 235.611 193.901 235.409 193.623 235.259C193.345 235.105 193.015 235.028 192.634 235.028H190.487V238.062ZM190.487 234.108H192.447C192.765 234.108 193.052 234.045 193.308 233.92C193.566 233.795 193.771 233.619 193.921 233.392C194.075 233.165 194.151 232.898 194.151 232.591C194.151 232.207 194.018 231.882 193.751 231.615C193.484 231.345 193.061 231.21 192.481 231.21H190.487V234.108ZM199.843 239.136C199.212 239.136 198.668 238.997 198.21 238.719C197.756 238.438 197.405 238.045 197.158 237.543C196.914 237.037 196.791 236.449 196.791 235.778C196.791 235.108 196.914 234.517 197.158 234.006C197.405 233.491 197.749 233.091 198.189 232.804C198.632 232.514 199.149 232.369 199.74 232.369C200.081 232.369 200.418 232.426 200.75 232.54C201.083 232.653 201.385 232.838 201.658 233.094C201.931 233.347 202.148 233.682 202.31 234.099C202.472 234.517 202.553 235.031 202.553 235.642V236.068H197.507V235.199H201.53C201.53 234.83 201.456 234.5 201.308 234.21C201.164 233.92 200.956 233.692 200.686 233.524C200.419 233.357 200.104 233.273 199.74 233.273C199.34 233.273 198.993 233.372 198.7 233.571C198.411 233.767 198.188 234.023 198.031 234.338C197.875 234.653 197.797 234.991 197.797 235.352V235.932C197.797 236.426 197.882 236.845 198.053 237.189C198.226 237.53 198.466 237.79 198.773 237.969C199.08 238.145 199.436 238.233 199.843 238.233C200.107 238.233 200.345 238.196 200.558 238.122C200.774 238.045 200.96 237.932 201.117 237.781C201.273 237.628 201.394 237.437 201.479 237.21L202.45 237.483C202.348 237.812 202.176 238.102 201.935 238.352C201.693 238.599 201.395 238.793 201.04 238.932C200.685 239.068 200.286 239.136 199.843 239.136ZM206.997 232.455V233.307H203.469V232.455H206.997ZM204.526 239V231.551C204.526 231.176 204.614 230.864 204.79 230.614C204.966 230.364 205.195 230.176 205.476 230.051C205.757 229.926 206.054 229.864 206.367 229.864C206.614 229.864 206.816 229.884 206.972 229.923C207.128 229.963 207.244 230 207.321 230.034L207.031 230.903C206.98 230.886 206.909 230.865 206.818 230.839C206.73 230.814 206.614 230.801 206.469 230.801C206.137 230.801 205.896 230.885 205.749 231.053C205.604 231.22 205.531 231.466 205.531 231.79V239H204.526ZM210.796 239.136C210.205 239.136 209.687 238.996 209.241 238.714C208.798 238.433 208.451 238.04 208.201 237.534C207.954 237.028 207.83 236.437 207.83 235.761C207.83 235.08 207.954 234.484 208.201 233.976C208.451 233.467 208.798 233.072 209.241 232.791C209.687 232.51 210.205 232.369 210.796 232.369C211.387 232.369 211.904 232.51 212.347 232.791C212.794 233.072 213.14 233.467 213.387 233.976C213.637 234.484 213.762 235.08 213.762 235.761C213.762 236.437 213.637 237.028 213.387 237.534C213.14 238.04 212.794 238.433 212.347 238.714C211.904 238.996 211.387 239.136 210.796 239.136ZM210.796 238.233C211.245 238.233 211.615 238.118 211.904 237.888C212.194 237.658 212.409 237.355 212.548 236.98C212.687 236.605 212.757 236.199 212.757 235.761C212.757 235.324 212.687 234.916 212.548 234.538C212.409 234.161 212.194 233.855 211.904 233.622C211.615 233.389 211.245 233.273 210.796 233.273C210.347 233.273 209.978 233.389 209.688 233.622C209.399 233.855 209.184 234.161 209.045 234.538C208.906 234.916 208.836 235.324 208.836 235.761C208.836 236.199 208.906 236.605 209.045 236.98C209.184 237.355 209.399 237.658 209.688 237.888C209.978 238.118 210.347 238.233 210.796 238.233ZM215.297 239V232.455H216.269V233.443H216.337C216.456 233.119 216.672 232.857 216.985 232.655C217.297 232.453 217.65 232.352 218.042 232.352C218.116 232.352 218.208 232.354 218.319 232.357C218.43 232.359 218.513 232.364 218.57 232.369V233.392C218.536 233.384 218.458 233.371 218.336 233.354C218.216 233.334 218.09 233.324 217.956 233.324C217.638 233.324 217.354 233.391 217.104 233.524C216.857 233.655 216.661 233.837 216.516 234.07C216.374 234.3 216.303 234.562 216.303 234.858V239H215.297ZM222.307 239.136C221.677 239.136 221.133 238.997 220.675 238.719C220.221 238.438 219.87 238.045 219.623 237.543C219.378 237.037 219.256 236.449 219.256 235.778C219.256 235.108 219.378 234.517 219.623 234.006C219.87 233.491 220.214 233.091 220.654 232.804C221.097 232.514 221.614 232.369 222.205 232.369C222.546 232.369 222.883 232.426 223.215 232.54C223.547 232.653 223.85 232.838 224.123 233.094C224.395 233.347 224.613 233.682 224.775 234.099C224.937 234.517 225.018 235.031 225.018 235.642V236.068H219.972V235.199H223.995C223.995 234.83 223.921 234.5 223.773 234.21C223.628 233.92 223.421 233.692 223.151 233.524C222.884 233.357 222.569 233.273 222.205 233.273C221.805 233.273 221.458 233.372 221.165 233.571C220.876 233.767 220.653 234.023 220.496 234.338C220.34 234.653 220.262 234.991 220.262 235.352V235.932C220.262 236.426 220.347 236.845 220.518 237.189C220.691 237.53 220.931 237.79 221.238 237.969C221.545 238.145 221.901 238.233 222.307 238.233C222.572 238.233 222.81 238.196 223.023 238.122C223.239 238.045 223.425 237.932 223.581 237.781C223.738 237.628 223.858 237.437 223.944 237.21L224.915 237.483C224.813 237.812 224.641 238.102 224.4 238.352C224.158 238.599 223.86 238.793 223.505 238.932C223.15 239.068 222.751 239.136 222.307 239.136Z" fill="#B8C0CC"/>
<rect x="52.5" y="176" width="101" height="51" rx="1.5" fill="#4006DE" fill-opacity="0.8"/>
<rect x="154.5" y="48" width="103" height="179" rx="1.5" fill="#475569"/>
<path d="M7.724 143.43C7.724 143.366 7.75 143.31 7.802 143.262L8.3 142.8C8.708 143.152 9.026 143.58 9.254 144.084C9.482 144.584 9.596 145.19 9.596 145.902C9.596 146.518 9.49 147.078 9.278 147.582C9.062 148.086 8.762 148.516 8.378 148.872C7.99 149.228 7.526 149.504 6.986 149.7C6.446 149.896 5.852 149.994 5.204 149.994C4.556 149.994 3.962 149.892 3.422 149.688C2.882 149.484 2.418 149.198 2.03 148.83C1.642 148.458 1.342 148.014 1.13 147.498C0.913999 146.982 0.805999 146.412 0.805999 145.788C0.805999 145.176 0.903999 144.636 1.1 144.168C1.296 143.7 1.562 143.288 1.898 142.932L2.432 143.316C2.472 143.34 2.506 143.372 2.534 143.412C2.558 143.448 2.57 143.498 2.57 143.562C2.57 143.634 2.532 143.722 2.456 143.826C2.376 143.93 2.288 144.066 2.192 144.234C2.096 144.402 2.01 144.612 1.934 144.864C1.854 145.116 1.814 145.426 1.814 145.794C1.814 146.238 1.892 146.644 2.048 147.012C2.2 147.38 2.422 147.698 2.714 147.966C3.006 148.23 3.362 148.436 3.782 148.584C4.202 148.732 4.676 148.806 5.204 148.806C5.74 148.806 6.218 148.73 6.638 148.578C7.058 148.422 7.414 148.212 7.706 147.948C7.994 147.68 8.214 147.366 8.366 147.006C8.518 146.642 8.594 146.25 8.594 145.83C8.594 145.574 8.58 145.344 8.552 145.14C8.52 144.932 8.472 144.742 8.408 144.57C8.344 144.394 8.264 144.232 8.168 144.084C8.068 143.932 7.95 143.782 7.814 143.634C7.754 143.566 7.724 143.498 7.724 143.43ZM3.326 138.758C3.326 138.314 3.4 137.914 3.548 137.558C3.696 137.202 3.906 136.898 4.178 136.646C4.45 136.394 4.78 136.202 5.168 136.07C5.552 135.934 5.982 135.866 6.458 135.866C6.938 135.866 7.37 135.934 7.754 136.07C8.138 136.202 8.466 136.394 8.738 136.646C9.01 136.898 9.22 137.202 9.368 137.558C9.512 137.914 9.584 138.314 9.584 138.758C9.584 139.206 9.512 139.61 9.368 139.97C9.22 140.326 9.01 140.63 8.738 140.882C8.466 141.134 8.138 141.328 7.754 141.464C7.37 141.596 6.938 141.662 6.458 141.662C5.982 141.662 5.552 141.596 5.168 141.464C4.78 141.328 4.45 141.134 4.178 140.882C3.906 140.63 3.696 140.326 3.548 139.97C3.4 139.61 3.326 139.206 3.326 138.758ZM8.75 138.758C8.75 138.158 8.55 137.71 8.15 137.414C7.746 137.118 7.184 136.97 6.464 136.97C5.74 136.97 5.176 137.118 4.772 137.414C4.368 137.71 4.166 138.158 4.166 138.758C4.166 139.062 4.218 139.328 4.322 139.556C4.426 139.78 4.576 139.968 4.772 140.12C4.968 140.268 5.21 140.38 5.498 140.456C5.782 140.528 6.104 140.564 6.464 140.564C7.184 140.564 7.746 140.416 8.15 140.12C8.55 139.82 8.75 139.366 8.75 138.758ZM4.424 130.471C4.512 130.519 4.556 130.593 4.556 130.693C4.556 130.753 4.534 130.821 4.49 130.897C4.446 130.973 4.398 131.067 4.346 131.179C4.29 131.287 4.24 131.417 4.196 131.569C4.148 131.721 4.124 131.901 4.124 132.109C4.124 132.289 4.148 132.451 4.196 132.595C4.24 132.739 4.302 132.863 4.382 132.967C4.462 133.067 4.556 133.145 4.664 133.201C4.768 133.253 4.882 133.279 5.006 133.279C5.162 133.279 5.292 133.235 5.396 133.147C5.5 133.055 5.59 132.935 5.666 132.787C5.742 132.639 5.81 132.471 5.87 132.283C5.926 132.095 5.988 131.903 6.056 131.707C6.12 131.507 6.192 131.313 6.272 131.125C6.352 130.937 6.452 130.769 6.572 130.621C6.692 130.473 6.84 130.355 7.016 130.267C7.188 130.175 7.396 130.129 7.64 130.129C7.92 130.129 8.18 130.179 8.42 130.279C8.656 130.379 8.862 130.527 9.038 130.723C9.21 130.919 9.346 131.159 9.446 131.443C9.546 131.727 9.596 132.055 9.596 132.427C9.596 132.851 9.528 133.235 9.392 133.579C9.252 133.923 9.074 134.215 8.858 134.455L8.45 134.203C8.398 134.171 8.358 134.133 8.33 134.089C8.302 134.045 8.288 133.989 8.288 133.921C8.288 133.849 8.316 133.773 8.372 133.693C8.428 133.613 8.49 133.517 8.558 133.405C8.626 133.289 8.688 133.149 8.744 132.985C8.8 132.821 8.828 132.617 8.828 132.373C8.828 132.165 8.802 131.983 8.75 131.827C8.694 131.671 8.62 131.541 8.528 131.437C8.436 131.333 8.33 131.257 8.21 131.209C8.09 131.157 7.962 131.131 7.826 131.131C7.658 131.131 7.52 131.177 7.412 131.269C7.3 131.357 7.206 131.475 7.13 131.623C7.05 131.771 6.982 131.941 6.926 132.133C6.866 132.321 6.804 132.515 6.74 132.715C6.676 132.911 6.604 133.105 6.524 133.297C6.44 133.485 6.336 133.653 6.212 133.801C6.088 133.949 5.936 134.069 5.756 134.161C5.572 134.249 5.35 134.293 5.09 134.293C4.858 134.293 4.636 134.245 4.424 134.149C4.208 134.053 4.02 133.913 3.86 133.729C3.696 133.545 3.566 133.319 3.47 133.051C3.374 132.783 3.326 132.477 3.326 132.133C3.326 131.733 3.39 131.375 3.518 131.059C3.642 130.739 3.814 130.463 4.034 130.231L4.424 130.471ZM9.596 126.454C9.596 126.934 9.462 127.304 9.194 127.564C8.926 127.82 8.54 127.948 8.036 127.948L4.316 127.948L4.316 128.68C4.316 128.744 4.298 128.798 4.262 128.842C4.222 128.886 4.162 128.908 4.082 128.908L3.656 128.908L3.53 127.912L1.652 127.666C1.592 127.654 1.544 127.628 1.508 127.588C1.468 127.544 1.448 127.488 1.448 127.42L1.448 126.88L3.542 126.88L3.542 125.122L4.316 125.122L4.316 126.88L7.964 126.88C8.22 126.88 8.41 126.818 8.534 126.694C8.658 126.57 8.72 126.41 8.72 126.214C8.72 126.102 8.706 126.006 8.678 125.926C8.646 125.842 8.612 125.77 8.576 125.71C8.54 125.65 8.508 125.6 8.48 125.56C8.448 125.516 8.432 125.478 8.432 125.446C8.432 125.39 8.466 125.34 8.534 125.296L9.044 124.984C9.216 125.168 9.352 125.39 9.452 125.65C9.548 125.91 9.596 126.178 9.596 126.454ZM5.726 119.325C6.582 119.325 7.414 119.217 8.222 119.001C9.03 118.781 9.798 118.461 10.526 118.041C10.65 117.977 10.744 117.961 10.808 117.993C10.876 118.025 10.93 118.071 10.97 118.131L11.258 118.605C10.798 118.905 10.342 119.161 9.89 119.373C9.438 119.581 8.984 119.751 8.528 119.883C8.072 120.011 7.614 120.105 7.154 120.165C6.69 120.225 6.214 120.255 5.726 120.255C5.242 120.255 4.768 120.225 4.304 120.165C3.84 120.105 3.382 120.011 2.93 119.883C2.474 119.751 2.02 119.581 1.568 119.373C1.116 119.161 0.657998 118.905 0.193998 118.605L0.487998 118.131C0.527998 118.071 0.581998 118.025 0.649998 117.993C0.713998 117.961 0.805998 117.977 0.925998 118.041C1.654 118.461 2.422 118.781 3.23 119.001C4.038 119.217 4.87 119.325 5.726 119.325ZM4.106 116.958L4.106 116.076C3.602 115.996 3.148 115.862 2.744 115.674C2.336 115.482 1.99 115.246 1.706 114.966C1.418 114.682 1.198 114.358 1.046 113.994C0.893998 113.626 0.817998 113.226 0.817998 112.794C0.817998 112.526 0.843998 112.278 0.895998 112.05C0.947998 111.822 1.022 111.612 1.118 111.42C1.214 111.224 1.332 111.044 1.472 110.88C1.612 110.716 1.77 110.564 1.946 110.424L2.354 110.796C2.39 110.824 2.422 110.856 2.45 110.892C2.474 110.924 2.486 110.968 2.486 111.024C2.486 111.092 2.448 111.164 2.372 111.24C2.296 111.312 2.212 111.41 2.12 111.534C2.028 111.658 1.944 111.816 1.868 112.008C1.792 112.2 1.754 112.446 1.754 112.746C1.754 113.33 1.954 113.816 2.354 114.204C2.754 114.588 3.338 114.844 4.106 114.972L4.106 111.69L4.436 111.69C4.508 111.69 4.574 111.718 4.634 111.774C4.69 111.826 4.718 111.902 4.718 112.002L4.718 115.044C4.798 115.048 4.878 115.052 4.958 115.056C5.038 115.056 5.12 115.056 5.204 115.056C5.268 115.056 5.33 115.056 5.39 115.056C5.45 115.056 5.51 115.054 5.57 115.05L5.57 112.248L5.906 112.248C5.974 112.248 6.038 112.278 6.098 112.338C6.154 112.394 6.182 112.468 6.182 112.56L6.182 114.996C7.006 114.884 7.624 114.638 8.036 114.258C8.448 113.874 8.654 113.39 8.654 112.806C8.654 112.59 8.634 112.4 8.594 112.236C8.55 112.072 8.496 111.93 8.432 111.81C8.368 111.69 8.3 111.588 8.228 111.504C8.152 111.416 8.082 111.34 8.018 111.276C7.954 111.212 7.902 111.156 7.862 111.108C7.818 111.056 7.796 111.006 7.796 110.958C7.796 110.922 7.802 110.892 7.814 110.868C7.826 110.844 7.848 110.816 7.88 110.784L8.3 110.334C8.704 110.618 9.02 110.968 9.248 111.384C9.476 111.8 9.59 112.292 9.59 112.86C9.59 113.324 9.512 113.742 9.356 114.114C9.196 114.486 8.97 114.81 8.678 115.086C8.382 115.358 8.024 115.58 7.604 115.752C7.18 115.924 6.706 116.042 6.182 116.106L6.182 116.958L5.57 116.958L5.57 116.154C5.51 116.158 5.45 116.16 5.39 116.16C5.33 116.16 5.268 116.16 5.204 116.16C5.124 116.16 5.044 116.16 4.964 116.16C4.88 116.156 4.798 116.152 4.718 116.148L4.718 116.958L4.106 116.958ZM5.726 107.901C4.87 107.901 4.038 108.011 3.23 108.231C2.422 108.447 1.654 108.765 0.925998 109.185C0.865998 109.217 0.813998 109.237 0.769998 109.245C0.721998 109.253 0.681998 109.251 0.649998 109.239C0.613998 109.227 0.583998 109.209 0.559997 109.185C0.531998 109.157 0.507998 109.127 0.487998 109.095L0.193997 108.621C0.657998 108.321 1.116 108.067 1.568 107.859C2.02 107.647 2.474 107.477 2.93 107.349C3.382 107.217 3.84 107.121 4.304 107.061C4.768 107.001 5.242 106.971 5.726 106.971C6.214 106.971 6.69 107.001 7.154 107.061C7.614 107.121 8.072 107.217 8.528 107.349C8.984 107.477 9.438 107.647 9.89 107.859C10.342 108.067 10.798 108.321 11.258 108.621L10.97 109.095C10.95 109.127 10.926 109.157 10.898 109.185C10.874 109.209 10.844 109.227 10.808 109.239C10.776 109.251 10.736 109.253 10.688 109.245C10.64 109.237 10.586 109.217 10.526 109.185C9.798 108.765 9.03 108.447 8.222 108.231C7.414 108.011 6.582 107.901 5.726 107.901Z" fill="white"/>
</svg>
