<svg width="270" height="330" viewBox="0 0 270 330" fill="none" xmlns="http://www.w3.org/2000/svg">
<g opacity="0.2">
<path d="M166.875 103.125H43.125V226.875H166.875V103.125Z" fill="white"/>
<path fill-rule="evenodd" clip-rule="evenodd" d="M53.4375 30.9375C59.1329 30.9375 63.75 35.5546 63.75 41.25V51.5625H94.6875V41.25C94.6875 35.5546 99.3046 30.9375 105 30.9375C110.695 30.9375 115.312 35.5546 115.312 41.25V51.5625H146.25V41.25C146.25 35.5546 150.867 30.9375 156.562 30.9375C162.258 30.9375 166.875 35.5546 166.875 41.25V51.5625H177.188C199.969 51.5625 218.438 70.0308 218.438 92.8125V103.125H228.75C234.445 103.125 239.062 107.742 239.062 113.438C239.062 119.133 234.445 123.75 228.75 123.75H218.438V154.688H228.75C234.445 154.688 239.062 159.305 239.062 165C239.062 170.695 234.445 175.312 228.75 175.312H218.438V206.25H228.75C234.445 206.25 239.062 210.867 239.062 216.562C239.062 222.258 234.445 226.875 228.75 226.875H218.438V237.188C218.438 259.969 199.969 278.438 177.188 278.438H166.875V288.75C166.875 294.445 162.258 299.062 156.562 299.062C150.867 299.062 146.25 294.445 146.25 288.75V278.438H115.312V288.75C115.312 294.445 110.695 299.062 105 299.062C99.3046 299.062 94.6875 294.445 94.6875 288.75V278.438H63.75V288.75C63.75 294.445 59.1329 299.062 53.4375 299.062C47.7421 299.062 43.125 294.445 43.125 288.75V278.438H32.8125C10.0307 278.438 -8.4375 259.969 -8.4375 237.188V226.875H-18.75C-24.4454 226.875 -29.0625 222.258 -29.0625 216.562C-29.0625 210.867 -24.4454 206.25 -18.75 206.25H-8.4375V175.312H-18.75C-24.4454 175.312 -29.0625 170.695 -29.0625 165C-29.0625 159.305 -24.4454 154.688 -18.75 154.688H-8.4375V123.75H-18.75C-24.4454 123.75 -29.0625 119.133 -29.0625 113.438C-29.0625 107.742 -24.4454 103.125 -18.75 103.125H-8.4375V92.8125C-8.4375 70.0307 10.0308 51.5625 32.8125 51.5625H43.125V41.25C43.125 35.5546 47.7421 30.9375 53.4375 30.9375ZM22.5 92.8125C22.5 87.1171 27.1171 82.5 32.8125 82.5H177.188C182.883 82.5 187.5 87.1171 187.5 92.8125V237.188C187.5 242.883 182.883 247.5 177.188 247.5H32.8125C27.1171 247.5 22.5 242.883 22.5 237.188V92.8125Z" fill="white"/>
</g>
</svg>
