<svg width="253" height="283" viewBox="0 0 253 283" fill="none" xmlns="http://www.w3.org/2000/svg">
<path d="M29.0543 42.6602V41.7909L32.8896 35.7227H33.5202V37.0693H33.0941L30.1964 41.6545V41.7227H35.3612V42.6602H29.0543ZM33.1623 44.45V42.396V41.9911V35.7227H34.168V44.45H33.1623ZM39.8047 44.5693C39.1626 44.5693 38.6158 44.3946 38.1641 44.0451C37.7124 43.6928 37.3672 43.1829 37.1286 42.5153C36.8899 41.8448 36.7706 41.0352 36.7706 40.0863C36.7706 39.1431 36.8899 38.3377 37.1286 37.6701C37.37 36.9997 37.7166 36.4883 38.1683 36.136C38.6229 35.7809 39.1683 35.6034 39.8047 35.6034C40.4411 35.6034 40.9851 35.7809 41.4368 36.136C41.8913 36.4883 42.2379 36.9997 42.4766 37.6701C42.718 38.3377 42.8388 39.1431 42.8388 40.0863C42.8388 41.0352 42.7195 41.8448 42.4808 42.5153C42.2422 43.1829 41.897 43.6928 41.4453 44.0451C40.9936 44.3946 40.4467 44.5693 39.8047 44.5693ZM39.8047 43.6318C40.4411 43.6318 40.9354 43.325 41.2876 42.7113C41.6399 42.0977 41.8161 41.2227 41.8161 40.0863C41.8161 39.3306 41.7351 38.6872 41.5732 38.1559C41.4141 37.6247 41.1839 37.2198 40.8828 36.9414C40.5845 36.663 40.2251 36.5238 39.8047 36.5238C39.174 36.5238 38.6811 36.8349 38.326 37.4571C37.9709 38.0764 37.7933 38.9528 37.7933 40.0863C37.7933 40.842 37.8729 41.484 38.032 42.0125C38.1911 42.5409 38.4197 42.9428 38.718 43.2184C39.0192 43.494 39.3814 43.6318 39.8047 43.6318ZM44.9034 44.5181C44.6932 44.5181 44.5128 44.4428 44.3622 44.2923C44.2116 44.1417 44.1364 43.9613 44.1364 43.7511C44.1364 43.5409 44.2116 43.3605 44.3622 43.2099C44.5128 43.0593 44.6932 42.984 44.9034 42.984C45.1136 42.984 45.294 43.0593 45.4446 43.2099C45.5952 43.3605 45.6705 43.5409 45.6705 43.7511C45.6705 43.8903 45.6349 44.0181 45.5639 44.1346C45.4957 44.2511 45.4034 44.3448 45.2869 44.4159C45.1733 44.484 45.0455 44.5181 44.9034 44.5181ZM50 44.5693C49.358 44.5693 48.8111 44.3946 48.3594 44.0451C47.9077 43.6928 47.5625 43.1829 47.3239 42.5153C47.0852 41.8448 46.9659 41.0352 46.9659 40.0863C46.9659 39.1431 47.0852 38.3377 47.3239 37.6701C47.5653 36.9997 47.9119 36.4883 48.3636 36.136C48.8182 35.7809 49.3636 35.6034 50 35.6034C50.6364 35.6034 51.1804 35.7809 51.6321 36.136C52.0866 36.4883 52.4332 36.9997 52.6719 37.6701C52.9134 38.3377 53.0341 39.1431 53.0341 40.0863C53.0341 41.0352 52.9148 41.8448 52.6761 42.5153C52.4375 43.1829 52.0923 43.6928 51.6406 44.0451C51.1889 44.3946 50.642 44.5693 50 44.5693ZM50 43.6318C50.6364 43.6318 51.1307 43.325 51.483 42.7113C51.8352 42.0977 52.0114 41.2227 52.0114 40.0863C52.0114 39.3306 51.9304 38.6872 51.7685 38.1559C51.6094 37.6247 51.3793 37.2198 51.0781 36.9414C50.7798 36.663 50.4205 36.5238 50 36.5238C49.3693 36.5238 48.8764 36.8349 48.5213 37.4571C48.1662 38.0764 47.9886 38.9528 47.9886 40.0863C47.9886 40.842 48.0682 41.484 48.2273 42.0125C48.3864 42.5409 48.6151 42.9428 48.9134 43.2184C49.2145 43.494 49.5767 43.6318 50 43.6318ZM59.1023 42.8136V42.3534C59.1023 42.0352 59.1676 41.744 59.2983 41.4798C59.4318 41.2127 59.625 40.9997 59.8778 40.8406C60.1335 40.6786 60.4432 40.5977 60.8068 40.5977C61.1761 40.5977 61.4858 40.6786 61.7358 40.8406C61.9858 40.9997 62.1747 41.2127 62.3026 41.4798C62.4304 41.744 62.4943 42.0352 62.4943 42.3534V42.8136C62.4943 43.1318 62.429 43.4244 62.2983 43.6914C62.1705 43.9556 61.9801 44.1687 61.7273 44.3306C61.4773 44.4897 61.1705 44.5693 60.8068 44.5693C60.4375 44.5693 60.1264 44.4897 59.8736 44.3306C59.6207 44.1687 59.429 43.9556 59.2983 43.6914C59.1676 43.4244 59.1023 43.1318 59.1023 42.8136ZM59.9716 42.3534V42.8136C59.9716 43.0778 60.0341 43.315 60.1591 43.5252C60.2841 43.7326 60.5 43.8363 60.8068 43.8363C61.1051 43.8363 61.3153 43.7326 61.4375 43.5252C61.5625 43.315 61.625 43.0778 61.625 42.8136V42.3534C61.625 42.0892 61.5653 41.8534 61.446 41.646C61.3267 41.4357 61.1136 41.3306 60.8068 41.3306C60.5085 41.3306 60.294 41.4357 60.1634 41.646C60.0355 41.8534 59.9716 42.0892 59.9716 42.3534ZM54.7557 37.8193V37.359C54.7557 37.0409 54.821 36.7497 54.9517 36.4855C55.0852 36.2184 55.2784 36.0053 55.5312 35.8463C55.7869 35.6843 56.0966 35.6034 56.4602 35.6034C56.8295 35.6034 57.1392 35.6843 57.3892 35.8463C57.6392 36.0053 57.8281 36.2184 57.956 36.4855C58.0838 36.7497 58.1477 37.0409 58.1477 37.359V37.8193C58.1477 38.1375 58.0824 38.4301 57.9517 38.6971C57.8239 38.9613 57.6335 39.1744 57.3807 39.3363C57.1307 39.4954 56.8239 39.575 56.4602 39.575C56.0909 39.575 55.7798 39.4954 55.527 39.3363C55.2741 39.1744 55.0824 38.9613 54.9517 38.6971C54.821 38.4301 54.7557 38.1375 54.7557 37.8193ZM55.625 37.359V37.8193C55.625 38.0835 55.6875 38.3207 55.8125 38.5309C55.9375 38.7383 56.1534 38.842 56.4602 38.842C56.7585 38.842 56.9688 38.7383 57.0909 38.5309C57.2159 38.3207 57.2784 38.0835 57.2784 37.8193V37.359C57.2784 37.0948 57.2188 36.859 57.0994 36.6517C56.9801 36.4414 56.767 36.3363 56.4602 36.3363C56.1619 36.3363 55.9474 36.4414 55.8168 36.6517C55.6889 36.859 55.625 37.0948 55.625 37.359ZM55.0795 44.45L61.0795 35.7227H62.0511L56.0511 44.45H55.0795Z" fill="#B8C0CC"/>
<path d="M71.5 39.95H229" stroke="#334E68"/>
<path d="M32.2663 92.4692C31.7038 92.4692 31.2024 92.3726 30.7621 92.1794C30.3246 91.9862 29.9766 91.7178 29.718 91.374C29.4624 91.0274 29.3232 90.6254 29.3004 90.168H30.3743C30.397 90.4493 30.4936 90.6922 30.6641 90.8967C30.8345 91.0984 31.0575 91.2547 31.3331 91.3655C31.6087 91.4763 31.9141 91.5317 32.2493 91.5317C32.6243 91.5317 32.9567 91.4663 33.2464 91.3356C33.5362 91.205 33.7635 91.0231 33.9283 90.7902C34.093 90.5572 34.1754 90.2874 34.1754 89.9805C34.1754 89.6595 34.0959 89.3768 33.9368 89.1325C33.7777 88.8854 33.5447 88.6922 33.2379 88.553C32.9311 88.4138 32.5561 88.3442 32.1129 88.3442H31.4141V87.4067H32.1129C32.4595 87.4067 32.7635 87.3442 33.0249 87.2192C33.2891 87.0942 33.495 86.918 33.6428 86.6908C33.7933 86.4635 33.8686 86.1964 33.8686 85.8896C33.8686 85.5942 33.8033 85.3371 33.6726 85.1183C33.5419 84.8996 33.3572 84.7291 33.1186 84.607C32.8828 84.4848 32.6044 84.4237 32.2834 84.4237C31.9822 84.4237 31.6982 84.4791 31.4311 84.5899C31.1669 84.6979 30.951 84.8555 30.7834 85.0629C30.6158 85.2675 30.5249 85.5146 30.5107 85.8044H29.4879C29.505 85.347 29.6428 84.9464 29.9013 84.6027C30.1598 84.2561 30.4979 83.9862 30.9155 83.793C31.3359 83.5999 31.7976 83.5033 32.3004 83.5033C32.8402 83.5033 33.3033 83.6126 33.6896 83.8314C34.076 84.0473 34.3729 84.3328 34.5803 84.6879C34.7876 85.043 34.8913 85.4266 34.8913 85.8385C34.8913 86.33 34.7621 86.749 34.5036 87.0956C34.2479 87.4422 33.8999 87.6822 33.4595 87.8158V87.8839C34.0107 87.9749 34.4411 88.2092 34.7507 88.5871C35.0604 88.9621 35.2152 89.4266 35.2152 89.9805C35.2152 90.455 35.0859 90.8811 34.8274 91.2589C34.5717 91.6339 34.2223 91.9294 33.7791 92.1453C33.3359 92.3612 32.8317 92.4692 32.2663 92.4692ZM39.8047 92.4692C39.1626 92.4692 38.6158 92.2945 38.1641 91.945C37.7124 91.5928 37.3672 91.0828 37.1286 90.4152C36.8899 89.7447 36.7706 88.9351 36.7706 87.9862C36.7706 87.043 36.8899 86.2376 37.1286 85.57C37.37 84.8996 37.7166 84.3882 38.1683 84.0359C38.6229 83.6808 39.1683 83.5033 39.8047 83.5033C40.4411 83.5033 40.9851 83.6808 41.4368 84.0359C41.8913 84.3882 42.2379 84.8996 42.4766 85.57C42.718 86.2376 42.8388 87.043 42.8388 87.9862C42.8388 88.9351 42.7195 89.7447 42.4808 90.4152C42.2422 91.0828 41.897 91.5928 41.4453 91.945C40.9936 92.2945 40.4467 92.4692 39.8047 92.4692ZM39.8047 91.5317C40.4411 91.5317 40.9354 91.2249 41.2876 90.6112C41.6399 89.9976 41.8161 89.1226 41.8161 87.9862C41.8161 87.2305 41.7351 86.5871 41.5732 86.0558C41.4141 85.5246 41.1839 85.1197 40.8828 84.8413C40.5845 84.5629 40.2251 84.4237 39.8047 84.4237C39.174 84.4237 38.6811 84.7348 38.326 85.357C37.9709 85.9763 37.7933 86.8527 37.7933 87.9862C37.7933 88.7419 37.8729 89.3839 38.032 89.9124C38.1911 90.4408 38.4197 90.8428 38.718 91.1183C39.0192 91.3939 39.3814 91.5317 39.8047 91.5317ZM44.9034 92.418C44.6932 92.418 44.5128 92.3428 44.3622 92.1922C44.2116 92.0416 44.1364 91.8612 44.1364 91.651C44.1364 91.4408 44.2116 91.2604 44.3622 91.1098C44.5128 90.9592 44.6932 90.8839 44.9034 90.8839C45.1136 90.8839 45.294 90.9592 45.4446 91.1098C45.5952 91.2604 45.6705 91.4408 45.6705 91.651C45.6705 91.7902 45.6349 91.918 45.5639 92.0345C45.4957 92.151 45.4034 92.2447 45.2869 92.3158C45.1733 92.3839 45.0455 92.418 44.9034 92.418ZM50 92.4692C49.358 92.4692 48.8111 92.2945 48.3594 91.945C47.9077 91.5928 47.5625 91.0828 47.3239 90.4152C47.0852 89.7447 46.9659 88.9351 46.9659 87.9862C46.9659 87.043 47.0852 86.2376 47.3239 85.57C47.5653 84.8996 47.9119 84.3882 48.3636 84.0359C48.8182 83.6808 49.3636 83.5033 50 83.5033C50.6364 83.5033 51.1804 83.6808 51.6321 84.0359C52.0866 84.3882 52.4332 84.8996 52.6719 85.57C52.9134 86.2376 53.0341 87.043 53.0341 87.9862C53.0341 88.9351 52.9148 89.7447 52.6761 90.4152C52.4375 91.0828 52.0923 91.5928 51.6406 91.945C51.1889 92.2945 50.642 92.4692 50 92.4692ZM50 91.5317C50.6364 91.5317 51.1307 91.2249 51.483 90.6112C51.8352 89.9976 52.0114 89.1226 52.0114 87.9862C52.0114 87.2305 51.9304 86.5871 51.7685 86.0558C51.6094 85.5246 51.3793 85.1197 51.0781 84.8413C50.7798 84.5629 50.4205 84.4237 50 84.4237C49.3693 84.4237 48.8764 84.7348 48.5213 85.357C48.1662 85.9763 47.9886 86.8527 47.9886 87.9862C47.9886 88.7419 48.0682 89.3839 48.2273 89.9124C48.3864 90.4408 48.6151 90.8428 48.9134 91.1183C49.2145 91.3939 49.5767 91.5317 50 91.5317ZM59.1023 90.7135V90.2533C59.1023 89.9351 59.1676 89.6439 59.2983 89.3797C59.4318 89.1126 59.625 88.8996 59.8778 88.7405C60.1335 88.5785 60.4432 88.4976 60.8068 88.4976C61.1761 88.4976 61.4858 88.5785 61.7358 88.7405C61.9858 88.8996 62.1747 89.1126 62.3026 89.3797C62.4304 89.6439 62.4943 89.9351 62.4943 90.2533V90.7135C62.4943 91.0317 62.429 91.3243 62.2983 91.5913C62.1705 91.8555 61.9801 92.0686 61.7273 92.2305C61.4773 92.3896 61.1705 92.4692 60.8068 92.4692C60.4375 92.4692 60.1264 92.3896 59.8736 92.2305C59.6207 92.0686 59.429 91.8555 59.2983 91.5913C59.1676 91.3243 59.1023 91.0317 59.1023 90.7135ZM59.9716 90.2533V90.7135C59.9716 90.9777 60.0341 91.2149 60.1591 91.4251C60.2841 91.6325 60.5 91.7362 60.8068 91.7362C61.1051 91.7362 61.3153 91.6325 61.4375 91.4251C61.5625 91.2149 61.625 90.9777 61.625 90.7135V90.2533C61.625 89.9891 61.5653 89.7533 61.446 89.5459C61.3267 89.3356 61.1136 89.2305 60.8068 89.2305C60.5085 89.2305 60.294 89.3356 60.1634 89.5459C60.0355 89.7533 59.9716 89.9891 59.9716 90.2533ZM54.7557 85.7192V85.2589C54.7557 84.9408 54.821 84.6496 54.9517 84.3854C55.0852 84.1183 55.2784 83.9053 55.5312 83.7462C55.7869 83.5842 56.0966 83.5033 56.4602 83.5033C56.8295 83.5033 57.1392 83.5842 57.3892 83.7462C57.6392 83.9053 57.8281 84.1183 57.956 84.3854C58.0838 84.6496 58.1477 84.9408 58.1477 85.2589V85.7192C58.1477 86.0374 58.0824 86.33 57.9517 86.597C57.8239 86.8612 57.6335 87.0743 57.3807 87.2362C57.1307 87.3953 56.8239 87.4749 56.4602 87.4749C56.0909 87.4749 55.7798 87.3953 55.527 87.2362C55.2741 87.0743 55.0824 86.8612 54.9517 86.597C54.821 86.33 54.7557 86.0374 54.7557 85.7192ZM55.625 85.2589V85.7192C55.625 85.9834 55.6875 86.2206 55.8125 86.4308C55.9375 86.6382 56.1534 86.7419 56.4602 86.7419C56.7585 86.7419 56.9688 86.6382 57.0909 86.4308C57.2159 86.2206 57.2784 85.9834 57.2784 85.7192V85.2589C57.2784 84.9947 57.2188 84.7589 57.0994 84.5516C56.9801 84.3413 56.767 84.2362 56.4602 84.2362C56.1619 84.2362 55.9474 84.3413 55.8168 84.5516C55.6889 84.7589 55.625 84.9947 55.625 85.2589ZM55.0795 92.3499L61.0795 83.6226H62.0511L56.0511 92.3499H55.0795Z" fill="#B8C0CC"/>
<path d="M71.5 87.8499H229" stroke="#334E68"/>
<path d="M29.6925 140.25V139.483L32.5732 136.33C32.9112 135.96 33.1896 135.639 33.4084 135.366C33.6271 135.091 33.7891 134.832 33.8942 134.591C34.0021 134.347 34.0561 134.091 34.0561 133.824C34.0561 133.517 33.9822 133.251 33.8345 133.027C33.6896 132.803 33.4908 132.629 33.2379 132.507C32.9851 132.385 32.701 132.324 32.3857 132.324C32.0504 132.324 31.7578 132.393 31.5078 132.533C31.2607 132.669 31.0689 132.861 30.9325 133.108C30.799 133.355 30.7322 133.645 30.7322 133.977H29.7266C29.7266 133.466 29.8445 133.017 30.0803 132.631C30.3161 132.244 30.6371 131.943 31.0433 131.727C31.4524 131.511 31.9112 131.403 32.4197 131.403C32.9311 131.403 33.3842 131.511 33.7791 131.727C34.174 131.943 34.4837 132.234 34.7081 132.601C34.9325 132.967 35.0447 133.375 35.0447 133.824C35.0447 134.145 34.9865 134.459 34.87 134.766C34.7564 135.07 34.5575 135.409 34.2734 135.784C33.9922 136.156 33.6016 136.611 33.1016 137.148L31.1413 139.244V139.312H35.1982V140.25H29.6925ZM39.8047 140.369C39.1626 140.369 38.6158 140.195 38.1641 139.845C37.7124 139.493 37.3672 138.983 37.1286 138.315C36.8899 137.645 36.7706 136.835 36.7706 135.886C36.7706 134.943 36.8899 134.138 37.1286 133.47C37.37 132.8 37.7166 132.288 38.1683 131.936C38.6229 131.581 39.1683 131.403 39.8047 131.403C40.4411 131.403 40.9851 131.581 41.4368 131.936C41.8913 132.288 42.2379 132.8 42.4766 133.47C42.718 134.138 42.8388 134.943 42.8388 135.886C42.8388 136.835 42.7195 137.645 42.4808 138.315C42.2422 138.983 41.897 139.493 41.4453 139.845C40.9936 140.195 40.4467 140.369 39.8047 140.369ZM39.8047 139.432C40.4411 139.432 40.9354 139.125 41.2876 138.511C41.6399 137.898 41.8161 137.023 41.8161 135.886C41.8161 135.131 41.7351 134.487 41.5732 133.956C41.4141 133.425 41.1839 133.02 40.8828 132.741C40.5845 132.463 40.2251 132.324 39.8047 132.324C39.174 132.324 38.6811 132.635 38.326 133.257C37.9709 133.876 37.7933 134.753 37.7933 135.886C37.7933 136.642 37.8729 137.284 38.032 137.812C38.1911 138.341 38.4197 138.743 38.718 139.018C39.0192 139.294 39.3814 139.432 39.8047 139.432ZM44.9034 140.318C44.6932 140.318 44.5128 140.243 44.3622 140.092C44.2116 139.942 44.1364 139.761 44.1364 139.551C44.1364 139.341 44.2116 139.161 44.3622 139.01C44.5128 138.859 44.6932 138.784 44.9034 138.784C45.1136 138.784 45.294 138.859 45.4446 139.01C45.5952 139.161 45.6705 139.341 45.6705 139.551C45.6705 139.69 45.6349 139.818 45.5639 139.935C45.4957 140.051 45.4034 140.145 45.2869 140.216C45.1733 140.284 45.0455 140.318 44.9034 140.318ZM50 140.369C49.358 140.369 48.8111 140.195 48.3594 139.845C47.9077 139.493 47.5625 138.983 47.3239 138.315C47.0852 137.645 46.9659 136.835 46.9659 135.886C46.9659 134.943 47.0852 134.138 47.3239 133.47C47.5653 132.8 47.9119 132.288 48.3636 131.936C48.8182 131.581 49.3636 131.403 50 131.403C50.6364 131.403 51.1804 131.581 51.6321 131.936C52.0866 132.288 52.4332 132.8 52.6719 133.47C52.9134 134.138 53.0341 134.943 53.0341 135.886C53.0341 136.835 52.9148 137.645 52.6761 138.315C52.4375 138.983 52.0923 139.493 51.6406 139.845C51.1889 140.195 50.642 140.369 50 140.369ZM50 139.432C50.6364 139.432 51.1307 139.125 51.483 138.511C51.8352 137.898 52.0114 137.023 52.0114 135.886C52.0114 135.131 51.9304 134.487 51.7685 133.956C51.6094 133.425 51.3793 133.02 51.0781 132.741C50.7798 132.463 50.4205 132.324 50 132.324C49.3693 132.324 48.8764 132.635 48.5213 133.257C48.1662 133.876 47.9886 134.753 47.9886 135.886C47.9886 136.642 48.0682 137.284 48.2273 137.812C48.3864 138.341 48.6151 138.743 48.9134 139.018C49.2145 139.294 49.5767 139.432 50 139.432ZM59.1023 138.614V138.153C59.1023 137.835 59.1676 137.544 59.2983 137.28C59.4318 137.013 59.625 136.8 59.8778 136.641C60.1335 136.479 60.4432 136.398 60.8068 136.398C61.1761 136.398 61.4858 136.479 61.7358 136.641C61.9858 136.8 62.1747 137.013 62.3026 137.28C62.4304 137.544 62.4943 137.835 62.4943 138.153V138.614C62.4943 138.932 62.429 139.224 62.2983 139.491C62.1705 139.756 61.9801 139.969 61.7273 140.131C61.4773 140.29 61.1705 140.369 60.8068 140.369C60.4375 140.369 60.1264 140.29 59.8736 140.131C59.6207 139.969 59.429 139.756 59.2983 139.491C59.1676 139.224 59.1023 138.932 59.1023 138.614ZM59.9716 138.153V138.614C59.9716 138.878 60.0341 139.115 60.1591 139.325C60.2841 139.533 60.5 139.636 60.8068 139.636C61.1051 139.636 61.3153 139.533 61.4375 139.325C61.5625 139.115 61.625 138.878 61.625 138.614V138.153C61.625 137.889 61.5653 137.653 61.446 137.446C61.3267 137.236 61.1136 137.131 60.8068 137.131C60.5085 137.131 60.294 137.236 60.1634 137.446C60.0355 137.653 59.9716 137.889 59.9716 138.153ZM54.7557 133.619V133.159C54.7557 132.841 54.821 132.55 54.9517 132.286C55.0852 132.018 55.2784 131.805 55.5312 131.646C55.7869 131.484 56.0966 131.403 56.4602 131.403C56.8295 131.403 57.1392 131.484 57.3892 131.646C57.6392 131.805 57.8281 132.018 57.956 132.286C58.0838 132.55 58.1477 132.841 58.1477 133.159V133.619C58.1477 133.937 58.0824 134.23 57.9517 134.497C57.8239 134.761 57.6335 134.974 57.3807 135.136C57.1307 135.295 56.8239 135.375 56.4602 135.375C56.0909 135.375 55.7798 135.295 55.527 135.136C55.2741 134.974 55.0824 134.761 54.9517 134.497C54.821 134.23 54.7557 133.937 54.7557 133.619ZM55.625 133.159V133.619C55.625 133.884 55.6875 134.121 55.8125 134.331C55.9375 134.538 56.1534 134.642 56.4602 134.642C56.7585 134.642 56.9688 134.538 57.0909 134.331C57.2159 134.121 57.2784 133.884 57.2784 133.619V133.159C57.2784 132.895 57.2188 132.659 57.0994 132.452C56.9801 132.241 56.767 132.136 56.4602 132.136C56.1619 132.136 55.9474 132.241 55.8168 132.452C55.6889 132.659 55.625 132.895 55.625 133.159ZM55.0795 140.25L61.0795 131.523H62.0511L56.0511 140.25H55.0795Z" fill="#B8C0CC"/>
<path d="M71.5 135.75H229" stroke="#334E68"/>
<path d="M34.4482 179.423V188.15H33.3913V180.531H33.3402L31.2095 181.945V180.871L33.3913 179.423H34.4482ZM39.8047 188.269C39.1626 188.269 38.6158 188.095 38.1641 187.745C37.7124 187.393 37.3672 186.883 37.1286 186.215C36.8899 185.545 36.7706 184.735 36.7706 183.786C36.7706 182.843 36.8899 182.038 37.1286 181.37C37.37 180.7 37.7166 180.188 38.1683 179.836C38.6229 179.481 39.1683 179.303 39.8047 179.303C40.4411 179.303 40.9851 179.481 41.4368 179.836C41.8913 180.188 42.2379 180.7 42.4766 181.37C42.718 182.038 42.8388 182.843 42.8388 183.786C42.8388 184.735 42.7195 185.545 42.4808 186.215C42.2422 186.883 41.897 187.393 41.4453 187.745C40.9936 188.095 40.4467 188.269 39.8047 188.269ZM39.8047 187.332C40.4411 187.332 40.9354 187.025 41.2876 186.411C41.6399 185.798 41.8161 184.923 41.8161 183.786C41.8161 183.031 41.7351 182.387 41.5732 181.856C41.4141 181.325 41.1839 180.92 40.8828 180.641C40.5845 180.363 40.2251 180.224 39.8047 180.224C39.174 180.224 38.6811 180.535 38.326 181.157C37.9709 181.776 37.7933 182.653 37.7933 183.786C37.7933 184.542 37.8729 185.184 38.032 185.712C38.1911 186.241 38.4197 186.643 38.718 186.918C39.0192 187.194 39.3814 187.332 39.8047 187.332ZM44.9034 188.218C44.6932 188.218 44.5128 188.143 44.3622 187.992C44.2116 187.842 44.1364 187.661 44.1364 187.451C44.1364 187.241 44.2116 187.06 44.3622 186.91C44.5128 186.759 44.6932 186.684 44.9034 186.684C45.1136 186.684 45.294 186.759 45.4446 186.91C45.5952 187.06 45.6705 187.241 45.6705 187.451C45.6705 187.59 45.6349 187.718 45.5639 187.835C45.4957 187.951 45.4034 188.045 45.2869 188.116C45.1733 188.184 45.0455 188.218 44.9034 188.218ZM50 188.269C49.358 188.269 48.8111 188.095 48.3594 187.745C47.9077 187.393 47.5625 186.883 47.3239 186.215C47.0852 185.545 46.9659 184.735 46.9659 183.786C46.9659 182.843 47.0852 182.038 47.3239 181.37C47.5653 180.7 47.9119 180.188 48.3636 179.836C48.8182 179.481 49.3636 179.303 50 179.303C50.6364 179.303 51.1804 179.481 51.6321 179.836C52.0866 180.188 52.4332 180.7 52.6719 181.37C52.9134 182.038 53.0341 182.843 53.0341 183.786C53.0341 184.735 52.9148 185.545 52.6761 186.215C52.4375 186.883 52.0923 187.393 51.6406 187.745C51.1889 188.095 50.642 188.269 50 188.269ZM50 187.332C50.6364 187.332 51.1307 187.025 51.483 186.411C51.8352 185.798 52.0114 184.923 52.0114 183.786C52.0114 183.031 51.9304 182.387 51.7685 181.856C51.6094 181.325 51.3793 180.92 51.0781 180.641C50.7798 180.363 50.4205 180.224 50 180.224C49.3693 180.224 48.8764 180.535 48.5213 181.157C48.1662 181.776 47.9886 182.653 47.9886 183.786C47.9886 184.542 48.0682 185.184 48.2273 185.712C48.3864 186.241 48.6151 186.643 48.9134 186.918C49.2145 187.194 49.5767 187.332 50 187.332ZM59.1023 186.514V186.053C59.1023 185.735 59.1676 185.444 59.2983 185.18C59.4318 184.913 59.625 184.7 59.8778 184.541C60.1335 184.379 60.4432 184.298 60.8068 184.298C61.1761 184.298 61.4858 184.379 61.7358 184.541C61.9858 184.7 62.1747 184.913 62.3026 185.18C62.4304 185.444 62.4943 185.735 62.4943 186.053V186.514C62.4943 186.832 62.429 187.124 62.2983 187.391C62.1705 187.656 61.9801 187.869 61.7273 188.031C61.4773 188.19 61.1705 188.269 60.8068 188.269C60.4375 188.269 60.1264 188.19 59.8736 188.031C59.6207 187.869 59.429 187.656 59.2983 187.391C59.1676 187.124 59.1023 186.832 59.1023 186.514ZM59.9716 186.053V186.514C59.9716 186.778 60.0341 187.015 60.1591 187.225C60.2841 187.433 60.5 187.536 60.8068 187.536C61.1051 187.536 61.3153 187.433 61.4375 187.225C61.5625 187.015 61.625 186.778 61.625 186.514V186.053C61.625 185.789 61.5653 185.553 61.446 185.346C61.3267 185.136 61.1136 185.031 60.8068 185.031C60.5085 185.031 60.294 185.136 60.1634 185.346C60.0355 185.553 59.9716 185.789 59.9716 186.053ZM54.7557 181.519V181.059C54.7557 180.741 54.821 180.45 54.9517 180.185C55.0852 179.918 55.2784 179.705 55.5312 179.546C55.7869 179.384 56.0966 179.303 56.4602 179.303C56.8295 179.303 57.1392 179.384 57.3892 179.546C57.6392 179.705 57.8281 179.918 57.956 180.185C58.0838 180.45 58.1477 180.741 58.1477 181.059V181.519C58.1477 181.837 58.0824 182.13 57.9517 182.397C57.8239 182.661 57.6335 182.874 57.3807 183.036C57.1307 183.195 56.8239 183.275 56.4602 183.275C56.0909 183.275 55.7798 183.195 55.527 183.036C55.2741 182.874 55.0824 182.661 54.9517 182.397C54.821 182.13 54.7557 181.837 54.7557 181.519ZM55.625 181.059V181.519C55.625 181.783 55.6875 182.021 55.8125 182.231C55.9375 182.438 56.1534 182.542 56.4602 182.542C56.7585 182.542 56.9688 182.438 57.0909 182.231C57.2159 182.021 57.2784 181.783 57.2784 181.519V181.059C57.2784 180.795 57.2188 180.559 57.0994 180.352C56.9801 180.141 56.767 180.036 56.4602 180.036C56.1619 180.036 55.9474 180.141 55.8168 180.352C55.6889 180.559 55.625 180.795 55.625 181.059ZM55.0795 188.15L61.0795 179.423H62.0511L56.0511 188.15H55.0795Z" fill="#B8C0CC"/>
<path d="M71.5 183.65H229" stroke="#334E68"/>
<path d="M39.8047 229.919C39.1626 229.919 38.6158 229.745 38.1641 229.395C37.7124 229.043 37.3672 228.533 37.1286 227.865C36.8899 227.195 36.7706 226.385 36.7706 225.436C36.7706 224.493 36.8899 223.688 37.1286 223.02C37.37 222.35 37.7166 221.838 38.1683 221.486C38.6229 221.131 39.1683 220.953 39.8047 220.953C40.4411 220.953 40.9851 221.131 41.4368 221.486C41.8913 221.838 42.2379 222.35 42.4766 223.02C42.718 223.688 42.8388 224.493 42.8388 225.436C42.8388 226.385 42.7195 227.195 42.4808 227.865C42.2422 228.533 41.897 229.043 41.4453 229.395C40.9936 229.745 40.4467 229.919 39.8047 229.919ZM39.8047 228.982C40.4411 228.982 40.9354 228.675 41.2876 228.061C41.6399 227.448 41.8161 226.573 41.8161 225.436C41.8161 224.681 41.7351 224.037 41.5732 223.506C41.4141 222.975 41.1839 222.57 40.8828 222.292C40.5845 222.013 40.2251 221.874 39.8047 221.874C39.174 221.874 38.6811 222.185 38.326 222.807C37.9709 223.426 37.7933 224.303 37.7933 225.436C37.7933 226.192 37.8729 226.834 38.032 227.363C38.1911 227.891 38.4197 228.293 38.718 228.569C39.0192 228.844 39.3814 228.982 39.8047 228.982ZM44.9034 229.868C44.6932 229.868 44.5128 229.793 44.3622 229.642C44.2116 229.492 44.1364 229.311 44.1364 229.101C44.1364 228.891 44.2116 228.711 44.3622 228.56C44.5128 228.409 44.6932 228.334 44.9034 228.334C45.1136 228.334 45.294 228.409 45.4446 228.56C45.5952 228.711 45.6705 228.891 45.6705 229.101C45.6705 229.24 45.6349 229.368 45.5639 229.485C45.4957 229.601 45.4034 229.695 45.2869 229.766C45.1733 229.834 45.0455 229.868 44.9034 229.868ZM50 229.919C49.358 229.919 48.8111 229.745 48.3594 229.395C47.9077 229.043 47.5625 228.533 47.3239 227.865C47.0852 227.195 46.9659 226.385 46.9659 225.436C46.9659 224.493 47.0852 223.688 47.3239 223.02C47.5653 222.35 47.9119 221.838 48.3636 221.486C48.8182 221.131 49.3636 220.953 50 220.953C50.6364 220.953 51.1804 221.131 51.6321 221.486C52.0866 221.838 52.4332 222.35 52.6719 223.02C52.9134 223.688 53.0341 224.493 53.0341 225.436C53.0341 226.385 52.9148 227.195 52.6761 227.865C52.4375 228.533 52.0923 229.043 51.6406 229.395C51.1889 229.745 50.642 229.919 50 229.919ZM50 228.982C50.6364 228.982 51.1307 228.675 51.483 228.061C51.8352 227.448 52.0114 226.573 52.0114 225.436C52.0114 224.681 51.9304 224.037 51.7685 223.506C51.6094 222.975 51.3793 222.57 51.0781 222.292C50.7798 222.013 50.4205 221.874 50 221.874C49.3693 221.874 48.8764 222.185 48.5213 222.807C48.1662 223.426 47.9886 224.303 47.9886 225.436C47.9886 226.192 48.0682 226.834 48.2273 227.363C48.3864 227.891 48.6151 228.293 48.9134 228.569C49.2145 228.844 49.5767 228.982 50 228.982ZM59.1023 228.164V227.703C59.1023 227.385 59.1676 227.094 59.2983 226.83C59.4318 226.563 59.625 226.35 59.8778 226.191C60.1335 226.029 60.4432 225.948 60.8068 225.948C61.1761 225.948 61.4858 226.029 61.7358 226.191C61.9858 226.35 62.1747 226.563 62.3026 226.83C62.4304 227.094 62.4943 227.385 62.4943 227.703V228.164C62.4943 228.482 62.429 228.774 62.2983 229.042C62.1705 229.306 61.9801 229.519 61.7273 229.681C61.4773 229.84 61.1705 229.919 60.8068 229.919C60.4375 229.919 60.1264 229.84 59.8736 229.681C59.6207 229.519 59.429 229.306 59.2983 229.042C59.1676 228.774 59.1023 228.482 59.1023 228.164ZM59.9716 227.703V228.164C59.9716 228.428 60.0341 228.665 60.1591 228.875C60.2841 229.083 60.5 229.186 60.8068 229.186C61.1051 229.186 61.3153 229.083 61.4375 228.875C61.5625 228.665 61.625 228.428 61.625 228.164V227.703C61.625 227.439 61.5653 227.203 61.446 226.996C61.3267 226.786 61.1136 226.681 60.8068 226.681C60.5085 226.681 60.294 226.786 60.1634 226.996C60.0355 227.203 59.9716 227.439 59.9716 227.703ZM54.7557 223.169V222.709C54.7557 222.391 54.821 222.1 54.9517 221.836C55.0852 221.569 55.2784 221.355 55.5312 221.196C55.7869 221.034 56.0966 220.953 56.4602 220.953C56.8295 220.953 57.1392 221.034 57.3892 221.196C57.6392 221.355 57.8281 221.569 57.956 221.836C58.0838 222.1 58.1477 222.391 58.1477 222.709V223.169C58.1477 223.488 58.0824 223.78 57.9517 224.047C57.8239 224.311 57.6335 224.524 57.3807 224.686C57.1307 224.846 56.8239 224.925 56.4602 224.925C56.0909 224.925 55.7798 224.846 55.527 224.686C55.2741 224.524 55.0824 224.311 54.9517 224.047C54.821 223.78 54.7557 223.488 54.7557 223.169ZM55.625 222.709V223.169C55.625 223.434 55.6875 223.671 55.8125 223.881C55.9375 224.088 56.1534 224.192 56.4602 224.192C56.7585 224.192 56.9688 224.088 57.0909 223.881C57.2159 223.671 57.2784 223.434 57.2784 223.169V222.709C57.2784 222.445 57.2188 222.209 57.0994 222.002C56.9801 221.792 56.767 221.686 56.4602 221.686C56.1619 221.686 55.9474 221.792 55.8168 222.002C55.6889 222.209 55.625 222.445 55.625 222.709ZM55.0795 229.8L61.0795 221.073H62.0511L56.0511 229.8H55.0795Z" fill="#B8C0CC"/>
<rect x="72" y="31.5" width="157" height="195" stroke="#334E68"/>
<path d="M72.5568 240.5V231.773H75.608C76.2159 231.773 76.7173 231.878 77.1122 232.088C77.5071 232.295 77.8011 232.575 77.9943 232.928C78.1875 233.277 78.2841 233.665 78.2841 234.091C78.2841 234.466 78.2173 234.776 78.0838 235.02C77.9531 235.264 77.7798 235.457 77.5639 235.599C77.3509 235.741 77.1193 235.847 76.8693 235.915V236C77.1364 236.017 77.4048 236.111 77.6747 236.281C77.9446 236.452 78.1705 236.696 78.3523 237.014C78.5341 237.332 78.625 237.722 78.625 238.182C78.625 238.619 78.5256 239.013 78.3267 239.362C78.1278 239.712 77.8139 239.989 77.3849 240.193C76.956 240.398 76.3977 240.5 75.7102 240.5H72.5568ZM73.6136 239.562H75.7102C76.4006 239.562 76.8906 239.429 77.1804 239.162C77.473 238.892 77.6193 238.565 77.6193 238.182C77.6193 237.886 77.544 237.614 77.3935 237.364C77.2429 237.111 77.0284 236.909 76.75 236.759C76.4716 236.605 76.142 236.528 75.7614 236.528H73.6136V239.562ZM73.6136 235.608H75.5739C75.892 235.608 76.179 235.545 76.4347 235.42C76.6932 235.295 76.8977 235.119 77.0483 234.892C77.2017 234.665 77.2784 234.398 77.2784 234.091C77.2784 233.707 77.1449 233.382 76.8778 233.115C76.6108 232.845 76.1875 232.71 75.608 232.71H73.6136V235.608ZM82.9695 240.636C82.3388 240.636 81.7947 240.497 81.3374 240.219C80.8828 239.938 80.532 239.545 80.2848 239.043C80.0405 238.537 79.9183 237.949 79.9183 237.278C79.9183 236.608 80.0405 236.017 80.2848 235.506C80.532 234.991 80.8757 234.591 81.3161 234.304C81.7592 234.014 82.2763 233.869 82.8672 233.869C83.2081 233.869 83.5447 233.926 83.8771 234.04C84.2095 234.153 84.5121 234.338 84.7848 234.594C85.0575 234.847 85.2749 235.182 85.4368 235.599C85.5987 236.017 85.6797 236.531 85.6797 237.142V237.568H80.6342V236.699H84.657C84.657 236.33 84.5831 236 84.4354 235.71C84.2905 235.42 84.0831 235.192 83.8132 235.024C83.5462 234.857 83.2308 234.773 82.8672 234.773C82.4666 234.773 82.12 234.872 81.8274 235.071C81.5376 235.267 81.3146 235.523 81.1584 235.838C81.0021 236.153 80.924 236.491 80.924 236.852V237.432C80.924 237.926 81.0092 238.345 81.1797 238.689C81.353 239.03 81.593 239.29 81.8999 239.469C82.2067 239.645 82.5632 239.733 82.9695 239.733C83.2337 239.733 83.4723 239.696 83.6854 239.622C83.9013 239.545 84.0874 239.432 84.2436 239.281C84.3999 239.128 84.5206 238.937 84.6058 238.71L85.5774 238.983C85.4751 239.312 85.3033 239.602 85.0618 239.852C84.8203 240.099 84.522 240.293 84.1669 240.432C83.8118 240.568 83.4126 240.636 82.9695 240.636ZM90.1243 233.955V234.807H86.5959V233.955H90.1243ZM87.6527 240.5V233.051C87.6527 232.676 87.7408 232.364 87.9169 232.114C88.093 231.864 88.3217 231.676 88.603 231.551C88.8842 231.426 89.1811 231.364 89.4936 231.364C89.7408 231.364 89.9425 231.384 90.0987 231.423C90.255 231.463 90.3714 231.5 90.4482 231.534L90.1584 232.403C90.1072 232.386 90.0362 232.365 89.9453 232.339C89.8572 232.314 89.7408 232.301 89.5959 232.301C89.2635 232.301 89.0234 232.385 88.8757 232.553C88.7308 232.72 88.6584 232.966 88.6584 233.29V240.5H87.6527ZM93.9233 240.636C93.3324 240.636 92.8139 240.496 92.3679 240.214C91.9247 239.933 91.5781 239.54 91.3281 239.034C91.081 238.528 90.9574 237.937 90.9574 237.261C90.9574 236.58 91.081 235.984 91.3281 235.476C91.5781 234.967 91.9247 234.572 92.3679 234.291C92.8139 234.01 93.3324 233.869 93.9233 233.869C94.5142 233.869 95.0313 234.01 95.4744 234.291C95.9205 234.572 96.267 234.967 96.5142 235.476C96.7642 235.984 96.8892 236.58 96.8892 237.261C96.8892 237.937 96.7642 238.528 96.5142 239.034C96.267 239.54 95.9205 239.933 95.4744 240.214C95.0313 240.496 94.5142 240.636 93.9233 240.636ZM93.9233 239.733C94.3722 239.733 94.7415 239.618 95.0312 239.388C95.321 239.158 95.5355 238.855 95.6747 238.48C95.8139 238.105 95.8835 237.699 95.8835 237.261C95.8835 236.824 95.8139 236.416 95.6747 236.038C95.5355 235.661 95.321 235.355 95.0312 235.122C94.7415 234.889 94.3722 234.773 93.9233 234.773C93.4744 234.773 93.1051 234.889 92.8153 235.122C92.5256 235.355 92.3111 235.661 92.1719 236.038C92.0327 236.416 91.9631 236.824 91.9631 237.261C91.9631 237.699 92.0327 238.105 92.1719 238.48C92.3111 238.855 92.5256 239.158 92.8153 239.388C93.1051 239.618 93.4744 239.733 93.9233 239.733ZM98.4244 240.5V233.955H99.396V234.943H99.4641C99.5835 234.619 99.7994 234.357 100.112 234.155C100.424 233.953 100.777 233.852 101.169 233.852C101.243 233.852 101.335 233.854 101.446 233.857C101.556 233.859 101.64 233.864 101.697 233.869V234.892C101.663 234.884 101.585 234.871 101.463 234.854C101.343 234.834 101.217 234.824 101.083 234.824C100.765 234.824 100.481 234.891 100.231 235.024C99.984 235.155 99.788 235.337 99.6431 235.57C99.5011 235.8 99.43 236.062 99.43 236.358V240.5H98.4244ZM105.434 240.636C104.804 240.636 104.26 240.497 103.802 240.219C103.348 239.938 102.997 239.545 102.75 239.043C102.505 238.537 102.383 237.949 102.383 237.278C102.383 236.608 102.505 236.017 102.75 235.506C102.997 234.991 103.341 234.591 103.781 234.304C104.224 234.014 104.741 233.869 105.332 233.869C105.673 233.869 106.01 233.926 106.342 234.04C106.674 234.153 106.977 234.338 107.25 234.594C107.522 234.847 107.74 235.182 107.902 235.599C108.064 236.017 108.145 236.531 108.145 237.142V237.568H103.099V236.699H107.122C107.122 236.33 107.048 236 106.9 235.71C106.755 235.42 106.548 235.192 106.278 235.024C106.011 234.857 105.696 234.773 105.332 234.773C104.931 234.773 104.585 234.872 104.292 235.071C104.002 235.267 103.779 235.523 103.623 235.838C103.467 236.153 103.389 236.491 103.389 236.852V237.432C103.389 237.926 103.474 238.345 103.645 238.689C103.818 239.03 104.058 239.29 104.365 239.469C104.672 239.645 105.028 239.733 105.434 239.733C105.699 239.733 105.937 239.696 106.15 239.622C106.366 239.545 106.552 239.432 106.708 239.281C106.865 239.128 106.985 238.937 107.071 238.71L108.042 238.983C107.94 239.312 107.768 239.602 107.527 239.852C107.285 240.099 106.987 240.293 106.632 240.432C106.277 240.568 105.877 240.636 105.434 240.636Z" fill="#B8C0CC"/>
<line x1="150" y1="225.5" x2="150" y2="29.5" stroke="#334E68"/>
<path d="M202.743 240.5H201.635L204.839 231.773H205.93L209.135 240.5H208.027L205.419 233.153H205.351L202.743 240.5ZM203.152 237.091H207.618V238.028H203.152V237.091ZM213.273 233.955V234.807H209.744V233.955H213.273ZM210.801 240.5V233.051C210.801 232.676 210.889 232.364 211.065 232.114C211.241 231.864 211.47 231.676 211.751 231.551C212.033 231.426 212.33 231.364 212.642 231.364C212.889 231.364 213.091 231.384 213.247 231.423C213.403 231.463 213.52 231.5 213.597 231.534L213.307 232.403C213.256 232.386 213.185 232.365 213.094 232.339C213.006 232.314 212.889 232.301 212.744 232.301C212.412 232.301 212.172 232.385 212.024 232.553C211.879 232.72 211.807 232.966 211.807 233.29V240.5H210.801ZM217.529 233.955V234.807H214.137V233.955H217.529ZM215.125 232.386H216.131V238.625C216.131 238.909 216.172 239.122 216.255 239.264C216.34 239.403 216.448 239.497 216.578 239.545C216.712 239.591 216.853 239.614 217 239.614C217.111 239.614 217.202 239.608 217.273 239.597C217.344 239.582 217.401 239.571 217.444 239.562L217.648 240.466C217.58 240.491 217.485 240.517 217.363 240.543C217.24 240.571 217.086 240.585 216.898 240.585C216.614 240.585 216.336 240.524 216.063 240.402C215.793 240.28 215.569 240.094 215.39 239.844C215.213 239.594 215.125 239.278 215.125 238.898V232.386ZM221.716 240.636C221.085 240.636 220.541 240.497 220.083 240.219C219.629 239.938 219.278 239.545 219.031 239.043C218.787 238.537 218.664 237.949 218.664 237.278C218.664 236.608 218.787 236.017 219.031 235.506C219.278 234.991 219.622 234.591 220.062 234.304C220.505 234.014 221.022 233.869 221.613 233.869C221.954 233.869 222.291 233.926 222.623 234.04C222.956 234.153 223.258 234.338 223.531 234.594C223.804 234.847 224.021 235.182 224.183 235.599C224.345 236.017 224.426 236.531 224.426 237.142V237.568H219.38V236.699H223.403C223.403 236.33 223.329 236 223.181 235.71C223.037 235.42 222.829 235.192 222.559 235.024C222.292 234.857 221.977 234.773 221.613 234.773C221.213 234.773 220.866 234.872 220.574 235.071C220.284 235.267 220.061 235.523 219.904 235.838C219.748 236.153 219.67 236.491 219.67 236.852V237.432C219.67 237.926 219.755 238.345 219.926 238.689C220.099 239.03 220.339 239.29 220.646 239.469C220.953 239.645 221.309 239.733 221.716 239.733C221.98 239.733 222.218 239.696 222.431 239.622C222.647 239.545 222.833 239.432 222.99 239.281C223.146 239.128 223.267 238.937 223.352 238.71L224.324 238.983C224.221 239.312 224.049 239.602 223.808 239.852C223.566 240.099 223.268 240.293 222.913 240.432C222.558 240.568 222.159 240.636 221.716 240.636ZM225.956 240.5V233.955H226.927V234.943H226.995C227.115 234.619 227.331 234.357 227.643 234.155C227.956 233.953 228.308 233.852 228.7 233.852C228.774 233.852 228.866 233.854 228.977 233.857C229.088 233.859 229.172 233.864 229.228 233.869V234.892C229.194 234.884 229.116 234.871 228.994 234.854C228.875 234.834 228.748 234.824 228.615 234.824C228.297 234.824 228.012 234.891 227.762 235.024C227.515 235.155 227.319 235.337 227.174 235.57C227.032 235.8 226.961 236.062 226.961 236.358V240.5H225.956Z" fill="#B8C0CC"/>
<path d="M149.5 106C119.095 106.848 102.003 109.972 71.5 116V227H229.5V77.5L224.5 81C192.426 95.5501 175.776 101.604 149.5 106Z" fill="url(#paint0_linear_872_24337)"/>
<path d="M72 115.803L73.0972 115.901C74.1944 115.998 76.3889 116.194 78.5833 115.469C80.7778 114.744 120 106 147 106C173 105 208.097 87.5679 224.5 81L230 77" stroke="#00C7F2"/>
<path d="M15.36 171.337C15.36 171.005 15.316 170.713 15.228 170.461C15.14 170.205 15.018 169.991 14.862 169.819C14.702 169.643 14.512 169.511 14.292 169.423C14.072 169.335 13.83 169.291 13.566 169.291C13.018 169.291 12.59 169.461 12.282 169.801C11.974 170.137 11.82 170.649 11.82 171.337L11.82 172.717L15.36 172.717L15.36 171.337ZM10.902 171.337C10.902 170.793 10.966 170.321 11.094 169.921C11.218 169.517 11.396 169.183 11.628 168.919C11.86 168.655 12.14 168.459 12.468 168.331C12.796 168.199 13.162 168.133 13.566 168.133C13.966 168.133 14.332 168.203 14.664 168.343C14.996 168.483 15.282 168.689 15.522 168.961C15.762 169.229 15.95 169.563 16.086 169.963C16.218 170.359 16.284 170.817 16.284 171.337L16.284 172.717L19.5 172.717L19.5 173.875L10.902 173.875L10.902 171.337ZM15.798 162.668C15.55 162.668 15.324 162.704 15.12 162.776C14.912 162.844 14.734 162.946 14.586 163.082C14.434 163.214 14.318 163.376 14.238 163.568C14.154 163.76 14.112 163.978 14.112 164.222C14.112 164.734 14.262 165.14 14.562 165.44C14.858 165.736 15.27 165.92 15.798 165.992L15.798 162.668ZM18.648 161.804C18.808 161.936 18.948 162.094 19.068 162.278C19.184 162.462 19.28 162.66 19.356 162.872C19.432 163.08 19.488 163.296 19.524 163.52C19.564 163.744 19.584 163.966 19.584 164.186C19.584 164.606 19.514 164.994 19.374 165.35C19.23 165.702 19.022 166.008 18.75 166.268C18.474 166.524 18.134 166.724 17.73 166.868C17.326 167.012 16.862 167.084 16.338 167.084C15.914 167.084 15.518 167.02 15.15 166.892C14.782 166.76 14.464 166.572 14.196 166.328C13.924 166.084 13.712 165.786 13.56 165.434C13.404 165.082 13.326 164.686 13.326 164.246C13.326 163.882 13.388 163.546 13.512 163.238C13.632 162.926 13.808 162.658 14.04 162.434C14.268 162.206 14.552 162.028 14.892 161.9C15.228 161.772 15.612 161.708 16.044 161.708C16.212 161.708 16.324 161.726 16.38 161.762C16.436 161.798 16.464 161.866 16.464 161.966L16.464 166.028C16.848 166.016 17.182 165.964 17.466 165.872C17.75 165.776 17.988 165.644 18.18 165.476C18.368 165.308 18.51 165.108 18.606 164.876C18.698 164.644 18.744 164.384 18.744 164.096C18.744 163.828 18.714 163.598 18.654 163.406C18.59 163.21 18.522 163.042 18.45 162.902C18.378 162.762 18.312 162.646 18.252 162.554C18.188 162.458 18.156 162.376 18.156 162.308C18.156 162.22 18.19 162.152 18.258 162.104L18.648 161.804ZM14.64 158.882C14.224 158.69 13.9 158.454 13.668 158.174C13.432 157.894 13.314 157.552 13.314 157.148C13.314 157.02 13.328 156.898 13.356 156.782C13.384 156.662 13.428 156.556 13.488 156.464L14.286 156.542C14.386 156.566 14.436 156.626 14.436 156.722C14.436 156.778 14.424 156.86 14.4 156.968C14.376 157.076 14.364 157.198 14.364 157.334C14.364 157.526 14.392 157.698 14.448 157.85C14.504 157.998 14.588 158.132 14.7 158.252C14.808 158.368 14.944 158.474 15.108 158.57C15.268 158.662 15.452 158.746 15.66 158.822L19.5 158.822L19.5 159.896L13.422 159.896L13.422 159.284C13.422 159.168 13.444 159.088 13.488 159.044C13.532 159 13.608 158.97 13.716 158.954L14.64 158.882ZM14.502 151.041C14.546 151.073 14.58 151.105 14.604 151.137C14.628 151.169 14.64 151.213 14.64 151.269C14.64 151.329 14.616 151.395 14.568 151.467C14.516 151.539 14.46 151.629 14.4 151.737C14.34 151.841 14.286 151.971 14.238 152.127C14.186 152.279 14.16 152.467 14.16 152.691C14.16 152.991 14.214 153.255 14.322 153.483C14.426 153.711 14.578 153.903 14.778 154.059C14.978 154.211 15.22 154.327 15.504 154.407C15.788 154.483 16.106 154.521 16.458 154.521C16.826 154.521 17.154 154.479 17.442 154.395C17.726 154.311 17.966 154.193 18.162 154.041C18.354 153.885 18.502 153.699 18.606 153.483C18.706 153.263 18.756 153.017 18.756 152.745C18.756 152.485 18.726 152.271 18.666 152.103C18.602 151.935 18.532 151.797 18.456 151.689C18.38 151.577 18.312 151.485 18.252 151.413C18.188 151.337 18.156 151.263 18.156 151.191C18.156 151.103 18.19 151.035 18.258 150.987L18.648 150.687C18.812 150.819 18.952 150.969 19.068 151.137C19.184 151.305 19.282 151.487 19.362 151.683C19.438 151.875 19.494 152.077 19.53 152.289C19.566 152.501 19.584 152.717 19.584 152.937C19.584 153.317 19.514 153.671 19.374 153.999C19.234 154.323 19.032 154.605 18.768 154.845C18.5 155.085 18.172 155.273 17.784 155.409C17.396 155.545 16.954 155.613 16.458 155.613C16.006 155.613 15.588 155.551 15.204 155.427C14.82 155.299 14.49 155.115 14.214 154.875C13.934 154.631 13.716 154.333 13.56 153.981C13.404 153.625 13.326 153.217 13.326 152.757C13.326 152.329 13.396 151.953 13.536 151.629C13.672 151.301 13.866 151.011 14.118 150.759L14.502 151.041ZM15.798 145.078C15.55 145.078 15.324 145.114 15.12 145.186C14.912 145.254 14.734 145.356 14.586 145.492C14.434 145.624 14.318 145.786 14.238 145.978C14.154 146.17 14.112 146.388 14.112 146.632C14.112 147.144 14.262 147.55 14.562 147.85C14.858 148.146 15.27 148.33 15.798 148.402L15.798 145.078ZM18.648 144.214C18.808 144.346 18.948 144.504 19.068 144.688C19.184 144.872 19.28 145.07 19.356 145.282C19.432 145.49 19.488 145.706 19.524 145.93C19.564 146.154 19.584 146.376 19.584 146.596C19.584 147.016 19.514 147.404 19.374 147.76C19.23 148.112 19.022 148.418 18.75 148.678C18.474 148.934 18.134 149.134 17.73 149.278C17.326 149.422 16.862 149.494 16.338 149.494C15.914 149.494 15.518 149.43 15.15 149.302C14.782 149.17 14.464 148.982 14.196 148.738C13.924 148.494 13.712 148.196 13.56 147.844C13.404 147.492 13.326 147.096 13.326 146.656C13.326 146.292 13.388 145.956 13.512 145.648C13.632 145.336 13.808 145.068 14.04 144.844C14.268 144.616 14.552 144.438 14.892 144.31C15.228 144.182 15.612 144.118 16.044 144.118C16.212 144.118 16.324 144.136 16.38 144.172C16.436 144.208 16.464 144.276 16.464 144.376L16.464 148.438C16.848 148.426 17.182 148.374 17.466 148.282C17.75 148.186 17.988 148.054 18.18 147.886C18.368 147.718 18.51 147.518 18.606 147.286C18.698 147.054 18.744 146.794 18.744 146.506C18.744 146.238 18.714 146.008 18.654 145.816C18.59 145.62 18.522 145.452 18.45 145.312C18.378 145.172 18.312 145.056 18.252 144.964C18.188 144.868 18.156 144.786 18.156 144.718C18.156 144.63 18.19 144.562 18.258 144.514L18.648 144.214ZM18.036 141.232C18.3 141.036 18.486 140.822 18.594 140.59C18.702 140.358 18.756 140.098 18.756 139.81C18.756 139.242 18.554 138.806 18.15 138.502C17.746 138.198 17.17 138.046 16.422 138.046C16.026 138.046 15.686 138.082 15.402 138.154C15.118 138.222 14.886 138.322 14.706 138.454C14.522 138.586 14.388 138.748 14.304 138.94C14.22 139.132 14.178 139.35 14.178 139.594C14.178 139.942 14.258 140.248 14.418 140.512C14.578 140.772 14.804 141.012 15.096 141.232L18.036 141.232ZM14.364 141.286C14.048 141.03 13.794 140.734 13.602 140.398C13.41 140.062 13.314 139.678 13.314 139.246C13.314 138.894 13.382 138.576 13.518 138.292C13.65 138.008 13.848 137.766 14.112 137.566C14.372 137.366 14.696 137.212 15.084 137.104C15.472 136.996 15.918 136.942 16.422 136.942C16.87 136.942 17.288 137.002 17.676 137.122C18.06 137.242 18.394 137.416 18.678 137.644C18.958 137.868 19.18 138.144 19.344 138.472C19.504 138.796 19.584 139.162 19.584 139.57C19.584 139.942 19.522 140.262 19.398 140.53C19.27 140.794 19.094 141.028 18.87 141.232L21.558 141.232L21.558 142.306L13.422 142.306L13.422 141.664C13.422 141.512 13.496 141.418 13.644 141.382L14.364 141.286ZM19.5 129.522L19.5 130.59L14.316 130.59L14.316 133.722L17.964 133.722C18.22 133.722 18.41 133.66 18.534 133.536C18.658 133.412 18.72 133.252 18.72 133.056C18.72 132.944 18.706 132.848 18.678 132.768C18.646 132.684 18.612 132.612 18.576 132.552C18.54 132.492 18.508 132.442 18.48 132.402C18.448 132.358 18.432 132.32 18.432 132.288C18.432 132.232 18.466 132.182 18.534 132.138L19.044 131.826C19.216 132.01 19.352 132.232 19.452 132.492C19.548 132.752 19.596 133.02 19.596 133.296C19.596 133.776 19.462 134.146 19.194 134.406C18.926 134.662 18.54 134.79 18.036 134.79L14.316 134.79L14.316 135.522C14.316 135.586 14.298 135.64 14.262 135.684C14.222 135.728 14.162 135.75 14.082 135.75L13.656 135.75L13.524 134.754L11.652 134.508C11.592 134.496 11.544 134.47 11.508 134.43C11.468 134.386 11.448 134.33 11.448 134.262L11.448 133.722L13.542 133.722L13.542 129.522L19.5 129.522ZM11.472 129.258C11.576 129.258 11.674 129.28 11.766 129.324C11.854 129.364 11.932 129.42 12 129.492C12.068 129.56 12.122 129.64 12.162 129.732C12.202 129.824 12.222 129.922 12.222 130.026C12.222 130.13 12.202 130.228 12.162 130.32C12.122 130.408 12.068 130.486 12 130.554C11.932 130.622 11.854 130.676 11.766 130.716C11.674 130.756 11.576 130.776 11.472 130.776C11.368 130.776 11.27 130.756 11.178 130.716C11.082 130.676 11 130.622 10.932 130.554C10.86 130.486 10.804 130.408 10.764 130.32C10.724 130.228 10.704 130.13 10.704 130.026C10.704 129.922 10.724 129.824 10.764 129.732C10.804 129.64 10.86 129.56 10.932 129.492C11 129.42 11.082 129.364 11.178 129.324C11.27 129.28 11.368 129.258 11.472 129.258ZM13.422 122.059L19.5 124.537L19.5 125.497L13.422 127.975L13.422 127.105C13.422 127.017 13.444 126.945 13.488 126.889C13.532 126.833 13.584 126.795 13.644 126.775L17.556 125.233C17.704 125.185 17.848 125.143 17.988 125.107C18.128 125.071 18.268 125.037 18.408 125.005C18.268 124.973 18.128 124.939 17.988 124.903C17.848 124.867 17.704 124.823 17.556 124.771L13.644 123.211C13.58 123.187 13.528 123.147 13.488 123.091C13.444 123.035 13.422 122.969 13.422 122.893L13.422 122.059ZM15.798 116.676C15.55 116.676 15.324 116.712 15.12 116.784C14.912 116.852 14.734 116.954 14.586 117.09C14.434 117.222 14.318 117.384 14.238 117.576C14.154 117.768 14.112 117.986 14.112 118.23C14.112 118.742 14.262 119.148 14.562 119.448C14.858 119.744 15.27 119.928 15.798 120L15.798 116.676ZM18.648 115.812C18.808 115.944 18.948 116.102 19.068 116.286C19.184 116.47 19.28 116.668 19.356 116.88C19.432 117.088 19.488 117.304 19.524 117.528C19.564 117.752 19.584 117.974 19.584 118.194C19.584 118.614 19.514 119.002 19.374 119.358C19.23 119.71 19.022 120.016 18.75 120.276C18.474 120.532 18.134 120.732 17.73 120.876C17.326 121.02 16.862 121.092 16.338 121.092C15.914 121.092 15.518 121.028 15.15 120.9C14.782 120.768 14.464 120.58 14.196 120.336C13.924 120.092 13.712 119.794 13.56 119.442C13.404 119.09 13.326 118.694 13.326 118.254C13.326 117.89 13.388 117.554 13.512 117.246C13.632 116.934 13.808 116.666 14.04 116.442C14.268 116.214 14.552 116.036 14.892 115.908C15.228 115.78 15.612 115.716 16.044 115.716C16.212 115.716 16.324 115.734 16.38 115.77C16.436 115.806 16.464 115.874 16.464 115.974L16.464 120.036C16.848 120.024 17.182 119.972 17.466 119.88C17.75 119.784 17.988 119.652 18.18 119.484C18.368 119.316 18.51 119.116 18.606 118.884C18.698 118.652 18.744 118.392 18.744 118.104C18.744 117.836 18.714 117.606 18.654 117.414C18.59 117.218 18.522 117.05 18.45 116.91C18.378 116.77 18.312 116.654 18.252 116.562C18.188 116.466 18.156 116.384 18.156 116.316C18.156 116.228 18.19 116.16 18.258 116.112L18.648 115.812ZM19.5 108.918L19.5 110.082L10.902 110.082L10.902 108.918L19.5 108.918ZM14.304 105.556C14.156 105.424 14.022 105.284 13.902 105.136C13.782 104.988 13.68 104.832 13.596 104.668C13.508 104.5 13.442 104.324 13.398 104.14C13.35 103.952 13.326 103.75 13.326 103.534C13.326 103.202 13.382 102.91 13.494 102.658C13.602 102.402 13.758 102.19 13.962 102.022C14.162 101.85 14.404 101.72 14.688 101.632C14.972 101.544 15.286 101.5 15.63 101.5L19.5 101.5L19.5 102.574L15.63 102.574C15.17 102.574 14.814 102.68 14.562 102.892C14.306 103.1 14.178 103.418 14.178 103.846C14.178 104.162 14.254 104.458 14.406 104.734C14.558 105.006 14.764 105.258 15.024 105.49L19.5 105.49L19.5 106.564L13.422 106.564L13.422 105.922C13.422 105.77 13.496 105.676 13.644 105.64L14.304 105.556ZM14.502 95.1427C14.546 95.1747 14.58 95.2067 14.604 95.2387C14.628 95.2707 14.64 95.3147 14.64 95.3707C14.64 95.4307 14.616 95.4967 14.568 95.5687C14.516 95.6407 14.46 95.7307 14.4 95.8387C14.34 95.9427 14.286 96.0727 14.238 96.2287C14.186 96.3807 14.16 96.5687 14.16 96.7927C14.16 97.0927 14.214 97.3567 14.322 97.5847C14.426 97.8127 14.578 98.0047 14.778 98.1607C14.978 98.3127 15.22 98.4287 15.504 98.5087C15.788 98.5847 16.106 98.6227 16.458 98.6227C16.826 98.6227 17.154 98.5807 17.442 98.4967C17.726 98.4127 17.966 98.2947 18.162 98.1427C18.354 97.9867 18.502 97.8007 18.606 97.5847C18.706 97.3647 18.756 97.1187 18.756 96.8467C18.756 96.5867 18.726 96.3727 18.666 96.2047C18.602 96.0367 18.532 95.8987 18.456 95.7907C18.38 95.6787 18.312 95.5867 18.252 95.5147C18.188 95.4387 18.156 95.3647 18.156 95.2927C18.156 95.2047 18.19 95.1367 18.258 95.0887L18.648 94.7887C18.812 94.9207 18.952 95.0707 19.068 95.2387C19.184 95.4067 19.282 95.5887 19.362 95.7847C19.438 95.9767 19.494 96.1787 19.53 96.3907C19.566 96.6027 19.584 96.8187 19.584 97.0387C19.584 97.4187 19.514 97.7727 19.374 98.1007C19.234 98.4247 19.032 98.7067 18.768 98.9467C18.5 99.1867 18.172 99.3747 17.784 99.5107C17.396 99.6467 16.954 99.7147 16.458 99.7147C16.006 99.7147 15.588 99.6527 15.204 99.5287C14.82 99.4007 14.49 99.2167 14.214 98.9767C13.934 98.7327 13.716 98.4347 13.56 98.0827C13.404 97.7267 13.326 97.3187 13.326 96.8587C13.326 96.4307 13.396 96.0547 13.536 95.7307C13.672 95.4027 13.866 95.1127 14.118 94.8607L14.502 95.1427ZM14.64 92.1283C14.224 91.9363 13.9 91.7003 13.668 91.4203C13.432 91.1403 13.314 90.7983 13.314 90.3943C13.314 90.2663 13.328 90.1443 13.356 90.0283C13.384 89.9083 13.428 89.8023 13.488 89.7103L14.286 89.7883C14.386 89.8123 14.436 89.8723 14.436 89.9683C14.436 90.0243 14.424 90.1063 14.4 90.2143C14.376 90.3223 14.364 90.4443 14.364 90.5803C14.364 90.7723 14.392 90.9443 14.448 91.0963C14.504 91.2443 14.588 91.3783 14.7 91.4983C14.808 91.6143 14.944 91.7203 15.108 91.8163C15.268 91.9083 15.452 91.9923 15.66 92.0683L19.5 92.0683L19.5 93.1423L13.422 93.1423L13.422 92.5303C13.422 92.4143 13.444 92.3343 13.488 92.2903C13.532 92.2463 13.608 92.2163 13.716 92.2003L14.64 92.1283ZM15.798 84.4493C15.55 84.4493 15.324 84.4853 15.12 84.5573C14.912 84.6253 14.734 84.7273 14.586 84.8633C14.434 84.9953 14.318 85.1573 14.238 85.3493C14.154 85.5413 14.112 85.7593 14.112 86.0033C14.112 86.5153 14.262 86.9213 14.562 87.2213C14.858 87.5173 15.27 87.7013 15.798 87.7733L15.798 84.4493ZM18.648 83.5853C18.808 83.7173 18.948 83.8753 19.068 84.0593C19.184 84.2433 19.28 84.4413 19.356 84.6533C19.432 84.8613 19.488 85.0773 19.524 85.3013C19.564 85.5253 19.584 85.7473 19.584 85.9673C19.584 86.3873 19.514 86.7753 19.374 87.1313C19.23 87.4833 19.022 87.7893 18.75 88.0493C18.474 88.3053 18.134 88.5053 17.73 88.6493C17.326 88.7933 16.862 88.8653 16.338 88.8653C15.914 88.8653 15.518 88.8013 15.15 88.6733C14.782 88.5413 14.464 88.3533 14.196 88.1093C13.924 87.8653 13.712 87.5673 13.56 87.2153C13.404 86.8633 13.326 86.4673 13.326 86.0273C13.326 85.6633 13.388 85.3273 13.512 85.0193C13.632 84.7073 13.808 84.4393 14.04 84.2153C14.268 83.9873 14.552 83.8093 14.892 83.6813C15.228 83.5533 15.612 83.4893 16.044 83.4893C16.212 83.4893 16.324 83.5073 16.38 83.5433C16.436 83.5793 16.464 83.6473 16.464 83.7473L16.464 87.8093C16.848 87.7973 17.182 87.7453 17.466 87.6533C17.75 87.5573 17.988 87.4253 18.18 87.2573C18.368 87.0893 18.51 86.8893 18.606 86.6573C18.698 86.4253 18.744 86.1653 18.744 85.8773C18.744 85.6093 18.714 85.3793 18.654 85.1873C18.59 84.9913 18.522 84.8233 18.45 84.6833C18.378 84.5433 18.312 84.4273 18.252 84.3353C18.188 84.2393 18.156 84.1573 18.156 84.0893C18.156 84.0013 18.19 83.9333 18.258 83.8853L18.648 83.5853ZM16.764 78.3834C16.78 78.8754 16.82 79.2954 16.884 79.6434C16.944 79.9874 17.024 80.2694 17.124 80.4894C17.224 80.7054 17.342 80.8634 17.478 80.9634C17.614 81.0594 17.766 81.1074 17.934 81.1074C18.094 81.1074 18.232 81.0814 18.348 81.0294C18.464 80.9774 18.56 80.9074 18.636 80.8194C18.708 80.7274 18.762 80.6214 18.798 80.5014C18.83 80.3774 18.846 80.2454 18.846 80.1054C18.846 79.9174 18.828 79.7454 18.792 79.5894C18.752 79.4334 18.696 79.2874 18.624 79.1514C18.552 79.0114 18.466 78.8794 18.366 78.7554C18.266 78.6274 18.152 78.5034 18.024 78.3834L16.764 78.3834ZM14.28 81.8334C13.956 81.4974 13.714 81.1354 13.554 80.7474C13.394 80.3594 13.314 79.9294 13.314 79.4574C13.314 79.1174 13.37 78.8154 13.482 78.5514C13.594 78.2874 13.75 78.0654 13.95 77.8854C14.15 77.7054 14.392 77.5694 14.676 77.4774C14.96 77.3854 15.272 77.3394 15.612 77.3394L19.5 77.3394L19.5 77.8134C19.5 77.9174 19.484 77.9974 19.452 78.0534C19.416 78.1094 19.348 78.1534 19.248 78.1854L18.672 78.3054C18.82 78.4654 18.952 78.6214 19.068 78.7734C19.18 78.9254 19.276 79.0854 19.356 79.2534C19.432 79.4214 19.49 79.6014 19.53 79.7934C19.574 79.9814 19.596 80.1914 19.596 80.4234C19.596 80.6594 19.564 80.8814 19.5 81.0894C19.432 81.2974 19.332 81.4794 19.2 81.6354C19.068 81.7874 18.902 81.9094 18.702 82.0014C18.498 82.0894 18.258 82.1334 17.982 82.1334C17.742 82.1334 17.512 82.0674 17.292 81.9354C17.068 81.8034 16.87 81.5894 16.698 81.2934C16.526 80.9974 16.386 80.6114 16.278 80.1354C16.166 79.6594 16.102 79.0754 16.086 78.3834L15.612 78.3834C15.14 78.3834 14.784 78.4854 14.544 78.6894C14.3 78.8934 14.178 79.1914 14.178 79.5834C14.178 79.8474 14.212 80.0694 14.28 80.2494C14.344 80.4254 14.418 80.5794 14.502 80.7114C14.582 80.8394 14.656 80.9514 14.724 81.0474C14.788 81.1394 14.82 81.2314 14.82 81.3234C14.82 81.3954 14.802 81.4574 14.766 81.5094C14.726 81.5614 14.678 81.6054 14.622 81.6414L14.28 81.8334ZM14.424 71.6726C14.512 71.7206 14.556 71.7946 14.556 71.8946C14.556 71.9546 14.534 72.0226 14.49 72.0986C14.446 72.1746 14.398 72.2686 14.346 72.3806C14.29 72.4886 14.24 72.6186 14.196 72.7706C14.148 72.9226 14.124 73.1026 14.124 73.3106C14.124 73.4906 14.148 73.6526 14.196 73.7966C14.24 73.9406 14.302 74.0646 14.382 74.1686C14.462 74.2686 14.556 74.3466 14.664 74.4026C14.768 74.4546 14.882 74.4806 15.006 74.4806C15.162 74.4806 15.292 74.4366 15.396 74.3486C15.5 74.2566 15.59 74.1366 15.666 73.9886C15.742 73.8406 15.81 73.6726 15.87 73.4846C15.926 73.2966 15.988 73.1046 16.056 72.9086C16.12 72.7086 16.192 72.5146 16.272 72.3266C16.352 72.1386 16.452 71.9706 16.572 71.8226C16.692 71.6746 16.84 71.5566 17.016 71.4686C17.188 71.3766 17.396 71.3306 17.64 71.3306C17.92 71.3306 18.18 71.3806 18.42 71.4806C18.656 71.5806 18.862 71.7286 19.038 71.9246C19.21 72.1206 19.346 72.3606 19.446 72.6446C19.546 72.9286 19.596 73.2566 19.596 73.6286C19.596 74.0526 19.528 74.4366 19.392 74.7806C19.252 75.1246 19.074 75.4166 18.858 75.6566L18.45 75.4046C18.398 75.3726 18.358 75.3346 18.33 75.2906C18.302 75.2466 18.288 75.1906 18.288 75.1226C18.288 75.0506 18.316 74.9746 18.372 74.8946C18.428 74.8146 18.49 74.7186 18.558 74.6066C18.626 74.4906 18.688 74.3506 18.744 74.1866C18.8 74.0226 18.828 73.8186 18.828 73.5746C18.828 73.3666 18.802 73.1846 18.75 73.0286C18.694 72.8726 18.62 72.7426 18.528 72.6386C18.436 72.5346 18.33 72.4586 18.21 72.4106C18.09 72.3586 17.962 72.3326 17.826 72.3326C17.658 72.3326 17.52 72.3786 17.412 72.4706C17.3 72.5586 17.206 72.6766 17.13 72.8246C17.05 72.9726 16.982 73.1426 16.926 73.3346C16.866 73.5226 16.804 73.7166 16.74 73.9166C16.676 74.1126 16.604 74.3066 16.524 74.4986C16.44 74.6866 16.336 74.8546 16.212 75.0026C16.088 75.1506 15.936 75.2706 15.756 75.3626C15.572 75.4506 15.35 75.4946 15.09 75.4946C14.858 75.4946 14.636 75.4466 14.424 75.3506C14.208 75.2546 14.02 75.1146 13.86 74.9306C13.696 74.7466 13.566 74.5206 13.47 74.2526C13.374 73.9846 13.326 73.6786 13.326 73.3346C13.326 72.9346 13.39 72.5766 13.518 72.2606C13.642 71.9406 13.814 71.6646 14.034 71.4326L14.424 71.6726ZM15.798 65.4532C15.55 65.4532 15.324 65.4892 15.12 65.5612C14.912 65.6292 14.734 65.7312 14.586 65.8672C14.434 65.9992 14.318 66.1612 14.238 66.3532C14.154 66.5452 14.112 66.7632 14.112 67.0072C14.112 67.5192 14.262 67.9252 14.562 68.2252C14.858 68.5212 15.27 68.7052 15.798 68.7772L15.798 65.4532ZM18.648 64.5892C18.808 64.7212 18.948 64.8792 19.068 65.0632C19.184 65.2472 19.28 65.4452 19.356 65.6572C19.432 65.8652 19.488 66.0812 19.524 66.3052C19.564 66.5292 19.584 66.7512 19.584 66.9712C19.584 67.3912 19.514 67.7792 19.374 68.1352C19.23 68.4872 19.022 68.7932 18.75 69.0532C18.474 69.3092 18.134 69.5092 17.73 69.6532C17.326 69.7972 16.862 69.8692 16.338 69.8692C15.914 69.8692 15.518 69.8052 15.15 69.6772C14.782 69.5452 14.464 69.3572 14.196 69.1132C13.924 68.8692 13.712 68.5712 13.56 68.2192C13.404 67.8672 13.326 67.4712 13.326 67.0312C13.326 66.6672 13.388 66.3312 13.512 66.0232C13.632 65.7112 13.808 65.4432 14.04 65.2192C14.268 64.9912 14.552 64.8132 14.892 64.6852C15.228 64.5572 15.612 64.4932 16.044 64.4932C16.212 64.4932 16.324 64.5112 16.38 64.5472C16.436 64.5832 16.464 64.6512 16.464 64.7512L16.464 68.8132C16.848 68.8012 17.182 68.7492 17.466 68.6572C17.75 68.5612 17.988 68.4292 18.18 68.2612C18.368 68.0932 18.51 67.8932 18.606 67.6612C18.698 67.4292 18.744 67.1692 18.744 66.8812C18.744 66.6132 18.714 66.3832 18.654 66.1912C18.59 65.9952 18.522 65.8272 18.45 65.6872C18.378 65.5472 18.312 65.4312 18.252 65.3392C18.188 65.2432 18.156 65.1612 18.156 65.0932C18.156 65.0052 18.19 64.9372 18.258 64.8892L18.648 64.5892Z" fill="white"/>
<defs>
<linearGradient id="paint0_linear_872_24337" x1="150.5" y1="47" x2="150.5" y2="227" gradientUnits="userSpaceOnUse">
<stop stop-color="#03BAE2"/>
<stop offset="1" stop-color="#03BAE2" stop-opacity="0"/>
</linearGradient>
</defs>
</svg>
