<svg width="330" height="283" viewBox="0 0 330 283" fill="none" xmlns="http://www.w3.org/2000/svg">
<path d="M32.7116 36.5859C32.1491 36.5859 31.6477 36.4893 31.2074 36.2961C30.7699 36.1029 30.4219 35.8345 30.1634 35.4907C29.9077 35.1441 29.7685 34.7421 29.7457 34.2847H30.8196C30.8423 34.566 30.9389 34.8089 31.1094 35.0134C31.2798 35.2151 31.5028 35.3714 31.7784 35.4822C32.054 35.593 32.3594 35.6484 32.6946 35.6484C33.0696 35.6484 33.402 35.583 33.6918 35.4523C33.9815 35.3217 34.2088 35.1398 34.3736 34.9069C34.5384 34.6739 34.6207 34.4041 34.6207 34.0972C34.6207 33.7762 34.5412 33.4935 34.3821 33.2492C34.223 33.0021 33.9901 32.8089 33.6832 32.6697C33.3764 32.5305 33.0014 32.4609 32.5582 32.4609H31.8594V31.5234H32.5582C32.9048 31.5234 33.2088 31.4609 33.4702 31.3359C33.7344 31.2109 33.9403 31.0347 34.0881 30.8075C34.2386 30.5802 34.3139 30.3131 34.3139 30.0063C34.3139 29.7109 34.2486 29.4538 34.1179 29.235C33.9872 29.0163 33.8026 28.8458 33.5639 28.7237C33.3281 28.6015 33.0497 28.5404 32.7287 28.5404C32.4276 28.5404 32.1435 28.5958 31.8764 28.7066C31.6122 28.8146 31.3963 28.9722 31.2287 29.1796C31.0611 29.3842 30.9702 29.6313 30.956 29.9211H29.9332C29.9503 29.4637 30.0881 29.0631 30.3466 28.7194C30.6051 28.3728 30.9432 28.1029 31.3608 27.9097C31.7813 27.7166 32.2429 27.62 32.7457 27.62C33.2855 27.62 33.7486 27.7293 34.1349 27.9481C34.5213 28.164 34.8182 28.4495 35.0256 28.8046C35.233 29.1597 35.3366 29.5433 35.3366 29.9552C35.3366 30.4467 35.2074 30.8657 34.9489 31.2123C34.6932 31.5589 34.3452 31.7989 33.9048 31.9325V32.0006C34.456 32.0916 34.8864 32.3259 35.196 32.7038C35.5057 33.0788 35.6605 33.5433 35.6605 34.0972C35.6605 34.5717 35.5313 34.9978 35.2727 35.3756C35.017 35.7506 34.6676 36.0461 34.2244 36.262C33.7813 36.4779 33.277 36.5859 32.7116 36.5859ZM40.25 36.5859C39.608 36.5859 39.0611 36.4112 38.6094 36.0617C38.1577 35.7095 37.8125 35.1995 37.5739 34.5319C37.3352 33.8614 37.2159 33.0518 37.2159 32.1029C37.2159 31.1597 37.3352 30.3543 37.5739 29.6867C37.8153 29.0163 38.1619 28.5049 38.6136 28.1526C39.0682 27.7975 39.6136 27.62 40.25 27.62C40.8864 27.62 41.4304 27.7975 41.8821 28.1526C42.3366 28.5049 42.6832 29.0163 42.9219 29.6867C43.1634 30.3543 43.2841 31.1597 43.2841 32.1029C43.2841 33.0518 43.1648 33.8614 42.9261 34.5319C42.6875 35.1995 42.3423 35.7095 41.8906 36.0617C41.4389 36.4112 40.892 36.5859 40.25 36.5859ZM40.25 35.6484C40.8864 35.6484 41.3807 35.3416 41.733 34.7279C42.0852 34.1143 42.2614 33.2393 42.2614 32.1029C42.2614 31.3472 42.1804 30.7038 42.0185 30.1725C41.8594 29.6413 41.6293 29.2364 41.3281 28.958C41.0298 28.6796 40.6705 28.5404 40.25 28.5404C39.6193 28.5404 39.1264 28.8515 38.7713 29.4737C38.4162 30.093 38.2386 30.9694 38.2386 32.1029C38.2386 32.8586 38.3182 33.5006 38.4773 34.0291C38.6364 34.5575 38.8651 34.9595 39.1634 35.235C39.4645 35.5106 39.8267 35.6484 40.25 35.6484Z" fill="#B8C0CC"/>
<path d="M30.337 68.3999V67.6329L33.2177 64.4794C33.5558 64.1101 33.8342 63.7891 34.0529 63.5164C34.2717 63.2408 34.4336 62.9823 34.5387 62.7408C34.6467 62.4965 34.7006 62.2408 34.7006 61.9738C34.7006 61.6669 34.6268 61.4013 34.479 61.1769C34.3342 60.9525 34.1353 60.7792 33.8825 60.657C33.6296 60.5348 33.3455 60.4738 33.0302 60.4738C32.695 60.4738 32.4023 60.5434 32.1523 60.6826C31.9052 60.8189 31.7134 61.0107 31.5771 61.2579C31.4435 61.505 31.3768 61.7948 31.3768 62.1272H30.3711C30.3711 61.6158 30.489 61.1669 30.7248 60.7806C30.9606 60.3942 31.2816 60.0931 31.6879 59.8772C32.0969 59.6613 32.5558 59.5533 33.0643 59.5533C33.5756 59.5533 34.0288 59.6613 34.4237 59.8772C34.8185 60.0931 35.1282 60.3843 35.3526 60.7508C35.5771 61.1172 35.6893 61.5249 35.6893 61.9738C35.6893 62.2948 35.631 62.6087 35.5146 62.9155C35.4009 63.2195 35.2021 63.559 34.918 63.934C34.6367 64.3062 34.2461 64.7607 33.7461 65.2976L31.7859 67.3942V67.4624H35.8427V68.3999H30.337ZM40.3299 68.5192C39.8299 68.5192 39.3796 68.4198 38.979 68.2209C38.5785 68.0221 38.2575 67.7493 38.016 67.4027C37.7745 67.0562 37.6424 66.6613 37.6197 66.2181H38.6424C38.6822 66.613 38.8612 66.9397 39.1793 67.1982C39.5004 67.4539 39.8839 67.5817 40.3299 67.5817C40.6879 67.5817 41.006 67.4979 41.2844 67.3303C41.5657 67.1627 41.7859 66.9326 41.945 66.64C42.1069 66.3445 42.1879 66.0107 42.1879 65.6385C42.1879 65.2579 42.104 64.9184 41.9364 64.6201C41.7717 64.3189 41.5444 64.0817 41.2546 63.9084C40.9648 63.7351 40.6339 63.6471 40.2617 63.6442C39.9947 63.6414 39.7205 63.6826 39.4393 63.7678C39.158 63.8502 38.9265 63.9567 38.7447 64.0874L37.756 63.9681L38.2844 59.6726H42.8185V60.6101H39.1708L38.864 63.184H38.9151C39.0941 63.0419 39.3185 62.924 39.5884 62.8303C39.8583 62.7365 40.1396 62.6897 40.4322 62.6897C40.9663 62.6897 41.4421 62.8175 41.8597 63.0732C42.2802 63.326 42.6097 63.6726 42.8484 64.113C43.0898 64.5533 43.2106 65.0562 43.2106 65.6215C43.2106 66.1783 43.0856 66.6755 42.8356 67.113C42.5884 67.5476 42.2475 67.8914 41.8129 68.1442C41.3782 68.3942 40.8839 68.5192 40.3299 68.5192Z" fill="#B8C0CC"/>
<path d="M52 63.8999H330" stroke="#334E68"/>
<path d="M30.1378 100.333V99.5662L33.0185 96.4128C33.3565 96.0435 33.6349 95.7225 33.8537 95.4497C34.0724 95.1742 34.2344 94.9156 34.3395 94.6742C34.4474 94.4298 34.5014 94.1742 34.5014 93.9071C34.5014 93.6003 34.4276 93.3347 34.2798 93.1102C34.1349 92.8858 33.9361 92.7125 33.6832 92.5904C33.4304 92.4682 33.1463 92.4071 32.831 92.4071C32.4957 92.4071 32.2031 92.4767 31.9531 92.6159C31.706 92.7523 31.5142 92.944 31.3778 93.1912C31.2443 93.4384 31.1776 93.7281 31.1776 94.0605H30.1719C30.1719 93.5492 30.2898 93.1003 30.5256 92.7139C30.7614 92.3276 31.0824 92.0264 31.4886 91.8105C31.8977 91.5946 32.3565 91.4867 32.8651 91.4867C33.3764 91.4867 33.8295 91.5946 34.2244 91.8105C34.6193 92.0264 34.929 92.3176 35.1534 92.6841C35.3778 93.0506 35.4901 93.4583 35.4901 93.9071C35.4901 94.2281 35.4318 94.5421 35.3153 94.8489C35.2017 95.1529 35.0028 95.4923 34.7188 95.8673C34.4375 96.2395 34.0469 96.694 33.5469 97.231L31.5866 99.3276V99.3958H35.6435V100.333H30.1378ZM40.25 100.453C39.608 100.453 39.0611 100.278 38.6094 99.9284C38.1577 99.5761 37.8125 99.0662 37.5739 98.3986C37.3352 97.7281 37.2159 96.9185 37.2159 95.9696C37.2159 95.0264 37.3352 94.221 37.5739 93.5534C37.8153 92.883 38.1619 92.3716 38.6136 92.0193C39.0682 91.6642 39.6136 91.4867 40.25 91.4867C40.8864 91.4867 41.4304 91.6642 41.8821 92.0193C42.3366 92.3716 42.6832 92.883 42.9219 93.5534C43.1634 94.221 43.2841 95.0264 43.2841 95.9696C43.2841 96.9185 43.1648 97.7281 42.9261 98.3986C42.6875 99.0662 42.3423 99.5761 41.8906 99.9284C41.4389 100.278 40.892 100.453 40.25 100.453ZM40.25 99.5151C40.8864 99.5151 41.3807 99.2083 41.733 98.5946C42.0852 97.981 42.2614 97.106 42.2614 95.9696C42.2614 95.2139 42.1804 94.5705 42.0185 94.0392C41.8594 93.508 41.6293 93.1031 41.3281 92.8247C41.0298 92.5463 40.6705 92.4071 40.25 92.4071C39.6193 92.4071 39.1264 92.7182 38.7713 93.3404C38.4162 93.9597 38.2386 94.8361 38.2386 95.9696C38.2386 96.7253 38.3182 97.3673 38.4773 97.8958C38.6364 98.4242 38.8651 98.8261 39.1634 99.1017C39.4645 99.3773 39.8267 99.5151 40.25 99.5151Z" fill="#B8C0CC"/>
<path d="M52 95.8333H330" stroke="#334E68"/>
<path d="M35.0927 123.539V132.267H34.0359V124.647H33.9847L31.854 126.062V124.988L34.0359 123.539H35.0927ZM40.3299 132.386C39.8299 132.386 39.3796 132.286 38.979 132.088C38.5785 131.889 38.2575 131.616 38.016 131.269C37.7745 130.923 37.6424 130.528 37.6197 130.085H38.6424C38.6822 130.48 38.8612 130.806 39.1793 131.065C39.5004 131.321 39.8839 131.448 40.3299 131.448C40.6879 131.448 41.006 131.365 41.2844 131.197C41.5657 131.029 41.7859 130.799 41.945 130.507C42.1069 130.211 42.1879 129.877 42.1879 129.505C42.1879 129.125 42.104 128.785 41.9364 128.487C41.7717 128.186 41.5444 127.948 41.2546 127.775C40.9648 127.602 40.6339 127.514 40.2617 127.511C39.9947 127.508 39.7205 127.549 39.4393 127.634C39.158 127.717 38.9265 127.823 38.7447 127.954L37.756 127.835L38.2844 123.539H42.8185V124.477H39.1708L38.864 127.051H38.9151C39.0941 126.909 39.3185 126.791 39.5884 126.697C39.8583 126.603 40.1396 126.556 40.4322 126.556C40.9663 126.556 41.4421 126.684 41.8597 126.94C42.2802 127.193 42.6097 127.539 42.8484 127.98C43.0898 128.42 43.2106 128.923 43.2106 129.488C43.2106 130.045 43.0856 130.542 42.8356 130.98C42.5884 131.414 42.2475 131.758 41.8129 132.011C41.3782 132.261 40.8839 132.386 40.3299 132.386Z" fill="#B8C0CC"/>
<path d="M52 127.767H330" stroke="#334E68"/>
<path d="M34.8935 155.473V164.2H33.8366V156.581H33.7855L31.6548 157.996V156.922L33.8366 155.473H34.8935ZM40.25 164.32C39.608 164.32 39.0611 164.145 38.6094 163.795C38.1577 163.443 37.8125 162.933 37.5739 162.266C37.3352 161.595 37.2159 160.785 37.2159 159.837C37.2159 158.893 37.3352 158.088 37.5739 157.42C37.8153 156.75 38.1619 156.239 38.6136 155.886C39.0682 155.531 39.6136 155.354 40.25 155.354C40.8864 155.354 41.4304 155.531 41.8821 155.886C42.3366 156.239 42.6832 156.75 42.9219 157.42C43.1634 158.088 43.2841 158.893 43.2841 159.837C43.2841 160.785 43.1648 161.595 42.9261 162.266C42.6875 162.933 42.3423 163.443 41.8906 163.795C41.4389 164.145 40.892 164.32 40.25 164.32ZM40.25 163.382C40.8864 163.382 41.3807 163.075 41.733 162.462C42.0852 161.848 42.2614 160.973 42.2614 159.837C42.2614 159.081 42.1804 158.437 42.0185 157.906C41.8594 157.375 41.6293 156.97 41.3281 156.692C41.0298 156.413 40.6705 156.274 40.25 156.274C39.6193 156.274 39.1264 156.585 38.7713 157.207C38.4162 157.827 38.2386 158.703 38.2386 159.837C38.2386 160.592 38.3182 161.234 38.4773 161.763C38.6364 162.291 38.8651 162.693 39.1634 162.969C39.4645 163.244 39.8267 163.382 40.25 163.382Z" fill="#B8C0CC"/>
<path d="M52 159.7H330" stroke="#334E68"/>
<path d="M40.3299 196.253C39.8299 196.253 39.3796 196.153 38.979 195.954C38.5785 195.755 38.2575 195.483 38.016 195.136C37.7745 194.79 37.6424 194.395 37.6197 193.951H38.6424C38.6822 194.346 38.8612 194.673 39.1793 194.932C39.5004 195.187 39.8839 195.315 40.3299 195.315C40.6879 195.315 41.006 195.231 41.2844 195.064C41.5657 194.896 41.7859 194.666 41.945 194.373C42.1069 194.078 42.1879 193.744 42.1879 193.372C42.1879 192.991 42.104 192.652 41.9364 192.353C41.7717 192.052 41.5444 191.815 41.2546 191.642C40.9648 191.469 40.6339 191.38 40.2617 191.378C39.9947 191.375 39.7205 191.416 39.4393 191.501C39.158 191.584 38.9265 191.69 38.7447 191.821L37.756 191.701L38.2844 187.406H42.8185V188.344H39.1708L38.864 190.917H38.9151C39.0941 190.775 39.3185 190.657 39.5884 190.564C39.8583 190.47 40.1396 190.423 40.4322 190.423C40.9663 190.423 41.4421 190.551 41.8597 190.807C42.2802 191.059 42.6097 191.406 42.8484 191.846C43.0898 192.287 43.2106 192.79 43.2106 193.355C43.2106 193.912 43.0856 194.409 42.8356 194.846C42.5884 195.281 42.2475 195.625 41.8129 195.878C41.3782 196.128 40.8839 196.253 40.3299 196.253Z" fill="#B8C0CC"/>
<path d="M52 191.633H330" stroke="#334E68"/>
<path d="M40.25 229.92C39.608 229.92 39.0611 229.745 38.6094 229.395C38.1577 229.043 37.8125 228.533 37.5739 227.866C37.3352 227.195 37.2159 226.386 37.2159 225.437C37.2159 224.493 37.3352 223.688 37.5739 223.02C37.8153 222.35 38.1619 221.839 38.6136 221.486C39.0682 221.131 39.6136 220.954 40.25 220.954C40.8864 220.954 41.4304 221.131 41.8821 221.486C42.3366 221.839 42.6832 222.35 42.9219 223.02C43.1634 223.688 43.2841 224.493 43.2841 225.437C43.2841 226.386 43.1648 227.195 42.9261 227.866C42.6875 228.533 42.3423 229.043 41.8906 229.395C41.4389 229.745 40.892 229.92 40.25 229.92ZM40.25 228.982C40.8864 228.982 41.3807 228.675 41.733 228.062C42.0852 227.448 42.2614 226.573 42.2614 225.437C42.2614 224.681 42.1804 224.038 42.0185 223.506C41.8594 222.975 41.6293 222.57 41.3281 222.292C41.0298 222.013 40.6705 221.874 40.25 221.874C39.6193 221.874 39.1264 222.185 38.7713 222.807C38.4162 223.427 38.2386 224.303 38.2386 225.437C38.2386 226.192 38.3182 226.834 38.4773 227.363C38.6364 227.891 38.8651 228.293 39.1634 228.569C39.4645 228.844 39.8267 228.982 40.25 228.982Z" fill="#B8C0CC"/>
<rect x="52.5" y="31.5" width="277" height="195" stroke="#334E68"/>
<path d="M103.93 239V230.273H106.981C107.589 230.273 108.09 230.378 108.485 230.588C108.88 230.795 109.174 231.075 109.367 231.428C109.561 231.777 109.657 232.165 109.657 232.591C109.657 232.966 109.59 233.276 109.457 233.52C109.326 233.764 109.153 233.957 108.937 234.099C108.724 234.241 108.492 234.347 108.242 234.415V234.5C108.509 234.517 108.778 234.611 109.048 234.781C109.318 234.952 109.544 235.196 109.725 235.514C109.907 235.832 109.998 236.222 109.998 236.682C109.998 237.119 109.899 237.513 109.7 237.862C109.501 238.212 109.187 238.489 108.758 238.693C108.329 238.898 107.771 239 107.083 239H103.93ZM104.987 238.062H107.083C107.774 238.062 108.264 237.929 108.553 237.662C108.846 237.392 108.992 237.065 108.992 236.682C108.992 236.386 108.917 236.114 108.767 235.864C108.616 235.611 108.401 235.409 108.123 235.259C107.845 235.105 107.515 235.028 107.134 235.028H104.987V238.062ZM104.987 234.108H106.947C107.265 234.108 107.552 234.045 107.808 233.92C108.066 233.795 108.271 233.619 108.421 233.392C108.575 233.165 108.651 232.898 108.651 232.591C108.651 232.207 108.518 231.882 108.251 231.615C107.984 231.345 107.561 231.21 106.981 231.21H104.987V234.108ZM114.343 239.136C113.712 239.136 113.168 238.997 112.71 238.719C112.256 238.438 111.905 238.045 111.658 237.543C111.414 237.037 111.291 236.449 111.291 235.778C111.291 235.108 111.414 234.517 111.658 234.006C111.905 233.491 112.249 233.091 112.689 232.804C113.132 232.514 113.649 232.369 114.24 232.369C114.581 232.369 114.918 232.426 115.25 232.54C115.583 232.653 115.885 232.838 116.158 233.094C116.431 233.347 116.648 233.682 116.81 234.099C116.972 234.517 117.053 235.031 117.053 235.642V236.068H112.007V235.199H116.03C116.03 234.83 115.956 234.5 115.808 234.21C115.664 233.92 115.456 233.692 115.186 233.524C114.919 233.357 114.604 233.273 114.24 233.273C113.84 233.273 113.493 233.372 113.2 233.571C112.911 233.767 112.688 234.023 112.531 234.338C112.375 234.653 112.297 234.991 112.297 235.352V235.932C112.297 236.426 112.382 236.845 112.553 237.189C112.726 237.53 112.966 237.79 113.273 237.969C113.58 238.145 113.936 238.233 114.343 238.233C114.607 238.233 114.845 238.196 115.058 238.122C115.274 238.045 115.46 237.932 115.617 237.781C115.773 237.628 115.894 237.437 115.979 237.21L116.95 237.483C116.848 237.812 116.676 238.102 116.435 238.352C116.193 238.599 115.895 238.793 115.54 238.932C115.185 239.068 114.786 239.136 114.343 239.136ZM121.497 232.455V233.307H117.969V232.455H121.497ZM119.026 239V231.551C119.026 231.176 119.114 230.864 119.29 230.614C119.466 230.364 119.695 230.176 119.976 230.051C120.257 229.926 120.554 229.864 120.867 229.864C121.114 229.864 121.316 229.884 121.472 229.923C121.628 229.963 121.744 230 121.821 230.034L121.531 230.903C121.48 230.886 121.409 230.865 121.318 230.839C121.23 230.814 121.114 230.801 120.969 230.801C120.637 230.801 120.396 230.885 120.249 231.053C120.104 231.22 120.031 231.466 120.031 231.79V239H119.026ZM125.296 239.136C124.705 239.136 124.187 238.996 123.741 238.714C123.298 238.433 122.951 238.04 122.701 237.534C122.454 237.028 122.33 236.437 122.33 235.761C122.33 235.08 122.454 234.484 122.701 233.976C122.951 233.467 123.298 233.072 123.741 232.791C124.187 232.51 124.705 232.369 125.296 232.369C125.887 232.369 126.404 232.51 126.847 232.791C127.294 233.072 127.64 233.467 127.887 233.976C128.137 234.484 128.262 235.08 128.262 235.761C128.262 236.437 128.137 237.028 127.887 237.534C127.64 238.04 127.294 238.433 126.847 238.714C126.404 238.996 125.887 239.136 125.296 239.136ZM125.296 238.233C125.745 238.233 126.115 238.118 126.404 237.888C126.694 237.658 126.909 237.355 127.048 236.98C127.187 236.605 127.257 236.199 127.257 235.761C127.257 235.324 127.187 234.916 127.048 234.538C126.909 234.161 126.694 233.855 126.404 233.622C126.115 233.389 125.745 233.273 125.296 233.273C124.847 233.273 124.478 233.389 124.188 233.622C123.899 233.855 123.684 234.161 123.545 234.538C123.406 234.916 123.336 235.324 123.336 235.761C123.336 236.199 123.406 236.605 123.545 236.98C123.684 237.355 123.899 237.658 124.188 237.888C124.478 238.118 124.847 238.233 125.296 238.233ZM129.797 239V232.455H130.769V233.443H130.837C130.956 233.119 131.172 232.857 131.485 232.655C131.797 232.453 132.15 232.352 132.542 232.352C132.616 232.352 132.708 232.354 132.819 232.357C132.93 232.359 133.013 232.364 133.07 232.369V233.392C133.036 233.384 132.958 233.371 132.836 233.354C132.716 233.334 132.59 233.324 132.456 233.324C132.138 233.324 131.854 233.391 131.604 233.524C131.357 233.655 131.161 233.837 131.016 234.07C130.874 234.3 130.803 234.562 130.803 234.858V239H129.797ZM136.807 239.136C136.177 239.136 135.633 238.997 135.175 238.719C134.721 238.438 134.37 238.045 134.123 237.543C133.878 237.037 133.756 236.449 133.756 235.778C133.756 235.108 133.878 234.517 134.123 234.006C134.37 233.491 134.714 233.091 135.154 232.804C135.597 232.514 136.114 232.369 136.705 232.369C137.046 232.369 137.383 232.426 137.715 232.54C138.047 232.653 138.35 232.838 138.623 233.094C138.895 233.347 139.113 233.682 139.275 234.099C139.437 234.517 139.518 235.031 139.518 235.642V236.068H134.472V235.199H138.495C138.495 234.83 138.421 234.5 138.273 234.21C138.128 233.92 137.921 233.692 137.651 233.524C137.384 233.357 137.069 233.273 136.705 233.273C136.305 233.273 135.958 233.372 135.665 233.571C135.376 233.767 135.153 234.023 134.996 234.338C134.84 234.653 134.762 234.991 134.762 235.352V235.932C134.762 236.426 134.847 236.845 135.018 237.189C135.191 237.53 135.431 237.79 135.738 237.969C136.045 238.145 136.401 238.233 136.807 238.233C137.072 238.233 137.31 238.196 137.523 238.122C137.739 238.045 137.925 237.932 138.081 237.781C138.238 237.628 138.358 237.437 138.444 237.21L139.415 237.483C139.313 237.812 139.141 238.102 138.9 238.352C138.658 238.599 138.36 238.793 138.005 238.932C137.65 239.068 137.251 239.136 136.807 239.136Z" fill="#B8C0CC"/>
<path d="M247.829 239H246.721L249.925 230.273H251.016L254.221 239H253.113L250.505 231.653H250.437L247.829 239ZM248.238 235.591H252.704V236.528H248.238V235.591ZM258.359 232.455V233.307H254.83V232.455H258.359ZM255.887 239V231.551C255.887 231.176 255.975 230.864 256.151 230.614C256.327 230.364 256.556 230.176 256.837 230.051C257.119 229.926 257.415 229.864 257.728 229.864C257.975 229.864 258.177 229.884 258.333 229.923C258.489 229.963 258.606 230 258.683 230.034L258.393 230.903C258.342 230.886 258.271 230.865 258.18 230.839C258.092 230.814 257.975 230.801 257.83 230.801C257.498 230.801 257.258 230.885 257.11 231.053C256.965 231.22 256.893 231.466 256.893 231.79V239H255.887ZM262.615 232.455V233.307H259.223V232.455H262.615ZM260.211 230.886H261.217V237.125C261.217 237.409 261.258 237.622 261.341 237.764C261.426 237.903 261.534 237.997 261.664 238.045C261.798 238.091 261.939 238.114 262.086 238.114C262.197 238.114 262.288 238.108 262.359 238.097C262.43 238.082 262.487 238.071 262.529 238.062L262.734 238.966C262.666 238.991 262.571 239.017 262.449 239.043C262.326 239.071 262.172 239.085 261.984 239.085C261.7 239.085 261.422 239.024 261.149 238.902C260.879 238.78 260.654 238.594 260.475 238.344C260.299 238.094 260.211 237.778 260.211 237.398V230.886ZM266.801 239.136C266.171 239.136 265.627 238.997 265.169 238.719C264.715 238.438 264.364 238.045 264.117 237.543C263.873 237.037 263.75 236.449 263.75 235.778C263.75 235.108 263.873 234.517 264.117 234.006C264.364 233.491 264.708 233.091 265.148 232.804C265.591 232.514 266.108 232.369 266.699 232.369C267.04 232.369 267.377 232.426 267.709 232.54C268.042 232.653 268.344 232.838 268.617 233.094C268.89 233.347 269.107 233.682 269.269 234.099C269.431 234.517 269.512 235.031 269.512 235.642V236.068H264.466V235.199H268.489C268.489 234.83 268.415 234.5 268.267 234.21C268.123 233.92 267.915 233.692 267.645 233.524C267.378 233.357 267.063 233.273 266.699 233.273C266.299 233.273 265.952 233.372 265.659 233.571C265.37 233.767 265.147 234.023 264.99 234.338C264.834 234.653 264.756 234.991 264.756 235.352V235.932C264.756 236.426 264.841 236.845 265.012 237.189C265.185 237.53 265.425 237.79 265.732 237.969C266.039 238.145 266.395 238.233 266.801 238.233C267.066 238.233 267.304 238.196 267.517 238.122C267.733 238.045 267.919 237.932 268.076 237.781C268.232 237.628 268.353 237.437 268.438 237.21L269.409 237.483C269.307 237.812 269.135 238.102 268.894 238.352C268.652 238.599 268.354 238.793 267.999 238.932C267.644 239.068 267.245 239.136 266.801 239.136ZM271.042 239V232.455H272.013V233.443H272.081C272.201 233.119 272.417 232.857 272.729 232.655C273.042 232.453 273.394 232.352 273.786 232.352C273.86 232.352 273.952 232.354 274.063 232.357C274.174 232.359 274.257 232.364 274.314 232.369V233.392C274.28 233.384 274.202 233.371 274.08 233.354C273.961 233.334 273.834 233.324 273.701 233.324C273.382 233.324 273.098 233.391 272.848 233.524C272.601 233.655 272.405 233.837 272.26 234.07C272.118 234.3 272.047 234.562 272.047 234.858V239H271.042Z" fill="#B8C0CC"/>
<rect x="52" y="41" width="132" height="186" rx="1.5" fill="#475569"/>
<rect x="185" y="104" width="145" height="123" rx="1.5" fill="#4006DE" fill-opacity="0.8"/>
<path d="M7.224 153.841C7.224 153.777 7.25 153.721 7.302 153.673L7.8 153.211C8.208 153.563 8.526 153.991 8.754 154.495C8.982 154.995 9.096 155.601 9.096 156.313C9.096 156.929 8.99 157.489 8.778 157.993C8.562 158.497 8.262 158.927 7.878 159.283C7.49 159.639 7.026 159.915 6.486 160.111C5.946 160.307 5.352 160.405 4.704 160.405C4.056 160.405 3.462 160.303 2.922 160.099C2.382 159.895 1.918 159.609 1.53 159.241C1.142 158.869 0.842 158.425 0.629999 157.909C0.413999 157.393 0.305999 156.823 0.305999 156.199C0.305999 155.587 0.403999 155.047 0.599999 154.579C0.795999 154.111 1.062 153.699 1.398 153.343L1.932 153.727C1.972 153.751 2.006 153.783 2.034 153.823C2.058 153.859 2.07 153.909 2.07 153.973C2.07 154.045 2.032 154.133 1.956 154.237C1.876 154.341 1.788 154.477 1.692 154.645C1.596 154.813 1.51 155.023 1.434 155.275C1.354 155.527 1.314 155.837 1.314 156.205C1.314 156.649 1.392 157.055 1.548 157.423C1.7 157.791 1.922 158.109 2.214 158.377C2.506 158.641 2.862 158.847 3.282 158.995C3.702 159.143 4.176 159.217 4.704 159.217C5.24 159.217 5.718 159.141 6.138 158.989C6.558 158.833 6.914 158.623 7.206 158.359C7.494 158.091 7.714 157.777 7.866 157.417C8.018 157.053 8.094 156.661 8.094 156.241C8.094 155.985 8.08 155.755 8.052 155.551C8.02 155.343 7.972 155.153 7.908 154.981C7.844 154.805 7.764 154.643 7.668 154.495C7.568 154.343 7.45 154.193 7.314 154.045C7.254 153.977 7.224 153.909 7.224 153.841ZM3.732 150.539C3.456 150.279 3.236 149.991 3.072 149.675C2.908 149.359 2.826 148.995 2.826 148.583C2.826 148.251 2.882 147.959 2.994 147.707C3.102 147.451 3.258 147.239 3.462 147.071C3.662 146.899 3.904 146.769 4.188 146.681C4.472 146.593 4.786 146.549 5.13 146.549L9 146.549L9 147.623L5.13 147.623C4.67 147.623 4.314 147.729 4.062 147.941C3.806 148.149 3.678 148.467 3.678 148.895C3.678 149.211 3.754 149.507 3.906 149.783C4.058 150.055 4.264 150.307 4.524 150.539L9 150.539L9 151.613L0.161999 151.613L0.161999 150.539L3.732 150.539ZM2.922 139.424L9 139.424L9 140.06C9 140.212 8.926 140.308 8.778 140.348L8.124 140.432C8.416 140.696 8.652 140.992 8.832 141.32C9.008 141.648 9.096 142.024 9.096 142.448C9.096 142.78 9.042 143.074 8.934 143.33C8.822 143.582 8.666 143.794 8.466 143.966C8.266 144.138 8.024 144.268 7.74 144.356C7.456 144.44 7.142 144.482 6.798 144.482L2.922 144.482L2.922 143.414L6.798 143.414C7.258 143.414 7.614 143.31 7.866 143.102C8.118 142.89 8.244 142.568 8.244 142.136C8.244 141.82 8.17 141.526 8.022 141.254C7.87 140.978 7.662 140.724 7.398 140.492L2.922 140.492L2.922 139.424ZM4.14 136.216C3.724 136.024 3.4 135.788 3.168 135.508C2.932 135.228 2.814 134.886 2.814 134.482C2.814 134.354 2.828 134.232 2.856 134.116C2.884 133.996 2.928 133.89 2.988 133.798L3.786 133.876C3.886 133.9 3.936 133.96 3.936 134.056C3.936 134.112 3.924 134.194 3.9 134.302C3.876 134.41 3.864 134.532 3.864 134.668C3.864 134.86 3.892 135.032 3.948 135.184C4.004 135.332 4.088 135.466 4.2 135.586C4.308 135.702 4.444 135.808 4.608 135.904C4.768 135.996 4.952 136.08 5.16 136.156L9 136.156L9 137.23L2.922 137.23L2.922 136.618C2.922 136.502 2.944 136.422 2.988 136.378C3.032 136.334 3.108 136.304 3.216 136.288L4.14 136.216ZM3.804 131.351C3.656 131.219 3.522 131.079 3.402 130.931C3.282 130.783 3.18 130.627 3.096 130.463C3.008 130.295 2.942 130.119 2.898 129.935C2.85 129.747 2.826 129.545 2.826 129.329C2.826 128.997 2.882 128.705 2.994 128.453C3.102 128.197 3.258 127.985 3.462 127.817C3.662 127.645 3.904 127.515 4.188 127.427C4.472 127.339 4.786 127.295 5.13 127.295L9 127.295L9 128.369L5.13 128.369C4.67 128.369 4.314 128.475 4.062 128.687C3.806 128.895 3.678 129.213 3.678 129.641C3.678 129.957 3.754 130.253 3.906 130.529C4.058 130.801 4.264 131.053 4.524 131.285L9 131.285L9 132.359L2.922 132.359L2.922 131.717C2.922 131.565 2.996 131.471 3.144 131.435L3.804 131.351ZM4.566 118.963C4.566 118.627 4.526 118.331 4.446 118.075C4.362 117.815 4.246 117.599 4.098 117.427C3.946 117.251 3.766 117.119 3.558 117.031C3.35 116.943 3.12 116.899 2.868 116.899C2.356 116.899 1.97 117.067 1.71 117.403C1.45 117.739 1.32 118.243 1.32 118.915L1.32 120.187L4.566 120.187L4.566 118.963ZM9 114.991L9 116.023C9 116.235 8.918 116.391 8.754 116.491L5.682 118.723C5.586 118.791 5.518 118.865 5.478 118.945C5.434 119.021 5.412 119.141 5.412 119.305L5.412 120.187L9 120.187L9 121.345L0.401998 121.345L0.401998 118.915C0.401998 118.371 0.457998 117.901 0.569998 117.505C0.677998 117.109 0.835998 116.783 1.044 116.527C1.252 116.267 1.504 116.075 1.8 115.951C2.092 115.827 2.42 115.765 2.784 115.765C3.088 115.765 3.372 115.813 3.636 115.909C3.9 116.005 4.138 116.145 4.35 116.329C4.558 116.509 4.736 116.731 4.884 116.995C5.032 117.255 5.144 117.551 5.22 117.883C5.304 117.735 5.426 117.607 5.586 117.499L9 114.991ZM6.264 110.374C6.28 110.866 6.32 111.286 6.384 111.634C6.444 111.978 6.524 112.26 6.624 112.48C6.724 112.696 6.842 112.854 6.978 112.954C7.114 113.05 7.266 113.098 7.434 113.098C7.594 113.098 7.732 113.072 7.848 113.02C7.964 112.968 8.06 112.898 8.136 112.81C8.208 112.718 8.262 112.612 8.298 112.492C8.33 112.368 8.346 112.236 8.346 112.096C8.346 111.908 8.328 111.736 8.292 111.58C8.252 111.424 8.196 111.278 8.124 111.142C8.052 111.002 7.966 110.87 7.866 110.746C7.766 110.618 7.652 110.494 7.524 110.374L6.264 110.374ZM3.78 113.824C3.456 113.488 3.214 113.126 3.054 112.738C2.894 112.35 2.814 111.92 2.814 111.448C2.814 111.108 2.87 110.806 2.982 110.542C3.094 110.278 3.25 110.056 3.45 109.876C3.65 109.696 3.892 109.56 4.176 109.468C4.46 109.376 4.772 109.33 5.112 109.33L9 109.33L9 109.804C9 109.908 8.984 109.988 8.952 110.044C8.916 110.1 8.848 110.144 8.748 110.176L8.172 110.296C8.32 110.456 8.452 110.612 8.568 110.764C8.68 110.916 8.776 111.076 8.856 111.244C8.932 111.412 8.99 111.592 9.03 111.784C9.074 111.972 9.096 112.182 9.096 112.414C9.096 112.65 9.064 112.872 9 113.08C8.932 113.288 8.832 113.47 8.7 113.626C8.568 113.778 8.402 113.9 8.202 113.992C7.998 114.08 7.758 114.124 7.482 114.124C7.242 114.124 7.012 114.058 6.792 113.926C6.568 113.794 6.37 113.58 6.198 113.284C6.026 112.988 5.886 112.602 5.778 112.126C5.666 111.65 5.602 111.066 5.586 110.374L5.112 110.374C4.64 110.374 4.284 110.476 4.044 110.68C3.8 110.884 3.678 111.182 3.678 111.574C3.678 111.838 3.712 112.06 3.78 112.24C3.844 112.416 3.918 112.57 4.002 112.702C4.082 112.83 4.156 112.942 4.224 113.038C4.288 113.13 4.32 113.222 4.32 113.314C4.32 113.386 4.302 113.448 4.266 113.5C4.226 113.552 4.178 113.596 4.122 113.632L3.78 113.824ZM9.096 105.419C9.096 105.899 8.962 106.269 8.694 106.529C8.426 106.785 8.04 106.913 7.536 106.913L3.816 106.913L3.816 107.645C3.816 107.709 3.798 107.763 3.762 107.807C3.722 107.851 3.662 107.873 3.582 107.873L3.156 107.873L3.03 106.877L1.152 106.631C1.092 106.619 1.044 106.593 1.008 106.553C0.967998 106.509 0.947998 106.453 0.947998 106.385L0.947998 105.845L3.042 105.845L3.042 104.087L3.816 104.087L3.816 105.845L7.464 105.845C7.72 105.845 7.91 105.783 8.034 105.659C8.158 105.535 8.22 105.375 8.22 105.179C8.22 105.067 8.206 104.971 8.178 104.891C8.146 104.807 8.112 104.735 8.076 104.675C8.04 104.615 8.008 104.565 7.98 104.525C7.948 104.481 7.932 104.443 7.932 104.411C7.932 104.355 7.966 104.305 8.034 104.261L8.544 103.949C8.716 104.133 8.852 104.355 8.952 104.615C9.048 104.875 9.096 105.143 9.096 105.419ZM5.298 98.4512C5.05 98.4512 4.824 98.4872 4.62 98.5592C4.412 98.6272 4.234 98.7292 4.086 98.8652C3.934 98.9972 3.818 99.1592 3.738 99.3512C3.654 99.5432 3.612 99.7612 3.612 100.005C3.612 100.517 3.762 100.923 4.062 101.223C4.358 101.519 4.77 101.703 5.298 101.775L5.298 98.4512ZM8.148 97.5872C8.308 97.7192 8.448 97.8772 8.568 98.0612C8.684 98.2452 8.78 98.4432 8.856 98.6552C8.932 98.8632 8.988 99.0792 9.024 99.3032C9.064 99.5272 9.084 99.7492 9.084 99.9692C9.084 100.389 9.014 100.777 8.874 101.133C8.73 101.485 8.522 101.791 8.25 102.051C7.974 102.307 7.634 102.507 7.23 102.651C6.826 102.795 6.362 102.867 5.838 102.867C5.414 102.867 5.018 102.803 4.65 102.675C4.282 102.543 3.964 102.355 3.696 102.111C3.424 101.867 3.212 101.569 3.06 101.217C2.904 100.865 2.826 100.469 2.826 100.029C2.826 99.6652 2.888 99.3292 3.012 99.0212C3.132 98.7092 3.308 98.4412 3.54 98.2172C3.768 97.9892 4.052 97.8112 4.392 97.6832C4.728 97.5552 5.112 97.4912 5.544 97.4912C5.712 97.4912 5.824 97.5092 5.88 97.5452C5.936 97.5812 5.964 97.6492 5.964 97.7492L5.964 101.811C6.348 101.799 6.682 101.747 6.966 101.655C7.25 101.559 7.488 101.427 7.68 101.259C7.868 101.091 8.01 100.891 8.106 100.659C8.198 100.427 8.244 100.167 8.244 99.8792C8.244 99.6112 8.214 99.3812 8.154 99.1892C8.09 98.9932 8.022 98.8252 7.95 98.6852C7.878 98.5452 7.812 98.4292 7.752 98.3372C7.688 98.2412 7.656 98.1592 7.656 98.0912C7.656 98.0032 7.69 97.9352 7.758 97.8872L8.148 97.5872Z" fill="white"/>
</svg>
