<svg width="336" height="283" viewBox="0 0 336 283" fill="none" xmlns="http://www.w3.org/2000/svg">
<path d="M53.8935 30.9326V39.6599H52.8366V32.0406H52.7855L50.6548 33.4554V32.3815L52.8366 30.9326H53.8935ZM59.25 39.7792C58.608 39.7792 58.0611 39.6045 57.6094 39.2551C57.1577 38.9028 56.8125 38.3929 56.5739 37.7253C56.3352 37.0548 56.2159 36.2451 56.2159 35.2963C56.2159 34.3531 56.3352 33.5477 56.5739 32.8801C56.8153 32.2096 57.1619 31.6983 57.6136 31.346C58.0682 30.9909 58.6136 30.8133 59.25 30.8133C59.8864 30.8133 60.4304 30.9909 60.8821 31.346C61.3366 31.6983 61.6832 32.2096 61.9219 32.8801C62.1634 33.5477 62.2841 34.3531 62.2841 35.2963C62.2841 36.2451 62.1648 37.0548 61.9261 37.7253C61.6875 38.3929 61.3423 38.9028 60.8906 39.2551C60.4389 39.6045 59.892 39.7792 59.25 39.7792ZM59.25 38.8417C59.8864 38.8417 60.3807 38.5349 60.733 37.9213C61.0852 37.3076 61.2614 36.4326 61.2614 35.2963C61.2614 34.5406 61.1804 33.8971 61.0185 33.3659C60.8594 32.8346 60.6293 32.4298 60.3281 32.1514C60.0298 31.873 59.6705 31.7338 59.25 31.7338C58.6193 31.7338 58.1264 32.0449 57.7713 32.667C57.4162 33.2863 57.2386 34.1628 57.2386 35.2963C57.2386 36.052 57.3182 36.694 57.4773 37.2224C57.6364 37.7508 57.8651 38.1528 58.1634 38.4284C58.4645 38.7039 58.8267 38.8417 59.25 38.8417Z" fill="#B8C0CC"/>
<path d="M71 35.1599H312" stroke="#334E68"/>
<path d="M59.3043 78.0993C58.7191 78.0993 58.2021 77.9956 57.7532 77.7882C57.3072 77.578 56.9592 77.2896 56.7092 76.9232C56.4592 76.5538 56.3356 76.1334 56.3384 75.6618C56.3356 75.2925 56.408 74.9516 56.5558 74.6391C56.7035 74.3237 56.9052 74.0609 57.1609 73.8507C57.4194 73.6377 57.7077 73.5027 58.0259 73.4459V73.3948C57.6083 73.2868 57.2759 73.0524 57.0288 72.6916C56.7816 72.328 56.6594 71.9146 56.6623 71.4516C56.6594 71.0084 56.7717 70.6121 56.9989 70.2627C57.2262 69.9132 57.5387 69.6377 57.9364 69.4359C58.337 69.2342 58.793 69.1334 59.3043 69.1334C59.81 69.1334 60.2617 69.2342 60.6594 69.4359C61.0572 69.6377 61.3697 69.9132 61.5969 70.2627C61.8271 70.6121 61.9435 71.0084 61.9464 71.4516C61.9435 71.9146 61.8171 72.328 61.5671 72.6916C61.32 73.0524 60.9918 73.2868 60.5827 73.3948V73.4459C60.8981 73.5027 61.1822 73.6377 61.435 73.8507C61.6879 74.0609 61.8896 74.3237 62.0401 74.6391C62.1907 74.9516 62.2674 75.2925 62.2702 75.6618C62.2674 76.1334 62.1396 76.5538 61.8867 76.9232C61.6367 77.2896 61.2887 77.578 60.8427 77.7882C60.3995 77.9956 59.8867 78.0993 59.3043 78.0993ZM59.3043 77.1618C59.6992 77.1618 60.0401 77.0979 60.3271 76.97C60.614 76.8422 60.8356 76.6618 60.9918 76.4288C61.1481 76.1959 61.2276 75.9232 61.2305 75.6107C61.2276 75.2811 61.1424 74.9899 60.9748 74.7371C60.8072 74.4842 60.5785 74.2854 60.2887 74.1405C60.0018 73.9956 59.6737 73.9232 59.3043 73.9232C58.9322 73.9232 58.5998 73.9956 58.3072 74.1405C58.0174 74.2854 57.7887 74.4842 57.6211 74.7371C57.4563 74.9899 57.3754 75.2811 57.3782 75.6107C57.3754 75.9232 57.4506 76.1959 57.604 76.4288C57.7603 76.6618 57.9833 76.8422 58.2731 76.97C58.5629 77.0979 58.9066 77.1618 59.3043 77.1618ZM59.3043 73.0198C59.6168 73.0198 59.8938 72.9573 60.1353 72.8323C60.3796 72.7073 60.5714 72.5325 60.7106 72.3081C60.8498 72.0837 60.9208 71.8209 60.9237 71.5198C60.9208 71.2243 60.8512 70.9672 60.7148 70.7484C60.5785 70.5269 60.3896 70.3564 60.1481 70.2371C59.9066 70.1149 59.6254 70.0538 59.3043 70.0538C58.9776 70.0538 58.6921 70.1149 58.4478 70.2371C58.2035 70.3564 58.0146 70.5269 57.881 70.7484C57.7475 70.9672 57.6822 71.2243 57.685 71.5198C57.6822 71.8209 57.7489 72.0837 57.8853 72.3081C58.0245 72.5325 58.2163 72.7073 58.4606 72.8323C58.7049 72.9573 58.9862 73.0198 59.3043 73.0198Z" fill="#B8C0CC"/>
<path d="M71 73.48H312" stroke="#334E68"/>
<path d="M59.3129 116.419C58.9549 116.413 58.5969 116.345 58.239 116.215C57.881 116.084 57.5543 115.864 57.2589 115.554C56.9634 115.242 56.7262 114.82 56.5472 114.288C56.3683 113.754 56.2788 113.084 56.2788 112.277C56.2788 111.504 56.3512 110.82 56.4961 110.223C56.641 109.624 56.8512 109.119 57.1268 108.71C57.4023 108.298 57.7347 107.986 58.1239 107.773C58.516 107.56 58.9577 107.453 59.4492 107.453C59.9379 107.453 60.3725 107.551 60.7532 107.747C61.1367 107.94 61.4492 108.21 61.6907 108.557C61.9322 108.903 62.0884 109.303 62.1594 109.754H61.1197C61.0231 109.362 60.8356 109.037 60.5572 108.778C60.2788 108.52 59.9094 108.391 59.4492 108.391C58.7731 108.391 58.2404 108.685 57.8512 109.273C57.4648 109.861 57.2702 110.686 57.2674 111.749H57.3356C57.4947 111.507 57.6836 111.301 57.9023 111.131C58.1239 110.957 58.3683 110.824 58.6353 110.73C58.9023 110.636 59.185 110.59 59.4833 110.59C59.9833 110.59 60.4407 110.715 60.8555 110.965C61.2702 111.212 61.6026 111.554 61.8526 111.992C62.1026 112.426 62.2276 112.925 62.2276 113.487C62.2276 114.027 62.1069 114.521 61.8654 114.97C61.6239 115.416 61.2844 115.771 60.8469 116.036C60.4123 116.297 59.9009 116.425 59.3129 116.419ZM59.3129 115.482C59.6708 115.482 59.9918 115.392 60.2759 115.213C60.5629 115.034 60.7887 114.794 60.9535 114.493C61.1211 114.192 61.2049 113.857 61.2049 113.487C61.2049 113.127 61.1239 112.798 60.962 112.503C60.8029 112.205 60.5827 111.967 60.3015 111.791C60.0231 111.615 59.7049 111.527 59.3469 111.527C59.0771 111.527 58.8256 111.581 58.5927 111.689C58.3597 111.794 58.1552 111.939 57.979 112.124C57.8058 112.308 57.6694 112.52 57.57 112.759C57.4705 112.994 57.4208 113.243 57.4208 113.504C57.4208 113.851 57.5018 114.175 57.6637 114.476C57.8285 114.777 58.0529 115.02 58.337 115.205C58.6239 115.389 58.9492 115.482 59.3129 115.482Z" fill="#B8C0CC"/>
<path d="M71 111.8H312" stroke="#334E68"/>
<path d="M55.9996 152.83V151.961L59.8349 145.893H60.4656V147.239H60.0394L57.1417 151.824V151.893H62.3065V152.83H55.9996ZM60.1076 154.62V152.566V152.161V145.893H61.1133V154.62H60.1076Z" fill="#B8C0CC"/>
<path d="M71 150.12H312" stroke="#334E68"/>
<path d="M56.6378 192.94V192.173L59.5185 189.019C59.8565 188.65 60.1349 188.329 60.3537 188.056C60.5724 187.781 60.7344 187.522 60.8395 187.281C60.9474 187.037 61.0014 186.781 61.0014 186.514C61.0014 186.207 60.9276 185.941 60.7798 185.717C60.6349 185.492 60.4361 185.319 60.1832 185.197C59.9304 185.075 59.6463 185.014 59.331 185.014C58.9957 185.014 58.7031 185.083 58.4531 185.223C58.206 185.359 58.0142 185.551 57.8778 185.798C57.7443 186.045 57.6776 186.335 57.6776 186.667H56.6719C56.6719 186.156 56.7898 185.707 57.0256 185.321C57.2614 184.934 57.5824 184.633 57.9886 184.417C58.3977 184.201 58.8565 184.093 59.3651 184.093C59.8764 184.093 60.3295 184.201 60.7244 184.417C61.1193 184.633 61.429 184.924 61.6534 185.291C61.8778 185.657 61.9901 186.065 61.9901 186.514C61.9901 186.835 61.9318 187.149 61.8153 187.456C61.7017 187.76 61.5028 188.099 61.2188 188.474C60.9375 188.846 60.5469 189.301 60.0469 189.838L58.0866 191.934V192.002H62.1435V192.94H56.6378Z" fill="#B8C0CC"/>
<path d="M71 188.44H312" stroke="#334E68"/>
<path d="M59.25 229.919C58.608 229.919 58.0611 229.745 57.6094 229.395C57.1577 229.043 56.8125 228.533 56.5739 227.865C56.3352 227.195 56.2159 226.385 56.2159 225.436C56.2159 224.493 56.3352 223.688 56.5739 223.02C56.8153 222.35 57.1619 221.838 57.6136 221.486C58.0682 221.131 58.6136 220.953 59.25 220.953C59.8864 220.953 60.4304 221.131 60.8821 221.486C61.3366 221.838 61.6832 222.35 61.9219 223.02C62.1634 223.688 62.2841 224.493 62.2841 225.436C62.2841 226.385 62.1648 227.195 61.9261 227.865C61.6875 228.533 61.3423 229.043 60.8906 229.395C60.4389 229.745 59.892 229.919 59.25 229.919ZM59.25 228.982C59.8864 228.982 60.3807 228.675 60.733 228.061C61.0852 227.448 61.2614 226.573 61.2614 225.436C61.2614 224.681 61.1804 224.037 61.0185 223.506C60.8594 222.975 60.6293 222.57 60.3281 222.292C60.0298 222.013 59.6705 221.874 59.25 221.874C58.6193 221.874 58.1264 222.185 57.7713 222.807C57.4162 223.426 57.2386 224.303 57.2386 225.436C57.2386 226.192 57.3182 226.834 57.4773 227.363C57.6364 227.891 57.8651 228.293 58.1634 228.569C58.4645 228.844 58.8267 228.982 59.25 228.982Z" fill="#B8C0CC"/>
<rect x="-0.5" y="0.5" width="240" height="195" transform="matrix(-1 0 0 1 311 31)" stroke="#334E68"/>
<path d="M72.0568 241V232.273H75.108C75.7159 232.273 76.2173 232.378 76.6122 232.588C77.0071 232.795 77.3011 233.075 77.4943 233.428C77.6875 233.777 77.7841 234.165 77.7841 234.591C77.7841 234.966 77.7173 235.276 77.5838 235.52C77.4531 235.764 77.2798 235.957 77.0639 236.099C76.8509 236.241 76.6193 236.347 76.3693 236.415V236.5C76.6364 236.517 76.9048 236.611 77.1747 236.781C77.4446 236.952 77.6705 237.196 77.8523 237.514C78.0341 237.832 78.125 238.222 78.125 238.682C78.125 239.119 78.0256 239.513 77.8267 239.862C77.6278 240.212 77.3139 240.489 76.8849 240.693C76.456 240.898 75.8977 241 75.2102 241H72.0568ZM73.1136 240.062H75.2102C75.9006 240.062 76.3906 239.929 76.6804 239.662C76.973 239.392 77.1193 239.065 77.1193 238.682C77.1193 238.386 77.044 238.114 76.8935 237.864C76.7429 237.611 76.5284 237.409 76.25 237.259C75.9716 237.105 75.642 237.028 75.2614 237.028H73.1136V240.062ZM73.1136 236.108H75.0739C75.392 236.108 75.679 236.045 75.9347 235.92C76.1932 235.795 76.3977 235.619 76.5483 235.392C76.7017 235.165 76.7784 234.898 76.7784 234.591C76.7784 234.207 76.6449 233.882 76.3778 233.615C76.1108 233.345 75.6875 233.21 75.108 233.21H73.1136V236.108ZM82.4695 241.136C81.8388 241.136 81.2947 240.997 80.8374 240.719C80.3828 240.438 80.032 240.045 79.7848 239.543C79.5405 239.037 79.4183 238.449 79.4183 237.778C79.4183 237.108 79.5405 236.517 79.7848 236.006C80.032 235.491 80.3757 235.091 80.8161 234.804C81.2592 234.514 81.7763 234.369 82.3672 234.369C82.7081 234.369 83.0447 234.426 83.3771 234.54C83.7095 234.653 84.0121 234.838 84.2848 235.094C84.5575 235.347 84.7749 235.682 84.9368 236.099C85.0987 236.517 85.1797 237.031 85.1797 237.642V238.068H80.1342V237.199H84.157C84.157 236.83 84.0831 236.5 83.9354 236.21C83.7905 235.92 83.5831 235.692 83.3132 235.524C83.0462 235.357 82.7308 235.273 82.3672 235.273C81.9666 235.273 81.62 235.372 81.3274 235.571C81.0376 235.767 80.8146 236.023 80.6584 236.338C80.5021 236.653 80.424 236.991 80.424 237.352V237.932C80.424 238.426 80.5092 238.845 80.6797 239.189C80.853 239.53 81.093 239.79 81.3999 239.969C81.7067 240.145 82.0632 240.233 82.4695 240.233C82.7337 240.233 82.9723 240.196 83.1854 240.122C83.4013 240.045 83.5874 239.932 83.7436 239.781C83.8999 239.628 84.0206 239.437 84.1058 239.21L85.0774 239.483C84.9751 239.812 84.8033 240.102 84.5618 240.352C84.3203 240.599 84.022 240.793 83.6669 240.932C83.3118 241.068 82.9126 241.136 82.4695 241.136ZM89.6243 234.455V235.307H86.0959V234.455H89.6243ZM87.1527 241V233.551C87.1527 233.176 87.2408 232.864 87.4169 232.614C87.593 232.364 87.8217 232.176 88.103 232.051C88.3842 231.926 88.6811 231.864 88.9936 231.864C89.2408 231.864 89.4425 231.884 89.5987 231.923C89.755 231.963 89.8714 232 89.9482 232.034L89.6584 232.903C89.6072 232.886 89.5362 232.865 89.4453 232.839C89.3572 232.814 89.2408 232.801 89.0959 232.801C88.7635 232.801 88.5234 232.885 88.3757 233.053C88.2308 233.22 88.1584 233.466 88.1584 233.79V241H87.1527ZM93.4233 241.136C92.8324 241.136 92.3139 240.996 91.8679 240.714C91.4247 240.433 91.0781 240.04 90.8281 239.534C90.581 239.028 90.4574 238.437 90.4574 237.761C90.4574 237.08 90.581 236.484 90.8281 235.976C91.0781 235.467 91.4247 235.072 91.8679 234.791C92.3139 234.51 92.8324 234.369 93.4233 234.369C94.0142 234.369 94.5313 234.51 94.9744 234.791C95.4205 235.072 95.767 235.467 96.0142 235.976C96.2642 236.484 96.3892 237.08 96.3892 237.761C96.3892 238.437 96.2642 239.028 96.0142 239.534C95.767 240.04 95.4205 240.433 94.9744 240.714C94.5313 240.996 94.0142 241.136 93.4233 241.136ZM93.4233 240.233C93.8722 240.233 94.2415 240.118 94.5312 239.888C94.821 239.658 95.0355 239.355 95.1747 238.98C95.3139 238.605 95.3835 238.199 95.3835 237.761C95.3835 237.324 95.3139 236.916 95.1747 236.538C95.0355 236.161 94.821 235.855 94.5312 235.622C94.2415 235.389 93.8722 235.273 93.4233 235.273C92.9744 235.273 92.6051 235.389 92.3153 235.622C92.0256 235.855 91.8111 236.161 91.6719 236.538C91.5327 236.916 91.4631 237.324 91.4631 237.761C91.4631 238.199 91.5327 238.605 91.6719 238.98C91.8111 239.355 92.0256 239.658 92.3153 239.888C92.6051 240.118 92.9744 240.233 93.4233 240.233ZM97.9244 241V234.455H98.896V235.443H98.9641C99.0835 235.119 99.2994 234.857 99.6119 234.655C99.9244 234.453 100.277 234.352 100.669 234.352C100.743 234.352 100.835 234.354 100.946 234.357C101.056 234.359 101.14 234.364 101.197 234.369V235.392C101.163 235.384 101.085 235.371 100.963 235.354C100.843 235.334 100.717 235.324 100.583 235.324C100.265 235.324 99.9812 235.391 99.7312 235.524C99.484 235.655 99.288 235.837 99.1431 236.07C99.0011 236.3 98.93 236.562 98.93 236.858V241H97.9244ZM104.934 241.136C104.304 241.136 103.76 240.997 103.302 240.719C102.848 240.438 102.497 240.045 102.25 239.543C102.005 239.037 101.883 238.449 101.883 237.778C101.883 237.108 102.005 236.517 102.25 236.006C102.497 235.491 102.841 235.091 103.281 234.804C103.724 234.514 104.241 234.369 104.832 234.369C105.173 234.369 105.51 234.426 105.842 234.54C106.174 234.653 106.477 234.838 106.75 235.094C107.022 235.347 107.24 235.682 107.402 236.099C107.564 236.517 107.645 237.031 107.645 237.642V238.068H102.599V237.199H106.622C106.622 236.83 106.548 236.5 106.4 236.21C106.255 235.92 106.048 235.692 105.778 235.524C105.511 235.357 105.196 235.273 104.832 235.273C104.431 235.273 104.085 235.372 103.792 235.571C103.502 235.767 103.279 236.023 103.123 236.338C102.967 236.653 102.889 236.991 102.889 237.352V237.932C102.889 238.426 102.974 238.845 103.145 239.189C103.318 239.53 103.558 239.79 103.865 239.969C104.172 240.145 104.528 240.233 104.934 240.233C105.199 240.233 105.437 240.196 105.65 240.122C105.866 240.045 106.052 239.932 106.208 239.781C106.365 239.628 106.485 239.437 106.571 239.21L107.542 239.483C107.44 239.812 107.268 240.102 107.027 240.352C106.785 240.599 106.487 240.793 106.132 240.932C105.777 241.068 105.377 241.136 104.934 241.136Z" fill="#B8C0CC"/>
<line x1="191" y1="226" x2="191" y2="30" stroke="#334E68"/>
<path d="M285.243 241H284.135L287.339 232.273H288.43L291.635 241H290.527L287.919 233.653H287.851L285.243 241ZM285.652 237.591H290.118V238.528H285.652V237.591ZM295.773 234.455V235.307H292.244V234.455H295.773ZM293.301 241V233.551C293.301 233.176 293.389 232.864 293.565 232.614C293.741 232.364 293.97 232.176 294.251 232.051C294.533 231.926 294.83 231.864 295.142 231.864C295.389 231.864 295.591 231.884 295.747 231.923C295.903 231.963 296.02 232 296.097 232.034L295.807 232.903C295.756 232.886 295.685 232.865 295.594 232.839C295.506 232.814 295.389 232.801 295.244 232.801C294.912 232.801 294.672 232.885 294.524 233.053C294.379 233.22 294.307 233.466 294.307 233.79V241H293.301ZM300.029 234.455V235.307H296.637V234.455H300.029ZM297.625 232.886H298.631V239.125C298.631 239.409 298.672 239.622 298.755 239.764C298.84 239.903 298.948 239.997 299.078 240.045C299.212 240.091 299.353 240.114 299.5 240.114C299.611 240.114 299.702 240.108 299.773 240.097C299.844 240.082 299.901 240.071 299.944 240.062L300.148 240.966C300.08 240.991 299.985 241.017 299.863 241.043C299.74 241.071 299.586 241.085 299.398 241.085C299.114 241.085 298.836 241.024 298.563 240.902C298.293 240.78 298.069 240.594 297.89 240.344C297.713 240.094 297.625 239.778 297.625 239.398V232.886ZM304.216 241.136C303.585 241.136 303.041 240.997 302.583 240.719C302.129 240.438 301.778 240.045 301.531 239.543C301.287 239.037 301.164 238.449 301.164 237.778C301.164 237.108 301.287 236.517 301.531 236.006C301.778 235.491 302.122 235.091 302.562 234.804C303.005 234.514 303.522 234.369 304.113 234.369C304.454 234.369 304.791 234.426 305.123 234.54C305.456 234.653 305.758 234.838 306.031 235.094C306.304 235.347 306.521 235.682 306.683 236.099C306.845 236.517 306.926 237.031 306.926 237.642V238.068H301.88V237.199H305.903C305.903 236.83 305.829 236.5 305.681 236.21C305.537 235.92 305.329 235.692 305.059 235.524C304.792 235.357 304.477 235.273 304.113 235.273C303.713 235.273 303.366 235.372 303.074 235.571C302.784 235.767 302.561 236.023 302.404 236.338C302.248 236.653 302.17 236.991 302.17 237.352V237.932C302.17 238.426 302.255 238.845 302.426 239.189C302.599 239.53 302.839 239.79 303.146 239.969C303.453 240.145 303.809 240.233 304.216 240.233C304.48 240.233 304.718 240.196 304.931 240.122C305.147 240.045 305.333 239.932 305.49 239.781C305.646 239.628 305.767 239.437 305.852 239.21L306.824 239.483C306.721 239.812 306.549 240.102 306.308 240.352C306.066 240.599 305.768 240.793 305.413 240.932C305.058 241.068 304.659 241.136 304.216 241.136ZM308.456 241V234.455H309.427V235.443H309.495C309.615 235.119 309.831 234.857 310.143 234.655C310.456 234.453 310.808 234.352 311.2 234.352C311.274 234.352 311.366 234.354 311.477 234.357C311.588 234.359 311.672 234.364 311.728 234.369V235.392C311.694 235.384 311.616 235.371 311.494 235.354C311.375 235.334 311.248 235.324 311.115 235.324C310.797 235.324 310.512 235.391 310.262 235.524C310.015 235.655 309.819 235.837 309.674 236.07C309.532 236.3 309.461 236.562 309.461 236.858V241H308.456Z" fill="#B8C0CC"/>
<path d="M189.955 128.361C242.996 161.793 265.474 217.475 312 225.378V228H71V32L78.6266 36.5886C127.55 55.6644 157.513 92.9632 189.955 128.361Z" fill="url(#paint0_linear_872_24499)"/>
<path d="M311.5 226.689C272.521 222.242 216.082 134.655 190.478 129.017C146.704 78.3103 120.365 56.3367 71 32" stroke="#00C7F2"/>
<path d="M10.402 190.448L19 190.448L19 191.612L15.088 191.612L15.088 196.25L19 196.25L19 197.414L10.402 197.414L10.402 196.25L14.236 196.25L14.236 191.612L10.402 191.612L10.402 190.448ZM12.826 185.627C12.826 185.183 12.9 184.783 13.048 184.427C13.196 184.071 13.406 183.767 13.678 183.515C13.95 183.263 14.28 183.071 14.668 182.939C15.052 182.803 15.482 182.735 15.958 182.735C16.438 182.735 16.87 182.803 17.254 182.939C17.638 183.071 17.966 183.263 18.238 183.515C18.51 183.767 18.72 184.071 18.868 184.427C19.012 184.783 19.084 185.183 19.084 185.627C19.084 186.075 19.012 186.479 18.868 186.839C18.72 187.195 18.51 187.499 18.238 187.751C17.966 188.003 17.638 188.197 17.254 188.333C16.87 188.465 16.438 188.531 15.958 188.531C15.482 188.531 15.052 188.465 14.668 188.333C14.28 188.197 13.95 188.003 13.678 187.751C13.406 187.499 13.196 187.195 13.048 186.839C12.9 186.479 12.826 186.075 12.826 185.627ZM18.25 185.627C18.25 185.027 18.05 184.579 17.65 184.283C17.246 183.987 16.684 183.839 15.964 183.839C15.24 183.839 14.676 183.987 14.272 184.283C13.868 184.579 13.666 185.027 13.666 185.627C13.666 185.931 13.718 186.197 13.822 186.425C13.926 186.649 14.076 186.837 14.272 186.989C14.468 187.137 14.71 187.249 14.998 187.325C15.282 187.397 15.604 187.433 15.964 187.433C16.684 187.433 17.246 187.285 17.65 186.989C18.05 186.689 18.25 186.235 18.25 185.627ZM12.922 175.883L19 175.883L19 176.519C19 176.671 18.926 176.767 18.778 176.807L18.124 176.891C18.416 177.155 18.652 177.451 18.832 177.779C19.008 178.107 19.096 178.483 19.096 178.907C19.096 179.239 19.042 179.533 18.934 179.789C18.822 180.041 18.666 180.253 18.466 180.425C18.266 180.597 18.024 180.727 17.74 180.815C17.456 180.899 17.142 180.941 16.798 180.941L12.922 180.941L12.922 179.873L16.798 179.873C17.258 179.873 17.614 179.769 17.866 179.561C18.118 179.349 18.244 179.027 18.244 178.595C18.244 178.279 18.17 177.985 18.022 177.713C17.87 177.437 17.662 177.183 17.398 176.951L12.922 176.951L12.922 175.883ZM14.14 172.675C13.724 172.483 13.4 172.247 13.168 171.967C12.932 171.687 12.814 171.345 12.814 170.941C12.814 170.813 12.828 170.691 12.856 170.575C12.884 170.455 12.928 170.349 12.988 170.257L13.786 170.335C13.886 170.359 13.936 170.419 13.936 170.515C13.936 170.571 13.924 170.653 13.9 170.761C13.876 170.869 13.864 170.991 13.864 171.127C13.864 171.319 13.892 171.491 13.948 171.643C14.004 171.791 14.088 171.925 14.2 172.045C14.308 172.161 14.444 172.267 14.608 172.363C14.768 172.455 14.952 172.539 15.16 172.615L19 172.615L19 173.689L12.922 173.689L12.922 173.077C12.922 172.961 12.944 172.881 12.988 172.837C13.032 172.793 13.108 172.763 13.216 172.747L14.14 172.675ZM13.924 165.313C14.012 165.361 14.056 165.435 14.056 165.535C14.056 165.595 14.034 165.663 13.99 165.739C13.946 165.815 13.898 165.909 13.846 166.021C13.79 166.129 13.74 166.259 13.696 166.411C13.648 166.563 13.624 166.743 13.624 166.951C13.624 167.131 13.648 167.293 13.696 167.437C13.74 167.581 13.802 167.705 13.882 167.809C13.962 167.909 14.056 167.987 14.164 168.043C14.268 168.095 14.382 168.121 14.506 168.121C14.662 168.121 14.792 168.077 14.896 167.989C15 167.897 15.09 167.777 15.166 167.629C15.242 167.481 15.31 167.313 15.37 167.125C15.426 166.937 15.488 166.745 15.556 166.549C15.62 166.349 15.692 166.155 15.772 165.967C15.852 165.779 15.952 165.611 16.072 165.463C16.192 165.315 16.34 165.197 16.516 165.109C16.688 165.017 16.896 164.971 17.14 164.971C17.42 164.971 17.68 165.021 17.92 165.121C18.156 165.221 18.362 165.369 18.538 165.565C18.71 165.761 18.846 166.001 18.946 166.285C19.046 166.569 19.096 166.897 19.096 167.269C19.096 167.693 19.028 168.077 18.892 168.421C18.752 168.765 18.574 169.057 18.358 169.297L17.95 169.045C17.898 169.013 17.858 168.975 17.83 168.931C17.802 168.887 17.788 168.831 17.788 168.763C17.788 168.691 17.816 168.615 17.872 168.535C17.928 168.455 17.99 168.359 18.058 168.247C18.126 168.131 18.188 167.991 18.244 167.827C18.3 167.663 18.328 167.459 18.328 167.215C18.328 167.007 18.302 166.825 18.25 166.669C18.194 166.513 18.12 166.383 18.028 166.279C17.936 166.175 17.83 166.099 17.71 166.051C17.59 165.999 17.462 165.973 17.326 165.973C17.158 165.973 17.02 166.019 16.912 166.111C16.8 166.199 16.706 166.317 16.63 166.465C16.55 166.613 16.482 166.783 16.426 166.975C16.366 167.163 16.304 167.357 16.24 167.557C16.176 167.753 16.104 167.947 16.024 168.139C15.94 168.327 15.836 168.495 15.712 168.643C15.588 168.791 15.436 168.911 15.256 169.003C15.072 169.091 14.85 169.135 14.59 169.135C14.358 169.135 14.136 169.087 13.924 168.991C13.708 168.895 13.52 168.755 13.36 168.571C13.196 168.387 13.066 168.161 12.97 167.893C12.874 167.625 12.826 167.319 12.826 166.975C12.826 166.575 12.89 166.217 13.018 165.901C13.142 165.581 13.314 165.305 13.534 165.073L13.924 165.313ZM19.126 162.574C19.266 162.626 19.37 162.708 19.438 162.82C19.506 162.928 19.54 163.04 19.54 163.156L19.54 163.606L10.558 160C10.43 159.952 10.332 159.88 10.264 159.784C10.196 159.684 10.162 159.57 10.162 159.442L10.162 158.986L19.126 162.574ZM10.402 145.842L19 148.524L19 149.568L12.442 151.746C12.378 151.766 12.31 151.786 12.238 151.806C12.166 151.822 12.09 151.84 12.01 151.86C12.09 151.88 12.166 151.9 12.238 151.92C12.31 151.94 12.378 151.96 12.442 151.98L19 154.17L19 155.214L10.402 157.896L10.402 156.93C10.402 156.826 10.428 156.74 10.48 156.672C10.532 156.6 10.598 156.554 10.678 156.534L16.654 154.758C16.762 154.73 16.878 154.704 17.002 154.68C17.126 154.652 17.258 154.626 17.398 154.602C17.258 154.574 17.126 154.546 17.002 154.518C16.874 154.486 16.758 154.452 16.654 154.416L10.678 152.394C10.61 152.37 10.548 152.324 10.492 152.256C10.432 152.184 10.402 152.098 10.402 151.998L10.402 151.662C10.402 151.558 10.428 151.474 10.48 151.41C10.532 151.346 10.598 151.298 10.678 151.266L16.654 149.25C16.758 149.214 16.87 149.182 16.99 149.154C17.11 149.122 17.236 149.092 17.368 149.064C17.236 149.044 17.11 149.022 16.99 148.998C16.87 148.974 16.758 148.948 16.654 148.92L10.678 147.138C10.606 147.118 10.542 147.074 10.486 147.006C10.43 146.934 10.402 146.848 10.402 146.748L10.402 145.842ZM15.298 140.926C15.05 140.926 14.824 140.962 14.62 141.034C14.412 141.102 14.234 141.204 14.086 141.34C13.934 141.472 13.818 141.634 13.738 141.826C13.654 142.018 13.612 142.236 13.612 142.48C13.612 142.992 13.762 143.398 14.062 143.698C14.358 143.994 14.77 144.178 15.298 144.25L15.298 140.926ZM18.148 140.062C18.308 140.194 18.448 140.352 18.568 140.536C18.684 140.72 18.78 140.918 18.856 141.13C18.932 141.338 18.988 141.554 19.024 141.778C19.064 142.002 19.084 142.224 19.084 142.444C19.084 142.864 19.014 143.252 18.874 143.608C18.73 143.96 18.522 144.266 18.25 144.526C17.974 144.782 17.634 144.982 17.23 145.126C16.826 145.27 16.362 145.342 15.838 145.342C15.414 145.342 15.018 145.278 14.65 145.15C14.282 145.018 13.964 144.83 13.696 144.586C13.424 144.342 13.212 144.044 13.06 143.692C12.904 143.34 12.826 142.944 12.826 142.504C12.826 142.14 12.888 141.804 13.012 141.496C13.132 141.184 13.308 140.916 13.54 140.692C13.768 140.464 14.052 140.286 14.392 140.158C14.728 140.03 15.112 139.966 15.544 139.966C15.712 139.966 15.824 139.984 15.88 140.02C15.936 140.056 15.964 140.124 15.964 140.224L15.964 144.286C16.348 144.274 16.682 144.222 16.966 144.13C17.25 144.034 17.488 143.902 17.68 143.734C17.868 143.566 18.01 143.366 18.106 143.134C18.198 142.902 18.244 142.642 18.244 142.354C18.244 142.086 18.214 141.856 18.154 141.664C18.09 141.468 18.022 141.3 17.95 141.16C17.878 141.02 17.812 140.904 17.752 140.812C17.688 140.716 17.656 140.634 17.656 140.566C17.656 140.478 17.69 140.41 17.758 140.362L18.148 140.062ZM15.298 134.086C15.05 134.086 14.824 134.122 14.62 134.194C14.412 134.262 14.234 134.364 14.086 134.5C13.934 134.632 13.818 134.794 13.738 134.986C13.654 135.178 13.612 135.396 13.612 135.64C13.612 136.152 13.762 136.558 14.062 136.858C14.358 137.154 14.77 137.338 15.298 137.41L15.298 134.086ZM18.148 133.222C18.308 133.354 18.448 133.512 18.568 133.696C18.684 133.88 18.78 134.078 18.856 134.29C18.932 134.498 18.988 134.714 19.024 134.938C19.064 135.162 19.084 135.384 19.084 135.604C19.084 136.024 19.014 136.412 18.874 136.768C18.73 137.12 18.522 137.426 18.25 137.686C17.974 137.942 17.634 138.142 17.23 138.286C16.826 138.43 16.362 138.502 15.838 138.502C15.414 138.502 15.018 138.438 14.65 138.31C14.282 138.178 13.964 137.99 13.696 137.746C13.424 137.502 13.212 137.204 13.06 136.852C12.904 136.5 12.826 136.104 12.826 135.664C12.826 135.3 12.888 134.964 13.012 134.656C13.132 134.344 13.308 134.076 13.54 133.852C13.768 133.624 14.052 133.446 14.392 133.318C14.728 133.19 15.112 133.126 15.544 133.126C15.712 133.126 15.824 133.144 15.88 133.18C15.936 133.216 15.964 133.284 15.964 133.384L15.964 137.446C16.348 137.434 16.682 137.382 16.966 137.29C17.25 137.194 17.488 137.062 17.68 136.894C17.868 136.726 18.01 136.526 18.106 136.294C18.198 136.062 18.244 135.802 18.244 135.514C18.244 135.246 18.214 135.016 18.154 134.824C18.09 134.628 18.022 134.46 17.95 134.32C17.878 134.18 17.812 134.064 17.752 133.972C17.688 133.876 17.656 133.794 17.656 133.726C17.656 133.638 17.69 133.57 17.758 133.522L18.148 133.222ZM10.162 130.24L15.364 130.24L15.364 129.964C15.364 129.884 15.354 129.818 15.334 129.766C15.31 129.71 15.264 129.652 15.196 129.592L13.138 127.672C13.07 127.616 13.018 127.558 12.982 127.498C12.942 127.434 12.922 127.35 12.922 127.246L12.922 126.28L15.304 128.518C15.44 128.626 15.546 128.742 15.622 128.866C15.67 128.794 15.726 128.73 15.79 128.674C15.85 128.614 15.92 128.558 16 128.506L19 126.13L19 127.084C19 127.176 18.986 127.256 18.958 127.324C18.926 127.388 18.87 127.444 18.79 127.492L16.3 129.49C16.216 129.55 16.162 129.61 16.138 129.67C16.11 129.726 16.096 129.814 16.096 129.934L16.096 130.24L19 130.24L19 131.314L10.162 131.314L10.162 130.24ZM12.826 118.588C12.826 118.144 12.9 117.744 13.048 117.388C13.196 117.032 13.406 116.728 13.678 116.476C13.95 116.224 14.28 116.032 14.668 115.9C15.052 115.764 15.482 115.696 15.958 115.696C16.438 115.696 16.87 115.764 17.254 115.9C17.638 116.032 17.966 116.224 18.238 116.476C18.51 116.728 18.72 117.032 18.868 117.388C19.012 117.744 19.084 118.144 19.084 118.588C19.084 119.036 19.012 119.44 18.868 119.8C18.72 120.156 18.51 120.46 18.238 120.712C17.966 120.964 17.638 121.158 17.254 121.294C16.87 121.426 16.438 121.492 15.958 121.492C15.482 121.492 15.052 121.426 14.668 121.294C14.28 121.158 13.95 120.964 13.678 120.712C13.406 120.46 13.196 120.156 13.048 119.8C12.9 119.44 12.826 119.036 12.826 118.588ZM18.25 118.588C18.25 117.988 18.05 117.54 17.65 117.244C17.246 116.948 16.684 116.8 15.964 116.8C15.24 116.8 14.676 116.948 14.272 117.244C13.868 117.54 13.666 117.988 13.666 118.588C13.666 118.892 13.718 119.158 13.822 119.386C13.926 119.61 14.076 119.798 14.272 119.95C14.468 120.098 14.71 120.21 14.998 120.286C15.282 120.358 15.604 120.394 15.964 120.394C16.684 120.394 17.246 120.246 17.65 119.95C18.05 119.65 18.25 119.196 18.25 118.588ZM13.804 112.833C13.656 112.701 13.522 112.561 13.402 112.413C13.282 112.265 13.18 112.109 13.096 111.945C13.008 111.777 12.942 111.601 12.898 111.417C12.85 111.229 12.826 111.027 12.826 110.811C12.826 110.479 12.882 110.187 12.994 109.935C13.102 109.679 13.258 109.467 13.462 109.299C13.662 109.127 13.904 108.997 14.188 108.909C14.472 108.821 14.786 108.777 15.13 108.777L19 108.777L19 109.851L15.13 109.851C14.67 109.851 14.314 109.957 14.062 110.169C13.806 110.377 13.678 110.695 13.678 111.123C13.678 111.439 13.754 111.735 13.906 112.011C14.058 112.283 14.264 112.535 14.524 112.767L19 112.767L19 113.841L12.922 113.841L12.922 113.199C12.922 113.047 12.996 112.953 13.144 112.917L13.804 112.833ZM11.35 101.664L14.356 101.664L14.356 98.1298L15.304 98.1298L15.304 101.664L19 101.664L19 102.828L10.402 102.828L10.402 97.5298L11.35 97.5298L11.35 101.664ZM12.826 93.76C12.826 93.316 12.9 92.916 13.048 92.56C13.196 92.204 13.406 91.9 13.678 91.648C13.95 91.396 14.28 91.204 14.668 91.072C15.052 90.936 15.482 90.868 15.958 90.868C16.438 90.868 16.87 90.936 17.254 91.072C17.638 91.204 17.966 91.396 18.238 91.648C18.51 91.9 18.72 92.204 18.868 92.56C19.012 92.916 19.084 93.316 19.084 93.76C19.084 94.208 19.012 94.612 18.868 94.972C18.72 95.328 18.51 95.632 18.238 95.884C17.966 96.136 17.638 96.33 17.254 96.466C16.87 96.598 16.438 96.664 15.958 96.664C15.482 96.664 15.052 96.598 14.668 96.466C14.28 96.33 13.95 96.136 13.678 95.884C13.406 95.632 13.196 95.328 13.048 94.972C12.9 94.612 12.826 94.208 12.826 93.76ZM18.25 93.76C18.25 93.16 18.05 92.712 17.65 92.416C17.246 92.12 16.684 91.972 15.964 91.972C15.24 91.972 14.676 92.12 14.272 92.416C13.868 92.712 13.666 93.16 13.666 93.76C13.666 94.064 13.718 94.33 13.822 94.558C13.926 94.782 14.076 94.97 14.272 95.122C14.468 95.27 14.71 95.382 14.998 95.458C15.282 95.53 15.604 95.566 15.964 95.566C16.684 95.566 17.246 95.418 17.65 95.122C18.05 94.822 18.25 94.368 18.25 93.76ZM10.162 87.9094L19 87.9094L19 88.9774L10.162 88.9774L10.162 87.9094ZM10.162 84.5734L19 84.5734L19 85.6414L10.162 85.6414L10.162 84.5734ZM12.826 79.7795C12.826 79.3355 12.9 78.9355 13.048 78.5795C13.196 78.2235 13.406 77.9195 13.678 77.6675C13.95 77.4155 14.28 77.2235 14.668 77.0915C15.052 76.9555 15.482 76.8875 15.958 76.8875C16.438 76.8875 16.87 76.9555 17.254 77.0915C17.638 77.2235 17.966 77.4155 18.238 77.6675C18.51 77.9195 18.72 78.2235 18.868 78.5795C19.012 78.9355 19.084 79.3355 19.084 79.7795C19.084 80.2275 19.012 80.6315 18.868 80.9915C18.72 81.3475 18.51 81.6515 18.238 81.9035C17.966 82.1555 17.638 82.3495 17.254 82.4855C16.87 82.6175 16.438 82.6835 15.958 82.6835C15.482 82.6835 15.052 82.6175 14.668 82.4855C14.28 82.3495 13.95 82.1555 13.678 81.9035C13.406 81.6515 13.196 81.3475 13.048 80.9915C12.9 80.6315 12.826 80.2275 12.826 79.7795ZM18.25 79.7795C18.25 79.1795 18.05 78.7315 17.65 78.4355C17.246 78.1395 16.684 77.9915 15.964 77.9915C15.24 77.9915 14.676 78.1395 14.272 78.4355C13.868 78.7315 13.666 79.1795 13.666 79.7795C13.666 80.0835 13.718 80.3495 13.822 80.5775C13.926 80.8015 14.076 80.9895 14.272 81.1415C14.468 81.2895 14.71 81.4015 14.998 81.4775C15.282 81.5495 15.604 81.5855 15.964 81.5855C16.684 81.5855 17.246 81.4375 17.65 81.1415C18.05 80.8415 18.25 80.3875 18.25 79.7795ZM12.922 66.7447L19 68.7127L19 69.5587C19 69.6627 18.932 69.7347 18.796 69.7747L14.674 71.1187C14.582 71.1507 14.49 71.1767 14.398 71.1967C14.302 71.2167 14.208 71.2367 14.116 71.2567C14.208 71.2767 14.302 71.2967 14.398 71.3167C14.49 71.3367 14.584 71.3627 14.68 71.3947L18.796 72.7627C18.932 72.7987 19 72.8787 19 73.0027L19 73.8067L12.922 75.7747L12.922 74.9347C12.922 74.8507 12.944 74.7807 12.988 74.7247C13.032 74.6647 13.084 74.6247 13.144 74.6047L17.056 73.4407C17.344 73.3727 17.616 73.3187 17.872 73.2787C17.74 73.2427 17.606 73.2067 17.47 73.1707C17.334 73.1307 17.196 73.0887 17.056 73.0447L13.12 71.7607C13.06 71.7407 13.01 71.7067 12.97 71.6587C12.93 71.6067 12.91 71.5447 12.91 71.4727L12.91 71.0047C12.91 70.9247 12.93 70.8587 12.97 70.8067C13.01 70.7547 13.06 70.7187 13.12 70.6987L17.056 69.4447C17.196 69.4007 17.334 69.3607 17.47 69.3247C17.606 69.2887 17.74 69.2547 17.872 69.2227C17.74 69.2027 17.608 69.1787 17.476 69.1507C17.34 69.1187 17.2 69.0847 17.056 69.0487L13.144 67.8607C13.08 67.8407 13.028 67.8027 12.988 67.7467C12.944 67.6907 12.922 67.6247 12.922 67.5487L12.922 66.7447ZM14.95 65.3008L14.95 62.3368L15.856 62.3368L15.856 65.3008L14.95 65.3008ZM12.922 55.2537L19 55.2537L19 55.8897C19 56.0417 18.926 56.1377 18.778 56.1777L18.124 56.2617C18.416 56.5257 18.652 56.8217 18.832 57.1497C19.008 57.4777 19.096 57.8537 19.096 58.2777C19.096 58.6097 19.042 58.9037 18.934 59.1597C18.822 59.4117 18.666 59.6237 18.466 59.7957C18.266 59.9677 18.024 60.0977 17.74 60.1857C17.456 60.2697 17.142 60.3117 16.798 60.3117L12.922 60.3117L12.922 59.2437L16.798 59.2437C17.258 59.2437 17.614 59.1397 17.866 58.9317C18.118 58.7197 18.244 58.3977 18.244 57.9657C18.244 57.6497 18.17 57.3557 18.022 57.0837C17.87 56.8077 17.662 56.5537 17.398 56.3217L12.922 56.3217L12.922 55.2537ZM17.536 51.9862C17.8 51.7902 17.986 51.5762 18.094 51.3442C18.202 51.1122 18.256 50.8522 18.256 50.5642C18.256 49.9962 18.054 49.5602 17.65 49.2562C17.246 48.9522 16.67 48.8002 15.922 48.8002C15.526 48.8002 15.186 48.8362 14.902 48.9082C14.618 48.9762 14.386 49.0762 14.206 49.2082C14.022 49.3402 13.888 49.5022 13.804 49.6942C13.72 49.8862 13.678 50.1042 13.678 50.3482C13.678 50.6962 13.758 51.0022 13.918 51.2662C14.078 51.5262 14.304 51.7662 14.596 51.9862L17.536 51.9862ZM13.864 52.0402C13.548 51.7842 13.294 51.4882 13.102 51.1522C12.91 50.8162 12.814 50.4322 12.814 50.0002C12.814 49.6482 12.882 49.3302 13.018 49.0462C13.15 48.7622 13.348 48.5202 13.612 48.3202C13.872 48.1202 14.196 47.9662 14.584 47.8582C14.972 47.7502 15.418 47.6962 15.922 47.6962C16.37 47.6962 16.788 47.7562 17.176 47.8762C17.56 47.9962 17.894 48.1702 18.178 48.3982C18.458 48.6222 18.68 48.8982 18.844 49.2262C19.004 49.5502 19.084 49.9162 19.084 50.3242C19.084 50.6962 19.022 51.0162 18.898 51.2842C18.77 51.5482 18.594 51.7822 18.37 51.9862L21.058 51.9862L21.058 53.0602L12.922 53.0602L12.922 52.4182C12.922 52.2662 12.996 52.1722 13.144 52.1362L13.864 52.0402ZM13.924 42.2937C14.012 42.3417 14.056 42.4157 14.056 42.5157C14.056 42.5757 14.034 42.6437 13.99 42.7197C13.946 42.7957 13.898 42.8897 13.846 43.0017C13.79 43.1097 13.74 43.2397 13.696 43.3917C13.648 43.5437 13.624 43.7237 13.624 43.9317C13.624 44.1117 13.648 44.2737 13.696 44.4177C13.74 44.5617 13.802 44.6857 13.882 44.7897C13.962 44.8897 14.056 44.9677 14.164 45.0237C14.268 45.0757 14.382 45.1017 14.506 45.1017C14.662 45.1017 14.792 45.0577 14.896 44.9697C15 44.8777 15.09 44.7577 15.166 44.6097C15.242 44.4617 15.31 44.2937 15.37 44.1057C15.426 43.9177 15.488 43.7257 15.556 43.5297C15.62 43.3297 15.692 43.1357 15.772 42.9477C15.852 42.7597 15.952 42.5917 16.072 42.4437C16.192 42.2957 16.34 42.1777 16.516 42.0897C16.688 41.9977 16.896 41.9517 17.14 41.9517C17.42 41.9517 17.68 42.0017 17.92 42.1017C18.156 42.2017 18.362 42.3497 18.538 42.5457C18.71 42.7417 18.846 42.9817 18.946 43.2657C19.046 43.5497 19.096 43.8777 19.096 44.2497C19.096 44.6737 19.028 45.0577 18.892 45.4017C18.752 45.7457 18.574 46.0377 18.358 46.2777L17.95 46.0257C17.898 45.9937 17.858 45.9557 17.83 45.9117C17.802 45.8677 17.788 45.8117 17.788 45.7437C17.788 45.6717 17.816 45.5957 17.872 45.5157C17.928 45.4357 17.99 45.3397 18.058 45.2277C18.126 45.1117 18.188 44.9717 18.244 44.8077C18.3 44.6437 18.328 44.4397 18.328 44.1957C18.328 43.9877 18.302 43.8057 18.25 43.6497C18.194 43.4937 18.12 43.3637 18.028 43.2597C17.936 43.1557 17.83 43.0797 17.71 43.0317C17.59 42.9797 17.462 42.9537 17.326 42.9537C17.158 42.9537 17.02 42.9997 16.912 43.0917C16.8 43.1797 16.706 43.2977 16.63 43.4457C16.55 43.5937 16.482 43.7637 16.426 43.9557C16.366 44.1437 16.304 44.3377 16.24 44.5377C16.176 44.7337 16.104 44.9277 16.024 45.1197C15.94 45.3077 15.836 45.4757 15.712 45.6237C15.588 45.7717 15.436 45.8917 15.256 45.9837C15.072 46.0717 14.85 46.1157 14.59 46.1157C14.358 46.1157 14.136 46.0677 13.924 45.9717C13.708 45.8757 13.52 45.7357 13.36 45.5517C13.196 45.3677 13.066 45.1417 12.97 44.8737C12.874 44.6057 12.826 44.2997 12.826 43.9557C12.826 43.5557 12.89 43.1977 13.018 42.8817C13.142 42.5617 13.314 42.2857 13.534 42.0537L13.924 42.2937Z" fill="white"/>
<defs>
<linearGradient id="paint0_linear_872_24499" x1="191.5" y1="-7.98661" x2="191.5" y2="228" gradientUnits="userSpaceOnUse">
<stop stop-color="#03BAE2"/>
<stop offset="1" stop-color="#03BAE2" stop-opacity="0"/>
</linearGradient>
</defs>
</svg>
