<svg width="371" height="283" viewBox="0 0 371 283" fill="none" xmlns="http://www.w3.org/2000/svg">
<path d="M25.3778 27.7395V36.4668H24.321V28.8475H24.2699L22.1392 30.2623V29.1884L24.321 27.7395H25.3778ZM27.8878 36.4668V35.6998L30.7685 32.5463C31.1065 32.177 31.3849 31.856 31.6037 31.5833C31.8224 31.3077 31.9844 31.0492 32.0895 30.8077C32.1974 30.5634 32.2514 30.3077 32.2514 30.0407C32.2514 29.7338 32.1776 29.4682 32.0298 29.2438C31.8849 29.0194 31.6861 28.8461 31.4332 28.7239C31.1804 28.6017 30.8963 28.5407 30.581 28.5407C30.2457 28.5407 29.9531 28.6103 29.7031 28.7495C29.456 28.8858 29.2642 29.0776 29.1278 29.3248C28.9943 29.5719 28.9276 29.8617 28.9276 30.1941H27.9219C27.9219 29.6827 28.0398 29.2338 28.2756 28.8475C28.5114 28.4611 28.8324 28.16 29.2386 27.9441C29.6477 27.7282 30.1065 27.6202 30.6151 27.6202C31.1264 27.6202 31.5795 27.7282 31.9744 27.9441C32.3693 28.16 32.679 28.4512 32.9034 28.8176C33.1278 29.1841 33.2401 29.5918 33.2401 30.0407C33.2401 30.3617 33.1818 30.6756 33.0653 30.9824C32.9517 31.2864 32.7528 31.6259 32.4688 32.0009C32.1875 32.373 31.7969 32.8276 31.2969 33.3645L29.3366 35.4611V35.5293H33.3935V36.4668H27.8878ZM39.6023 34.8304V34.3702C39.6023 34.052 39.6676 33.7608 39.7983 33.4966C39.9318 33.2296 40.125 33.0165 40.3778 32.8574C40.6335 32.6955 40.9432 32.6145 41.3068 32.6145C41.6761 32.6145 41.9858 32.6955 42.2358 32.8574C42.4858 33.0165 42.6747 33.2296 42.8026 33.4966C42.9304 33.7608 42.9943 34.052 42.9943 34.3702V34.8304C42.9943 35.1486 42.929 35.4412 42.7983 35.7083C42.6705 35.9725 42.4801 36.1855 42.2273 36.3475C41.9773 36.5066 41.6705 36.5861 41.3068 36.5861C40.9375 36.5861 40.6264 36.5066 40.3736 36.3475C40.1207 36.1855 39.929 35.9725 39.7983 35.7083C39.6676 35.4412 39.6023 35.1486 39.6023 34.8304ZM40.4716 34.3702V34.8304C40.4716 35.0946 40.5341 35.3319 40.6591 35.5421C40.7841 35.7495 41 35.8532 41.3068 35.8532C41.6051 35.8532 41.8153 35.7495 41.9375 35.5421C42.0625 35.3319 42.125 35.0946 42.125 34.8304V34.3702C42.125 34.106 42.0653 33.8702 41.946 33.6628C41.8267 33.4526 41.6136 33.3475 41.3068 33.3475C41.0085 33.3475 40.794 33.4526 40.6634 33.6628C40.5355 33.8702 40.4716 34.106 40.4716 34.3702ZM35.2557 29.8361V29.3759C35.2557 29.0577 35.321 28.7665 35.4517 28.5023C35.5852 28.2353 35.7784 28.0222 36.0312 27.8631C36.2869 27.7012 36.5966 27.6202 36.9602 27.6202C37.3295 27.6202 37.6392 27.7012 37.8892 27.8631C38.1392 28.0222 38.3281 28.2353 38.456 28.5023C38.5838 28.7665 38.6477 29.0577 38.6477 29.3759V29.8361C38.6477 30.1543 38.5824 30.4469 38.4517 30.714C38.3239 30.9782 38.1335 31.1912 37.8807 31.3532C37.6307 31.5123 37.3239 31.5918 36.9602 31.5918C36.5909 31.5918 36.2798 31.5123 36.027 31.3532C35.7741 31.1912 35.5824 30.9782 35.4517 30.714C35.321 30.4469 35.2557 30.1543 35.2557 29.8361ZM36.125 29.3759V29.8361C36.125 30.1003 36.1875 30.3375 36.3125 30.5478C36.4375 30.7551 36.6534 30.8588 36.9602 30.8588C37.2585 30.8588 37.4688 30.7551 37.5909 30.5478C37.7159 30.3375 37.7784 30.1003 37.7784 29.8361V29.3759C37.7784 29.1117 37.7188 28.8759 37.5994 28.6685C37.4801 28.4583 37.267 28.3532 36.9602 28.3532C36.6619 28.3532 36.4474 28.4583 36.3168 28.6685C36.1889 28.8759 36.125 29.1117 36.125 29.3759ZM35.5795 36.4668L41.5795 27.7395H42.5511L36.5511 36.4668H35.5795Z" fill="#B8C0CC"/>
<path d="M25.1435 59.6726V68.3999H24.0866V60.7806H24.0355L21.9048 62.1954V61.1215L24.0866 59.6726H25.1435ZM30.5 68.5192C29.858 68.5192 29.3111 68.3445 28.8594 67.9951C28.4077 67.6428 28.0625 67.1329 27.8239 66.4652C27.5852 65.7948 27.4659 64.9851 27.4659 64.0363C27.4659 63.0931 27.5852 62.2877 27.8239 61.6201C28.0653 60.9496 28.4119 60.4383 28.8636 60.086C29.3182 59.7309 29.8636 59.5533 30.5 59.5533C31.1364 59.5533 31.6804 59.7309 32.1321 60.086C32.5866 60.4383 32.9332 60.9496 33.1719 61.6201C33.4134 62.2877 33.5341 63.0931 33.5341 64.0363C33.5341 64.9851 33.4148 65.7948 33.1761 66.4652C32.9375 67.1329 32.5923 67.6428 32.1406 67.9951C31.6889 68.3445 31.142 68.5192 30.5 68.5192ZM30.5 67.5817C31.1364 67.5817 31.6307 67.2749 31.983 66.6613C32.3352 66.0476 32.5114 65.1726 32.5114 64.0363C32.5114 63.2806 32.4304 62.6371 32.2685 62.1059C32.1094 61.5746 31.8793 61.1698 31.5781 60.8914C31.2798 60.613 30.9205 60.4738 30.5 60.4738C29.8693 60.4738 29.3764 60.7848 29.0213 61.407C28.6662 62.0263 28.4886 62.9027 28.4886 64.0363C28.4886 64.7919 28.5682 65.434 28.7273 65.9624C28.8864 66.4908 29.1151 66.8928 29.4134 67.1684C29.7145 67.4439 30.0767 67.5817 30.5 67.5817ZM39.6023 66.7635V66.3033C39.6023 65.9851 39.6676 65.6939 39.7983 65.4297C39.9318 65.1627 40.125 64.9496 40.3778 64.7905C40.6335 64.6286 40.9432 64.5476 41.3068 64.5476C41.6761 64.5476 41.9858 64.6286 42.2358 64.7905C42.4858 64.9496 42.6747 65.1627 42.8026 65.4297C42.9304 65.6939 42.9943 65.9851 42.9943 66.3033V66.7635C42.9943 67.0817 42.929 67.3743 42.7983 67.6414C42.6705 67.9056 42.4801 68.1187 42.2273 68.2806C41.9773 68.4397 41.6705 68.5192 41.3068 68.5192C40.9375 68.5192 40.6264 68.4397 40.3736 68.2806C40.1207 68.1187 39.929 67.9056 39.7983 67.6414C39.6676 67.3743 39.6023 67.0817 39.6023 66.7635ZM40.4716 66.3033V66.7635C40.4716 67.0277 40.5341 67.265 40.6591 67.4752C40.7841 67.6826 41 67.7863 41.3068 67.7863C41.6051 67.7863 41.8153 67.6826 41.9375 67.4752C42.0625 67.265 42.125 67.0277 42.125 66.7635V66.3033C42.125 66.0391 42.0653 65.8033 41.946 65.5959C41.8267 65.3857 41.6136 65.2806 41.3068 65.2806C41.0085 65.2806 40.794 65.3857 40.6634 65.5959C40.5355 65.8033 40.4716 66.0391 40.4716 66.3033ZM35.2557 61.7692V61.309C35.2557 60.9908 35.321 60.6996 35.4517 60.4354C35.5852 60.1684 35.7784 59.9553 36.0312 59.7962C36.2869 59.6343 36.5966 59.5533 36.9602 59.5533C37.3295 59.5533 37.6392 59.6343 37.8892 59.7962C38.1392 59.9553 38.3281 60.1684 38.456 60.4354C38.5838 60.6996 38.6477 60.9908 38.6477 61.309V61.7692C38.6477 62.0874 38.5824 62.38 38.4517 62.6471C38.3239 62.9113 38.1335 63.1243 37.8807 63.2863C37.6307 63.4454 37.3239 63.5249 36.9602 63.5249C36.5909 63.5249 36.2798 63.4454 36.027 63.2863C35.7741 63.1243 35.5824 62.9113 35.4517 62.6471C35.321 62.38 35.2557 62.0874 35.2557 61.7692ZM36.125 61.309V61.7692C36.125 62.0334 36.1875 62.2706 36.3125 62.4809C36.4375 62.6883 36.6534 62.7919 36.9602 62.7919C37.2585 62.7919 37.4688 62.6883 37.5909 62.4809C37.7159 62.2706 37.7784 62.0334 37.7784 61.7692V61.309C37.7784 61.0448 37.7188 60.809 37.5994 60.6016C37.4801 60.3914 37.267 60.2863 36.9602 60.2863C36.6619 60.2863 36.4474 60.3914 36.3168 60.6016C36.1889 60.809 36.125 61.0448 36.125 61.309ZM35.5795 68.3999L41.5795 59.6726H42.5511L36.5511 68.3999H35.5795Z" fill="#B8C0CC"/>
<path d="M52 63.8999H331" stroke="#334E68"/>
<path d="M30.5543 100.453C29.9691 100.453 29.4521 100.349 29.0032 100.142C28.5572 99.9315 28.2092 99.6432 27.9592 99.2767C27.7092 98.9074 27.5856 98.4869 27.5884 98.0153C27.5856 97.646 27.658 97.3051 27.8058 96.9926C27.9535 96.6772 28.1552 96.4145 28.4109 96.2042C28.6694 95.9912 28.9577 95.8562 29.2759 95.7994V95.7483C28.8583 95.6403 28.5259 95.4059 28.2788 95.0451C28.0316 94.6815 27.9094 94.2682 27.9123 93.8051C27.9094 93.3619 28.0217 92.9656 28.2489 92.6162C28.4762 92.2667 28.7887 91.9912 29.1864 91.7895C29.587 91.5878 30.043 91.4869 30.5543 91.4869C31.06 91.4869 31.5117 91.5878 31.9094 91.7895C32.3072 91.9912 32.6197 92.2667 32.8469 92.6162C33.0771 92.9656 33.1935 93.3619 33.1964 93.8051C33.1935 94.2682 33.0671 94.6815 32.8171 95.0451C32.57 95.4059 32.2418 95.6403 31.8327 95.7483V95.7994C32.1481 95.8562 32.4322 95.9912 32.685 96.2042C32.9379 96.4145 33.1396 96.6772 33.2901 96.9926C33.4407 97.3051 33.5174 97.646 33.5202 98.0153C33.5174 98.4869 33.3896 98.9074 33.1367 99.2767C32.8867 99.6432 32.5387 99.9315 32.0927 100.142C31.6495 100.349 31.1367 100.453 30.5543 100.453ZM30.5543 99.5153C30.9492 99.5153 31.2901 99.4514 31.5771 99.3236C31.864 99.1957 32.0856 99.0153 32.2418 98.7824C32.3981 98.5494 32.4776 98.2767 32.4805 97.9642C32.4776 97.6346 32.3924 97.3434 32.2248 97.0906C32.0572 96.8378 31.8285 96.6389 31.5387 96.494C31.2518 96.3491 30.9237 96.2767 30.5543 96.2767C30.1822 96.2767 29.8498 96.3491 29.5572 96.494C29.2674 96.6389 29.0387 96.8378 28.8711 97.0906C28.7063 97.3434 28.6254 97.6346 28.6282 97.9642C28.6254 98.2767 28.7006 98.5494 28.854 98.7824C29.0103 99.0153 29.2333 99.1957 29.5231 99.3236C29.8129 99.4514 30.1566 99.5153 30.5543 99.5153ZM30.5543 95.3733C30.8668 95.3733 31.1438 95.3108 31.3853 95.1858C31.6296 95.0608 31.8214 94.8861 31.9606 94.6616C32.0998 94.4372 32.1708 94.1744 32.1737 93.8733C32.1708 93.5778 32.1012 93.3207 31.9648 93.102C31.8285 92.8804 31.6396 92.7099 31.3981 92.5906C31.1566 92.4684 30.8754 92.4074 30.5543 92.4074C30.2276 92.4074 29.9421 92.4684 29.6978 92.5906C29.4535 92.7099 29.2646 92.8804 29.131 93.102C28.9975 93.3207 28.9322 93.5778 28.935 93.8733C28.9322 94.1744 28.9989 94.4372 29.1353 94.6616C29.2745 94.8861 29.4663 95.0608 29.7106 95.1858C29.9549 95.3108 30.2362 95.3733 30.5543 95.3733ZM39.6023 98.6971V98.2369C39.6023 97.9187 39.6676 97.6275 39.7983 97.3633C39.9318 97.0963 40.125 96.8832 40.3778 96.7241C40.6335 96.5622 40.9432 96.4812 41.3068 96.4812C41.6761 96.4812 41.9858 96.5622 42.2358 96.7241C42.4858 96.8832 42.6747 97.0963 42.8026 97.3633C42.9304 97.6275 42.9943 97.9187 42.9943 98.2369V98.6971C42.9943 99.0153 42.929 99.3079 42.7983 99.575C42.6705 99.8392 42.4801 100.052 42.2273 100.214C41.9773 100.373 41.6705 100.453 41.3068 100.453C40.9375 100.453 40.6264 100.373 40.3736 100.214C40.1207 100.052 39.929 99.8392 39.7983 99.575C39.6676 99.3079 39.6023 99.0153 39.6023 98.6971ZM40.4716 98.2369V98.6971C40.4716 98.9613 40.5341 99.1986 40.6591 99.4088C40.7841 99.6162 41 99.7199 41.3068 99.7199C41.6051 99.7199 41.8153 99.6162 41.9375 99.4088C42.0625 99.1986 42.125 98.9613 42.125 98.6971V98.2369C42.125 97.9727 42.0653 97.7369 41.946 97.5295C41.8267 97.3193 41.6136 97.2142 41.3068 97.2142C41.0085 97.2142 40.794 97.3193 40.6634 97.5295C40.5355 97.7369 40.4716 97.9727 40.4716 98.2369ZM35.2557 93.7028V93.2426C35.2557 92.9244 35.321 92.6332 35.4517 92.369C35.5852 92.102 35.7784 91.8889 36.0312 91.7298C36.2869 91.5679 36.5966 91.4869 36.9602 91.4869C37.3295 91.4869 37.6392 91.5679 37.8892 91.7298C38.1392 91.8889 38.3281 92.102 38.456 92.369C38.5838 92.6332 38.6477 92.9244 38.6477 93.2426V93.7028C38.6477 94.021 38.5824 94.3136 38.4517 94.5807C38.3239 94.8449 38.1335 95.0579 37.8807 95.2199C37.6307 95.379 37.3239 95.4585 36.9602 95.4585C36.5909 95.4585 36.2798 95.379 36.027 95.2199C35.7741 95.0579 35.5824 94.8449 35.4517 94.5807C35.321 94.3136 35.2557 94.021 35.2557 93.7028ZM36.125 93.2426V93.7028C36.125 93.967 36.1875 94.2042 36.3125 94.4145C36.4375 94.6218 36.6534 94.7255 36.9602 94.7255C37.2585 94.7255 37.4688 94.6218 37.5909 94.4145C37.7159 94.2042 37.7784 93.967 37.7784 93.7028V93.2426C37.7784 92.9784 37.7188 92.7426 37.5994 92.5352C37.4801 92.325 37.267 92.2199 36.9602 92.2199C36.6619 92.2199 36.4474 92.325 36.3168 92.5352C36.1889 92.7426 36.125 92.9784 36.125 93.2426ZM35.5795 100.333L41.5795 91.6062H42.5511L36.5511 100.333H35.5795Z" fill="#B8C0CC"/>
<path d="M52 95.8335H331" stroke="#334E68"/>
<path d="M30.5629 132.386C30.2049 132.38 29.8469 132.312 29.489 132.181C29.131 132.051 28.8043 131.831 28.5089 131.521C28.2134 131.208 27.9762 130.786 27.7972 130.255C27.6183 129.721 27.5288 129.051 27.5288 128.244C27.5288 127.471 27.6012 126.786 27.7461 126.19C27.891 125.59 28.1012 125.086 28.3768 124.677C28.6523 124.265 28.9847 123.953 29.3739 123.74C29.766 123.527 30.2077 123.42 30.6992 123.42C31.1879 123.42 31.6225 123.518 32.0032 123.714C32.3867 123.907 32.6992 124.177 32.9407 124.524C33.1822 124.87 33.3384 125.269 33.4094 125.721H32.3697C32.2731 125.329 32.0856 125.004 31.8072 124.745C31.5288 124.487 31.1594 124.358 30.6992 124.358C30.0231 124.358 29.4904 124.652 29.1012 125.24C28.7148 125.828 28.5202 126.653 28.5174 127.715H28.5856C28.7447 127.474 28.9336 127.268 29.1523 127.098C29.3739 126.924 29.6183 126.791 29.8853 126.697C30.1523 126.603 30.435 126.556 30.7333 126.556C31.2333 126.556 31.6907 126.681 32.1055 126.931C32.5202 127.179 32.8526 127.521 33.1026 127.958C33.3526 128.393 33.4776 128.892 33.4776 129.454C33.4776 129.994 33.3569 130.488 33.1154 130.937C32.8739 131.383 32.5344 131.738 32.0969 132.002C31.6623 132.264 31.1509 132.392 30.5629 132.386ZM30.5629 131.448C30.9208 131.448 31.2418 131.359 31.5259 131.18C31.8129 131.001 32.0387 130.761 32.2035 130.46C32.3711 130.159 32.4549 129.823 32.4549 129.454C32.4549 129.093 32.3739 128.765 32.212 128.47C32.0529 128.171 31.8327 127.934 31.5515 127.758C31.2731 127.582 30.9549 127.494 30.5969 127.494C30.3271 127.494 30.0756 127.548 29.8427 127.656C29.6097 127.761 29.4052 127.906 29.229 128.09C29.0558 128.275 28.9194 128.487 28.82 128.725C28.7205 128.961 28.6708 129.21 28.6708 129.471C28.6708 129.818 28.7518 130.142 28.9137 130.443C29.0785 130.744 29.3029 130.987 29.587 131.171C29.8739 131.356 30.1992 131.448 30.5629 131.448ZM39.6023 130.63V130.17C39.6023 129.852 39.6676 129.561 39.7983 129.296C39.9318 129.029 40.125 128.816 40.3778 128.657C40.6335 128.495 40.9432 128.414 41.3068 128.414C41.6761 128.414 41.9858 128.495 42.2358 128.657C42.4858 128.816 42.6747 129.029 42.8026 129.296C42.9304 129.561 42.9943 129.852 42.9943 130.17V130.63C42.9943 130.948 42.929 131.241 42.7983 131.508C42.6705 131.772 42.4801 131.985 42.2273 132.147C41.9773 132.306 41.6705 132.386 41.3068 132.386C40.9375 132.386 40.6264 132.306 40.3736 132.147C40.1207 131.985 39.929 131.772 39.7983 131.508C39.6676 131.241 39.6023 130.948 39.6023 130.63ZM40.4716 130.17V130.63C40.4716 130.894 40.5341 131.132 40.6591 131.342C40.7841 131.549 41 131.653 41.3068 131.653C41.6051 131.653 41.8153 131.549 41.9375 131.342C42.0625 131.132 42.125 130.894 42.125 130.63V130.17C42.125 129.906 42.0653 129.67 41.946 129.463C41.8267 129.252 41.6136 129.147 41.3068 129.147C41.0085 129.147 40.794 129.252 40.6634 129.463C40.5355 129.67 40.4716 129.906 40.4716 130.17ZM35.2557 125.636V125.176C35.2557 124.858 35.321 124.566 35.4517 124.302C35.5852 124.035 35.7784 123.822 36.0312 123.663C36.2869 123.501 36.5966 123.42 36.9602 123.42C37.3295 123.42 37.6392 123.501 37.8892 123.663C38.1392 123.822 38.3281 124.035 38.456 124.302C38.5838 124.566 38.6477 124.858 38.6477 125.176V125.636C38.6477 125.954 38.5824 126.247 38.4517 126.514C38.3239 126.778 38.1335 126.991 37.8807 127.153C37.6307 127.312 37.3239 127.392 36.9602 127.392C36.5909 127.392 36.2798 127.312 36.027 127.153C35.7741 126.991 35.5824 126.778 35.4517 126.514C35.321 126.247 35.2557 125.954 35.2557 125.636ZM36.125 125.176V125.636C36.125 125.9 36.1875 126.137 36.3125 126.348C36.4375 126.555 36.6534 126.659 36.9602 126.659C37.2585 126.659 37.4688 126.555 37.5909 126.348C37.7159 126.137 37.7784 125.9 37.7784 125.636V125.176C37.7784 124.911 37.7188 124.676 37.5994 124.468C37.4801 124.258 37.267 124.153 36.9602 124.153C36.6619 124.153 36.4474 124.258 36.3168 124.468C36.1889 124.676 36.125 124.911 36.125 125.176ZM35.5795 132.267L41.5795 123.539H42.5511L36.5511 132.267H35.5795Z" fill="#B8C0CC"/>
<path d="M52 127.767H331" stroke="#334E68"/>
<path d="M27.2496 162.41V161.541L31.0849 155.473H31.7156V156.82H31.2894L28.3917 161.405V161.473H33.5565V162.41H27.2496ZM31.3576 164.2V162.146V161.741V155.473H32.3633V164.2H31.3576ZM39.6023 162.564V162.104C39.6023 161.785 39.6676 161.494 39.7983 161.23C39.9318 160.963 40.125 160.75 40.3778 160.591C40.6335 160.429 40.9432 160.348 41.3068 160.348C41.6761 160.348 41.9858 160.429 42.2358 160.591C42.4858 160.75 42.6747 160.963 42.8026 161.23C42.9304 161.494 42.9943 161.785 42.9943 162.104V162.564C42.9943 162.882 42.929 163.175 42.7983 163.442C42.6705 163.706 42.4801 163.919 42.2273 164.081C41.9773 164.24 41.6705 164.32 41.3068 164.32C40.9375 164.32 40.6264 164.24 40.3736 164.081C40.1207 163.919 39.929 163.706 39.7983 163.442C39.6676 163.175 39.6023 162.882 39.6023 162.564ZM40.4716 162.104V162.564C40.4716 162.828 40.5341 163.065 40.6591 163.275C40.7841 163.483 41 163.587 41.3068 163.587C41.6051 163.587 41.8153 163.483 41.9375 163.275C42.0625 163.065 42.125 162.828 42.125 162.564V162.104C42.125 161.839 42.0653 161.604 41.946 161.396C41.8267 161.186 41.6136 161.081 41.3068 161.081C41.0085 161.081 40.794 161.186 40.6634 161.396C40.5355 161.604 40.4716 161.839 40.4716 162.104ZM35.2557 157.57V157.109C35.2557 156.791 35.321 156.5 35.4517 156.236C35.5852 155.969 35.7784 155.756 36.0312 155.597C36.2869 155.435 36.5966 155.354 36.9602 155.354C37.3295 155.354 37.6392 155.435 37.8892 155.597C38.1392 155.756 38.3281 155.969 38.456 156.236C38.5838 156.5 38.6477 156.791 38.6477 157.109V157.57C38.6477 157.888 38.5824 158.18 38.4517 158.447C38.3239 158.712 38.1335 158.925 37.8807 159.087C37.6307 159.246 37.3239 159.325 36.9602 159.325C36.5909 159.325 36.2798 159.246 36.027 159.087C35.7741 158.925 35.5824 158.712 35.4517 158.447C35.321 158.18 35.2557 157.888 35.2557 157.57ZM36.125 157.109V157.57C36.125 157.834 36.1875 158.071 36.3125 158.281C36.4375 158.489 36.6534 158.592 36.9602 158.592C37.2585 158.592 37.4688 158.489 37.5909 158.281C37.7159 158.071 37.7784 157.834 37.7784 157.57V157.109C37.7784 156.845 37.7188 156.609 37.5994 156.402C37.4801 156.192 37.267 156.087 36.9602 156.087C36.6619 156.087 36.4474 156.192 36.3168 156.402C36.1889 156.609 36.125 156.845 36.125 157.109ZM35.5795 164.2L41.5795 155.473H42.5511L36.5511 164.2H35.5795Z" fill="#B8C0CC"/>
<path d="M52 159.7H331" stroke="#334E68"/>
<path d="M27.8878 196.133V195.366L30.7685 192.213C31.1065 191.844 31.3849 191.523 31.6037 191.25C31.8224 190.974 31.9844 190.716 32.0895 190.474C32.1974 190.23 32.2514 189.974 32.2514 189.707C32.2514 189.4 32.1776 189.135 32.0298 188.91C31.8849 188.686 31.6861 188.513 31.4332 188.39C31.1804 188.268 30.8963 188.207 30.581 188.207C30.2457 188.207 29.9531 188.277 29.7031 188.416C29.456 188.552 29.2642 188.744 29.1278 188.991C28.9943 189.238 28.9276 189.528 28.9276 189.861H27.9219C27.9219 189.349 28.0398 188.9 28.2756 188.514C28.5114 188.128 28.8324 187.826 29.2386 187.611C29.6477 187.395 30.1065 187.287 30.6151 187.287C31.1264 187.287 31.5795 187.395 31.9744 187.611C32.3693 187.826 32.679 188.118 32.9034 188.484C33.1278 188.851 33.2401 189.258 33.2401 189.707C33.2401 190.028 33.1818 190.342 33.0653 190.649C32.9517 190.953 32.7528 191.292 32.4688 191.667C32.1875 192.04 31.7969 192.494 31.2969 193.031L29.3366 195.128V195.196H33.3935V196.133H27.8878ZM39.6023 194.497V194.037C39.6023 193.719 39.6676 193.427 39.7983 193.163C39.9318 192.896 40.125 192.683 40.3778 192.524C40.6335 192.362 40.9432 192.281 41.3068 192.281C41.6761 192.281 41.9858 192.362 42.2358 192.524C42.4858 192.683 42.6747 192.896 42.8026 193.163C42.9304 193.427 42.9943 193.719 42.9943 194.037V194.497C42.9943 194.815 42.929 195.108 42.7983 195.375C42.6705 195.639 42.4801 195.852 42.2273 196.014C41.9773 196.173 41.6705 196.253 41.3068 196.253C40.9375 196.253 40.6264 196.173 40.3736 196.014C40.1207 195.852 39.929 195.639 39.7983 195.375C39.6676 195.108 39.6023 194.815 39.6023 194.497ZM40.4716 194.037V194.497C40.4716 194.761 40.5341 194.998 40.6591 195.209C40.7841 195.416 41 195.52 41.3068 195.52C41.6051 195.52 41.8153 195.416 41.9375 195.209C42.0625 194.998 42.125 194.761 42.125 194.497V194.037C42.125 193.773 42.0653 193.537 41.946 193.329C41.8267 193.119 41.6136 193.014 41.3068 193.014C41.0085 193.014 40.794 193.119 40.6634 193.329C40.5355 193.537 40.4716 193.773 40.4716 194.037ZM35.2557 189.503V189.042C35.2557 188.724 35.321 188.433 35.4517 188.169C35.5852 187.902 35.7784 187.689 36.0312 187.53C36.2869 187.368 36.5966 187.287 36.9602 187.287C37.3295 187.287 37.6392 187.368 37.8892 187.53C38.1392 187.689 38.3281 187.902 38.456 188.169C38.5838 188.433 38.6477 188.724 38.6477 189.042V189.503C38.6477 189.821 38.5824 190.113 38.4517 190.38C38.3239 190.645 38.1335 190.858 37.8807 191.02C37.6307 191.179 37.3239 191.258 36.9602 191.258C36.5909 191.258 36.2798 191.179 36.027 191.02C35.7741 190.858 35.5824 190.645 35.4517 190.38C35.321 190.113 35.2557 189.821 35.2557 189.503ZM36.125 189.042V189.503C36.125 189.767 36.1875 190.004 36.3125 190.214C36.4375 190.422 36.6534 190.525 36.9602 190.525C37.2585 190.525 37.4688 190.422 37.5909 190.214C37.7159 190.004 37.7784 189.767 37.7784 189.503V189.042C37.7784 188.778 37.7188 188.542 37.5994 188.335C37.4801 188.125 37.267 188.02 36.9602 188.02C36.6619 188.02 36.4474 188.125 36.3168 188.335C36.1889 188.542 36.125 188.778 36.125 189.042ZM35.5795 196.133L41.5795 187.406H42.5511L36.5511 196.133H35.5795Z" fill="#B8C0CC"/>
<path d="M52 191.633H331" stroke="#334E68"/>
<path d="M30.5 229.92C29.858 229.92 29.3111 229.745 28.8594 229.395C28.4077 229.043 28.0625 228.533 27.8239 227.866C27.5852 227.195 27.4659 226.386 27.4659 225.437C27.4659 224.493 27.5852 223.688 27.8239 223.02C28.0653 222.35 28.4119 221.839 28.8636 221.486C29.3182 221.131 29.8636 220.954 30.5 220.954C31.1364 220.954 31.6804 221.131 32.1321 221.486C32.5866 221.839 32.9332 222.35 33.1719 223.02C33.4134 223.688 33.5341 224.493 33.5341 225.437C33.5341 226.386 33.4148 227.195 33.1761 227.866C32.9375 228.533 32.5923 229.043 32.1406 229.395C31.6889 229.745 31.142 229.92 30.5 229.92ZM30.5 228.982C31.1364 228.982 31.6307 228.675 31.983 228.062C32.3352 227.448 32.5114 226.573 32.5114 225.437C32.5114 224.681 32.4304 224.038 32.2685 223.506C32.1094 222.975 31.8793 222.57 31.5781 222.292C31.2798 222.013 30.9205 221.874 30.5 221.874C29.8693 221.874 29.3764 222.185 29.0213 222.807C28.6662 223.427 28.4886 224.303 28.4886 225.437C28.4886 226.192 28.5682 226.834 28.7273 227.363C28.8864 227.891 29.1151 228.293 29.4134 228.569C29.7145 228.844 30.0767 228.982 30.5 228.982ZM39.6023 228.164V227.704C39.6023 227.386 39.6676 227.094 39.7983 226.83C39.9318 226.563 40.125 226.35 40.3778 226.191C40.6335 226.029 40.9432 225.948 41.3068 225.948C41.6761 225.948 41.9858 226.029 42.2358 226.191C42.4858 226.35 42.6747 226.563 42.8026 226.83C42.9304 227.094 42.9943 227.386 42.9943 227.704V228.164C42.9943 228.482 42.929 228.775 42.7983 229.042C42.6705 229.306 42.4801 229.519 42.2273 229.681C41.9773 229.84 41.6705 229.92 41.3068 229.92C40.9375 229.92 40.6264 229.84 40.3736 229.681C40.1207 229.519 39.929 229.306 39.7983 229.042C39.6676 228.775 39.6023 228.482 39.6023 228.164ZM40.4716 227.704V228.164C40.4716 228.428 40.5341 228.665 40.6591 228.876C40.7841 229.083 41 229.187 41.3068 229.187C41.6051 229.187 41.8153 229.083 41.9375 228.876C42.0625 228.665 42.125 228.428 42.125 228.164V227.704C42.125 227.439 42.0653 227.204 41.946 226.996C41.8267 226.786 41.6136 226.681 41.3068 226.681C41.0085 226.681 40.794 226.786 40.6634 226.996C40.5355 227.204 40.4716 227.439 40.4716 227.704ZM35.2557 223.17V222.709C35.2557 222.391 35.321 222.1 35.4517 221.836C35.5852 221.569 35.7784 221.356 36.0312 221.197C36.2869 221.035 36.5966 220.954 36.9602 220.954C37.3295 220.954 37.6392 221.035 37.8892 221.197C38.1392 221.356 38.3281 221.569 38.456 221.836C38.5838 222.1 38.6477 222.391 38.6477 222.709V223.17C38.6477 223.488 38.5824 223.78 38.4517 224.047C38.3239 224.312 38.1335 224.525 37.8807 224.687C37.6307 224.846 37.3239 224.925 36.9602 224.925C36.5909 224.925 36.2798 224.846 36.027 224.687C35.7741 224.525 35.5824 224.312 35.4517 224.047C35.321 223.78 35.2557 223.488 35.2557 223.17ZM36.125 222.709V223.17C36.125 223.434 36.1875 223.671 36.3125 223.881C36.4375 224.089 36.6534 224.192 36.9602 224.192C37.2585 224.192 37.4688 224.089 37.5909 223.881C37.7159 223.671 37.7784 223.434 37.7784 223.17V222.709C37.7784 222.445 37.7188 222.209 37.5994 222.002C37.4801 221.792 37.267 221.687 36.9602 221.687C36.6619 221.687 36.4474 221.792 36.3168 222.002C36.1889 222.209 36.125 222.445 36.125 222.709ZM35.5795 229.8L41.5795 221.073H42.5511L36.5511 229.8H35.5795Z" fill="#B8C0CC"/>
<rect x="52.5" y="31.5" width="278" height="195" stroke="#334E68"/>
<path d="M154.93 239V230.273H157.981C158.589 230.273 159.09 230.378 159.485 230.588C159.88 230.795 160.174 231.075 160.367 231.428C160.561 231.777 160.657 232.165 160.657 232.591C160.657 232.966 160.59 233.276 160.457 233.52C160.326 233.764 160.153 233.957 159.937 234.099C159.724 234.241 159.492 234.347 159.242 234.415V234.5C159.509 234.517 159.778 234.611 160.048 234.781C160.318 234.952 160.544 235.196 160.725 235.514C160.907 235.832 160.998 236.222 160.998 236.682C160.998 237.119 160.899 237.513 160.7 237.862C160.501 238.212 160.187 238.489 159.758 238.693C159.329 238.898 158.771 239 158.083 239H154.93ZM155.987 238.062H158.083C158.774 238.062 159.264 237.929 159.553 237.662C159.846 237.392 159.992 237.065 159.992 236.682C159.992 236.386 159.917 236.114 159.767 235.864C159.616 235.611 159.401 235.409 159.123 235.259C158.845 235.105 158.515 235.028 158.134 235.028H155.987V238.062ZM155.987 234.108H157.947C158.265 234.108 158.552 234.045 158.808 233.92C159.066 233.795 159.271 233.619 159.421 233.392C159.575 233.165 159.651 232.898 159.651 232.591C159.651 232.207 159.518 231.882 159.251 231.615C158.984 231.345 158.561 231.21 157.981 231.21H155.987V234.108ZM165.343 239.136C164.712 239.136 164.168 238.997 163.71 238.719C163.256 238.438 162.905 238.045 162.658 237.543C162.414 237.037 162.291 236.449 162.291 235.778C162.291 235.108 162.414 234.517 162.658 234.006C162.905 233.491 163.249 233.091 163.689 232.804C164.132 232.514 164.649 232.369 165.24 232.369C165.581 232.369 165.918 232.426 166.25 232.54C166.583 232.653 166.885 232.838 167.158 233.094C167.431 233.347 167.648 233.682 167.81 234.099C167.972 234.517 168.053 235.031 168.053 235.642V236.068H163.007V235.199H167.03C167.03 234.83 166.956 234.5 166.808 234.21C166.664 233.92 166.456 233.692 166.186 233.524C165.919 233.357 165.604 233.273 165.24 233.273C164.84 233.273 164.493 233.372 164.2 233.571C163.911 233.767 163.688 234.023 163.531 234.338C163.375 234.653 163.297 234.991 163.297 235.352V235.932C163.297 236.426 163.382 236.845 163.553 237.189C163.726 237.53 163.966 237.79 164.273 237.969C164.58 238.145 164.936 238.233 165.343 238.233C165.607 238.233 165.845 238.196 166.058 238.122C166.274 238.045 166.46 237.932 166.617 237.781C166.773 237.628 166.894 237.437 166.979 237.21L167.95 237.483C167.848 237.812 167.676 238.102 167.435 238.352C167.193 238.599 166.895 238.793 166.54 238.932C166.185 239.068 165.786 239.136 165.343 239.136ZM172.497 232.455V233.307H168.969V232.455H172.497ZM170.026 239V231.551C170.026 231.176 170.114 230.864 170.29 230.614C170.466 230.364 170.695 230.176 170.976 230.051C171.257 229.926 171.554 229.864 171.867 229.864C172.114 229.864 172.316 229.884 172.472 229.923C172.628 229.963 172.744 230 172.821 230.034L172.531 230.903C172.48 230.886 172.409 230.865 172.318 230.839C172.23 230.814 172.114 230.801 171.969 230.801C171.637 230.801 171.396 230.885 171.249 231.053C171.104 231.22 171.031 231.466 171.031 231.79V239H170.026ZM176.296 239.136C175.705 239.136 175.187 238.996 174.741 238.714C174.298 238.433 173.951 238.04 173.701 237.534C173.454 237.028 173.33 236.437 173.33 235.761C173.33 235.08 173.454 234.484 173.701 233.976C173.951 233.467 174.298 233.072 174.741 232.791C175.187 232.51 175.705 232.369 176.296 232.369C176.887 232.369 177.404 232.51 177.847 232.791C178.294 233.072 178.64 233.467 178.887 233.976C179.137 234.484 179.262 235.08 179.262 235.761C179.262 236.437 179.137 237.028 178.887 237.534C178.64 238.04 178.294 238.433 177.847 238.714C177.404 238.996 176.887 239.136 176.296 239.136ZM176.296 238.233C176.745 238.233 177.115 238.118 177.404 237.888C177.694 237.658 177.909 237.355 178.048 236.98C178.187 236.605 178.257 236.199 178.257 235.761C178.257 235.324 178.187 234.916 178.048 234.538C177.909 234.161 177.694 233.855 177.404 233.622C177.115 233.389 176.745 233.273 176.296 233.273C175.847 233.273 175.478 233.389 175.188 233.622C174.899 233.855 174.684 234.161 174.545 234.538C174.406 234.916 174.336 235.324 174.336 235.761C174.336 236.199 174.406 236.605 174.545 236.98C174.684 237.355 174.899 237.658 175.188 237.888C175.478 238.118 175.847 238.233 176.296 238.233ZM180.797 239V232.455H181.769V233.443H181.837C181.956 233.119 182.172 232.857 182.485 232.655C182.797 232.453 183.15 232.352 183.542 232.352C183.616 232.352 183.708 232.354 183.819 232.357C183.93 232.359 184.013 232.364 184.07 232.369V233.392C184.036 233.384 183.958 233.371 183.836 233.354C183.716 233.334 183.59 233.324 183.456 233.324C183.138 233.324 182.854 233.391 182.604 233.524C182.357 233.655 182.161 233.837 182.016 234.07C181.874 234.3 181.803 234.562 181.803 234.858V239H180.797ZM187.807 239.136C187.177 239.136 186.633 238.997 186.175 238.719C185.721 238.438 185.37 238.045 185.123 237.543C184.878 237.037 184.756 236.449 184.756 235.778C184.756 235.108 184.878 234.517 185.123 234.006C185.37 233.491 185.714 233.091 186.154 232.804C186.597 232.514 187.114 232.369 187.705 232.369C188.046 232.369 188.383 232.426 188.715 232.54C189.047 232.653 189.35 232.838 189.623 233.094C189.895 233.347 190.113 233.682 190.275 234.099C190.437 234.517 190.518 235.031 190.518 235.642V236.068H185.472V235.199H189.495C189.495 234.83 189.421 234.5 189.273 234.21C189.128 233.92 188.921 233.692 188.651 233.524C188.384 233.357 188.069 233.273 187.705 233.273C187.305 233.273 186.958 233.372 186.665 233.571C186.376 233.767 186.153 234.023 185.996 234.338C185.84 234.653 185.762 234.991 185.762 235.352V235.932C185.762 236.426 185.847 236.845 186.018 237.189C186.191 237.53 186.431 237.79 186.738 237.969C187.045 238.145 187.401 238.233 187.807 238.233C188.072 238.233 188.31 238.196 188.523 238.122C188.739 238.045 188.925 237.932 189.081 237.781C189.238 237.628 189.358 237.437 189.444 237.21L190.415 237.483C190.313 237.812 190.141 238.102 189.9 238.352C189.658 238.599 189.36 238.793 189.005 238.932C188.65 239.068 188.251 239.136 187.807 239.136Z" fill="#B8C0CC"/>
<rect x="52" y="159" width="132" height="68" rx="1.5" fill="#475569"/>
<rect x="185" y="31" width="145" height="196" rx="1.5" fill="#4006DE" fill-opacity="0.8"/>
<path d="M8.076 162.72C8.076 162.388 8.038 162.102 7.962 161.862C7.886 161.622 7.78 161.426 7.644 161.274C7.504 161.118 7.34 161.004 7.152 160.932C6.96 160.86 6.75 160.824 6.522 160.824C6.078 160.824 5.728 160.982 5.472 161.298C5.212 161.614 5.082 162.088 5.082 162.72L5.082 164.58L8.076 164.58L8.076 162.72ZM1.32 164.58L4.254 164.58L4.254 163.044C4.254 162.716 4.218 162.432 4.146 162.192C4.074 161.948 3.974 161.748 3.846 161.592C3.718 161.432 3.564 161.314 3.384 161.238C3.2 161.162 3 161.124 2.784 161.124C2.276 161.124 1.906 161.276 1.674 161.58C1.438 161.884 1.32 162.356 1.32 162.996L1.32 164.58ZM0.401999 162.996C0.401999 162.468 0.453999 162.014 0.557999 161.634C0.661999 161.25 0.809999 160.936 1.002 160.692C1.194 160.444 1.43 160.262 1.71 160.146C1.986 160.03 2.298 159.972 2.646 159.972C2.858 159.972 3.062 160.006 3.258 160.074C3.45 160.138 3.63 160.236 3.798 160.368C3.966 160.5 4.118 160.668 4.254 160.872C4.386 161.072 4.494 161.308 4.578 161.58C4.698 160.948 4.924 160.474 5.256 160.158C5.584 159.838 6.016 159.678 6.552 159.678C6.916 159.678 7.248 159.746 7.548 159.882C7.848 160.014 8.106 160.21 8.322 160.47C8.538 160.726 8.706 161.042 8.826 161.418C8.942 161.794 9 162.222 9 162.702L9 165.738L0.401999 165.738L0.401999 162.996ZM2.826 155.264C2.826 154.82 2.9 154.42 3.048 154.064C3.196 153.708 3.406 153.404 3.678 153.152C3.95 152.9 4.28 152.708 4.668 152.576C5.052 152.44 5.482 152.372 5.958 152.372C6.438 152.372 6.87 152.44 7.254 152.576C7.638 152.708 7.966 152.9 8.238 153.152C8.51 153.404 8.72 153.708 8.868 154.064C9.012 154.42 9.084 154.82 9.084 155.264C9.084 155.712 9.012 156.116 8.868 156.476C8.72 156.832 8.51 157.136 8.238 157.388C7.966 157.64 7.638 157.834 7.254 157.97C6.87 158.102 6.438 158.168 5.958 158.168C5.482 158.168 5.052 158.102 4.668 157.97C4.28 157.834 3.95 157.64 3.678 157.388C3.406 157.136 3.196 156.832 3.048 156.476C2.9 156.116 2.826 155.712 2.826 155.264ZM8.25 155.264C8.25 154.664 8.05 154.216 7.65 153.92C7.246 153.624 6.684 153.476 5.964 153.476C5.24 153.476 4.676 153.624 4.272 153.92C3.868 154.216 3.666 154.664 3.666 155.264C3.666 155.568 3.718 155.834 3.822 156.062C3.926 156.286 4.076 156.474 4.272 156.626C4.468 156.774 4.71 156.886 4.998 156.962C5.282 157.034 5.604 157.07 5.964 157.07C6.684 157.07 7.246 156.922 7.65 156.626C8.05 156.326 8.25 155.872 8.25 155.264ZM2.826 147.955C2.826 147.511 2.9 147.111 3.048 146.755C3.196 146.399 3.406 146.095 3.678 145.843C3.95 145.591 4.28 145.399 4.668 145.267C5.052 145.131 5.482 145.063 5.958 145.063C6.438 145.063 6.87 145.131 7.254 145.267C7.638 145.399 7.966 145.591 8.238 145.843C8.51 146.095 8.72 146.399 8.868 146.755C9.012 147.111 9.084 147.511 9.084 147.955C9.084 148.403 9.012 148.807 8.868 149.167C8.72 149.523 8.51 149.827 8.238 150.079C7.966 150.331 7.638 150.525 7.254 150.661C6.87 150.793 6.438 150.859 5.958 150.859C5.482 150.859 5.052 150.793 4.668 150.661C4.28 150.525 3.95 150.331 3.678 150.079C3.406 149.827 3.196 149.523 3.048 149.167C2.9 148.807 2.826 148.403 2.826 147.955ZM8.25 147.955C8.25 147.355 8.05 146.907 7.65 146.611C7.246 146.315 6.684 146.167 5.964 146.167C5.24 146.167 4.676 146.315 4.272 146.611C3.868 146.907 3.666 147.355 3.666 147.955C3.666 148.259 3.718 148.525 3.822 148.753C3.926 148.977 4.076 149.165 4.272 149.317C4.468 149.465 4.71 149.577 4.998 149.653C5.282 149.725 5.604 149.761 5.964 149.761C6.684 149.761 7.246 149.613 7.65 149.317C8.05 149.017 8.25 148.563 8.25 147.955ZM0.161999 142.135L5.364 142.135L5.364 141.859C5.364 141.779 5.354 141.713 5.334 141.661C5.31 141.605 5.264 141.547 5.196 141.487L3.138 139.567C3.07 139.511 3.018 139.453 2.982 139.393C2.942 139.329 2.922 139.245 2.922 139.141L2.922 138.175L5.304 140.413C5.44 140.521 5.546 140.637 5.622 140.761C5.67 140.689 5.726 140.625 5.79 140.569C5.85 140.509 5.92 140.453 6 140.401L9 138.025L9 138.979C9 139.071 8.986 139.151 8.958 139.219C8.926 139.283 8.87 139.339 8.79 139.387L6.3 141.385C6.216 141.445 6.162 141.505 6.138 141.565C6.11 141.621 6.096 141.709 6.096 141.829L6.096 142.135L9 142.135L9 143.209L0.161999 143.209L0.161999 142.135ZM2.922 135.487L9 135.487L9 136.555L2.922 136.555L2.922 135.487ZM1.014 135.259C1.118 135.259 1.216 135.281 1.308 135.325C1.396 135.365 1.476 135.421 1.548 135.493C1.616 135.561 1.67 135.643 1.71 135.739C1.75 135.831 1.77 135.929 1.77 136.033C1.77 136.137 1.75 136.235 1.71 136.327C1.67 136.415 1.616 136.493 1.548 136.561C1.476 136.629 1.396 136.683 1.308 136.723C1.216 136.763 1.118 136.783 1.014 136.783C0.909998 136.783 0.811998 136.763 0.719998 136.723C0.623998 136.683 0.541998 136.629 0.473998 136.561C0.401998 136.493 0.345998 136.415 0.305998 136.327C0.265998 136.235 0.245998 136.137 0.245998 136.033C0.245998 135.929 0.265998 135.831 0.305998 135.739C0.345998 135.643 0.401998 135.561 0.473998 135.493C0.541998 135.421 0.623998 135.365 0.719998 135.325C0.811998 135.281 0.909998 135.259 1.014 135.259ZM3.804 132.224C3.656 132.092 3.522 131.952 3.402 131.804C3.282 131.656 3.18 131.5 3.096 131.336C3.008 131.168 2.942 130.992 2.898 130.808C2.85 130.62 2.826 130.418 2.826 130.202C2.826 129.87 2.882 129.578 2.994 129.326C3.102 129.07 3.258 128.858 3.462 128.69C3.662 128.518 3.904 128.388 4.188 128.3C4.472 128.212 4.786 128.168 5.13 128.168L9 128.168L9 129.242L5.13 129.242C4.67 129.242 4.314 129.348 4.062 129.56C3.806 129.768 3.678 130.086 3.678 130.514C3.678 130.83 3.754 131.126 3.906 131.402C4.058 131.674 4.264 131.926 4.524 132.158L9 132.158L9 133.232L2.922 133.232L2.922 132.59C2.922 132.438 2.996 132.344 3.144 132.308L3.804 132.224ZM6.03 123.923C6.03 123.707 6 123.517 5.94 123.353C5.88 123.189 5.796 123.051 5.688 122.939C5.58 122.827 5.452 122.743 5.304 122.687C5.152 122.631 4.986 122.603 4.806 122.603C4.434 122.603 4.138 122.717 3.918 122.945C3.698 123.169 3.588 123.495 3.588 123.923C3.588 124.355 3.698 124.685 3.918 124.913C4.138 125.137 4.434 125.249 4.806 125.249C4.986 125.249 5.152 125.221 5.304 125.165C5.452 125.105 5.58 125.019 5.688 124.907C5.796 124.795 5.88 124.657 5.94 124.493C6 124.329 6.03 124.139 6.03 123.923ZM9.33 121.997C9.182 121.997 9.062 122.039 8.97 122.123C8.878 122.207 8.806 122.321 8.754 122.465C8.702 122.605 8.666 122.769 8.646 122.957C8.622 123.145 8.604 123.345 8.592 123.557C8.58 123.765 8.568 123.977 8.556 124.193C8.544 124.409 8.524 124.617 8.496 124.817C8.6 125.041 8.732 125.225 8.892 125.369C9.048 125.509 9.232 125.579 9.444 125.579C9.58 125.579 9.706 125.545 9.822 125.477C9.942 125.405 10.044 125.297 10.128 125.153C10.216 125.009 10.284 124.829 10.332 124.613C10.384 124.393 10.41 124.135 10.41 123.839C10.41 123.551 10.384 123.293 10.332 123.065C10.28 122.837 10.206 122.645 10.11 122.489C10.014 122.329 9.9 122.207 9.768 122.123C9.636 122.039 9.49 121.997 9.33 121.997ZM3.162 120.911L3.558 120.911C3.69 120.911 3.774 120.995 3.81 121.163L3.9 121.853C4.164 121.717 4.456 121.649 4.776 121.649C5.072 121.649 5.342 121.707 5.586 121.823C5.826 121.935 6.032 122.091 6.204 122.291C6.376 122.491 6.508 122.731 6.6 123.011C6.692 123.291 6.738 123.595 6.738 123.923C6.738 124.207 6.704 124.475 6.636 124.727C6.716 124.855 6.802 124.953 6.894 125.021C6.982 125.089 7.072 125.123 7.164 125.123C7.308 125.123 7.418 125.065 7.494 124.949C7.566 124.829 7.618 124.673 7.65 124.481C7.682 124.289 7.702 124.071 7.71 123.827C7.718 123.579 7.732 123.327 7.752 123.071C7.768 122.811 7.798 122.559 7.842 122.315C7.886 122.067 7.958 121.847 8.058 121.655C8.158 121.463 8.296 121.309 8.472 121.193C8.648 121.073 8.876 121.013 9.156 121.013C9.416 121.013 9.668 121.079 9.912 121.211C10.156 121.339 10.372 121.525 10.56 121.769C10.752 122.013 10.904 122.313 11.016 122.669C11.132 123.021 11.19 123.419 11.19 123.863C11.19 124.307 11.146 124.695 11.058 125.027C10.97 125.359 10.852 125.635 10.704 125.855C10.556 126.075 10.384 126.241 10.188 126.353C9.996 126.461 9.794 126.515 9.582 126.515C9.282 126.515 9.028 126.421 8.82 126.233C8.612 126.045 8.446 125.787 8.322 125.459C8.242 125.639 8.136 125.783 8.004 125.891C7.868 125.995 7.686 126.047 7.458 126.047C7.37 126.047 7.28 126.031 7.188 125.999C7.092 125.967 6.998 125.919 6.906 125.855C6.81 125.787 6.72 125.705 6.636 125.609C6.552 125.513 6.478 125.401 6.414 125.273C6.246 125.573 6.024 125.807 5.748 125.975C5.468 126.143 5.144 126.227 4.776 126.227C4.48 126.227 4.212 126.171 3.972 126.059C3.728 125.943 3.522 125.783 3.354 125.579C3.182 125.375 3.05 125.133 2.958 124.853C2.866 124.569 2.82 124.259 2.82 123.923C2.82 123.659 2.85 123.413 2.91 123.185C2.966 122.957 3.05 122.749 3.162 122.561L3.162 120.911ZM4.566 113.102C4.566 112.766 4.526 112.47 4.446 112.214C4.362 111.954 4.246 111.738 4.098 111.566C3.946 111.39 3.766 111.258 3.558 111.17C3.35 111.082 3.12 111.038 2.868 111.038C2.356 111.038 1.97 111.206 1.71 111.542C1.45 111.878 1.32 112.382 1.32 113.054L1.32 114.326L4.566 114.326L4.566 113.102ZM9 109.13L9 110.162C9 110.374 8.918 110.53 8.754 110.63L5.682 112.862C5.586 112.93 5.518 113.004 5.478 113.084C5.434 113.16 5.412 113.28 5.412 113.444L5.412 114.326L9 114.326L9 115.484L0.401997 115.484L0.401997 113.054C0.401997 112.51 0.457997 112.04 0.569997 111.644C0.677997 111.248 0.835997 110.922 1.044 110.666C1.252 110.406 1.504 110.214 1.8 110.09C2.092 109.966 2.42 109.904 2.784 109.904C3.088 109.904 3.372 109.952 3.636 110.048C3.9 110.144 4.138 110.284 4.35 110.468C4.558 110.648 4.736 110.87 4.884 111.134C5.032 111.394 5.144 111.69 5.22 112.022C5.304 111.874 5.426 111.746 5.586 111.638L9 109.13ZM6.264 104.512C6.28 105.004 6.32 105.424 6.384 105.772C6.444 106.116 6.524 106.398 6.624 106.618C6.724 106.834 6.842 106.992 6.978 107.092C7.114 107.188 7.266 107.236 7.434 107.236C7.594 107.236 7.732 107.21 7.848 107.158C7.964 107.106 8.06 107.036 8.136 106.948C8.208 106.856 8.262 106.75 8.298 106.63C8.33 106.506 8.346 106.374 8.346 106.234C8.346 106.046 8.328 105.874 8.292 105.718C8.252 105.562 8.196 105.416 8.124 105.28C8.052 105.14 7.966 105.008 7.866 104.884C7.766 104.756 7.652 104.632 7.524 104.512L6.264 104.512ZM3.78 107.962C3.456 107.626 3.214 107.264 3.054 106.876C2.894 106.488 2.814 106.058 2.814 105.586C2.814 105.246 2.87 104.944 2.982 104.68C3.094 104.416 3.25 104.194 3.45 104.014C3.65 103.834 3.892 103.698 4.176 103.606C4.46 103.514 4.772 103.468 5.112 103.468L9 103.468L9 103.942C9 104.046 8.984 104.126 8.952 104.182C8.916 104.238 8.848 104.282 8.748 104.314L8.172 104.434C8.32 104.594 8.452 104.75 8.568 104.902C8.68 105.054 8.776 105.214 8.856 105.382C8.932 105.55 8.99 105.73 9.03 105.922C9.074 106.11 9.096 106.32 9.096 106.552C9.096 106.788 9.064 107.01 9 107.218C8.932 107.426 8.832 107.608 8.7 107.764C8.568 107.916 8.402 108.038 8.202 108.13C7.998 108.218 7.758 108.262 7.482 108.262C7.242 108.262 7.012 108.196 6.792 108.064C6.568 107.932 6.37 107.718 6.198 107.422C6.026 107.126 5.886 106.74 5.778 106.264C5.666 105.788 5.602 105.204 5.586 104.512L5.112 104.512C4.64 104.512 4.284 104.614 4.044 104.818C3.8 105.022 3.678 105.32 3.678 105.712C3.678 105.976 3.712 106.198 3.78 106.378C3.844 106.554 3.918 106.708 4.002 106.84C4.082 106.968 4.156 107.08 4.224 107.176C4.288 107.268 4.32 107.36 4.32 107.452C4.32 107.524 4.302 107.586 4.266 107.638C4.226 107.69 4.178 107.734 4.122 107.77L3.78 107.962ZM9.096 99.5575C9.096 100.038 8.962 100.408 8.694 100.668C8.426 100.924 8.04 101.052 7.536 101.052L3.816 101.052L3.816 101.784C3.816 101.848 3.798 101.902 3.762 101.946C3.722 101.99 3.662 102.012 3.582 102.012L3.156 102.012L3.03 101.016L1.152 100.77C1.092 100.758 1.044 100.732 1.008 100.692C0.967997 100.648 0.947997 100.592 0.947997 100.524L0.947997 99.9835L3.042 99.9835L3.042 98.2255L3.816 98.2255L3.816 99.9835L7.464 99.9835C7.72 99.9835 7.91 99.9215 8.034 99.7975C8.158 99.6735 8.22 99.5135 8.22 99.3175C8.22 99.2055 8.206 99.1095 8.178 99.0295C8.146 98.9455 8.112 98.8735 8.076 98.8135C8.04 98.7535 8.008 98.7035 7.98 98.6635C7.948 98.6195 7.932 98.5815 7.932 98.5495C7.932 98.4935 7.966 98.4435 8.034 98.3995L8.544 98.0875C8.716 98.2715 8.852 98.4935 8.952 98.7535C9.048 99.0135 9.096 99.2815 9.096 99.5575ZM5.298 92.5899C5.05 92.5899 4.824 92.6259 4.62 92.6979C4.412 92.7659 4.234 92.8679 4.086 93.0039C3.934 93.1359 3.818 93.2979 3.738 93.4899C3.654 93.6819 3.612 93.8999 3.612 94.1439C3.612 94.6559 3.762 95.0619 4.062 95.3619C4.358 95.6579 4.77 95.8419 5.298 95.9139L5.298 92.5899ZM8.148 91.7259C8.308 91.8579 8.448 92.0159 8.568 92.1999C8.684 92.3839 8.78 92.5819 8.856 92.7939C8.932 93.0019 8.988 93.2179 9.024 93.4419C9.064 93.6659 9.084 93.8879 9.084 94.1079C9.084 94.5279 9.014 94.9159 8.874 95.2719C8.73 95.6239 8.522 95.9299 8.25 96.1899C7.974 96.4459 7.634 96.6459 7.23 96.7899C6.826 96.9339 6.362 97.0059 5.838 97.0059C5.414 97.0059 5.018 96.9419 4.65 96.8139C4.282 96.6819 3.964 96.4939 3.696 96.2499C3.424 96.0059 3.212 95.7079 3.06 95.3559C2.904 95.0039 2.826 94.6079 2.826 94.1679C2.826 93.8039 2.888 93.4679 3.012 93.1599C3.132 92.8479 3.308 92.5799 3.54 92.3559C3.768 92.1279 4.052 91.9499 4.392 91.8219C4.728 91.6939 5.112 91.6299 5.544 91.6299C5.712 91.6299 5.824 91.6479 5.88 91.6839C5.936 91.7199 5.964 91.7879 5.964 91.8879L5.964 95.9499C6.348 95.9379 6.682 95.8859 6.966 95.7939C7.25 95.6979 7.488 95.5659 7.68 95.3979C7.868 95.2299 8.01 95.0299 8.106 94.7979C8.198 94.5659 8.244 94.3059 8.244 94.0179C8.244 93.7499 8.214 93.5199 8.154 93.3279C8.09 93.1319 8.022 92.9639 7.95 92.8239C7.878 92.6839 7.812 92.5679 7.752 92.4759C7.688 92.3799 7.656 92.2979 7.656 92.2299C7.656 92.1419 7.69 92.0739 7.758 92.0259L8.148 91.7259Z" fill="white"/>
</svg>
