<svg width="315" height="283" viewBox="0 0 315 283" fill="none" xmlns="http://www.w3.org/2000/svg">
<path d="M30.1378 44.45V43.6829L33.0185 40.5295C33.3565 40.1602 33.6349 39.8392 33.8537 39.5664C34.0724 39.2909 34.2344 39.0323 34.3395 38.7909C34.4474 38.5465 34.5014 38.2909 34.5014 38.0238C34.5014 37.717 34.4276 37.4514 34.2798 37.2269C34.1349 37.0025 33.9361 36.8292 33.6832 36.7071C33.4304 36.5849 33.1463 36.5238 32.831 36.5238C32.4957 36.5238 32.2031 36.5934 31.9531 36.7326C31.706 36.869 31.5142 37.0607 31.3778 37.3079C31.2443 37.5551 31.1776 37.8448 31.1776 38.1772H30.1719C30.1719 37.6659 30.2898 37.217 30.5256 36.8306C30.7614 36.4443 31.0824 36.1431 31.4886 35.9272C31.8977 35.7113 32.3565 35.6034 32.8651 35.6034C33.3764 35.6034 33.8295 35.7113 34.2244 35.9272C34.6193 36.1431 34.929 36.4343 35.1534 36.8008C35.3778 37.1673 35.4901 37.575 35.4901 38.0238C35.4901 38.3448 35.4318 38.6588 35.3153 38.9656C35.2017 39.2696 35.0028 39.609 34.7188 39.984C34.4375 40.3562 34.0469 40.8107 33.5469 41.3477L31.5866 43.4443V43.5125H35.6435V44.45H30.1378ZM40.25 44.5693C39.608 44.5693 39.0611 44.3946 38.6094 44.0451C38.1577 43.6928 37.8125 43.1829 37.5739 42.5153C37.3352 41.8448 37.2159 41.0352 37.2159 40.0863C37.2159 39.1431 37.3352 38.3377 37.5739 37.6701C37.8153 36.9997 38.1619 36.4883 38.6136 36.136C39.0682 35.7809 39.6136 35.6034 40.25 35.6034C40.8864 35.6034 41.4304 35.7809 41.8821 36.136C42.3366 36.4883 42.6832 36.9997 42.9219 37.6701C43.1634 38.3377 43.2841 39.1431 43.2841 40.0863C43.2841 41.0352 43.1648 41.8448 42.9261 42.5153C42.6875 43.1829 42.3423 43.6928 41.8906 44.0451C41.4389 44.3946 40.892 44.5693 40.25 44.5693ZM40.25 43.6318C40.8864 43.6318 41.3807 43.325 41.733 42.7113C42.0852 42.0977 42.2614 41.2227 42.2614 40.0863C42.2614 39.3306 42.1804 38.6872 42.0185 38.1559C41.8594 37.6247 41.6293 37.2198 41.3281 36.9414C41.0298 36.663 40.6705 36.5238 40.25 36.5238C39.6193 36.5238 39.1264 36.8349 38.7713 37.4571C38.4162 38.0764 38.2386 38.9528 38.2386 40.0863C38.2386 40.842 38.3182 41.484 38.4773 42.0125C38.6364 42.5409 38.8651 42.9428 39.1634 43.2184C39.4645 43.494 39.8267 43.6318 40.25 43.6318Z" fill="#B8C0CC"/>
<path d="M35.0927 83.6226V92.3499H34.0359V84.7305H33.9847L31.854 86.1453V85.0714L34.0359 83.6226H35.0927ZM40.3299 92.4692C39.8299 92.4692 39.3796 92.3697 38.979 92.1709C38.5785 91.972 38.2575 91.6993 38.016 91.3527C37.7745 91.0061 37.6424 90.6112 37.6197 90.168H38.6424C38.6822 90.5629 38.8612 90.8896 39.1793 91.1481C39.5004 91.4038 39.8839 91.5317 40.3299 91.5317C40.6879 91.5317 41.006 91.4479 41.2844 91.2803C41.5657 91.1126 41.7859 90.8825 41.945 90.5899C42.1069 90.2945 42.1879 89.9606 42.1879 89.5885C42.1879 89.2078 42.104 88.8683 41.9364 88.57C41.7717 88.2689 41.5444 88.0317 41.2546 87.8584C40.9648 87.6851 40.6339 87.597 40.2617 87.5942C39.9947 87.5913 39.7205 87.6325 39.4393 87.7178C39.158 87.8001 38.9265 87.9067 38.7447 88.0374L37.756 87.918L38.2844 83.6226H42.8185V84.5601H39.1708L38.864 87.1339H38.9151C39.0941 86.9919 39.3185 86.874 39.5884 86.7803C39.8583 86.6865 40.1396 86.6396 40.4322 86.6396C40.9663 86.6396 41.4421 86.7675 41.8597 87.0231C42.2802 87.276 42.6097 87.6226 42.8484 88.0629C43.0898 88.5033 43.2106 89.0061 43.2106 89.5714C43.2106 90.1283 43.0856 90.6254 42.8356 91.0629C42.5884 91.4976 42.2475 91.8413 41.8129 92.0942C41.3782 92.3442 40.8839 92.4692 40.3299 92.4692Z" fill="#B8C0CC"/>
<path d="M52 87.8499H315" stroke="#334E68"/>
<path d="M34.8935 131.523V140.25H33.8366V132.631H33.7855L31.6548 134.045V132.972L33.8366 131.523H34.8935ZM40.25 140.369C39.608 140.369 39.0611 140.195 38.6094 139.845C38.1577 139.493 37.8125 138.983 37.5739 138.315C37.3352 137.645 37.2159 136.835 37.2159 135.886C37.2159 134.943 37.3352 134.138 37.5739 133.47C37.8153 132.8 38.1619 132.288 38.6136 131.936C39.0682 131.581 39.6136 131.403 40.25 131.403C40.8864 131.403 41.4304 131.581 41.8821 131.936C42.3366 132.288 42.6832 132.8 42.9219 133.47C43.1634 134.138 43.2841 134.943 43.2841 135.886C43.2841 136.835 43.1648 137.645 42.9261 138.315C42.6875 138.983 42.3423 139.493 41.8906 139.845C41.4389 140.195 40.892 140.369 40.25 140.369ZM40.25 139.432C40.8864 139.432 41.3807 139.125 41.733 138.511C42.0852 137.898 42.2614 137.023 42.2614 135.886C42.2614 135.131 42.1804 134.487 42.0185 133.956C41.8594 133.425 41.6293 133.02 41.3281 132.741C41.0298 132.463 40.6705 132.324 40.25 132.324C39.6193 132.324 39.1264 132.635 38.7713 133.257C38.4162 133.876 38.2386 134.753 38.2386 135.886C38.2386 136.642 38.3182 137.284 38.4773 137.812C38.6364 138.341 38.8651 138.743 39.1634 139.018C39.4645 139.294 39.8267 139.432 40.25 139.432Z" fill="#B8C0CC"/>
<path d="M52 135.75H315" stroke="#334E68"/>
<path d="M40.3299 188.27C39.8299 188.27 39.3796 188.17 38.979 187.971C38.5785 187.773 38.2575 187.5 38.016 187.153C37.7745 186.807 37.6424 186.412 37.6197 185.969H38.6424C38.6822 186.363 38.8612 186.69 39.1793 186.949C39.5004 187.204 39.8839 187.332 40.3299 187.332C40.6879 187.332 41.006 187.248 41.2844 187.081C41.5657 186.913 41.7859 186.683 41.945 186.39C42.1069 186.095 42.1879 185.761 42.1879 185.389C42.1879 185.008 42.104 184.669 41.9364 184.371C41.7717 184.069 41.5444 183.832 41.2546 183.659C40.9648 183.486 40.6339 183.398 40.2617 183.395C39.9947 183.392 39.7205 183.433 39.4393 183.518C39.158 183.601 38.9265 183.707 38.7447 183.838L37.756 183.719L38.2844 179.423H42.8185V180.361H39.1708L38.864 182.934H38.9151C39.0941 182.792 39.3185 182.675 39.5884 182.581C39.8583 182.487 40.1396 182.44 40.4322 182.44C40.9663 182.44 41.4421 182.568 41.8597 182.824C42.2802 183.077 42.6097 183.423 42.8484 183.863C43.0898 184.304 43.2106 184.807 43.2106 185.372C43.2106 185.929 43.0856 186.426 42.8356 186.863C42.5884 187.298 42.2475 187.642 41.8129 187.895C41.3782 188.145 40.8839 188.27 40.3299 188.27Z" fill="#B8C0CC"/>
<path d="M52 183.65H315" stroke="#334E68"/>
<path d="M40.25 229.92C39.608 229.92 39.0611 229.745 38.6094 229.395C38.1577 229.043 37.8125 228.533 37.5739 227.866C37.3352 227.195 37.2159 226.386 37.2159 225.437C37.2159 224.493 37.3352 223.688 37.5739 223.02C37.8153 222.35 38.1619 221.839 38.6136 221.486C39.0682 221.131 39.6136 220.954 40.25 220.954C40.8864 220.954 41.4304 221.131 41.8821 221.486C42.3366 221.839 42.6832 222.35 42.9219 223.02C43.1634 223.688 43.2841 224.493 43.2841 225.437C43.2841 226.386 43.1648 227.195 42.9261 227.866C42.6875 228.533 42.3423 229.043 41.8906 229.395C41.4389 229.745 40.892 229.92 40.25 229.92ZM40.25 228.982C40.8864 228.982 41.3807 228.675 41.733 228.062C42.0852 227.448 42.2614 226.573 42.2614 225.437C42.2614 224.681 42.1804 224.038 42.0185 223.506C41.8594 222.975 41.6293 222.57 41.3281 222.292C41.0298 222.013 40.6705 221.874 40.25 221.874C39.6193 221.874 39.1264 222.185 38.7713 222.807C38.4162 223.427 38.2386 224.303 38.2386 225.437C38.2386 226.192 38.3182 226.834 38.4773 227.363C38.6364 227.891 38.8651 228.293 39.1634 228.569C39.4645 228.844 39.8267 228.982 40.25 228.982Z" fill="#B8C0CC"/>
<rect x="52.5" y="31.5" width="262" height="195" stroke="#334E68"/>
<path d="M100.18 239V230.273H103.231C103.839 230.273 104.34 230.378 104.735 230.588C105.13 230.795 105.424 231.075 105.617 231.428C105.811 231.777 105.907 232.165 105.907 232.591C105.907 232.966 105.84 233.276 105.707 233.52C105.576 233.764 105.403 233.957 105.187 234.099C104.974 234.241 104.742 234.347 104.492 234.415V234.5C104.759 234.517 105.028 234.611 105.298 234.781C105.568 234.952 105.794 235.196 105.975 235.514C106.157 235.832 106.248 236.222 106.248 236.682C106.248 237.119 106.149 237.513 105.95 237.862C105.751 238.212 105.437 238.489 105.008 238.693C104.579 238.898 104.021 239 103.333 239H100.18ZM101.237 238.062H103.333C104.024 238.062 104.514 237.929 104.803 237.662C105.096 237.392 105.242 237.065 105.242 236.682C105.242 236.386 105.167 236.114 105.017 235.864C104.866 235.611 104.651 235.409 104.373 235.259C104.095 235.105 103.765 235.028 103.384 235.028H101.237V238.062ZM101.237 234.108H103.197C103.515 234.108 103.802 234.045 104.058 233.92C104.316 233.795 104.521 233.619 104.671 233.392C104.825 233.165 104.901 232.898 104.901 232.591C104.901 232.207 104.768 231.882 104.501 231.615C104.234 231.345 103.811 231.21 103.231 231.21H101.237V234.108ZM110.593 239.136C109.962 239.136 109.418 238.997 108.96 238.719C108.506 238.438 108.155 238.045 107.908 237.543C107.664 237.037 107.541 236.449 107.541 235.778C107.541 235.108 107.664 234.517 107.908 234.006C108.155 233.491 108.499 233.091 108.939 232.804C109.382 232.514 109.899 232.369 110.49 232.369C110.831 232.369 111.168 232.426 111.5 232.54C111.833 232.653 112.135 232.838 112.408 233.094C112.681 233.347 112.898 233.682 113.06 234.099C113.222 234.517 113.303 235.031 113.303 235.642V236.068H108.257V235.199H112.28C112.28 234.83 112.206 234.5 112.058 234.21C111.914 233.92 111.706 233.692 111.436 233.524C111.169 233.357 110.854 233.273 110.49 233.273C110.09 233.273 109.743 233.372 109.45 233.571C109.161 233.767 108.938 234.023 108.781 234.338C108.625 234.653 108.547 234.991 108.547 235.352V235.932C108.547 236.426 108.632 236.845 108.803 237.189C108.976 237.53 109.216 237.79 109.523 237.969C109.83 238.145 110.186 238.233 110.593 238.233C110.857 238.233 111.095 238.196 111.308 238.122C111.524 238.045 111.71 237.932 111.867 237.781C112.023 237.628 112.144 237.437 112.229 237.21L113.2 237.483C113.098 237.812 112.926 238.102 112.685 238.352C112.443 238.599 112.145 238.793 111.79 238.932C111.435 239.068 111.036 239.136 110.593 239.136ZM117.747 232.455V233.307H114.219V232.455H117.747ZM115.276 239V231.551C115.276 231.176 115.364 230.864 115.54 230.614C115.716 230.364 115.945 230.176 116.226 230.051C116.507 229.926 116.804 229.864 117.117 229.864C117.364 229.864 117.566 229.884 117.722 229.923C117.878 229.963 117.994 230 118.071 230.034L117.781 230.903C117.73 230.886 117.659 230.865 117.568 230.839C117.48 230.814 117.364 230.801 117.219 230.801C116.887 230.801 116.646 230.885 116.499 231.053C116.354 231.22 116.281 231.466 116.281 231.79V239H115.276ZM121.546 239.136C120.955 239.136 120.437 238.996 119.991 238.714C119.548 238.433 119.201 238.04 118.951 237.534C118.704 237.028 118.58 236.437 118.58 235.761C118.58 235.08 118.704 234.484 118.951 233.976C119.201 233.467 119.548 233.072 119.991 232.791C120.437 232.51 120.955 232.369 121.546 232.369C122.137 232.369 122.654 232.51 123.097 232.791C123.544 233.072 123.89 233.467 124.137 233.976C124.387 234.484 124.512 235.08 124.512 235.761C124.512 236.437 124.387 237.028 124.137 237.534C123.89 238.04 123.544 238.433 123.097 238.714C122.654 238.996 122.137 239.136 121.546 239.136ZM121.546 238.233C121.995 238.233 122.365 238.118 122.654 237.888C122.944 237.658 123.159 237.355 123.298 236.98C123.437 236.605 123.507 236.199 123.507 235.761C123.507 235.324 123.437 234.916 123.298 234.538C123.159 234.161 122.944 233.855 122.654 233.622C122.365 233.389 121.995 233.273 121.546 233.273C121.097 233.273 120.728 233.389 120.438 233.622C120.149 233.855 119.934 234.161 119.795 234.538C119.656 234.916 119.586 235.324 119.586 235.761C119.586 236.199 119.656 236.605 119.795 236.98C119.934 237.355 120.149 237.658 120.438 237.888C120.728 238.118 121.097 238.233 121.546 238.233ZM126.047 239V232.455H127.019V233.443H127.087C127.206 233.119 127.422 232.857 127.735 232.655C128.047 232.453 128.4 232.352 128.792 232.352C128.866 232.352 128.958 232.354 129.069 232.357C129.18 232.359 129.263 232.364 129.32 232.369V233.392C129.286 233.384 129.208 233.371 129.086 233.354C128.966 233.334 128.84 233.324 128.706 233.324C128.388 233.324 128.104 233.391 127.854 233.524C127.607 233.655 127.411 233.837 127.266 234.07C127.124 234.3 127.053 234.562 127.053 234.858V239H126.047ZM133.057 239.136C132.427 239.136 131.883 238.997 131.425 238.719C130.971 238.438 130.62 238.045 130.373 237.543C130.128 237.037 130.006 236.449 130.006 235.778C130.006 235.108 130.128 234.517 130.373 234.006C130.62 233.491 130.964 233.091 131.404 232.804C131.847 232.514 132.364 232.369 132.955 232.369C133.296 232.369 133.633 232.426 133.965 232.54C134.297 232.653 134.6 232.838 134.873 233.094C135.145 233.347 135.363 233.682 135.525 234.099C135.687 234.517 135.768 235.031 135.768 235.642V236.068H130.722V235.199H134.745C134.745 234.83 134.671 234.5 134.523 234.21C134.378 233.92 134.171 233.692 133.901 233.524C133.634 233.357 133.319 233.273 132.955 233.273C132.555 233.273 132.208 233.372 131.915 233.571C131.626 233.767 131.403 234.023 131.246 234.338C131.09 234.653 131.012 234.991 131.012 235.352V235.932C131.012 236.426 131.097 236.845 131.268 237.189C131.441 237.53 131.681 237.79 131.988 237.969C132.295 238.145 132.651 238.233 133.057 238.233C133.322 238.233 133.56 238.196 133.773 238.122C133.989 238.045 134.175 237.932 134.331 237.781C134.488 237.628 134.608 237.437 134.694 237.21L135.665 237.483C135.563 237.812 135.391 238.102 135.15 238.352C134.908 238.599 134.61 238.793 134.255 238.932C133.9 239.068 133.501 239.136 133.057 239.136Z" fill="#B8C0CC"/>
<path d="M236.579 239H235.471L238.675 230.273H239.766L242.971 239H241.863L239.255 231.653H239.187L236.579 239ZM236.988 235.591H241.454V236.528H236.988V235.591ZM247.109 232.455V233.307H243.58V232.455H247.109ZM244.637 239V231.551C244.637 231.176 244.725 230.864 244.901 230.614C245.077 230.364 245.306 230.176 245.587 230.051C245.869 229.926 246.165 229.864 246.478 229.864C246.725 229.864 246.927 229.884 247.083 229.923C247.239 229.963 247.356 230 247.433 230.034L247.143 230.903C247.092 230.886 247.021 230.865 246.93 230.839C246.842 230.814 246.725 230.801 246.58 230.801C246.248 230.801 246.008 230.885 245.86 231.053C245.715 231.22 245.643 231.466 245.643 231.79V239H244.637ZM251.365 232.455V233.307H247.973V232.455H251.365ZM248.961 230.886H249.967V237.125C249.967 237.409 250.008 237.622 250.091 237.764C250.176 237.903 250.284 237.997 250.414 238.045C250.548 238.091 250.689 238.114 250.836 238.114C250.947 238.114 251.038 238.108 251.109 238.097C251.18 238.082 251.237 238.071 251.279 238.062L251.484 238.966C251.416 238.991 251.321 239.017 251.199 239.043C251.076 239.071 250.922 239.085 250.734 239.085C250.45 239.085 250.172 239.024 249.899 238.902C249.629 238.78 249.404 238.594 249.225 238.344C249.049 238.094 248.961 237.778 248.961 237.398V230.886ZM255.551 239.136C254.921 239.136 254.377 238.997 253.919 238.719C253.465 238.438 253.114 238.045 252.867 237.543C252.623 237.037 252.5 236.449 252.5 235.778C252.5 235.108 252.623 234.517 252.867 234.006C253.114 233.491 253.458 233.091 253.898 232.804C254.341 232.514 254.858 232.369 255.449 232.369C255.79 232.369 256.127 232.426 256.459 232.54C256.792 232.653 257.094 232.838 257.367 233.094C257.64 233.347 257.857 233.682 258.019 234.099C258.181 234.517 258.262 235.031 258.262 235.642V236.068H253.216V235.199H257.239C257.239 234.83 257.165 234.5 257.017 234.21C256.873 233.92 256.665 233.692 256.395 233.524C256.128 233.357 255.813 233.273 255.449 233.273C255.049 233.273 254.702 233.372 254.409 233.571C254.12 233.767 253.897 234.023 253.74 234.338C253.584 234.653 253.506 234.991 253.506 235.352V235.932C253.506 236.426 253.591 236.845 253.762 237.189C253.935 237.53 254.175 237.79 254.482 237.969C254.789 238.145 255.145 238.233 255.551 238.233C255.816 238.233 256.054 238.196 256.267 238.122C256.483 238.045 256.669 237.932 256.826 237.781C256.982 237.628 257.103 237.437 257.188 237.21L258.159 237.483C258.057 237.812 257.885 238.102 257.644 238.352C257.402 238.599 257.104 238.793 256.749 238.932C256.394 239.068 255.995 239.136 255.551 239.136ZM259.792 239V232.455H260.763V233.443H260.831C260.951 233.119 261.167 232.857 261.479 232.655C261.792 232.453 262.144 232.352 262.536 232.352C262.61 232.352 262.702 232.354 262.813 232.357C262.924 232.359 263.007 232.364 263.064 232.369V233.392C263.03 233.384 262.952 233.371 262.83 233.354C262.711 233.334 262.584 233.324 262.451 233.324C262.132 233.324 261.848 233.391 261.598 233.524C261.351 233.655 261.155 233.837 261.01 234.07C260.868 234.3 260.797 234.562 260.797 234.858V239H259.792Z" fill="#B8C0CC"/>
<rect x="52" y="127" width="132" height="100" rx="1.5" fill="#475569"/>
<rect x="185" y="41" width="130" height="186" rx="1.5" fill="#4006DE" fill-opacity="0.8"/>
<path d="M7.224 168.632C7.224 168.568 7.25 168.512 7.302 168.464L7.8 168.002C8.208 168.354 8.526 168.782 8.754 169.286C8.982 169.786 9.096 170.392 9.096 171.104C9.096 171.72 8.99 172.28 8.778 172.784C8.562 173.288 8.262 173.718 7.878 174.074C7.49 174.43 7.026 174.706 6.486 174.902C5.946 175.098 5.352 175.196 4.704 175.196C4.056 175.196 3.462 175.094 2.922 174.89C2.382 174.686 1.918 174.4 1.53 174.032C1.142 173.66 0.842 173.216 0.629999 172.7C0.413999 172.184 0.305999 171.614 0.305999 170.99C0.305999 170.378 0.403999 169.838 0.599999 169.37C0.795999 168.902 1.062 168.49 1.398 168.134L1.932 168.518C1.972 168.542 2.006 168.574 2.034 168.614C2.058 168.65 2.07 168.7 2.07 168.764C2.07 168.836 2.032 168.924 1.956 169.028C1.876 169.132 1.788 169.268 1.692 169.436C1.596 169.604 1.51 169.814 1.434 170.066C1.354 170.318 1.314 170.628 1.314 170.996C1.314 171.44 1.392 171.846 1.548 172.214C1.7 172.582 1.922 172.9 2.214 173.168C2.506 173.432 2.862 173.638 3.282 173.786C3.702 173.934 4.176 174.008 4.704 174.008C5.24 174.008 5.718 173.932 6.138 173.78C6.558 173.624 6.914 173.414 7.206 173.15C7.494 172.882 7.714 172.568 7.866 172.208C8.018 171.844 8.094 171.452 8.094 171.032C8.094 170.776 8.08 170.546 8.052 170.342C8.02 170.134 7.972 169.944 7.908 169.772C7.844 169.596 7.764 169.434 7.668 169.286C7.568 169.134 7.45 168.984 7.314 168.836C7.254 168.768 7.224 168.7 7.224 168.632ZM2.826 163.959C2.826 163.515 2.9 163.115 3.048 162.759C3.196 162.403 3.406 162.099 3.678 161.847C3.95 161.595 4.28 161.403 4.668 161.271C5.052 161.135 5.482 161.067 5.958 161.067C6.438 161.067 6.87 161.135 7.254 161.271C7.638 161.403 7.966 161.595 8.238 161.847C8.51 162.099 8.72 162.403 8.868 162.759C9.012 163.115 9.084 163.515 9.084 163.959C9.084 164.407 9.012 164.811 8.868 165.171C8.72 165.527 8.51 165.831 8.238 166.083C7.966 166.335 7.638 166.529 7.254 166.665C6.87 166.797 6.438 166.863 5.958 166.863C5.482 166.863 5.052 166.797 4.668 166.665C4.28 166.529 3.95 166.335 3.678 166.083C3.406 165.831 3.196 165.527 3.048 165.171C2.9 164.811 2.826 164.407 2.826 163.959ZM8.25 163.959C8.25 163.359 8.05 162.911 7.65 162.615C7.246 162.319 6.684 162.171 5.964 162.171C5.24 162.171 4.676 162.319 4.272 162.615C3.868 162.911 3.666 163.359 3.666 163.959C3.666 164.263 3.718 164.529 3.822 164.757C3.926 164.981 4.076 165.169 4.272 165.321C4.468 165.469 4.71 165.581 4.998 165.657C5.282 165.729 5.604 165.765 5.964 165.765C6.684 165.765 7.246 165.617 7.65 165.321C8.05 165.021 8.25 164.567 8.25 163.959ZM3.804 158.205C3.656 158.073 3.522 157.933 3.402 157.785C3.282 157.637 3.18 157.481 3.096 157.317C3.008 157.149 2.942 156.973 2.898 156.789C2.85 156.601 2.826 156.399 2.826 156.183C2.826 155.851 2.882 155.559 2.994 155.307C3.102 155.051 3.258 154.839 3.462 154.671C3.662 154.499 3.904 154.369 4.188 154.281C4.472 154.193 4.786 154.149 5.13 154.149L9 154.149L9 155.223L5.13 155.223C4.67 155.223 4.314 155.329 4.062 155.541C3.806 155.749 3.678 156.067 3.678 156.495C3.678 156.811 3.754 157.107 3.906 157.383C4.058 157.655 4.264 157.907 4.524 158.139L9 158.139L9 159.213L2.922 159.213L2.922 158.571C2.922 158.419 2.996 158.325 3.144 158.289L3.804 158.205ZM2.922 146.942L9 149.42L9 150.38L2.922 152.858L2.922 151.988C2.922 151.9 2.944 151.828 2.988 151.772C3.032 151.716 3.084 151.678 3.144 151.658L7.056 150.116C7.204 150.068 7.348 150.026 7.488 149.99C7.628 149.954 7.768 149.92 7.908 149.888C7.768 149.856 7.628 149.822 7.488 149.786C7.348 149.75 7.204 149.706 7.056 149.654L3.144 148.094C3.08 148.07 3.028 148.03 2.988 147.974C2.944 147.918 2.922 147.852 2.922 147.776L2.922 146.942ZM5.298 141.559C5.05 141.559 4.824 141.595 4.62 141.667C4.412 141.735 4.234 141.837 4.086 141.973C3.934 142.105 3.818 142.267 3.738 142.459C3.654 142.651 3.612 142.869 3.612 143.113C3.612 143.625 3.762 144.031 4.062 144.331C4.358 144.627 4.77 144.811 5.298 144.883L5.298 141.559ZM8.148 140.695C8.308 140.827 8.448 140.985 8.568 141.169C8.684 141.353 8.78 141.551 8.856 141.763C8.932 141.971 8.988 142.187 9.024 142.411C9.064 142.635 9.084 142.857 9.084 143.077C9.084 143.497 9.014 143.885 8.874 144.241C8.73 144.593 8.522 144.899 8.25 145.159C7.974 145.415 7.634 145.615 7.23 145.759C6.826 145.903 6.362 145.975 5.838 145.975C5.414 145.975 5.018 145.911 4.65 145.783C4.282 145.651 3.964 145.463 3.696 145.219C3.424 144.975 3.212 144.677 3.06 144.325C2.904 143.973 2.826 143.577 2.826 143.137C2.826 142.773 2.888 142.437 3.012 142.129C3.132 141.817 3.308 141.549 3.54 141.325C3.768 141.097 4.052 140.919 4.392 140.791C4.728 140.663 5.112 140.599 5.544 140.599C5.712 140.599 5.824 140.617 5.88 140.653C5.936 140.689 5.964 140.757 5.964 140.857L5.964 144.919C6.348 144.907 6.682 144.855 6.966 144.763C7.25 144.667 7.488 144.535 7.68 144.367C7.868 144.199 8.01 143.999 8.106 143.767C8.198 143.535 8.244 143.275 8.244 142.987C8.244 142.719 8.214 142.489 8.154 142.297C8.09 142.101 8.022 141.933 7.95 141.793C7.878 141.653 7.812 141.537 7.752 141.445C7.688 141.349 7.656 141.267 7.656 141.199C7.656 141.111 7.69 141.043 7.758 140.995L8.148 140.695ZM4.14 137.773C3.724 137.581 3.4 137.345 3.168 137.065C2.932 136.785 2.814 136.443 2.814 136.039C2.814 135.911 2.828 135.789 2.856 135.673C2.884 135.553 2.928 135.447 2.988 135.355L3.786 135.433C3.886 135.457 3.936 135.517 3.936 135.613C3.936 135.669 3.924 135.751 3.9 135.859C3.876 135.967 3.864 136.089 3.864 136.225C3.864 136.417 3.892 136.589 3.948 136.741C4.004 136.889 4.088 137.023 4.2 137.143C4.308 137.259 4.444 137.365 4.608 137.461C4.768 137.553 4.952 137.637 5.16 137.713L9 137.713L9 138.787L2.922 138.787L2.922 138.175C2.922 138.059 2.944 137.979 2.988 137.935C3.032 137.891 3.108 137.861 3.216 137.845L4.14 137.773ZM3.924 130.411C4.012 130.459 4.056 130.533 4.056 130.633C4.056 130.693 4.034 130.761 3.99 130.837C3.946 130.913 3.898 131.007 3.846 131.119C3.79 131.227 3.74 131.357 3.696 131.509C3.648 131.661 3.624 131.841 3.624 132.049C3.624 132.229 3.648 132.391 3.696 132.535C3.74 132.679 3.802 132.803 3.882 132.907C3.962 133.007 4.056 133.085 4.164 133.141C4.268 133.193 4.382 133.219 4.506 133.219C4.662 133.219 4.792 133.175 4.896 133.087C5 132.995 5.09 132.875 5.166 132.727C5.242 132.579 5.31 132.411 5.37 132.223C5.426 132.035 5.488 131.843 5.556 131.647C5.62 131.447 5.692 131.253 5.772 131.065C5.852 130.877 5.952 130.709 6.072 130.561C6.192 130.413 6.34 130.295 6.516 130.207C6.688 130.115 6.896 130.069 7.14 130.069C7.42 130.069 7.68 130.119 7.92 130.219C8.156 130.319 8.362 130.467 8.538 130.663C8.71 130.859 8.846 131.099 8.946 131.383C9.046 131.667 9.096 131.995 9.096 132.367C9.096 132.791 9.028 133.175 8.892 133.519C8.752 133.863 8.574 134.155 8.358 134.395L7.95 134.143C7.898 134.111 7.858 134.073 7.83 134.029C7.802 133.985 7.788 133.929 7.788 133.861C7.788 133.789 7.816 133.713 7.872 133.633C7.928 133.553 7.99 133.457 8.058 133.345C8.126 133.229 8.188 133.089 8.244 132.925C8.3 132.761 8.328 132.557 8.328 132.313C8.328 132.105 8.302 131.923 8.25 131.767C8.194 131.611 8.12 131.481 8.028 131.377C7.936 131.273 7.83 131.197 7.71 131.149C7.59 131.097 7.462 131.071 7.326 131.071C7.158 131.071 7.02 131.117 6.912 131.209C6.8 131.297 6.706 131.415 6.63 131.563C6.55 131.711 6.482 131.881 6.426 132.073C6.366 132.261 6.304 132.455 6.24 132.655C6.176 132.851 6.104 133.045 6.024 133.237C5.94 133.425 5.836 133.593 5.712 133.741C5.588 133.889 5.436 134.009 5.256 134.101C5.072 134.189 4.85 134.233 4.59 134.233C4.358 134.233 4.136 134.185 3.924 134.089C3.708 133.993 3.52 133.853 3.36 133.669C3.196 133.485 3.066 133.259 2.97 132.991C2.874 132.723 2.826 132.417 2.826 132.073C2.826 131.673 2.89 131.315 3.018 130.999C3.142 130.679 3.314 130.403 3.534 130.171L3.924 130.411ZM2.922 127.131L9 127.131L9 128.199L2.922 128.199L2.922 127.131ZM1.014 126.903C1.118 126.903 1.216 126.925 1.308 126.969C1.396 127.009 1.476 127.065 1.548 127.137C1.616 127.205 1.67 127.287 1.71 127.383C1.75 127.475 1.77 127.573 1.77 127.677C1.77 127.781 1.75 127.879 1.71 127.971C1.67 128.059 1.616 128.137 1.548 128.205C1.476 128.273 1.396 128.327 1.308 128.367C1.216 128.407 1.118 128.427 1.014 128.427C0.909997 128.427 0.811997 128.407 0.719997 128.367C0.623998 128.327 0.541997 128.273 0.473997 128.205C0.401998 128.137 0.345998 128.059 0.305997 127.971C0.265997 127.879 0.245997 127.781 0.245997 127.677C0.245997 127.573 0.265997 127.475 0.305997 127.383C0.345998 127.287 0.401998 127.205 0.473997 127.137C0.541997 127.065 0.623997 127.009 0.719997 126.969C0.811997 126.925 0.909997 126.903 1.014 126.903ZM2.826 122.315C2.826 121.871 2.9 121.471 3.048 121.115C3.196 120.759 3.406 120.455 3.678 120.203C3.95 119.951 4.28 119.759 4.668 119.627C5.052 119.491 5.482 119.423 5.958 119.423C6.438 119.423 6.87 119.491 7.254 119.627C7.638 119.759 7.966 119.951 8.238 120.203C8.51 120.455 8.72 120.759 8.868 121.115C9.012 121.471 9.084 121.871 9.084 122.315C9.084 122.763 9.012 123.167 8.868 123.527C8.72 123.883 8.51 124.187 8.238 124.439C7.966 124.691 7.638 124.885 7.254 125.021C6.87 125.153 6.438 125.219 5.958 125.219C5.482 125.219 5.052 125.153 4.668 125.021C4.28 124.885 3.95 124.691 3.678 124.439C3.406 124.187 3.196 123.883 3.048 123.527C2.9 123.167 2.826 122.763 2.826 122.315ZM8.25 122.315C8.25 121.715 8.05 121.267 7.65 120.971C7.246 120.675 6.684 120.527 5.964 120.527C5.24 120.527 4.676 120.675 4.272 120.971C3.868 121.267 3.666 121.715 3.666 122.315C3.666 122.619 3.718 122.885 3.822 123.113C3.926 123.337 4.076 123.525 4.272 123.677C4.468 123.825 4.71 123.937 4.998 124.013C5.282 124.085 5.604 124.121 5.964 124.121C6.684 124.121 7.246 123.973 7.65 123.677C8.05 123.377 8.25 122.923 8.25 122.315ZM3.804 116.56C3.656 116.428 3.522 116.288 3.402 116.14C3.282 115.992 3.18 115.836 3.096 115.672C3.008 115.504 2.942 115.328 2.898 115.144C2.85 114.956 2.826 114.754 2.826 114.538C2.826 114.206 2.882 113.914 2.994 113.662C3.102 113.406 3.258 113.194 3.462 113.026C3.662 112.854 3.904 112.724 4.188 112.636C4.472 112.548 4.786 112.504 5.13 112.504L9 112.504L9 113.578L5.13 113.578C4.67 113.578 4.314 113.684 4.062 113.896C3.806 114.104 3.678 114.422 3.678 114.85C3.678 115.166 3.754 115.462 3.906 115.738C4.058 116.01 4.264 116.262 4.524 116.494L9 116.494L9 117.568L2.922 117.568L2.922 116.926C2.922 116.774 2.996 116.68 3.144 116.644L3.804 116.56ZM4.566 104.172C4.566 103.836 4.526 103.54 4.446 103.284C4.362 103.024 4.246 102.808 4.098 102.636C3.946 102.46 3.766 102.328 3.558 102.24C3.35 102.152 3.12 102.108 2.868 102.108C2.356 102.108 1.97 102.276 1.71 102.612C1.45 102.948 1.32 103.452 1.32 104.124L1.32 105.396L4.566 105.396L4.566 104.172ZM9 100.2L9 101.232C9 101.444 8.918 101.6 8.754 101.7L5.682 103.932C5.586 104 5.518 104.074 5.478 104.154C5.434 104.23 5.412 104.35 5.412 104.514L5.412 105.396L9 105.396L9 106.554L0.401996 106.554L0.401996 104.124C0.401996 103.58 0.457996 103.11 0.569996 102.714C0.677997 102.318 0.835996 101.992 1.044 101.736C1.252 101.476 1.504 101.284 1.8 101.16C2.092 101.036 2.42 100.974 2.784 100.974C3.088 100.974 3.372 101.022 3.636 101.118C3.9 101.214 4.138 101.354 4.35 101.538C4.558 101.718 4.736 101.94 4.884 102.204C5.032 102.464 5.144 102.76 5.22 103.092C5.304 102.944 5.426 102.816 5.586 102.708L9 100.2ZM6.264 95.5827C6.28 96.0747 6.32 96.4947 6.384 96.8427C6.444 97.1867 6.524 97.4687 6.624 97.6887C6.724 97.9047 6.842 98.0627 6.978 98.1627C7.114 98.2587 7.266 98.3067 7.434 98.3067C7.594 98.3067 7.732 98.2807 7.848 98.2287C7.964 98.1767 8.06 98.1067 8.136 98.0187C8.208 97.9267 8.262 97.8207 8.298 97.7007C8.33 97.5767 8.346 97.4447 8.346 97.3047C8.346 97.1167 8.328 96.9447 8.292 96.7887C8.252 96.6327 8.196 96.4867 8.124 96.3507C8.052 96.2107 7.966 96.0787 7.866 95.9547C7.766 95.8267 7.652 95.7027 7.524 95.5827L6.264 95.5827ZM3.78 99.0327C3.456 98.6967 3.214 98.3347 3.054 97.9467C2.894 97.5587 2.814 97.1287 2.814 96.6567C2.814 96.3167 2.87 96.0147 2.982 95.7507C3.094 95.4867 3.25 95.2647 3.45 95.0847C3.65 94.9047 3.892 94.7687 4.176 94.6767C4.46 94.5847 4.772 94.5387 5.112 94.5387L9 94.5387L9 95.0127C9 95.1167 8.984 95.1967 8.952 95.2527C8.916 95.3087 8.848 95.3527 8.748 95.3847L8.172 95.5047C8.32 95.6647 8.452 95.8207 8.568 95.9727C8.68 96.1247 8.776 96.2847 8.856 96.4527C8.932 96.6207 8.99 96.8007 9.03 96.9927C9.074 97.1807 9.096 97.3907 9.096 97.6227C9.096 97.8587 9.064 98.0807 9 98.2887C8.932 98.4967 8.832 98.6787 8.7 98.8347C8.568 98.9867 8.402 99.1087 8.202 99.2007C7.998 99.2887 7.758 99.3327 7.482 99.3327C7.242 99.3327 7.012 99.2667 6.792 99.1347C6.568 99.0027 6.37 98.7887 6.198 98.4927C6.026 98.1967 5.886 97.8107 5.778 97.3347C5.666 96.8587 5.602 96.2747 5.586 95.5827L5.112 95.5827C4.64 95.5827 4.284 95.6847 4.044 95.8887C3.8 96.0927 3.678 96.3907 3.678 96.7827C3.678 97.0467 3.712 97.2687 3.78 97.4487C3.844 97.6247 3.918 97.7787 4.002 97.9107C4.082 98.0387 4.156 98.1507 4.224 98.2467C4.288 98.3387 4.32 98.4307 4.32 98.5227C4.32 98.5947 4.302 98.6567 4.266 98.7087C4.226 98.7607 4.178 98.8047 4.122 98.8407L3.78 99.0327ZM9.096 90.6278C9.096 91.1078 8.962 91.4778 8.694 91.7378C8.426 91.9938 8.04 92.1218 7.536 92.1218L3.816 92.1218L3.816 92.8538C3.816 92.9178 3.798 92.9718 3.762 93.0158C3.722 93.0598 3.662 93.0818 3.582 93.0818L3.156 93.0818L3.03 92.0858L1.152 91.8398C1.092 91.8278 1.044 91.8018 1.008 91.7618C0.967996 91.7178 0.947996 91.6618 0.947996 91.5938L0.947996 91.0538L3.042 91.0538L3.042 89.2958L3.816 89.2958L3.816 91.0538L7.464 91.0538C7.72 91.0538 7.91 90.9918 8.034 90.8678C8.158 90.7438 8.22 90.5838 8.22 90.3878C8.22 90.2758 8.206 90.1798 8.178 90.0998C8.146 90.0158 8.112 89.9438 8.076 89.8838C8.04 89.8238 8.008 89.7738 7.98 89.7338C7.948 89.6898 7.932 89.6518 7.932 89.6198C7.932 89.5638 7.966 89.5138 8.034 89.4698L8.544 89.1578C8.716 89.3418 8.852 89.5638 8.952 89.8238C9.048 90.0838 9.096 90.3518 9.096 90.6278ZM5.298 83.6602C5.05 83.6602 4.824 83.6962 4.62 83.7682C4.412 83.8362 4.234 83.9382 4.086 84.0742C3.934 84.2062 3.818 84.3682 3.738 84.5602C3.654 84.7522 3.612 84.9702 3.612 85.2142C3.612 85.7262 3.762 86.1322 4.062 86.4322C4.358 86.7282 4.77 86.9122 5.298 86.9842L5.298 83.6602ZM8.148 82.7962C8.308 82.9282 8.448 83.0862 8.568 83.2702C8.684 83.4542 8.78 83.6522 8.856 83.8642C8.932 84.0722 8.988 84.2882 9.024 84.5122C9.064 84.7362 9.084 84.9582 9.084 85.1782C9.084 85.5982 9.014 85.9862 8.874 86.3422C8.73 86.6942 8.522 87.0002 8.25 87.2602C7.974 87.5162 7.634 87.7162 7.23 87.8602C6.826 88.0042 6.362 88.0762 5.838 88.0762C5.414 88.0762 5.018 88.0122 4.65 87.8842C4.282 87.7522 3.964 87.5642 3.696 87.3202C3.424 87.0762 3.212 86.7782 3.06 86.4262C2.904 86.0742 2.826 85.6782 2.826 85.2382C2.826 84.8742 2.888 84.5382 3.012 84.2302C3.132 83.9182 3.308 83.6502 3.54 83.4262C3.768 83.1982 4.052 83.0202 4.392 82.8922C4.728 82.7642 5.112 82.7002 5.544 82.7002C5.712 82.7002 5.824 82.7182 5.88 82.7542C5.936 82.7902 5.964 82.8582 5.964 82.9582L5.964 87.0202C6.348 87.0082 6.682 86.9562 6.966 86.8642C7.25 86.7682 7.488 86.6362 7.68 86.4682C7.868 86.3002 8.01 86.1002 8.106 85.8682C8.198 85.6362 8.244 85.3762 8.244 85.0882C8.244 84.8202 8.214 84.5902 8.154 84.3982C8.09 84.2022 8.022 84.0342 7.95 83.8942C7.878 83.7542 7.812 83.6382 7.752 83.5462C7.688 83.4502 7.656 83.3682 7.656 83.3002C7.656 83.2122 7.69 83.1442 7.758 83.0962L8.148 82.7962Z" fill="white"/>
</svg>
