<svg width="276" height="321" viewBox="0 0 276 321" fill="none" xmlns="http://www.w3.org/2000/svg">
<g opacity="0.2">
<path d="M-28.5 31.5C-34.299 31.5 -39 36.201 -39 42C-39 47.799 -34.299 52.5 -28.5 52.5H-9.10041C-6.72182 52.5 -4.64046 54.0991 -4.02763 56.3973L31.7807 190.678C9.18493 196.539 -7.5 217.071 -7.5 241.5C-7.5 247.299 -2.79898 252 3 252H223.5C229.299 252 234 247.299 234 241.5C234 235.701 229.299 231 223.5 231H15.2924C19.6167 218.765 31.2847 210 45 210H202.056C206.071 210 209.735 207.71 211.495 204.1C227.387 171.486 241.256 137.704 252.938 102.918C253.867 100.15 253.602 97.1203 252.207 94.5559C250.811 91.9915 248.411 90.124 245.582 89.4016C178.077 72.1619 107.351 63 34.5 63C29.4904 63 24.4908 63.0433 19.5015 63.1296L16.2633 50.9863C13.199 39.4952 2.7921 31.5 -9.10041 31.5H-28.5Z" fill="white"/>
<path d="M-7.5 283.5C-7.5 271.902 1.90202 262.5 13.5 262.5C25.098 262.5 34.5 271.902 34.5 283.5C34.5 295.098 25.098 304.5 13.5 304.5C1.90202 304.5 -7.5 295.098 -7.5 283.5Z" fill="white"/>
<path d="M171 283.5C171 271.902 180.402 262.5 192 262.5C203.598 262.5 213 271.902 213 283.5C213 295.098 203.598 304.5 192 304.5C180.402 304.5 171 295.098 171 283.5Z" fill="white"/>
</g>
</svg>
