<svg width="329" height="283" viewBox="0 0 329 283" fill="none" xmlns="http://www.w3.org/2000/svg">
<path d="M33.6989 42.6602V41.7909L37.5341 35.7227H38.1648V37.0693H37.7386L34.8409 41.6545V41.7227H40.0057V42.6602H33.6989ZM37.8068 44.45V42.396V41.9911V35.7227H38.8125V44.45H37.8068ZM44.3299 44.5693C43.8299 44.5693 43.3796 44.4698 42.979 44.271C42.5785 44.0721 42.2575 43.7994 42.016 43.4528C41.7745 43.1062 41.6424 42.7113 41.6197 42.2681H42.6424C42.6822 42.663 42.8612 42.9897 43.1793 43.2482C43.5004 43.5039 43.8839 43.6318 44.3299 43.6318C44.6879 43.6318 45.006 43.548 45.2844 43.3803C45.5657 43.2127 45.7859 42.9826 45.945 42.69C46.1069 42.3946 46.1879 42.0607 46.1879 41.6886C46.1879 41.3079 46.104 40.9684 45.9364 40.6701C45.7717 40.369 45.5444 40.1318 45.2546 39.9585C44.9648 39.7852 44.6339 39.6971 44.2617 39.6943C43.9947 39.6914 43.7205 39.7326 43.4393 39.8178C43.158 39.9002 42.9265 40.0068 42.7447 40.1375L41.756 40.0181L42.2844 35.7227H46.8185V36.6602H43.1708L42.864 39.234H42.9151C43.0941 39.092 43.3185 38.9741 43.5884 38.8803C43.8583 38.7866 44.1396 38.7397 44.4322 38.7397C44.9663 38.7397 45.4421 38.8676 45.8597 39.1232C46.2802 39.3761 46.6097 39.7227 46.8484 40.163C47.0898 40.6034 47.2106 41.1062 47.2106 41.6715C47.2106 42.2284 47.0856 42.7255 46.8356 43.163C46.5884 43.5977 46.2475 43.9414 45.8129 44.1943C45.3782 44.4443 44.8839 44.5693 44.3299 44.5693ZM51.75 44.5693C51.108 44.5693 50.5611 44.3946 50.1094 44.0451C49.6577 43.6928 49.3125 43.1829 49.0739 42.5153C48.8352 41.8448 48.7159 41.0352 48.7159 40.0863C48.7159 39.1431 48.8352 38.3377 49.0739 37.6701C49.3153 36.9997 49.6619 36.4883 50.1136 36.136C50.5682 35.7809 51.1136 35.6034 51.75 35.6034C52.3864 35.6034 52.9304 35.7809 53.3821 36.136C53.8366 36.4883 54.1832 36.9997 54.4219 37.6701C54.6634 38.3377 54.7841 39.1431 54.7841 40.0863C54.7841 41.0352 54.6648 41.8448 54.4261 42.5153C54.1875 43.1829 53.8423 43.6928 53.3906 44.0451C52.9389 44.3946 52.392 44.5693 51.75 44.5693ZM51.75 43.6318C52.3864 43.6318 52.8807 43.325 53.233 42.7113C53.5852 42.0977 53.7614 41.2227 53.7614 40.0863C53.7614 39.3306 53.6804 38.6872 53.5185 38.1559C53.3594 37.6247 53.1293 37.2198 52.8281 36.9414C52.5298 36.663 52.1705 36.5238 51.75 36.5238C51.1193 36.5238 50.6264 36.8349 50.2713 37.4571C49.9162 38.0764 49.7386 38.9528 49.7386 40.0863C49.7386 40.842 49.8182 41.484 49.9773 42.0125C50.1364 42.5409 50.3651 42.9428 50.6634 43.2184C50.9645 43.494 51.3267 43.6318 51.75 43.6318ZM59.25 44.5693C58.608 44.5693 58.0611 44.3946 57.6094 44.0451C57.1577 43.6928 56.8125 43.1829 56.5739 42.5153C56.3352 41.8448 56.2159 41.0352 56.2159 40.0863C56.2159 39.1431 56.3352 38.3377 56.5739 37.6701C56.8153 36.9997 57.1619 36.4883 57.6136 36.136C58.0682 35.7809 58.6136 35.6034 59.25 35.6034C59.8864 35.6034 60.4304 35.7809 60.8821 36.136C61.3366 36.4883 61.6832 36.9997 61.9219 37.6701C62.1634 38.3377 62.2841 39.1431 62.2841 40.0863C62.2841 41.0352 62.1648 41.8448 61.9261 42.5153C61.6875 43.1829 61.3423 43.6928 60.8906 44.0451C60.4389 44.3946 59.892 44.5693 59.25 44.5693ZM59.25 43.6318C59.8864 43.6318 60.3807 43.325 60.733 42.7113C61.0852 42.0977 61.2614 41.2227 61.2614 40.0863C61.2614 39.3306 61.1804 38.6872 61.0185 38.1559C60.8594 37.6247 60.6293 37.2198 60.3281 36.9414C60.0298 36.663 59.6705 36.5238 59.25 36.5238C58.6193 36.5238 58.1264 36.8349 57.7713 37.4571C57.4162 38.0764 57.2386 38.9528 57.2386 40.0863C57.2386 40.842 57.3182 41.484 57.4773 42.0125C57.6364 42.5409 57.8651 42.9428 58.1634 43.2184C58.4645 43.494 58.8267 43.6318 59.25 43.6318Z" fill="#B8C0CC"/>
<path d="M71 39.95H305" stroke="#334E68"/>
<path d="M36.7116 92.4692C36.1491 92.4692 35.6477 92.3726 35.2074 92.1794C34.7699 91.9862 34.4219 91.7178 34.1634 91.374C33.9077 91.0274 33.7685 90.6254 33.7457 90.168H34.8196C34.8423 90.4493 34.9389 90.6922 35.1094 90.8967C35.2798 91.0984 35.5028 91.2547 35.7784 91.3655C36.054 91.4763 36.3594 91.5317 36.6946 91.5317C37.0696 91.5317 37.402 91.4663 37.6918 91.3356C37.9815 91.205 38.2088 91.0231 38.3736 90.7902C38.5384 90.5572 38.6207 90.2874 38.6207 89.9805C38.6207 89.6595 38.5412 89.3768 38.3821 89.1325C38.223 88.8854 37.9901 88.6922 37.6832 88.553C37.3764 88.4138 37.0014 88.3442 36.5582 88.3442H35.8594V87.4067H36.5582C36.9048 87.4067 37.2088 87.3442 37.4702 87.2192C37.7344 87.0942 37.9403 86.918 38.0881 86.6908C38.2386 86.4635 38.3139 86.1964 38.3139 85.8896C38.3139 85.5942 38.2486 85.3371 38.1179 85.1183C37.9872 84.8996 37.8026 84.7291 37.5639 84.607C37.3281 84.4848 37.0497 84.4237 36.7287 84.4237C36.4276 84.4237 36.1435 84.4791 35.8764 84.5899C35.6122 84.6979 35.3963 84.8555 35.2287 85.0629C35.0611 85.2675 34.9702 85.5146 34.956 85.8044H33.9332C33.9503 85.347 34.0881 84.9464 34.3466 84.6027C34.6051 84.2561 34.9432 83.9862 35.3608 83.793C35.7813 83.5999 36.2429 83.5033 36.7457 83.5033C37.2855 83.5033 37.7486 83.6126 38.1349 83.8314C38.5213 84.0473 38.8182 84.3328 39.0256 84.6879C39.233 85.043 39.3366 85.4266 39.3366 85.8385C39.3366 86.33 39.2074 86.749 38.9489 87.0956C38.6932 87.4422 38.3452 87.6822 37.9048 87.8158V87.8839C38.456 87.9749 38.8864 88.2092 39.196 88.5871C39.5057 88.9621 39.6605 89.4266 39.6605 89.9805C39.6605 90.455 39.5313 90.8811 39.2727 91.2589C39.017 91.6339 38.6676 91.9294 38.2244 92.1453C37.7813 92.3612 37.277 92.4692 36.7116 92.4692ZM44.25 92.4692C43.608 92.4692 43.0611 92.2945 42.6094 91.945C42.1577 91.5928 41.8125 91.0828 41.5739 90.4152C41.3352 89.7447 41.2159 88.9351 41.2159 87.9862C41.2159 87.043 41.3352 86.2376 41.5739 85.57C41.8153 84.8996 42.1619 84.3882 42.6136 84.0359C43.0682 83.6808 43.6136 83.5033 44.25 83.5033C44.8864 83.5033 45.4304 83.6808 45.8821 84.0359C46.3366 84.3882 46.6832 84.8996 46.9219 85.57C47.1634 86.2376 47.2841 87.043 47.2841 87.9862C47.2841 88.9351 47.1648 89.7447 46.9261 90.4152C46.6875 91.0828 46.3423 91.5928 45.8906 91.945C45.4389 92.2945 44.892 92.4692 44.25 92.4692ZM44.25 91.5317C44.8864 91.5317 45.3807 91.2249 45.733 90.6112C46.0852 89.9976 46.2614 89.1226 46.2614 87.9862C46.2614 87.2305 46.1804 86.5871 46.0185 86.0558C45.8594 85.5246 45.6293 85.1197 45.3281 84.8413C45.0298 84.5629 44.6705 84.4237 44.25 84.4237C43.6193 84.4237 43.1264 84.7348 42.7713 85.357C42.4162 85.9763 42.2386 86.8527 42.2386 87.9862C42.2386 88.7419 42.3182 89.3839 42.4773 89.9124C42.6364 90.4408 42.8651 90.8428 43.1634 91.1183C43.4645 91.3939 43.8267 91.5317 44.25 91.5317ZM51.75 92.4692C51.108 92.4692 50.5611 92.2945 50.1094 91.945C49.6577 91.5928 49.3125 91.0828 49.0739 90.4152C48.8352 89.7447 48.7159 88.9351 48.7159 87.9862C48.7159 87.043 48.8352 86.2376 49.0739 85.57C49.3153 84.8996 49.6619 84.3882 50.1136 84.0359C50.5682 83.6808 51.1136 83.5033 51.75 83.5033C52.3864 83.5033 52.9304 83.6808 53.3821 84.0359C53.8366 84.3882 54.1832 84.8996 54.4219 85.57C54.6634 86.2376 54.7841 87.043 54.7841 87.9862C54.7841 88.9351 54.6648 89.7447 54.4261 90.4152C54.1875 91.0828 53.8423 91.5928 53.3906 91.945C52.9389 92.2945 52.392 92.4692 51.75 92.4692ZM51.75 91.5317C52.3864 91.5317 52.8807 91.2249 53.233 90.6112C53.5852 89.9976 53.7614 89.1226 53.7614 87.9862C53.7614 87.2305 53.6804 86.5871 53.5185 86.0558C53.3594 85.5246 53.1293 85.1197 52.8281 84.8413C52.5298 84.5629 52.1705 84.4237 51.75 84.4237C51.1193 84.4237 50.6264 84.7348 50.2713 85.357C49.9162 85.9763 49.7386 86.8527 49.7386 87.9862C49.7386 88.7419 49.8182 89.3839 49.9773 89.9124C50.1364 90.4408 50.3651 90.8428 50.6634 91.1183C50.9645 91.3939 51.3267 91.5317 51.75 91.5317ZM59.25 92.4692C58.608 92.4692 58.0611 92.2945 57.6094 91.945C57.1577 91.5928 56.8125 91.0828 56.5739 90.4152C56.3352 89.7447 56.2159 88.9351 56.2159 87.9862C56.2159 87.043 56.3352 86.2376 56.5739 85.57C56.8153 84.8996 57.1619 84.3882 57.6136 84.0359C58.0682 83.6808 58.6136 83.5033 59.25 83.5033C59.8864 83.5033 60.4304 83.6808 60.8821 84.0359C61.3366 84.3882 61.6832 84.8996 61.9219 85.57C62.1634 86.2376 62.2841 87.043 62.2841 87.9862C62.2841 88.9351 62.1648 89.7447 61.9261 90.4152C61.6875 91.0828 61.3423 91.5928 60.8906 91.945C60.4389 92.2945 59.892 92.4692 59.25 92.4692ZM59.25 91.5317C59.8864 91.5317 60.3807 91.2249 60.733 90.6112C61.0852 89.9976 61.2614 89.1226 61.2614 87.9862C61.2614 87.2305 61.1804 86.5871 61.0185 86.0558C60.8594 85.5246 60.6293 85.1197 60.3281 84.8413C60.0298 84.5629 59.6705 84.4237 59.25 84.4237C58.6193 84.4237 58.1264 84.7348 57.7713 85.357C57.4162 85.9763 57.2386 86.8527 57.2386 87.9862C57.2386 88.7419 57.3182 89.3839 57.4773 89.9124C57.6364 90.4408 57.8651 90.8428 58.1634 91.1183C58.4645 91.3939 58.8267 91.5317 59.25 91.5317Z" fill="#B8C0CC"/>
<path d="M71 87.8499H305" stroke="#334E68"/>
<path d="M34.1378 140.25V139.483L37.0185 136.33C37.3565 135.96 37.6349 135.639 37.8537 135.366C38.0724 135.091 38.2344 134.832 38.3395 134.591C38.4474 134.347 38.5014 134.091 38.5014 133.824C38.5014 133.517 38.4276 133.251 38.2798 133.027C38.1349 132.803 37.9361 132.629 37.6832 132.507C37.4304 132.385 37.1463 132.324 36.831 132.324C36.4957 132.324 36.2031 132.393 35.9531 132.533C35.706 132.669 35.5142 132.861 35.3778 133.108C35.2443 133.355 35.1776 133.645 35.1776 133.977H34.1719C34.1719 133.466 34.2898 133.017 34.5256 132.631C34.7614 132.244 35.0824 131.943 35.4886 131.727C35.8977 131.511 36.3565 131.403 36.8651 131.403C37.3764 131.403 37.8295 131.511 38.2244 131.727C38.6193 131.943 38.929 132.234 39.1534 132.601C39.3778 132.967 39.4901 133.375 39.4901 133.824C39.4901 134.145 39.4318 134.459 39.3153 134.766C39.2017 135.07 39.0028 135.409 38.7188 135.784C38.4375 136.156 38.0469 136.611 37.5469 137.148L35.5866 139.244V139.312H39.6435V140.25H34.1378ZM44.25 140.369C43.608 140.369 43.0611 140.195 42.6094 139.845C42.1577 139.493 41.8125 138.983 41.5739 138.315C41.3352 137.645 41.2159 136.835 41.2159 135.886C41.2159 134.943 41.3352 134.138 41.5739 133.47C41.8153 132.8 42.1619 132.288 42.6136 131.936C43.0682 131.581 43.6136 131.403 44.25 131.403C44.8864 131.403 45.4304 131.581 45.8821 131.936C46.3366 132.288 46.6832 132.8 46.9219 133.47C47.1634 134.138 47.2841 134.943 47.2841 135.886C47.2841 136.835 47.1648 137.645 46.9261 138.315C46.6875 138.983 46.3423 139.493 45.8906 139.845C45.4389 140.195 44.892 140.369 44.25 140.369ZM44.25 139.432C44.8864 139.432 45.3807 139.125 45.733 138.511C46.0852 137.898 46.2614 137.023 46.2614 135.886C46.2614 135.131 46.1804 134.487 46.0185 133.956C45.8594 133.425 45.6293 133.02 45.3281 132.741C45.0298 132.463 44.6705 132.324 44.25 132.324C43.6193 132.324 43.1264 132.635 42.7713 133.257C42.4162 133.876 42.2386 134.753 42.2386 135.886C42.2386 136.642 42.3182 137.284 42.4773 137.812C42.6364 138.341 42.8651 138.743 43.1634 139.018C43.4645 139.294 43.8267 139.432 44.25 139.432ZM51.75 140.369C51.108 140.369 50.5611 140.195 50.1094 139.845C49.6577 139.493 49.3125 138.983 49.0739 138.315C48.8352 137.645 48.7159 136.835 48.7159 135.886C48.7159 134.943 48.8352 134.138 49.0739 133.47C49.3153 132.8 49.6619 132.288 50.1136 131.936C50.5682 131.581 51.1136 131.403 51.75 131.403C52.3864 131.403 52.9304 131.581 53.3821 131.936C53.8366 132.288 54.1832 132.8 54.4219 133.47C54.6634 134.138 54.7841 134.943 54.7841 135.886C54.7841 136.835 54.6648 137.645 54.4261 138.315C54.1875 138.983 53.8423 139.493 53.3906 139.845C52.9389 140.195 52.392 140.369 51.75 140.369ZM51.75 139.432C52.3864 139.432 52.8807 139.125 53.233 138.511C53.5852 137.898 53.7614 137.023 53.7614 135.886C53.7614 135.131 53.6804 134.487 53.5185 133.956C53.3594 133.425 53.1293 133.02 52.8281 132.741C52.5298 132.463 52.1705 132.324 51.75 132.324C51.1193 132.324 50.6264 132.635 50.2713 133.257C49.9162 133.876 49.7386 134.753 49.7386 135.886C49.7386 136.642 49.8182 137.284 49.9773 137.812C50.1364 138.341 50.3651 138.743 50.6634 139.018C50.9645 139.294 51.3267 139.432 51.75 139.432ZM59.25 140.369C58.608 140.369 58.0611 140.195 57.6094 139.845C57.1577 139.493 56.8125 138.983 56.5739 138.315C56.3352 137.645 56.2159 136.835 56.2159 135.886C56.2159 134.943 56.3352 134.138 56.5739 133.47C56.8153 132.8 57.1619 132.288 57.6136 131.936C58.0682 131.581 58.6136 131.403 59.25 131.403C59.8864 131.403 60.4304 131.581 60.8821 131.936C61.3366 132.288 61.6832 132.8 61.9219 133.47C62.1634 134.138 62.2841 134.943 62.2841 135.886C62.2841 136.835 62.1648 137.645 61.9261 138.315C61.6875 138.983 61.3423 139.493 60.8906 139.845C60.4389 140.195 59.892 140.369 59.25 140.369ZM59.25 139.432C59.8864 139.432 60.3807 139.125 60.733 138.511C61.0852 137.898 61.2614 137.023 61.2614 135.886C61.2614 135.131 61.1804 134.487 61.0185 133.956C60.8594 133.425 60.6293 133.02 60.3281 132.741C60.0298 132.463 59.6705 132.324 59.25 132.324C58.6193 132.324 58.1264 132.635 57.7713 133.257C57.4162 133.876 57.2386 134.753 57.2386 135.886C57.2386 136.642 57.3182 137.284 57.4773 137.812C57.6364 138.341 57.8651 138.743 58.1634 139.018C58.4645 139.294 58.8267 139.432 59.25 139.432Z" fill="#B8C0CC"/>
<path d="M71 135.75H305" stroke="#334E68"/>
<path d="M38.8935 179.423V188.15H37.8366V180.531H37.7855L35.6548 181.945V180.871L37.8366 179.423H38.8935ZM44.25 188.269C43.608 188.269 43.0611 188.095 42.6094 187.745C42.1577 187.393 41.8125 186.883 41.5739 186.215C41.3352 185.545 41.2159 184.735 41.2159 183.786C41.2159 182.843 41.3352 182.038 41.5739 181.37C41.8153 180.7 42.1619 180.188 42.6136 179.836C43.0682 179.481 43.6136 179.303 44.25 179.303C44.8864 179.303 45.4304 179.481 45.8821 179.836C46.3366 180.188 46.6832 180.7 46.9219 181.37C47.1634 182.038 47.2841 182.843 47.2841 183.786C47.2841 184.735 47.1648 185.545 46.9261 186.215C46.6875 186.883 46.3423 187.393 45.8906 187.745C45.4389 188.095 44.892 188.269 44.25 188.269ZM44.25 187.332C44.8864 187.332 45.3807 187.025 45.733 186.411C46.0852 185.798 46.2614 184.923 46.2614 183.786C46.2614 183.031 46.1804 182.387 46.0185 181.856C45.8594 181.325 45.6293 180.92 45.3281 180.641C45.0298 180.363 44.6705 180.224 44.25 180.224C43.6193 180.224 43.1264 180.535 42.7713 181.157C42.4162 181.776 42.2386 182.653 42.2386 183.786C42.2386 184.542 42.3182 185.184 42.4773 185.712C42.6364 186.241 42.8651 186.643 43.1634 186.918C43.4645 187.194 43.8267 187.332 44.25 187.332ZM51.75 188.269C51.108 188.269 50.5611 188.095 50.1094 187.745C49.6577 187.393 49.3125 186.883 49.0739 186.215C48.8352 185.545 48.7159 184.735 48.7159 183.786C48.7159 182.843 48.8352 182.038 49.0739 181.37C49.3153 180.7 49.6619 180.188 50.1136 179.836C50.5682 179.481 51.1136 179.303 51.75 179.303C52.3864 179.303 52.9304 179.481 53.3821 179.836C53.8366 180.188 54.1832 180.7 54.4219 181.37C54.6634 182.038 54.7841 182.843 54.7841 183.786C54.7841 184.735 54.6648 185.545 54.4261 186.215C54.1875 186.883 53.8423 187.393 53.3906 187.745C52.9389 188.095 52.392 188.269 51.75 188.269ZM51.75 187.332C52.3864 187.332 52.8807 187.025 53.233 186.411C53.5852 185.798 53.7614 184.923 53.7614 183.786C53.7614 183.031 53.6804 182.387 53.5185 181.856C53.3594 181.325 53.1293 180.92 52.8281 180.641C52.5298 180.363 52.1705 180.224 51.75 180.224C51.1193 180.224 50.6264 180.535 50.2713 181.157C49.9162 181.776 49.7386 182.653 49.7386 183.786C49.7386 184.542 49.8182 185.184 49.9773 185.712C50.1364 186.241 50.3651 186.643 50.6634 186.918C50.9645 187.194 51.3267 187.332 51.75 187.332ZM59.25 188.269C58.608 188.269 58.0611 188.095 57.6094 187.745C57.1577 187.393 56.8125 186.883 56.5739 186.215C56.3352 185.545 56.2159 184.735 56.2159 183.786C56.2159 182.843 56.3352 182.038 56.5739 181.37C56.8153 180.7 57.1619 180.188 57.6136 179.836C58.0682 179.481 58.6136 179.303 59.25 179.303C59.8864 179.303 60.4304 179.481 60.8821 179.836C61.3366 180.188 61.6832 180.7 61.9219 181.37C62.1634 182.038 62.2841 182.843 62.2841 183.786C62.2841 184.735 62.1648 185.545 61.9261 186.215C61.6875 186.883 61.3423 187.393 60.8906 187.745C60.4389 188.095 59.892 188.269 59.25 188.269ZM59.25 187.332C59.8864 187.332 60.3807 187.025 60.733 186.411C61.0852 185.798 61.2614 184.923 61.2614 183.786C61.2614 183.031 61.1804 182.387 61.0185 181.856C60.8594 181.325 60.6293 180.92 60.3281 180.641C60.0298 180.363 59.6705 180.224 59.25 180.224C58.6193 180.224 58.1264 180.535 57.7713 181.157C57.4162 181.776 57.2386 182.653 57.2386 183.786C57.2386 184.542 57.3182 185.184 57.4773 185.712C57.6364 186.241 57.8651 186.643 58.1634 186.918C58.4645 187.194 58.8267 187.332 59.25 187.332Z" fill="#B8C0CC"/>
<path d="M71 183.65H305" stroke="#334E68"/>
<path d="M59.25 229.919C58.608 229.919 58.0611 229.745 57.6094 229.395C57.1577 229.043 56.8125 228.533 56.5739 227.865C56.3352 227.195 56.2159 226.385 56.2159 225.436C56.2159 224.493 56.3352 223.688 56.5739 223.02C56.8153 222.35 57.1619 221.838 57.6136 221.486C58.0682 221.131 58.6136 220.953 59.25 220.953C59.8864 220.953 60.4304 221.131 60.8821 221.486C61.3366 221.838 61.6832 222.35 61.9219 223.02C62.1634 223.688 62.2841 224.493 62.2841 225.436C62.2841 226.385 62.1648 227.195 61.9261 227.865C61.6875 228.533 61.3423 229.043 60.8906 229.395C60.4389 229.745 59.892 229.919 59.25 229.919ZM59.25 228.982C59.8864 228.982 60.3807 228.675 60.733 228.061C61.0852 227.448 61.2614 226.573 61.2614 225.436C61.2614 224.681 61.1804 224.037 61.0185 223.506C60.8594 222.975 60.6293 222.57 60.3281 222.292C60.0298 222.013 59.6705 221.874 59.25 221.874C58.6193 221.874 58.1264 222.185 57.7713 222.807C57.4162 223.426 57.2386 224.303 57.2386 225.436C57.2386 226.192 57.3182 226.834 57.4773 227.363C57.6364 227.891 57.8651 228.293 58.1634 228.569C58.4645 228.844 58.8267 228.982 59.25 228.982Z" fill="#B8C0CC"/>
<rect x="71.5" y="31.5" width="233" height="195" stroke="#334E68"/>
<path d="M72.0568 241V232.273H75.108C75.7159 232.273 76.2173 232.378 76.6122 232.588C77.0071 232.795 77.3011 233.075 77.4943 233.428C77.6875 233.777 77.7841 234.165 77.7841 234.591C77.7841 234.966 77.7173 235.276 77.5838 235.52C77.4531 235.764 77.2798 235.957 77.0639 236.099C76.8509 236.241 76.6193 236.347 76.3693 236.415V236.5C76.6364 236.517 76.9048 236.611 77.1747 236.781C77.4446 236.952 77.6705 237.196 77.8523 237.514C78.0341 237.832 78.125 238.222 78.125 238.682C78.125 239.119 78.0256 239.513 77.8267 239.862C77.6278 240.212 77.3139 240.489 76.8849 240.693C76.456 240.898 75.8977 241 75.2102 241H72.0568ZM73.1136 240.062H75.2102C75.9006 240.062 76.3906 239.929 76.6804 239.662C76.973 239.392 77.1193 239.065 77.1193 238.682C77.1193 238.386 77.044 238.114 76.8935 237.864C76.7429 237.611 76.5284 237.409 76.25 237.259C75.9716 237.105 75.642 237.028 75.2614 237.028H73.1136V240.062ZM73.1136 236.108H75.0739C75.392 236.108 75.679 236.045 75.9347 235.92C76.1932 235.795 76.3977 235.619 76.5483 235.392C76.7017 235.165 76.7784 234.898 76.7784 234.591C76.7784 234.207 76.6449 233.882 76.3778 233.615C76.1108 233.345 75.6875 233.21 75.108 233.21H73.1136V236.108ZM82.4695 241.136C81.8388 241.136 81.2947 240.997 80.8374 240.719C80.3828 240.438 80.032 240.045 79.7848 239.543C79.5405 239.037 79.4183 238.449 79.4183 237.778C79.4183 237.108 79.5405 236.517 79.7848 236.006C80.032 235.491 80.3757 235.091 80.8161 234.804C81.2592 234.514 81.7763 234.369 82.3672 234.369C82.7081 234.369 83.0447 234.426 83.3771 234.54C83.7095 234.653 84.0121 234.838 84.2848 235.094C84.5575 235.347 84.7749 235.682 84.9368 236.099C85.0987 236.517 85.1797 237.031 85.1797 237.642V238.068H80.1342V237.199H84.157C84.157 236.83 84.0831 236.5 83.9354 236.21C83.7905 235.92 83.5831 235.692 83.3132 235.524C83.0462 235.357 82.7308 235.273 82.3672 235.273C81.9666 235.273 81.62 235.372 81.3274 235.571C81.0376 235.767 80.8146 236.023 80.6584 236.338C80.5021 236.653 80.424 236.991 80.424 237.352V237.932C80.424 238.426 80.5092 238.845 80.6797 239.189C80.853 239.53 81.093 239.79 81.3999 239.969C81.7067 240.145 82.0632 240.233 82.4695 240.233C82.7337 240.233 82.9723 240.196 83.1854 240.122C83.4013 240.045 83.5874 239.932 83.7436 239.781C83.8999 239.628 84.0206 239.437 84.1058 239.21L85.0774 239.483C84.9751 239.812 84.8033 240.102 84.5618 240.352C84.3203 240.599 84.022 240.793 83.6669 240.932C83.3118 241.068 82.9126 241.136 82.4695 241.136ZM89.6243 234.455V235.307H86.0959V234.455H89.6243ZM87.1527 241V233.551C87.1527 233.176 87.2408 232.864 87.4169 232.614C87.593 232.364 87.8217 232.176 88.103 232.051C88.3842 231.926 88.6811 231.864 88.9936 231.864C89.2408 231.864 89.4425 231.884 89.5987 231.923C89.755 231.963 89.8714 232 89.9482 232.034L89.6584 232.903C89.6072 232.886 89.5362 232.865 89.4453 232.839C89.3572 232.814 89.2408 232.801 89.0959 232.801C88.7635 232.801 88.5234 232.885 88.3757 233.053C88.2308 233.22 88.1584 233.466 88.1584 233.79V241H87.1527ZM93.4233 241.136C92.8324 241.136 92.3139 240.996 91.8679 240.714C91.4247 240.433 91.0781 240.04 90.8281 239.534C90.581 239.028 90.4574 238.437 90.4574 237.761C90.4574 237.08 90.581 236.484 90.8281 235.976C91.0781 235.467 91.4247 235.072 91.8679 234.791C92.3139 234.51 92.8324 234.369 93.4233 234.369C94.0142 234.369 94.5313 234.51 94.9744 234.791C95.4205 235.072 95.767 235.467 96.0142 235.976C96.2642 236.484 96.3892 237.08 96.3892 237.761C96.3892 238.437 96.2642 239.028 96.0142 239.534C95.767 240.04 95.4205 240.433 94.9744 240.714C94.5313 240.996 94.0142 241.136 93.4233 241.136ZM93.4233 240.233C93.8722 240.233 94.2415 240.118 94.5312 239.888C94.821 239.658 95.0355 239.355 95.1747 238.98C95.3139 238.605 95.3835 238.199 95.3835 237.761C95.3835 237.324 95.3139 236.916 95.1747 236.538C95.0355 236.161 94.821 235.855 94.5312 235.622C94.2415 235.389 93.8722 235.273 93.4233 235.273C92.9744 235.273 92.6051 235.389 92.3153 235.622C92.0256 235.855 91.8111 236.161 91.6719 236.538C91.5327 236.916 91.4631 237.324 91.4631 237.761C91.4631 238.199 91.5327 238.605 91.6719 238.98C91.8111 239.355 92.0256 239.658 92.3153 239.888C92.6051 240.118 92.9744 240.233 93.4233 240.233ZM97.9244 241V234.455H98.896V235.443H98.9641C99.0835 235.119 99.2994 234.857 99.6119 234.655C99.9244 234.453 100.277 234.352 100.669 234.352C100.743 234.352 100.835 234.354 100.946 234.357C101.056 234.359 101.14 234.364 101.197 234.369V235.392C101.163 235.384 101.085 235.371 100.963 235.354C100.843 235.334 100.717 235.324 100.583 235.324C100.265 235.324 99.9812 235.391 99.7312 235.524C99.484 235.655 99.288 235.837 99.1431 236.07C99.0011 236.3 98.93 236.562 98.93 236.858V241H97.9244ZM104.934 241.136C104.304 241.136 103.76 240.997 103.302 240.719C102.848 240.438 102.497 240.045 102.25 239.543C102.005 239.037 101.883 238.449 101.883 237.778C101.883 237.108 102.005 236.517 102.25 236.006C102.497 235.491 102.841 235.091 103.281 234.804C103.724 234.514 104.241 234.369 104.832 234.369C105.173 234.369 105.51 234.426 105.842 234.54C106.174 234.653 106.477 234.838 106.75 235.094C107.022 235.347 107.24 235.682 107.402 236.099C107.564 236.517 107.645 237.031 107.645 237.642V238.068H102.599V237.199H106.622C106.622 236.83 106.548 236.5 106.4 236.21C106.255 235.92 106.048 235.692 105.778 235.524C105.511 235.357 105.196 235.273 104.832 235.273C104.431 235.273 104.085 235.372 103.792 235.571C103.502 235.767 103.279 236.023 103.123 236.338C102.967 236.653 102.889 236.991 102.889 237.352V237.932C102.889 238.426 102.974 238.845 103.145 239.189C103.318 239.53 103.558 239.79 103.865 239.969C104.172 240.145 104.528 240.233 104.934 240.233C105.199 240.233 105.437 240.196 105.65 240.122C105.866 240.045 106.052 239.932 106.208 239.781C106.365 239.628 106.485 239.437 106.571 239.21L107.542 239.483C107.44 239.812 107.268 240.102 107.027 240.352C106.785 240.599 106.487 240.793 106.132 240.932C105.777 241.068 105.377 241.136 104.934 241.136Z" fill="#B8C0CC"/>
<line x1="187.5" y1="226" x2="187.5" y2="30" stroke="#334E68"/>
<path d="M278.243 241H277.135L280.339 232.273H281.43L284.635 241H283.527L280.919 233.653H280.851L278.243 241ZM278.652 237.591H283.118V238.528H278.652V237.591ZM288.773 234.455V235.307H285.244V234.455H288.773ZM286.301 241V233.551C286.301 233.176 286.389 232.864 286.565 232.614C286.741 232.364 286.97 232.176 287.251 232.051C287.533 231.926 287.83 231.864 288.142 231.864C288.389 231.864 288.591 231.884 288.747 231.923C288.903 231.963 289.02 232 289.097 232.034L288.807 232.903C288.756 232.886 288.685 232.865 288.594 232.839C288.506 232.814 288.389 232.801 288.244 232.801C287.912 232.801 287.672 232.885 287.524 233.053C287.379 233.22 287.307 233.466 287.307 233.79V241H286.301ZM293.029 234.455V235.307H289.637V234.455H293.029ZM290.625 232.886H291.631V239.125C291.631 239.409 291.672 239.622 291.755 239.764C291.84 239.903 291.948 239.997 292.078 240.045C292.212 240.091 292.353 240.114 292.5 240.114C292.611 240.114 292.702 240.108 292.773 240.097C292.844 240.082 292.901 240.071 292.944 240.062L293.148 240.966C293.08 240.991 292.985 241.017 292.863 241.043C292.74 241.071 292.586 241.085 292.398 241.085C292.114 241.085 291.836 241.024 291.563 240.902C291.293 240.78 291.069 240.594 290.89 240.344C290.713 240.094 290.625 239.778 290.625 239.398V232.886ZM297.216 241.136C296.585 241.136 296.041 240.997 295.583 240.719C295.129 240.438 294.778 240.045 294.531 239.543C294.287 239.037 294.164 238.449 294.164 237.778C294.164 237.108 294.287 236.517 294.531 236.006C294.778 235.491 295.122 235.091 295.562 234.804C296.005 234.514 296.522 234.369 297.113 234.369C297.454 234.369 297.791 234.426 298.123 234.54C298.456 234.653 298.758 234.838 299.031 235.094C299.304 235.347 299.521 235.682 299.683 236.099C299.845 236.517 299.926 237.031 299.926 237.642V238.068H294.88V237.199H298.903C298.903 236.83 298.829 236.5 298.681 236.21C298.537 235.92 298.329 235.692 298.059 235.524C297.792 235.357 297.477 235.273 297.113 235.273C296.713 235.273 296.366 235.372 296.074 235.571C295.784 235.767 295.561 236.023 295.404 236.338C295.248 236.653 295.17 236.991 295.17 237.352V237.932C295.17 238.426 295.255 238.845 295.426 239.189C295.599 239.53 295.839 239.79 296.146 239.969C296.453 240.145 296.809 240.233 297.216 240.233C297.48 240.233 297.718 240.196 297.931 240.122C298.147 240.045 298.333 239.932 298.49 239.781C298.646 239.628 298.767 239.437 298.852 239.21L299.824 239.483C299.721 239.812 299.549 240.102 299.308 240.352C299.066 240.599 298.768 240.793 298.413 240.932C298.058 241.068 297.659 241.136 297.216 241.136ZM301.456 241V234.455H302.427V235.443H302.495C302.615 235.119 302.831 234.857 303.143 234.655C303.456 234.453 303.808 234.352 304.2 234.352C304.274 234.352 304.366 234.354 304.477 234.357C304.588 234.359 304.672 234.364 304.728 234.369V235.392C304.694 235.384 304.616 235.371 304.494 235.354C304.375 235.334 304.248 235.324 304.115 235.324C303.797 235.324 303.512 235.391 303.262 235.524C303.015 235.655 302.819 235.837 302.674 236.07C302.532 236.3 302.461 236.562 302.461 236.858V241H301.456Z" fill="#B8C0CC"/>
<path d="M189.5 127.361C138 160.793 116.175 216.475 71 224.378V227H305V31L297.595 35.5886C250.093 54.6644 221 91.9632 189.5 127.361Z" fill="url(#paint0_linear_872_24464)"/>
<path d="M71.5 225.689C109.345 221.242 164.141 133.655 189 128.017C231.499 77.3103 257.072 55.3367 305 31" stroke="#00C7F2"/>
<path d="M17.224 212.548C17.224 212.484 17.25 212.428 17.302 212.38L17.8 211.918C18.208 212.27 18.526 212.698 18.754 213.202C18.982 213.702 19.096 214.308 19.096 215.02C19.096 215.636 18.99 216.196 18.778 216.7C18.562 217.204 18.262 217.634 17.878 217.99C17.49 218.346 17.026 218.622 16.486 218.818C15.946 219.014 15.352 219.112 14.704 219.112C14.056 219.112 13.462 219.01 12.922 218.806C12.382 218.602 11.918 218.316 11.53 217.948C11.142 217.576 10.842 217.132 10.63 216.616C10.414 216.1 10.306 215.53 10.306 214.906C10.306 214.294 10.404 213.754 10.6 213.286C10.796 212.818 11.062 212.406 11.398 212.05L11.932 212.434C11.972 212.458 12.006 212.49 12.034 212.53C12.058 212.566 12.07 212.616 12.07 212.68C12.07 212.752 12.032 212.84 11.956 212.944C11.876 213.048 11.788 213.184 11.692 213.352C11.596 213.52 11.51 213.73 11.434 213.982C11.354 214.234 11.314 214.544 11.314 214.912C11.314 215.356 11.392 215.762 11.548 216.13C11.7 216.498 11.922 216.816 12.214 217.084C12.506 217.348 12.862 217.554 13.282 217.702C13.702 217.85 14.176 217.924 14.704 217.924C15.24 217.924 15.718 217.848 16.138 217.696C16.558 217.54 16.914 217.33 17.206 217.066C17.494 216.798 17.714 216.484 17.866 216.124C18.018 215.76 18.094 215.368 18.094 214.948C18.094 214.692 18.08 214.462 18.052 214.258C18.02 214.05 17.972 213.86 17.908 213.688C17.844 213.512 17.764 213.35 17.668 213.202C17.568 213.05 17.45 212.9 17.314 212.752C17.254 212.684 17.224 212.616 17.224 212.548ZM16.264 207.026C16.28 207.518 16.32 207.938 16.384 208.286C16.444 208.63 16.524 208.912 16.624 209.132C16.724 209.348 16.842 209.506 16.978 209.606C17.114 209.702 17.266 209.75 17.434 209.75C17.594 209.75 17.732 209.724 17.848 209.672C17.964 209.62 18.06 209.55 18.136 209.462C18.208 209.37 18.262 209.264 18.298 209.144C18.33 209.02 18.346 208.888 18.346 208.748C18.346 208.56 18.328 208.388 18.292 208.232C18.252 208.076 18.196 207.93 18.124 207.794C18.052 207.654 17.966 207.522 17.866 207.398C17.766 207.27 17.652 207.146 17.524 207.026L16.264 207.026ZM13.78 210.476C13.456 210.14 13.214 209.778 13.054 209.39C12.894 209.002 12.814 208.572 12.814 208.1C12.814 207.76 12.87 207.458 12.982 207.194C13.094 206.93 13.25 206.708 13.45 206.528C13.65 206.348 13.892 206.212 14.176 206.12C14.46 206.028 14.772 205.982 15.112 205.982L19 205.982L19 206.456C19 206.56 18.984 206.64 18.952 206.696C18.916 206.752 18.848 206.796 18.748 206.828L18.172 206.948C18.32 207.108 18.452 207.264 18.568 207.416C18.68 207.568 18.776 207.728 18.856 207.896C18.932 208.064 18.99 208.244 19.03 208.436C19.074 208.624 19.096 208.834 19.096 209.066C19.096 209.302 19.064 209.524 19 209.732C18.932 209.94 18.832 210.122 18.7 210.278C18.568 210.43 18.402 210.552 18.202 210.644C17.998 210.732 17.758 210.776 17.482 210.776C17.242 210.776 17.012 210.71 16.792 210.578C16.568 210.446 16.37 210.232 16.198 209.936C16.026 209.64 15.886 209.254 15.778 208.778C15.666 208.302 15.602 207.718 15.586 207.026L15.112 207.026C14.64 207.026 14.284 207.128 14.044 207.332C13.8 207.536 13.678 207.834 13.678 208.226C13.678 208.49 13.712 208.712 13.78 208.892C13.844 209.068 13.918 209.222 14.002 209.354C14.082 209.482 14.156 209.594 14.224 209.69C14.288 209.782 14.32 209.874 14.32 209.966C14.32 210.038 14.302 210.1 14.266 210.152C14.226 210.204 14.178 210.248 14.122 210.284L13.78 210.476ZM10.162 202.751L19 202.751L19 203.819L10.162 203.819L10.162 202.751ZM10.162 199.415L19 199.415L19 200.483L10.162 200.483L10.162 199.415ZM13.924 193.643C14.012 193.691 14.056 193.765 14.056 193.865C14.056 193.925 14.034 193.993 13.99 194.069C13.946 194.145 13.898 194.239 13.846 194.351C13.79 194.459 13.74 194.589 13.696 194.741C13.648 194.893 13.624 195.073 13.624 195.281C13.624 195.461 13.648 195.623 13.696 195.767C13.74 195.911 13.802 196.035 13.882 196.139C13.962 196.239 14.056 196.317 14.164 196.373C14.268 196.425 14.382 196.451 14.506 196.451C14.662 196.451 14.792 196.407 14.896 196.319C15 196.227 15.09 196.107 15.166 195.959C15.242 195.811 15.31 195.643 15.37 195.455C15.426 195.267 15.488 195.075 15.556 194.879C15.62 194.679 15.692 194.485 15.772 194.297C15.852 194.109 15.952 193.941 16.072 193.793C16.192 193.645 16.34 193.527 16.516 193.439C16.688 193.347 16.896 193.301 17.14 193.301C17.42 193.301 17.68 193.351 17.92 193.451C18.156 193.551 18.362 193.699 18.538 193.895C18.71 194.091 18.846 194.331 18.946 194.615C19.046 194.899 19.096 195.227 19.096 195.599C19.096 196.023 19.028 196.407 18.892 196.751C18.752 197.095 18.574 197.387 18.358 197.627L17.95 197.375C17.898 197.343 17.858 197.305 17.83 197.261C17.802 197.217 17.788 197.161 17.788 197.093C17.788 197.021 17.816 196.945 17.872 196.865C17.928 196.785 17.99 196.689 18.058 196.577C18.126 196.461 18.188 196.321 18.244 196.157C18.3 195.993 18.328 195.789 18.328 195.545C18.328 195.337 18.302 195.155 18.25 194.999C18.194 194.843 18.12 194.713 18.028 194.609C17.936 194.505 17.83 194.429 17.71 194.381C17.59 194.329 17.462 194.303 17.326 194.303C17.158 194.303 17.02 194.349 16.912 194.441C16.8 194.529 16.706 194.647 16.63 194.795C16.55 194.943 16.482 195.113 16.426 195.305C16.366 195.493 16.304 195.687 16.24 195.887C16.176 196.083 16.104 196.277 16.024 196.469C15.94 196.657 15.836 196.825 15.712 196.973C15.588 197.121 15.436 197.241 15.256 197.333C15.072 197.421 14.85 197.465 14.59 197.465C14.358 197.465 14.136 197.417 13.924 197.321C13.708 197.225 13.52 197.085 13.36 196.901C13.196 196.717 13.066 196.491 12.97 196.223C12.874 195.955 12.826 195.649 12.826 195.305C12.826 194.905 12.89 194.547 13.018 194.231C13.142 193.911 13.314 193.635 13.534 193.403L13.924 193.643ZM10.402 178.724L19 178.724L19 179.744L12.682 179.744C12.598 179.744 12.508 179.742 12.412 179.738C12.316 179.73 12.218 179.722 12.118 179.714L17.494 182.666C17.674 182.758 17.764 182.898 17.764 183.086L17.764 183.254C17.764 183.442 17.674 183.582 17.494 183.674L12.094 186.686C12.306 186.662 12.502 186.65 12.682 186.65L19 186.65L19 187.67L10.402 187.67L10.402 186.812C10.402 186.708 10.412 186.628 10.432 186.572C10.452 186.516 10.508 186.462 10.6 186.41L15.892 183.44C15.988 183.392 16.088 183.346 16.192 183.302C16.296 183.254 16.402 183.21 16.51 183.17C16.402 183.13 16.296 183.088 16.192 183.044C16.084 183 15.982 182.952 15.886 182.9L10.6 179.984C10.508 179.936 10.452 179.884 10.432 179.828C10.412 179.768 10.402 179.686 10.402 179.582L10.402 178.724ZM16.264 173.159C16.28 173.651 16.32 174.071 16.384 174.419C16.444 174.763 16.524 175.045 16.624 175.265C16.724 175.481 16.842 175.639 16.978 175.739C17.114 175.835 17.266 175.883 17.434 175.883C17.594 175.883 17.732 175.857 17.848 175.805C17.964 175.753 18.06 175.683 18.136 175.595C18.208 175.503 18.262 175.397 18.298 175.277C18.33 175.153 18.346 175.021 18.346 174.881C18.346 174.693 18.328 174.521 18.292 174.365C18.252 174.209 18.196 174.063 18.124 173.927C18.052 173.787 17.966 173.655 17.866 173.531C17.766 173.403 17.652 173.279 17.524 173.159L16.264 173.159ZM13.78 176.609C13.456 176.273 13.214 175.911 13.054 175.523C12.894 175.135 12.814 174.705 12.814 174.233C12.814 173.893 12.87 173.591 12.982 173.327C13.094 173.063 13.25 172.841 13.45 172.661C13.65 172.481 13.892 172.345 14.176 172.253C14.46 172.161 14.772 172.115 15.112 172.115L19 172.115L19 172.589C19 172.693 18.984 172.773 18.952 172.829C18.916 172.885 18.848 172.929 18.748 172.961L18.172 173.081C18.32 173.241 18.452 173.397 18.568 173.549C18.68 173.701 18.776 173.861 18.856 174.029C18.932 174.197 18.99 174.377 19.03 174.569C19.074 174.757 19.096 174.967 19.096 175.199C19.096 175.435 19.064 175.657 19 175.865C18.932 176.073 18.832 176.255 18.7 176.411C18.568 176.563 18.402 176.685 18.202 176.777C17.998 176.865 17.758 176.909 17.482 176.909C17.242 176.909 17.012 176.843 16.792 176.711C16.568 176.579 16.37 176.365 16.198 176.069C16.026 175.773 15.886 175.387 15.778 174.911C15.666 174.435 15.602 173.851 15.586 173.159L15.112 173.159C14.64 173.159 14.284 173.261 14.044 173.465C13.8 173.669 13.678 173.967 13.678 174.359C13.678 174.623 13.712 174.845 13.78 175.025C13.844 175.201 13.918 175.355 14.002 175.487C14.082 175.615 14.156 175.727 14.224 175.823C14.288 175.915 14.32 176.007 14.32 176.099C14.32 176.171 14.302 176.233 14.266 176.285C14.226 176.337 14.178 176.381 14.122 176.417L13.78 176.609ZM14.368 166.028C14.1 166.228 13.914 166.444 13.81 166.676C13.702 166.908 13.648 167.168 13.648 167.456C13.648 168.02 13.85 168.454 14.254 168.758C14.658 169.062 15.234 169.214 15.982 169.214C16.378 169.214 16.718 169.18 17.002 169.112C17.282 169.044 17.514 168.944 17.698 168.812C17.878 168.68 18.01 168.518 18.094 168.326C18.178 168.134 18.22 167.916 18.22 167.672C18.22 167.32 18.14 167.014 17.98 166.754C17.82 166.49 17.594 166.248 17.302 166.028L14.368 166.028ZM10.162 164.96L19 164.96L19 165.596C19 165.748 18.926 165.844 18.778 165.884L18.04 165.98C18.352 166.24 18.604 166.536 18.796 166.868C18.988 167.2 19.084 167.584 19.084 168.02C19.084 168.368 19.018 168.684 18.886 168.968C18.75 169.252 18.552 169.494 18.292 169.694C18.032 169.894 17.708 170.048 17.32 170.156C16.932 170.264 16.486 170.318 15.982 170.318C15.534 170.318 15.118 170.258 14.734 170.138C14.346 170.018 14.01 169.846 13.726 169.622C13.442 169.398 13.22 169.124 13.06 168.8C12.896 168.472 12.814 168.104 12.814 167.696C12.814 167.324 12.878 167.006 13.006 166.742C13.13 166.474 13.304 166.236 13.528 166.028L10.162 166.028L10.162 164.96ZM15.298 158.705C15.05 158.705 14.824 158.741 14.62 158.813C14.412 158.881 14.234 158.983 14.086 159.119C13.934 159.251 13.818 159.413 13.738 159.605C13.654 159.797 13.612 160.015 13.612 160.259C13.612 160.771 13.762 161.177 14.062 161.477C14.358 161.773 14.77 161.957 15.298 162.029L15.298 158.705ZM18.148 157.841C18.308 157.973 18.448 158.131 18.568 158.315C18.684 158.499 18.78 158.697 18.856 158.909C18.932 159.117 18.988 159.333 19.024 159.557C19.064 159.781 19.084 160.003 19.084 160.223C19.084 160.643 19.014 161.031 18.874 161.387C18.73 161.739 18.522 162.045 18.25 162.305C17.974 162.561 17.634 162.761 17.23 162.905C16.826 163.049 16.362 163.121 15.838 163.121C15.414 163.121 15.018 163.057 14.65 162.929C14.282 162.797 13.964 162.609 13.696 162.365C13.424 162.121 13.212 161.823 13.06 161.471C12.904 161.119 12.826 160.723 12.826 160.283C12.826 159.919 12.888 159.583 13.012 159.275C13.132 158.963 13.308 158.695 13.54 158.471C13.768 158.243 14.052 158.065 14.392 157.937C14.728 157.809 15.112 157.745 15.544 157.745C15.712 157.745 15.824 157.763 15.88 157.799C15.936 157.835 15.964 157.903 15.964 158.003L15.964 162.065C16.348 162.053 16.682 162.001 16.966 161.909C17.25 161.813 17.488 161.681 17.68 161.513C17.868 161.345 18.01 161.145 18.106 160.913C18.198 160.681 18.244 160.421 18.244 160.133C18.244 159.865 18.214 159.635 18.154 159.443C18.09 159.247 18.022 159.079 17.95 158.939C17.878 158.799 17.812 158.683 17.752 158.591C17.688 158.495 17.656 158.413 17.656 158.345C17.656 158.257 17.69 158.189 17.758 158.141L18.148 157.841ZM17.536 151.289C17.8 151.093 17.986 150.879 18.094 150.647C18.202 150.415 18.256 150.155 18.256 149.867C18.256 149.299 18.054 148.863 17.65 148.559C17.246 148.255 16.67 148.103 15.922 148.103C15.526 148.103 15.186 148.139 14.902 148.211C14.618 148.279 14.386 148.379 14.206 148.511C14.022 148.643 13.888 148.805 13.804 148.997C13.72 149.189 13.678 149.407 13.678 149.651C13.678 149.999 13.758 150.305 13.918 150.569C14.078 150.829 14.304 151.069 14.596 151.289L17.536 151.289ZM13.864 151.343C13.548 151.087 13.294 150.791 13.102 150.455C12.91 150.119 12.814 149.735 12.814 149.303C12.814 148.951 12.882 148.633 13.018 148.349C13.15 148.065 13.348 147.823 13.612 147.623C13.872 147.423 14.196 147.269 14.584 147.161C14.972 147.053 15.418 146.999 15.922 146.999C16.37 146.999 16.788 147.059 17.176 147.179C17.56 147.299 17.894 147.473 18.178 147.701C18.458 147.925 18.68 148.201 18.844 148.529C19.004 148.853 19.084 149.219 19.084 149.627C19.084 149.999 19.022 150.319 18.898 150.587C18.77 150.851 18.594 151.085 18.37 151.289L21.058 151.289L21.058 152.363L12.922 152.363L12.922 151.721C12.922 151.569 12.996 151.475 13.144 151.439L13.864 151.343ZM15.298 141.068C15.05 141.068 14.824 141.104 14.62 141.176C14.412 141.244 14.234 141.346 14.086 141.482C13.934 141.614 13.818 141.776 13.738 141.968C13.654 142.16 13.612 142.378 13.612 142.622C13.612 143.134 13.762 143.54 14.062 143.84C14.358 144.136 14.77 144.32 15.298 144.392L15.298 141.068ZM18.148 140.204C18.308 140.336 18.448 140.494 18.568 140.678C18.684 140.862 18.78 141.06 18.856 141.272C18.932 141.48 18.988 141.696 19.024 141.92C19.064 142.144 19.084 142.366 19.084 142.586C19.084 143.006 19.014 143.394 18.874 143.75C18.73 144.102 18.522 144.408 18.25 144.668C17.974 144.924 17.634 145.124 17.23 145.268C16.826 145.412 16.362 145.484 15.838 145.484C15.414 145.484 15.018 145.42 14.65 145.292C14.282 145.16 13.964 144.972 13.696 144.728C13.424 144.484 13.212 144.186 13.06 143.834C12.904 143.482 12.826 143.086 12.826 142.646C12.826 142.282 12.888 141.946 13.012 141.638C13.132 141.326 13.308 141.058 13.54 140.834C13.768 140.606 14.052 140.428 14.392 140.3C14.728 140.172 15.112 140.108 15.544 140.108C15.712 140.108 15.824 140.126 15.88 140.162C15.936 140.198 15.964 140.266 15.964 140.366L15.964 144.428C16.348 144.416 16.682 144.364 16.966 144.272C17.25 144.176 17.488 144.044 17.68 143.876C17.868 143.708 18.01 143.508 18.106 143.276C18.198 143.044 18.244 142.784 18.244 142.496C18.244 142.228 18.214 141.998 18.154 141.806C18.09 141.61 18.022 141.442 17.95 141.302C17.878 141.162 17.812 141.046 17.752 140.954C17.688 140.858 17.656 140.776 17.656 140.708C17.656 140.62 17.69 140.552 17.758 140.504L18.148 140.204ZM14.14 137.283C13.724 137.091 13.4 136.855 13.168 136.575C12.932 136.295 12.814 135.953 12.814 135.549C12.814 135.421 12.828 135.299 12.856 135.183C12.884 135.063 12.928 134.957 12.988 134.865L13.786 134.943C13.886 134.967 13.936 135.027 13.936 135.123C13.936 135.179 13.924 135.261 13.9 135.369C13.876 135.477 13.864 135.599 13.864 135.735C13.864 135.927 13.892 136.099 13.948 136.251C14.004 136.399 14.088 136.533 14.2 136.653C14.308 136.769 14.444 136.875 14.608 136.971C14.768 137.063 14.952 137.147 15.16 137.223L19 137.223L19 138.297L12.922 138.297L12.922 137.685C12.922 137.569 12.944 137.489 12.988 137.445C13.032 137.401 13.108 137.371 13.216 137.355L14.14 137.283ZM10.402 120.915L19 120.915L19 121.935L12.682 121.935C12.598 121.935 12.508 121.933 12.412 121.929C12.316 121.921 12.218 121.913 12.118 121.905L17.494 124.857C17.674 124.949 17.764 125.089 17.764 125.277L17.764 125.445C17.764 125.633 17.674 125.773 17.494 125.865L12.094 128.877C12.306 128.853 12.502 128.841 12.682 128.841L19 128.841L19 129.861L10.402 129.861L10.402 129.003C10.402 128.899 10.412 128.819 10.432 128.763C10.452 128.707 10.508 128.653 10.6 128.601L15.892 125.631C15.988 125.583 16.088 125.537 16.192 125.493C16.296 125.445 16.402 125.401 16.51 125.361C16.402 125.321 16.296 125.279 16.192 125.235C16.084 125.191 15.982 125.143 15.886 125.091L10.6 122.175C10.508 122.127 10.452 122.075 10.432 122.019C10.412 121.959 10.402 121.877 10.402 121.773L10.402 120.915ZM12.826 116.094C12.826 115.65 12.9 115.25 13.048 114.894C13.196 114.538 13.406 114.234 13.678 113.982C13.95 113.73 14.28 113.538 14.668 113.406C15.052 113.27 15.482 113.202 15.958 113.202C16.438 113.202 16.87 113.27 17.254 113.406C17.638 113.538 17.966 113.73 18.238 113.982C18.51 114.234 18.72 114.538 18.868 114.894C19.012 115.25 19.084 115.65 19.084 116.094C19.084 116.542 19.012 116.946 18.868 117.306C18.72 117.662 18.51 117.966 18.238 118.218C17.966 118.47 17.638 118.664 17.254 118.8C16.87 118.932 16.438 118.998 15.958 118.998C15.482 118.998 15.052 118.932 14.668 118.8C14.28 118.664 13.95 118.47 13.678 118.218C13.406 117.966 13.196 117.662 13.048 117.306C12.9 116.946 12.826 116.542 12.826 116.094ZM18.25 116.094C18.25 115.494 18.05 115.046 17.65 114.75C17.246 114.454 16.684 114.306 15.964 114.306C15.24 114.306 14.676 114.454 14.272 114.75C13.868 115.046 13.666 115.494 13.666 116.094C13.666 116.398 13.718 116.664 13.822 116.892C13.926 117.116 14.076 117.304 14.272 117.456C14.468 117.604 14.71 117.716 14.998 117.792C15.282 117.864 15.604 117.9 15.964 117.9C16.684 117.9 17.246 117.752 17.65 117.456C18.05 117.156 18.25 116.702 18.25 116.094ZM13.804 110.339C13.656 110.207 13.522 110.067 13.402 109.919C13.282 109.771 13.18 109.615 13.096 109.451C13.008 109.283 12.942 109.107 12.898 108.923C12.85 108.735 12.826 108.533 12.826 108.317C12.826 107.985 12.882 107.693 12.994 107.441C13.102 107.185 13.258 106.973 13.462 106.805C13.662 106.633 13.904 106.503 14.188 106.415C14.472 106.327 14.786 106.283 15.13 106.283L19 106.283L19 107.357L15.13 107.357C14.67 107.357 14.314 107.463 14.062 107.675C13.806 107.883 13.678 108.201 13.678 108.629C13.678 108.945 13.754 109.241 13.906 109.517C14.058 109.789 14.264 110.041 14.524 110.273L19 110.273L19 111.347L12.922 111.347L12.922 110.705C12.922 110.553 12.996 110.459 13.144 110.423L13.804 110.339ZM19.096 102.372C19.096 102.852 18.962 103.222 18.694 103.482C18.426 103.738 18.04 103.866 17.536 103.866L13.816 103.866L13.816 104.598C13.816 104.662 13.798 104.716 13.762 104.76C13.722 104.804 13.662 104.826 13.582 104.826L13.156 104.826L13.03 103.83L11.152 103.584C11.092 103.572 11.044 103.546 11.008 103.506C10.968 103.462 10.948 103.406 10.948 103.338L10.948 102.798L13.042 102.798L13.042 101.04L13.816 101.04L13.816 102.798L17.464 102.798C17.72 102.798 17.91 102.736 18.034 102.612C18.158 102.488 18.22 102.328 18.22 102.132C18.22 102.02 18.206 101.924 18.178 101.844C18.146 101.76 18.112 101.688 18.076 101.628C18.04 101.568 18.008 101.518 17.98 101.478C17.948 101.434 17.932 101.396 17.932 101.364C17.932 101.308 17.966 101.258 18.034 101.214L18.544 100.902C18.716 101.086 18.852 101.308 18.952 101.568C19.048 101.828 19.096 102.096 19.096 102.372ZM13.732 98.3632C13.456 98.1032 13.236 97.8152 13.072 97.4992C12.908 97.1832 12.826 96.8192 12.826 96.4072C12.826 96.0752 12.882 95.7832 12.994 95.5312C13.102 95.2752 13.258 95.0632 13.462 94.8952C13.662 94.7232 13.904 94.5932 14.188 94.5052C14.472 94.4172 14.786 94.3732 15.13 94.3732L19 94.3732L19 95.4472L15.13 95.4472C14.67 95.4472 14.314 95.5532 14.062 95.7652C13.806 95.9732 13.678 96.2912 13.678 96.7192C13.678 97.0352 13.754 97.3312 13.906 97.6072C14.058 97.8792 14.264 98.1312 14.524 98.3632L19 98.3632L19 99.4372L10.162 99.4372L10.162 98.3632L13.732 98.3632ZM15.226 88.0515C16.082 88.0515 16.914 87.9435 17.722 87.7275C18.53 87.5075 19.298 87.1875 20.026 86.7675C20.15 86.7035 20.244 86.6875 20.308 86.7195C20.376 86.7515 20.43 86.7975 20.47 86.8575L20.758 87.3315C20.298 87.6315 19.842 87.8875 19.39 88.0995C18.938 88.3075 18.484 88.4775 18.028 88.6095C17.572 88.7375 17.114 88.8315 16.654 88.8915C16.19 88.9515 15.714 88.9815 15.226 88.9815C14.742 88.9815 14.268 88.9515 13.804 88.8915C13.34 88.8315 12.882 88.7375 12.43 88.6095C11.974 88.4775 11.52 88.3075 11.068 88.0995C10.616 87.8875 10.158 87.6315 9.69399 87.3315L9.98799 86.8575C10.028 86.7975 10.082 86.7515 10.15 86.7195C10.214 86.6875 10.306 86.7035 10.426 86.7675C11.154 87.1875 11.922 87.5075 12.73 87.7275C13.538 87.9435 14.37 88.0515 15.226 88.0515ZM15.808 80.1583L12.31 81.5083C12.206 81.5483 12.086 81.5903 11.95 81.6343C11.81 81.6783 11.662 81.7203 11.506 81.7603C11.83 81.8443 12.1 81.9303 12.316 82.0183L15.808 83.3683L15.808 80.1583ZM19 77.7343L19 78.6343C19 78.7383 18.974 78.8223 18.922 78.8863C18.87 78.9503 18.804 78.9983 18.724 79.0303L16.648 79.8343L16.648 83.6923L18.724 84.4963C18.796 84.5203 18.86 84.5663 18.916 84.6343C18.972 84.7023 19 84.7863 19 84.8863L19 85.7863L10.402 82.3483L10.402 81.1723L19 77.7343ZM12.922 71.5095L19 71.5095L19 72.1455C19 72.2975 18.926 72.3935 18.778 72.4335L18.124 72.5175C18.416 72.7815 18.652 73.0775 18.832 73.4055C19.008 73.7335 19.096 74.1095 19.096 74.5335C19.096 74.8655 19.042 75.1595 18.934 75.4155C18.822 75.6675 18.666 75.8795 18.466 76.0515C18.266 76.2235 18.024 76.3535 17.74 76.4415C17.456 76.5255 17.142 76.5675 16.798 76.5675L12.922 76.5675L12.922 75.4995L16.798 75.4995C17.258 75.4995 17.614 75.3955 17.866 75.1875C18.118 74.9755 18.244 74.6535 18.244 74.2215C18.244 73.9055 18.17 73.6115 18.022 73.3395C17.87 73.0635 17.662 72.8095 17.398 72.5775L12.922 72.5775L12.922 71.5095ZM19.096 67.4501C19.096 67.9301 18.962 68.3001 18.694 68.5601C18.426 68.8161 18.04 68.9441 17.536 68.9441L13.816 68.9441L13.816 69.6761C13.816 69.7401 13.798 69.7941 13.762 69.8381C13.722 69.8821 13.662 69.9041 13.582 69.9041L13.156 69.9041L13.03 68.9081L11.152 68.6621C11.092 68.6501 11.044 68.6241 11.008 68.5841C10.968 68.5401 10.948 68.4841 10.948 68.4161L10.948 67.8761L13.042 67.8761L13.042 66.1181L13.816 66.1181L13.816 67.8761L17.464 67.8761C17.72 67.8761 17.91 67.8141 18.034 67.6901C18.158 67.5661 18.22 67.4061 18.22 67.2101C18.22 67.0981 18.206 67.0021 18.178 66.9221C18.146 66.8381 18.112 66.7661 18.076 66.7061C18.04 66.6461 18.008 66.5961 17.98 66.5561C17.948 66.5121 17.932 66.4741 17.932 66.4421C17.932 66.3861 17.966 66.3361 18.034 66.2921L18.544 65.9801C18.716 66.1641 18.852 66.3861 18.952 66.6461C19.048 66.9061 19.096 67.1741 19.096 67.4501ZM12.826 61.9885C12.826 61.5445 12.9 61.1445 13.048 60.7885C13.196 60.4325 13.406 60.1285 13.678 59.8765C13.95 59.6245 14.28 59.4325 14.668 59.3005C15.052 59.1645 15.482 59.0965 15.958 59.0965C16.438 59.0965 16.87 59.1645 17.254 59.3005C17.638 59.4325 17.966 59.6245 18.238 59.8765C18.51 60.1285 18.72 60.4325 18.868 60.7885C19.012 61.1445 19.084 61.5445 19.084 61.9885C19.084 62.4365 19.012 62.8405 18.868 63.2005C18.72 63.5565 18.51 63.8605 18.238 64.1125C17.966 64.3645 17.638 64.5585 17.254 64.6945C16.87 64.8265 16.438 64.8925 15.958 64.8925C15.482 64.8925 15.052 64.8265 14.668 64.6945C14.28 64.5585 13.95 64.3645 13.678 64.1125C13.406 63.8605 13.196 63.5565 13.048 63.2005C12.9 62.8405 12.826 62.4365 12.826 61.9885ZM18.25 61.9885C18.25 61.3885 18.05 60.9405 17.65 60.6445C17.246 60.3485 16.684 60.2005 15.964 60.2005C15.24 60.2005 14.676 60.3485 14.272 60.6445C13.868 60.9405 13.666 61.3885 13.666 61.9885C13.666 62.2925 13.718 62.5585 13.822 62.7865C13.926 63.0105 14.076 63.1985 14.272 63.3505C14.468 63.4985 14.71 63.6105 14.998 63.6865C15.282 63.7585 15.604 63.7945 15.964 63.7945C16.684 63.7945 17.246 63.6465 17.65 63.3505C18.05 63.0505 18.25 62.5965 18.25 61.9885ZM19 57.2419L12.922 57.2419L12.922 56.5999C12.922 56.4479 12.996 56.3539 13.144 56.3179L13.768 56.2399C13.492 56.0159 13.266 55.7639 13.09 55.4839C12.914 55.2039 12.826 54.8799 12.826 54.5119C12.826 54.1039 12.94 53.7739 13.168 53.5219C13.396 53.2659 13.704 53.0819 14.092 52.9699C13.872 52.8819 13.682 52.7699 13.522 52.6339C13.362 52.4939 13.23 52.3379 13.126 52.1659C13.022 51.9939 12.946 51.8119 12.898 51.6199C12.85 51.4239 12.826 51.2259 12.826 51.0259C12.826 50.7059 12.878 50.4219 12.982 50.1739C13.082 49.9219 13.23 49.7099 13.426 49.5379C13.622 49.3619 13.864 49.2279 14.152 49.1359C14.436 49.0439 14.762 48.9979 15.13 48.9979L19 48.9979L19 50.0719L15.13 50.0719C14.654 50.0719 14.294 50.1759 14.05 50.3839C13.802 50.5919 13.678 50.8919 13.678 51.2839C13.678 51.4599 13.71 51.6279 13.774 51.7879C13.834 51.9439 13.924 52.0819 14.044 52.2019C14.164 52.3219 14.316 52.4179 14.5 52.4899C14.68 52.5579 14.89 52.5919 15.13 52.5919L19 52.5919L19 53.6659L15.13 53.6659C14.642 53.6659 14.278 53.7639 14.038 53.9599C13.798 54.1559 13.678 54.4419 13.678 54.8179C13.678 55.0819 13.75 55.3259 13.894 55.5499C14.034 55.7739 14.226 55.9799 14.47 56.1679L19 56.1679L19 57.2419ZM16.264 43.5807C16.28 44.0727 16.32 44.4927 16.384 44.8407C16.444 45.1847 16.524 45.4667 16.624 45.6867C16.724 45.9027 16.842 46.0607 16.978 46.1607C17.114 46.2567 17.266 46.3047 17.434 46.3047C17.594 46.3047 17.732 46.2787 17.848 46.2267C17.964 46.1747 18.06 46.1047 18.136 46.0167C18.208 45.9247 18.262 45.8187 18.298 45.6987C18.33 45.5747 18.346 45.4427 18.346 45.3027C18.346 45.1147 18.328 44.9427 18.292 44.7867C18.252 44.6307 18.196 44.4847 18.124 44.3487C18.052 44.2087 17.966 44.0767 17.866 43.9527C17.766 43.8247 17.652 43.7007 17.524 43.5807L16.264 43.5807ZM13.78 47.0307C13.456 46.6947 13.214 46.3327 13.054 45.9447C12.894 45.5567 12.814 45.1267 12.814 44.6547C12.814 44.3147 12.87 44.0127 12.982 43.7487C13.094 43.4847 13.25 43.2627 13.45 43.0827C13.65 42.9027 13.892 42.7667 14.176 42.6747C14.46 42.5827 14.772 42.5367 15.112 42.5367L19 42.5367L19 43.0107C19 43.1147 18.984 43.1947 18.952 43.2507C18.916 43.3067 18.848 43.3507 18.748 43.3827L18.172 43.5027C18.32 43.6627 18.452 43.8187 18.568 43.9707C18.68 44.1227 18.776 44.2827 18.856 44.4507C18.932 44.6187 18.99 44.7987 19.03 44.9907C19.074 45.1787 19.096 45.3887 19.096 45.6207C19.096 45.8567 19.064 46.0787 19 46.2867C18.932 46.4947 18.832 46.6767 18.7 46.8327C18.568 46.9847 18.402 47.1067 18.202 47.1987C17.998 47.2867 17.758 47.3307 17.482 47.3307C17.242 47.3307 17.012 47.2647 16.792 47.1327C16.568 47.0007 16.37 46.7867 16.198 46.4907C16.026 46.1947 15.886 45.8087 15.778 45.3327C15.666 44.8567 15.602 44.2727 15.586 43.5807L15.112 43.5807C14.64 43.5807 14.284 43.6827 14.044 43.8867C13.8 44.0907 13.678 44.3887 13.678 44.7807C13.678 45.0447 13.712 45.2667 13.78 45.4467C13.844 45.6227 13.918 45.7767 14.002 45.9087C14.082 46.0367 14.156 46.1487 14.224 46.2447C14.288 46.3367 14.32 46.4287 14.32 46.5207C14.32 46.5927 14.302 46.6547 14.266 46.7067C14.226 46.7587 14.178 46.8027 14.122 46.8387L13.78 47.0307ZM19.096 38.6259C19.096 39.1059 18.962 39.4759 18.694 39.7359C18.426 39.9919 18.04 40.1199 17.536 40.1199L13.816 40.1199L13.816 40.8519C13.816 40.9159 13.798 40.9699 13.762 41.0139C13.722 41.0579 13.662 41.0799 13.582 41.0799L13.156 41.0799L13.03 40.0839L11.152 39.8379C11.092 39.8259 11.044 39.7999 11.008 39.7599C10.968 39.7159 10.948 39.6599 10.948 39.5919L10.948 39.0519L13.042 39.0519L13.042 37.2939L13.816 37.2939L13.816 39.0519L17.464 39.0519C17.72 39.0519 17.91 38.9899 18.034 38.8659C18.158 38.7419 18.22 38.5819 18.22 38.3859C18.22 38.2739 18.206 38.1779 18.178 38.0979C18.146 38.0139 18.112 37.9419 18.076 37.8819C18.04 37.8219 18.008 37.7719 17.98 37.7319C17.948 37.6879 17.932 37.6499 17.932 37.6179C17.932 37.5619 17.966 37.5119 18.034 37.4679L18.544 37.1559C18.716 37.3399 18.852 37.5619 18.952 37.8219C19.048 38.0819 19.096 38.3499 19.096 38.6259ZM15.298 31.6583C15.05 31.6583 14.824 31.6943 14.62 31.7663C14.412 31.8343 14.234 31.9363 14.086 32.0723C13.934 32.2043 13.818 32.3663 13.738 32.5583C13.654 32.7503 13.612 32.9683 13.612 33.2123C13.612 33.7243 13.762 34.1303 14.062 34.4303C14.358 34.7263 14.77 34.9103 15.298 34.9823L15.298 31.6583ZM18.148 30.7943C18.308 30.9263 18.448 31.0843 18.568 31.2683C18.684 31.4523 18.78 31.6503 18.856 31.8623C18.932 32.0703 18.988 32.2863 19.024 32.5103C19.064 32.7343 19.084 32.9563 19.084 33.1763C19.084 33.5963 19.014 33.9843 18.874 34.3403C18.73 34.6923 18.522 34.9983 18.25 35.2583C17.974 35.5143 17.634 35.7143 17.23 35.8583C16.826 36.0023 16.362 36.0743 15.838 36.0743C15.414 36.0743 15.018 36.0103 14.65 35.8823C14.282 35.7503 13.964 35.5623 13.696 35.3183C13.424 35.0743 13.212 34.7763 13.06 34.4243C12.904 34.0723 12.826 33.6763 12.826 33.2363C12.826 32.8723 12.888 32.5363 13.012 32.2283C13.132 31.9163 13.308 31.6483 13.54 31.4243C13.768 31.1963 14.052 31.0183 14.392 30.8903C14.728 30.7623 15.112 30.6983 15.544 30.6983C15.712 30.6983 15.824 30.7163 15.88 30.7523C15.936 30.7883 15.964 30.8563 15.964 30.9563L15.964 35.0183C16.348 35.0063 16.682 34.9543 16.966 34.8623C17.25 34.7663 17.488 34.6343 17.68 34.4663C17.868 34.2983 18.01 34.0983 18.106 33.8663C18.198 33.6343 18.244 33.3743 18.244 33.0863C18.244 32.8183 18.214 32.5883 18.154 32.3963C18.09 32.2003 18.022 32.0323 17.95 31.8923C17.878 31.7523 17.812 31.6363 17.752 31.5443C17.688 31.4483 17.656 31.3663 17.656 31.2983C17.656 31.2103 17.69 31.1423 17.758 31.0943L18.148 30.7943ZM14.368 24.9264C14.1 25.1264 13.914 25.3424 13.81 25.5744C13.702 25.8064 13.648 26.0664 13.648 26.3544C13.648 26.9184 13.85 27.3524 14.254 27.6564C14.658 27.9604 15.234 28.1124 15.982 28.1124C16.378 28.1124 16.718 28.0784 17.002 28.0104C17.282 27.9424 17.514 27.8424 17.698 27.7104C17.878 27.5784 18.01 27.4164 18.094 27.2244C18.178 27.0324 18.22 26.8144 18.22 26.5704C18.22 26.2184 18.14 25.9124 17.98 25.6524C17.82 25.3884 17.594 25.1464 17.302 24.9264L14.368 24.9264ZM10.162 23.8584L19 23.8584L19 24.4944C19 24.6464 18.926 24.7424 18.778 24.7824L18.04 24.8784C18.352 25.1384 18.604 25.4344 18.796 25.7664C18.988 26.0984 19.084 26.4824 19.084 26.9184C19.084 27.2664 19.018 27.5824 18.886 27.8664C18.75 28.1504 18.552 28.3924 18.292 28.5924C18.032 28.7924 17.708 28.9464 17.32 29.0544C16.932 29.1624 16.486 29.2164 15.982 29.2164C15.534 29.2164 15.118 29.1564 14.734 29.0364C14.346 28.9164 14.01 28.7444 13.726 28.5204C13.442 28.2964 13.22 28.0224 13.06 27.6984C12.896 27.3704 12.814 27.0024 12.814 26.5944C12.814 26.2224 12.878 25.9044 13.006 25.6404C13.13 25.3724 13.304 25.1344 13.528 24.9264L10.162 24.9264L10.162 23.8584ZM15.226 20.7836C14.37 20.7836 13.538 20.8936 12.73 21.1136C11.922 21.3296 11.154 21.6476 10.426 22.0676C10.366 22.0996 10.314 22.1196 10.27 22.1276C10.222 22.1356 10.182 22.1336 10.15 22.1216C10.114 22.1096 10.084 22.0916 10.06 22.0676C10.032 22.0396 10.008 22.0096 9.98799 21.9776L9.69399 21.5036C10.158 21.2036 10.616 20.9496 11.068 20.7416C11.52 20.5296 11.974 20.3596 12.43 20.2316C12.882 20.0996 13.34 20.0036 13.804 19.9436C14.268 19.8836 14.742 19.8536 15.226 19.8536C15.714 19.8536 16.19 19.8836 16.654 19.9436C17.114 20.0036 17.572 20.0996 18.028 20.2316C18.484 20.3596 18.938 20.5296 19.39 20.7416C19.842 20.9496 20.298 21.2036 20.758 21.5036L20.47 21.9776C20.45 22.0096 20.426 22.0396 20.398 22.0676C20.374 22.0916 20.344 22.1096 20.308 22.1216C20.276 22.1336 20.236 22.1356 20.188 22.1276C20.14 22.1196 20.086 22.0996 20.026 22.0676C19.298 21.6476 18.53 21.3296 17.722 21.1136C16.914 20.8936 16.082 20.7836 15.226 20.7836Z" fill="white"/>
<defs>
<linearGradient id="paint0_linear_872_24464" x1="188" y1="-8.98661" x2="188" y2="227" gradientUnits="userSpaceOnUse">
<stop stop-color="#03BAE2"/>
<stop offset="1" stop-color="#03BAE2" stop-opacity="0"/>
</linearGradient>
</defs>
</svg>
