<svg width="259" height="283" viewBox="0 0 259 283" fill="none" xmlns="http://www.w3.org/2000/svg">
<path d="M23.4723 42.6602V41.7909L27.3075 35.7227H27.9382V37.0693H27.5121L24.6143 41.6545V41.7227H29.7791V42.6602H23.4723ZM27.5803 44.45V42.396V41.9911V35.7227H28.5859V44.45H27.5803ZM34.2227 44.5693C33.5806 44.5693 33.0337 44.3946 32.582 44.0451C32.1303 43.6928 31.7852 43.1829 31.5465 42.5153C31.3079 41.8448 31.1886 41.0352 31.1886 40.0863C31.1886 39.1431 31.3079 38.3377 31.5465 37.6701C31.788 36.9997 32.1346 36.4883 32.5863 36.136C33.0408 35.7809 33.5863 35.6034 34.2227 35.6034C34.859 35.6034 35.4031 35.7809 35.8548 36.136C36.3093 36.4883 36.6559 36.9997 36.8945 37.6701C37.136 38.3377 37.2567 39.1431 37.2567 40.0863C37.2567 41.0352 37.1374 41.8448 36.8988 42.5153C36.6602 43.1829 36.315 43.6928 35.8633 44.0451C35.4116 44.3946 34.8647 44.5693 34.2227 44.5693ZM34.2227 43.6318C34.859 43.6318 35.3533 43.325 35.7056 42.7113C36.0579 42.0977 36.234 41.2227 36.234 40.0863C36.234 39.3306 36.1531 38.6872 35.9911 38.1559C35.832 37.6247 35.6019 37.2198 35.3008 36.9414C35.0025 36.663 34.6431 36.5238 34.2227 36.5238C33.592 36.5238 33.0991 36.8349 32.744 37.4571C32.3888 38.0764 32.2113 38.9528 32.2113 40.0863C32.2113 40.842 32.2908 41.484 32.4499 42.0125C32.609 42.5409 32.8377 42.9428 33.136 43.2184C33.4371 43.494 33.7994 43.6318 34.2227 43.6318ZM39.8306 42.0636L39.8136 40.8193H40.0181L42.8817 37.9045H44.1261L41.0749 40.9897H40.9897L39.8306 42.0636ZM38.8931 44.45V35.7227H39.8988V44.45H38.8931ZM43.0522 44.45L40.4954 41.2113L41.2113 40.5125L44.3306 44.45H43.0522Z" fill="#B8C0CC"/>
<path d="M26.6843 92.4693C26.1218 92.4693 25.6204 92.3727 25.18 92.1795C24.7425 91.9863 24.3945 91.7179 24.136 91.3741C23.8803 91.0275 23.7411 90.6255 23.7184 90.1682H24.7923C24.815 90.4494 24.9116 90.6923 25.082 90.8969C25.2525 91.0986 25.4755 91.2548 25.7511 91.3656C26.0266 91.4764 26.332 91.5318 26.6673 91.5318C27.0423 91.5318 27.3746 91.4665 27.6644 91.3358C27.9542 91.2051 28.1815 91.0233 28.3462 90.7903C28.511 90.5574 28.5934 90.2875 28.5934 89.9807C28.5934 89.6596 28.5138 89.377 28.3548 89.1326C28.1957 88.8855 27.9627 88.6923 27.6559 88.5531C27.3491 88.4139 26.9741 88.3443 26.5309 88.3443H25.832V87.4068H26.5309C26.8775 87.4068 27.1815 87.3443 27.4428 87.2193C27.707 87.0943 27.913 86.9182 28.0607 86.6909C28.2113 86.4636 28.2866 86.1966 28.2866 85.8897C28.2866 85.5943 28.2212 85.3372 28.0906 85.1184C27.9599 84.8997 27.7752 84.7292 27.5366 84.6071C27.3008 84.4849 27.0224 84.4238 26.7013 84.4238C26.4002 84.4238 26.1161 84.4792 25.8491 84.59C25.5849 84.698 25.369 84.8557 25.2013 85.063C25.0337 85.2676 24.9428 85.5147 24.9286 85.8045H23.9059C23.9229 85.3471 24.0607 84.9466 24.3192 84.6028C24.5778 84.2562 24.9158 83.9863 25.3335 83.7932C25.7539 83.6 26.2156 83.5034 26.7184 83.5034C27.2582 83.5034 27.7212 83.6128 28.1076 83.8315C28.494 84.0474 28.7908 84.3329 28.9982 84.688C29.2056 85.0432 29.3093 85.4267 29.3093 85.8386C29.3093 86.3301 29.18 86.7491 28.9215 87.0957C28.6658 87.4423 28.3178 87.6824 27.8775 87.8159V87.8841C28.4286 87.975 28.859 88.2094 29.1687 88.5872C29.4783 88.9622 29.6332 89.4267 29.6332 89.9807C29.6332 90.4551 29.5039 90.8812 29.2454 91.2591C28.9897 91.6341 28.6403 91.9295 28.1971 92.1454C27.7539 92.3613 27.2496 92.4693 26.6843 92.4693ZM34.2227 92.4693C33.5806 92.4693 33.0337 92.2946 32.582 91.9451C32.1303 91.5929 31.7852 91.0829 31.5465 90.4153C31.3079 89.7449 31.1886 88.9352 31.1886 87.9863C31.1886 87.0432 31.3079 86.2378 31.5465 85.5701C31.788 84.8997 32.1346 84.3883 32.5863 84.0361C33.0408 83.6809 33.5863 83.5034 34.2227 83.5034C34.859 83.5034 35.4031 83.6809 35.8548 84.0361C36.3093 84.3883 36.6559 84.8997 36.8945 85.5701C37.136 86.2378 37.2567 87.0432 37.2567 87.9863C37.2567 88.9352 37.1374 89.7449 36.8988 90.4153C36.6602 91.0829 36.315 91.5929 35.8633 91.9451C35.4116 92.2946 34.8647 92.4693 34.2227 92.4693ZM34.2227 91.5318C34.859 91.5318 35.3533 91.225 35.7056 90.6113C36.0579 89.9977 36.234 89.1227 36.234 87.9863C36.234 87.2307 36.1531 86.5872 35.9911 86.0559C35.832 85.5247 35.6019 85.1199 35.3008 84.8415C35.0025 84.563 34.6431 84.4238 34.2227 84.4238C33.592 84.4238 33.0991 84.7349 32.744 85.3571C32.3888 85.9764 32.2113 86.8528 32.2113 87.9863C32.2113 88.742 32.2908 89.3841 32.4499 89.9125C32.609 90.4409 32.8377 90.8429 33.136 91.1184C33.4371 91.394 33.7994 91.5318 34.2227 91.5318ZM39.8306 89.9636L39.8136 88.7193H40.0181L42.8817 85.8045H44.1261L41.0749 88.8897H40.9897L39.8306 89.9636ZM38.8931 92.35V83.6227H39.8988V92.35H38.8931ZM43.0522 92.35L40.4954 89.1113L41.2113 88.4125L44.3306 92.35H43.0522Z" fill="#B8C0CC"/>
<path d="M52.5 87.85H258" stroke="#334E68"/>
<path d="M24.1104 140.25V139.483L26.9911 136.33C27.3292 135.96 27.6076 135.639 27.8263 135.366C28.0451 135.091 28.207 134.832 28.3121 134.591C28.4201 134.347 28.4741 134.091 28.4741 133.824C28.4741 133.517 28.4002 133.251 28.2525 133.027C28.1076 132.803 27.9087 132.629 27.6559 132.507C27.4031 132.385 27.119 132.324 26.8036 132.324C26.4684 132.324 26.1758 132.393 25.9258 132.533C25.6786 132.669 25.4869 132.861 25.3505 133.108C25.217 133.355 25.1502 133.645 25.1502 133.977H24.1445C24.1445 133.466 24.2624 133.017 24.4982 132.631C24.734 132.244 25.055 131.943 25.4613 131.727C25.8704 131.511 26.3292 131.403 26.8377 131.403C27.3491 131.403 27.8022 131.511 28.1971 131.727C28.592 131.943 28.9016 132.234 29.1261 132.601C29.3505 132.967 29.4627 133.375 29.4627 133.824C29.4627 134.145 29.4045 134.459 29.288 134.766C29.1744 135.07 28.9755 135.409 28.6914 135.784C28.4102 136.156 28.0195 136.611 27.5195 137.148L25.5593 139.244V139.312H29.6161V140.25H24.1104ZM34.2227 140.369C33.5806 140.369 33.0337 140.195 32.582 139.845C32.1303 139.493 31.7852 138.983 31.5465 138.315C31.3079 137.645 31.1886 136.835 31.1886 135.886C31.1886 134.943 31.3079 134.138 31.5465 133.47C31.788 132.8 32.1346 132.288 32.5863 131.936C33.0408 131.581 33.5863 131.403 34.2227 131.403C34.859 131.403 35.4031 131.581 35.8548 131.936C36.3093 132.288 36.6559 132.8 36.8945 133.47C37.136 134.138 37.2567 134.943 37.2567 135.886C37.2567 136.835 37.1374 137.645 36.8988 138.315C36.6602 138.983 36.315 139.493 35.8633 139.845C35.4116 140.195 34.8647 140.369 34.2227 140.369ZM34.2227 139.432C34.859 139.432 35.3533 139.125 35.7056 138.511C36.0579 137.898 36.234 137.023 36.234 135.886C36.234 135.131 36.1531 134.487 35.9911 133.956C35.832 133.425 35.6019 133.02 35.3008 132.741C35.0025 132.463 34.6431 132.324 34.2227 132.324C33.592 132.324 33.0991 132.635 32.744 133.257C32.3888 133.876 32.2113 134.753 32.2113 135.886C32.2113 136.642 32.2908 137.284 32.4499 137.812C32.609 138.341 32.8377 138.743 33.136 139.018C33.4371 139.294 33.7994 139.432 34.2227 139.432ZM39.8306 137.864L39.8136 136.619H40.0181L42.8817 133.705H44.1261L41.0749 136.79H40.9897L39.8306 137.864ZM38.8931 140.25V131.523H39.8988V140.25H38.8931ZM43.0522 140.25L40.4954 137.011L41.2113 136.312L44.3306 140.25H43.0522Z" fill="#B8C0CC"/>
<path d="M52.5 135.75H258" stroke="#334E68"/>
<path d="M28.8661 179.423V188.15H27.8093V180.531H27.7582L25.6275 181.945V180.871L27.8093 179.423H28.8661ZM34.2227 188.269C33.5806 188.269 33.0337 188.095 32.582 187.745C32.1303 187.393 31.7852 186.883 31.5465 186.215C31.3079 185.545 31.1886 184.735 31.1886 183.786C31.1886 182.843 31.3079 182.038 31.5465 181.37C31.788 180.7 32.1346 180.188 32.5863 179.836C33.0408 179.481 33.5863 179.303 34.2227 179.303C34.859 179.303 35.4031 179.481 35.8548 179.836C36.3093 180.188 36.6559 180.7 36.8945 181.37C37.136 182.038 37.2567 182.843 37.2567 183.786C37.2567 184.735 37.1374 185.545 36.8988 186.215C36.6602 186.883 36.315 187.393 35.8633 187.745C35.4116 188.095 34.8647 188.269 34.2227 188.269ZM34.2227 187.332C34.859 187.332 35.3533 187.025 35.7056 186.411C36.0579 185.798 36.234 184.923 36.234 183.786C36.234 183.031 36.1531 182.387 35.9911 181.856C35.832 181.325 35.6019 180.92 35.3008 180.641C35.0025 180.363 34.6431 180.224 34.2227 180.224C33.592 180.224 33.0991 180.535 32.744 181.157C32.3888 181.776 32.2113 182.653 32.2113 183.786C32.2113 184.542 32.2908 185.184 32.4499 185.712C32.609 186.241 32.8377 186.643 33.136 186.918C33.4371 187.194 33.7994 187.332 34.2227 187.332ZM39.8306 185.764L39.8136 184.519H40.0181L42.8817 181.604H44.1261L41.0749 184.69H40.9897L39.8306 185.764ZM38.8931 188.15V179.423H39.8988V188.15H38.8931ZM43.0522 188.15L40.4954 184.911L41.2113 184.212L44.3306 188.15H43.0522Z" fill="#B8C0CC"/>
<path d="M52.5 183.65H258" stroke="#334E68"/>
<path d="M40.75 229.919C40.108 229.919 39.5611 229.745 39.1094 229.395C38.6577 229.043 38.3125 228.533 38.0739 227.865C37.8352 227.195 37.7159 226.385 37.7159 225.436C37.7159 224.493 37.8352 223.688 38.0739 223.02C38.3153 222.35 38.6619 221.838 39.1136 221.486C39.5682 221.131 40.1136 220.953 40.75 220.953C41.3864 220.953 41.9304 221.131 42.3821 221.486C42.8366 221.838 43.1832 222.35 43.4219 223.02C43.6634 223.688 43.7841 224.493 43.7841 225.436C43.7841 226.385 43.6648 227.195 43.4261 227.865C43.1875 228.533 42.8423 229.043 42.3906 229.395C41.9389 229.745 41.392 229.919 40.75 229.919ZM40.75 228.982C41.3864 228.982 41.8807 228.675 42.233 228.061C42.5852 227.448 42.7614 226.573 42.7614 225.436C42.7614 224.681 42.6804 224.037 42.5185 223.506C42.3594 222.975 42.1293 222.57 41.8281 222.291C41.5298 222.013 41.1705 221.874 40.75 221.874C40.1193 221.874 39.6264 222.185 39.2713 222.807C38.9162 223.426 38.7386 224.303 38.7386 225.436C38.7386 226.192 38.8182 226.834 38.9773 227.362C39.1364 227.891 39.3651 228.293 39.6634 228.568C39.9645 228.844 40.3267 228.982 40.75 228.982Z" fill="#B8C0CC"/>
<rect x="53" y="31.5" width="205" height="195" stroke="#334E68"/>
<path d="M91.3288 239H90.2209L93.4254 230.273H94.5163L97.7209 239H96.6129L94.005 231.653H93.9368L91.3288 239ZM91.7379 235.591H96.2038V236.528H91.7379V235.591ZM101.859 232.455V233.307H98.3303V232.455H101.859ZM99.3871 239V231.551C99.3871 231.176 99.4751 230.864 99.6513 230.614C99.8274 230.364 100.056 230.176 100.337 230.051C100.619 229.926 100.915 229.864 101.228 229.864C101.475 229.864 101.677 229.884 101.833 229.923C101.989 229.963 102.106 230 102.183 230.034L101.893 230.903C101.842 230.886 101.771 230.865 101.68 230.839C101.592 230.814 101.475 230.801 101.33 230.801C100.998 230.801 100.758 230.885 100.61 231.053C100.465 231.22 100.393 231.466 100.393 231.79V239H99.3871ZM106.115 232.455V233.307H102.723V232.455H106.115ZM103.711 230.886H104.717V237.125C104.717 237.409 104.758 237.622 104.841 237.764C104.926 237.903 105.034 237.997 105.164 238.045C105.298 238.091 105.439 238.114 105.586 238.114C105.697 238.114 105.788 238.108 105.859 238.097C105.93 238.082 105.987 238.071 106.029 238.062L106.234 238.966C106.166 238.991 106.071 239.017 105.949 239.043C105.826 239.071 105.672 239.085 105.484 239.085C105.2 239.085 104.922 239.024 104.649 238.902C104.379 238.78 104.154 238.594 103.975 238.344C103.799 238.094 103.711 237.778 103.711 237.398V230.886ZM110.301 239.136C109.671 239.136 109.127 238.997 108.669 238.719C108.215 238.438 107.864 238.045 107.617 237.543C107.373 237.037 107.25 236.449 107.25 235.778C107.25 235.108 107.373 234.517 107.617 234.006C107.864 233.491 108.208 233.091 108.648 232.804C109.091 232.514 109.608 232.369 110.199 232.369C110.54 232.369 110.877 232.426 111.209 232.54C111.542 232.653 111.844 232.838 112.117 233.094C112.39 233.347 112.607 233.682 112.769 234.099C112.931 234.517 113.012 235.031 113.012 235.642V236.068H107.966V235.199H111.989C111.989 234.83 111.915 234.5 111.767 234.21C111.623 233.92 111.415 233.692 111.145 233.524C110.878 233.357 110.563 233.273 110.199 233.273C109.799 233.273 109.452 233.372 109.159 233.571C108.87 233.767 108.647 234.023 108.49 234.338C108.334 234.653 108.256 234.991 108.256 235.352V235.932C108.256 236.426 108.341 236.845 108.512 237.189C108.685 237.53 108.925 237.79 109.232 237.969C109.539 238.145 109.895 238.233 110.301 238.233C110.566 238.233 110.804 238.196 111.017 238.122C111.233 238.045 111.419 237.932 111.576 237.781C111.732 237.628 111.853 237.437 111.938 237.21L112.909 237.483C112.807 237.812 112.635 238.102 112.394 238.352C112.152 238.599 111.854 238.793 111.499 238.932C111.144 239.068 110.745 239.136 110.301 239.136ZM114.542 239V232.455H115.513V233.443H115.581C115.701 233.119 115.917 232.857 116.229 232.655C116.542 232.453 116.894 232.352 117.286 232.352C117.36 232.352 117.452 232.354 117.563 232.357C117.674 232.359 117.757 232.364 117.814 232.369V233.392C117.78 233.384 117.702 233.371 117.58 233.354C117.461 233.334 117.334 233.324 117.201 233.324C116.882 233.324 116.598 233.391 116.348 233.524C116.101 233.655 115.905 233.837 115.76 234.07C115.618 234.3 115.547 234.562 115.547 234.858V239H114.542Z" fill="#B8C0CC"/>
<path d="M189.43 239V230.273H192.481C193.089 230.273 193.59 230.378 193.985 230.588C194.38 230.795 194.674 231.075 194.867 231.428C195.061 231.777 195.157 232.165 195.157 232.591C195.157 232.966 195.09 233.276 194.957 233.52C194.826 233.764 194.653 233.957 194.437 234.099C194.224 234.241 193.992 234.347 193.742 234.415V234.5C194.009 234.517 194.278 234.611 194.548 234.781C194.818 234.952 195.044 235.196 195.225 235.514C195.407 235.832 195.498 236.222 195.498 236.682C195.498 237.119 195.399 237.513 195.2 237.862C195.001 238.212 194.687 238.489 194.258 238.693C193.829 238.898 193.271 239 192.583 239H189.43ZM190.487 238.062H192.583C193.274 238.062 193.764 237.929 194.053 237.662C194.346 237.392 194.492 237.065 194.492 236.682C194.492 236.386 194.417 236.114 194.267 235.864C194.116 235.611 193.901 235.409 193.623 235.259C193.345 235.105 193.015 235.028 192.634 235.028H190.487V238.062ZM190.487 234.108H192.447C192.765 234.108 193.052 234.045 193.308 233.92C193.566 233.795 193.771 233.619 193.921 233.392C194.075 233.165 194.151 232.898 194.151 232.591C194.151 232.207 194.018 231.882 193.751 231.615C193.484 231.345 193.061 231.21 192.481 231.21H190.487V234.108ZM199.843 239.136C199.212 239.136 198.668 238.997 198.21 238.719C197.756 238.438 197.405 238.045 197.158 237.543C196.914 237.037 196.791 236.449 196.791 235.778C196.791 235.108 196.914 234.517 197.158 234.006C197.405 233.491 197.749 233.091 198.189 232.804C198.632 232.514 199.149 232.369 199.74 232.369C200.081 232.369 200.418 232.426 200.75 232.54C201.083 232.653 201.385 232.838 201.658 233.094C201.931 233.347 202.148 233.682 202.31 234.099C202.472 234.517 202.553 235.031 202.553 235.642V236.068H197.507V235.199H201.53C201.53 234.83 201.456 234.5 201.308 234.21C201.164 233.92 200.956 233.692 200.686 233.524C200.419 233.357 200.104 233.273 199.74 233.273C199.34 233.273 198.993 233.372 198.7 233.571C198.411 233.767 198.188 234.023 198.031 234.338C197.875 234.653 197.797 234.991 197.797 235.352V235.932C197.797 236.426 197.882 236.845 198.053 237.189C198.226 237.53 198.466 237.79 198.773 237.969C199.08 238.145 199.436 238.233 199.843 238.233C200.107 238.233 200.345 238.196 200.558 238.122C200.774 238.045 200.96 237.932 201.117 237.781C201.273 237.628 201.394 237.437 201.479 237.21L202.45 237.483C202.348 237.812 202.176 238.102 201.935 238.352C201.693 238.599 201.395 238.793 201.04 238.932C200.685 239.068 200.286 239.136 199.843 239.136ZM206.997 232.455V233.307H203.469V232.455H206.997ZM204.526 239V231.551C204.526 231.176 204.614 230.864 204.79 230.614C204.966 230.364 205.195 230.176 205.476 230.051C205.757 229.926 206.054 229.864 206.367 229.864C206.614 229.864 206.816 229.884 206.972 229.923C207.128 229.963 207.244 230 207.321 230.034L207.031 230.903C206.98 230.886 206.909 230.865 206.818 230.839C206.73 230.814 206.614 230.801 206.469 230.801C206.137 230.801 205.896 230.885 205.749 231.053C205.604 231.22 205.531 231.466 205.531 231.79V239H204.526ZM210.796 239.136C210.205 239.136 209.687 238.996 209.241 238.714C208.798 238.433 208.451 238.04 208.201 237.534C207.954 237.028 207.83 236.437 207.83 235.761C207.83 235.08 207.954 234.484 208.201 233.976C208.451 233.467 208.798 233.072 209.241 232.791C209.687 232.51 210.205 232.369 210.796 232.369C211.387 232.369 211.904 232.51 212.347 232.791C212.794 233.072 213.14 233.467 213.387 233.976C213.637 234.484 213.762 235.08 213.762 235.761C213.762 236.437 213.637 237.028 213.387 237.534C213.14 238.04 212.794 238.433 212.347 238.714C211.904 238.996 211.387 239.136 210.796 239.136ZM210.796 238.233C211.245 238.233 211.615 238.118 211.904 237.888C212.194 237.658 212.409 237.355 212.548 236.98C212.687 236.605 212.757 236.199 212.757 235.761C212.757 235.324 212.687 234.916 212.548 234.538C212.409 234.161 212.194 233.855 211.904 233.622C211.615 233.389 211.245 233.273 210.796 233.273C210.347 233.273 209.978 233.389 209.688 233.622C209.399 233.855 209.184 234.161 209.045 234.538C208.906 234.916 208.836 235.324 208.836 235.761C208.836 236.199 208.906 236.605 209.045 236.98C209.184 237.355 209.399 237.658 209.688 237.888C209.978 238.118 210.347 238.233 210.796 238.233ZM215.297 239V232.455H216.269V233.443H216.337C216.456 233.119 216.672 232.857 216.985 232.655C217.297 232.453 217.65 232.352 218.042 232.352C218.116 232.352 218.208 232.354 218.319 232.357C218.43 232.359 218.513 232.364 218.57 232.369V233.392C218.536 233.384 218.458 233.371 218.336 233.354C218.216 233.334 218.09 233.324 217.956 233.324C217.638 233.324 217.354 233.391 217.104 233.524C216.857 233.655 216.661 233.837 216.516 234.07C216.374 234.3 216.303 234.562 216.303 234.858V239H215.297ZM222.307 239.136C221.677 239.136 221.133 238.997 220.675 238.719C220.221 238.438 219.87 238.045 219.623 237.543C219.378 237.037 219.256 236.449 219.256 235.778C219.256 235.108 219.378 234.517 219.623 234.006C219.87 233.491 220.214 233.091 220.654 232.804C221.097 232.514 221.614 232.369 222.205 232.369C222.546 232.369 222.883 232.426 223.215 232.54C223.547 232.653 223.85 232.838 224.123 233.094C224.395 233.347 224.613 233.682 224.775 234.099C224.937 234.517 225.018 235.031 225.018 235.642V236.068H219.972V235.199H223.995C223.995 234.83 223.921 234.5 223.773 234.21C223.628 233.92 223.421 233.692 223.151 233.524C222.884 233.357 222.569 233.273 222.205 233.273C221.805 233.273 221.458 233.372 221.165 233.571C220.876 233.767 220.653 234.023 220.496 234.338C220.34 234.653 220.262 234.991 220.262 235.352V235.932C220.262 236.426 220.347 236.845 220.518 237.189C220.691 237.53 220.931 237.79 221.238 237.969C221.545 238.145 221.901 238.233 222.307 238.233C222.572 238.233 222.81 238.196 223.023 238.122C223.239 238.045 223.425 237.932 223.581 237.781C223.738 237.628 223.858 237.437 223.944 237.21L224.915 237.483C224.813 237.812 224.641 238.102 224.4 238.352C224.158 238.599 223.86 238.793 223.505 238.932C223.15 239.068 222.751 239.136 222.307 239.136Z" fill="#B8C0CC"/>
<rect x="52.5" y="205" width="101" height="22" rx="1.5" fill="#475569"/>
<rect x="154.5" y="31" width="103" height="196" rx="1.5" fill="#4006DE" fill-opacity="0.8"/>
<path d="M7.724 134.788C7.724 134.724 7.75 134.668 7.802 134.62L8.3 134.158C8.708 134.51 9.026 134.938 9.254 135.442C9.482 135.942 9.596 136.548 9.596 137.26C9.596 137.876 9.49 138.436 9.278 138.94C9.062 139.444 8.762 139.874 8.378 140.23C7.99 140.586 7.526 140.862 6.986 141.058C6.446 141.254 5.852 141.352 5.204 141.352C4.556 141.352 3.962 141.25 3.422 141.046C2.882 140.842 2.418 140.556 2.03 140.188C1.642 139.816 1.342 139.372 1.13 138.856C0.913999 138.34 0.805999 137.77 0.805999 137.146C0.805999 136.534 0.903999 135.994 1.1 135.526C1.296 135.058 1.562 134.646 1.898 134.29L2.432 134.674C2.472 134.698 2.506 134.73 2.534 134.77C2.558 134.806 2.57 134.856 2.57 134.92C2.57 134.992 2.532 135.08 2.456 135.184C2.376 135.288 2.288 135.424 2.192 135.592C2.096 135.76 2.01 135.97 1.934 136.222C1.854 136.474 1.814 136.784 1.814 137.152C1.814 137.596 1.892 138.002 2.048 138.37C2.2 138.738 2.422 139.056 2.714 139.324C3.006 139.588 3.362 139.794 3.782 139.942C4.202 140.09 4.676 140.164 5.204 140.164C5.74 140.164 6.218 140.088 6.638 139.936C7.058 139.78 7.414 139.57 7.706 139.306C7.994 139.038 8.214 138.724 8.366 138.364C8.518 138 8.594 137.608 8.594 137.188C8.594 136.932 8.58 136.702 8.552 136.498C8.52 136.29 8.472 136.1 8.408 135.928C8.344 135.752 8.264 135.59 8.168 135.442C8.068 135.29 7.95 135.14 7.814 134.992C7.754 134.924 7.724 134.856 7.724 134.788ZM6.764 129.266C6.78 129.758 6.82 130.178 6.884 130.526C6.944 130.87 7.024 131.152 7.124 131.372C7.224 131.588 7.342 131.746 7.478 131.846C7.614 131.942 7.766 131.99 7.934 131.99C8.094 131.99 8.232 131.964 8.348 131.912C8.464 131.86 8.56 131.79 8.636 131.702C8.708 131.61 8.762 131.504 8.798 131.384C8.83 131.26 8.846 131.128 8.846 130.988C8.846 130.8 8.828 130.628 8.792 130.472C8.752 130.316 8.696 130.17 8.624 130.034C8.552 129.894 8.466 129.762 8.366 129.638C8.266 129.51 8.152 129.386 8.024 129.266L6.764 129.266ZM4.28 132.716C3.956 132.38 3.714 132.018 3.554 131.63C3.394 131.242 3.314 130.812 3.314 130.34C3.314 130 3.37 129.698 3.482 129.434C3.594 129.17 3.75 128.948 3.95 128.768C4.15 128.588 4.392 128.452 4.676 128.36C4.96 128.268 5.272 128.222 5.612 128.222L9.5 128.222L9.5 128.696C9.5 128.8 9.484 128.88 9.452 128.936C9.416 128.992 9.348 129.036 9.248 129.068L8.672 129.188C8.82 129.348 8.952 129.504 9.068 129.656C9.18 129.808 9.276 129.968 9.356 130.136C9.432 130.304 9.49 130.484 9.53 130.676C9.574 130.864 9.596 131.074 9.596 131.306C9.596 131.542 9.564 131.764 9.5 131.972C9.432 132.18 9.332 132.362 9.2 132.518C9.068 132.67 8.902 132.792 8.702 132.884C8.498 132.972 8.258 133.016 7.982 133.016C7.742 133.016 7.512 132.95 7.292 132.818C7.068 132.686 6.87 132.472 6.698 132.176C6.526 131.88 6.386 131.494 6.278 131.018C6.166 130.542 6.102 129.958 6.086 129.266L5.612 129.266C5.14 129.266 4.784 129.368 4.544 129.572C4.3 129.776 4.178 130.074 4.178 130.466C4.178 130.73 4.212 130.952 4.28 131.132C4.344 131.308 4.418 131.462 4.502 131.594C4.582 131.722 4.656 131.834 4.724 131.93C4.788 132.022 4.82 132.114 4.82 132.206C4.82 132.278 4.802 132.34 4.766 132.392C4.726 132.444 4.678 132.488 4.622 132.524L4.28 132.716ZM0.661999 124.991L9.5 124.991L9.5 126.059L0.661999 126.059L0.661999 124.991ZM0.661999 121.655L9.5 121.655L9.5 122.723L0.661999 122.723L0.661999 121.655ZM4.424 115.884C4.512 115.932 4.556 116.006 4.556 116.106C4.556 116.166 4.534 116.234 4.49 116.31C4.446 116.386 4.398 116.48 4.346 116.592C4.29 116.7 4.24 116.83 4.196 116.982C4.148 117.134 4.124 117.314 4.124 117.522C4.124 117.702 4.148 117.864 4.196 118.008C4.24 118.152 4.302 118.276 4.382 118.38C4.462 118.48 4.556 118.558 4.664 118.614C4.768 118.666 4.882 118.692 5.006 118.692C5.162 118.692 5.292 118.648 5.396 118.56C5.5 118.468 5.59 118.348 5.666 118.2C5.742 118.052 5.81 117.884 5.87 117.696C5.926 117.508 5.988 117.316 6.056 117.12C6.12 116.92 6.192 116.726 6.272 116.538C6.352 116.35 6.452 116.182 6.572 116.034C6.692 115.886 6.84 115.768 7.016 115.68C7.188 115.588 7.396 115.542 7.64 115.542C7.92 115.542 8.18 115.592 8.42 115.692C8.656 115.792 8.862 115.94 9.038 116.136C9.21 116.332 9.346 116.572 9.446 116.856C9.546 117.14 9.596 117.468 9.596 117.84C9.596 118.264 9.528 118.648 9.392 118.992C9.252 119.336 9.074 119.628 8.858 119.868L8.45 119.616C8.398 119.584 8.358 119.546 8.33 119.502C8.302 119.458 8.288 119.402 8.288 119.334C8.288 119.262 8.316 119.186 8.372 119.106C8.428 119.026 8.49 118.93 8.558 118.818C8.626 118.702 8.688 118.562 8.744 118.398C8.8 118.234 8.828 118.03 8.828 117.786C8.828 117.578 8.802 117.396 8.75 117.24C8.694 117.084 8.62 116.954 8.528 116.85C8.436 116.746 8.33 116.67 8.21 116.622C8.09 116.57 7.962 116.544 7.826 116.544C7.658 116.544 7.52 116.59 7.412 116.682C7.3 116.77 7.206 116.888 7.13 117.036C7.05 117.184 6.982 117.354 6.926 117.546C6.866 117.734 6.804 117.928 6.74 118.128C6.676 118.324 6.604 118.518 6.524 118.71C6.44 118.898 6.336 119.066 6.212 119.214C6.088 119.362 5.936 119.482 5.756 119.574C5.572 119.662 5.35 119.706 5.09 119.706C4.858 119.706 4.636 119.658 4.424 119.562C4.208 119.466 4.02 119.326 3.86 119.142C3.696 118.958 3.566 118.732 3.47 118.464C3.374 118.196 3.326 117.89 3.326 117.546C3.326 117.146 3.39 116.788 3.518 116.472C3.642 116.152 3.814 115.876 4.034 115.644L4.424 115.884Z" fill="white"/>
</svg>
