<svg width="259" height="180" viewBox="0 0 259 180" fill="none" xmlns="http://www.w3.org/2000/svg">
<g opacity="0.2">
<path fill-rule="evenodd" clip-rule="evenodd" d="M145.688 -46.625C138.422 -46.625 132.255 -41.8321 130.215 -35.2164C129.752 -33.7158 129.5 -32.1136 129.5 -30.4375H178.062C178.062 -32.1136 177.81 -33.7158 177.348 -35.2164C175.308 -41.8321 169.141 -46.625 161.875 -46.625H145.688ZM116.949 -45.3554C122.342 -55.7232 133.179 -62.8125 145.688 -62.8125H161.875C174.384 -62.8125 185.221 -55.7232 190.613 -45.3554C193.038 -45.1876 195.459 -45.0034 197.875 -44.8029C214.487 -43.4242 226.625 -29.3279 226.625 -13.0822V99.0625C226.625 116.943 212.13 131.438 194.25 131.438H178.062V143.578C178.062 154.753 169.003 163.812 157.828 163.812H52.6094C41.4342 163.812 32.375 154.753 32.375 143.578V22.1719C32.375 10.9967 41.4342 1.9375 52.6094 1.9375H80.9375V-13.0821C80.9375 -29.3278 93.0755 -43.4242 109.687 -44.8029C112.103 -45.0034 114.524 -45.1876 116.949 -45.3554ZM113.388 -28.8614C112.6 -28.7997 111.813 -28.7362 111.026 -28.6709C103.225 -28.0234 97.125 -21.3331 97.125 -13.0821V1.9375H157.828C169.003 1.9375 178.062 10.9967 178.062 22.1719V115.25H194.25C203.19 115.25 210.438 108.003 210.438 99.0625V-13.0822C210.438 -21.3331 204.338 -28.0234 196.537 -28.6709C195.75 -28.7362 194.962 -28.7997 194.174 -28.8614C193.382 -20.6609 186.471 -14.25 178.062 -14.25H129.5C121.092 -14.25 114.181 -20.6609 113.388 -28.8614ZM161.875 22.1719C161.875 19.9369 160.063 18.125 157.828 18.125H52.6094C50.3743 18.125 48.5625 19.9369 48.5625 22.1719V143.578C48.5625 145.813 50.3743 147.625 52.6094 147.625H157.828C160.063 147.625 161.875 145.813 161.875 143.578V22.1719ZM64.75 50.5C64.75 46.03 68.3737 42.4062 72.8438 42.4062H72.9247C77.3947 42.4062 81.0184 46.03 81.0184 50.5V50.5809C81.0184 55.051 77.3947 58.6747 72.9247 58.6747H72.8438C68.3737 58.6747 64.75 55.051 64.75 50.5809V50.5ZM89.0312 50.5C89.0312 46.03 92.6549 42.4062 97.125 42.4062H137.594C142.064 42.4062 145.688 46.03 145.688 50.5C145.688 54.9701 142.064 58.5938 137.594 58.5938H97.125C92.6549 58.5938 89.0312 54.9701 89.0312 50.5ZM64.75 82.875C64.75 78.405 68.3737 74.7812 72.8438 74.7812H72.9247C77.3947 74.7812 81.0184 78.405 81.0184 82.875V82.9559C81.0184 87.426 77.3947 91.0497 72.9247 91.0497H72.8438C68.3737 91.0497 64.75 87.426 64.75 82.9559V82.875ZM89.0312 82.875C89.0312 78.405 92.6549 74.7812 97.125 74.7812H137.594C142.064 74.7812 145.688 78.405 145.688 82.875C145.688 87.3451 142.064 90.9688 137.594 90.9688H97.125C92.6549 90.9688 89.0312 87.3451 89.0312 82.875ZM64.75 115.25C64.75 110.78 68.3737 107.156 72.8438 107.156H72.9247C77.3947 107.156 81.0184 110.78 81.0184 115.25V115.331C81.0184 119.801 77.3947 123.425 72.9247 123.425H72.8438C68.3737 123.425 64.75 119.801 64.75 115.331V115.25ZM89.0312 115.25C89.0312 110.78 92.6549 107.156 97.125 107.156H137.594C142.064 107.156 145.688 110.78 145.688 115.25C145.688 119.72 142.064 123.344 137.594 123.344H97.125C92.6549 123.344 89.0312 119.72 89.0312 115.25Z" fill="white"/>
</g>
</svg>
