<svg width="259" height="180" viewBox="0 0 259 180" fill="none" xmlns="http://www.w3.org/2000/svg">
<g opacity="0.2">
<path fill-rule="evenodd" clip-rule="evenodd" d="M129.5 -6.15625C129.5 -37.4466 154.866 -62.8125 186.156 -62.8125C191.867 -62.8125 197.394 -61.9652 202.611 -60.3839C205.333 -59.5587 207.423 -57.365 208.114 -54.6056C208.806 -51.8463 207.998 -48.9264 205.986 -46.9149L170.172 -11.1007C170.838 -5.96834 173.14 -1.02141 177.081 2.91944C181.021 6.86029 185.968 9.16224 191.101 9.82803L226.915 -25.9862C228.926 -27.9977 231.846 -28.8056 234.606 -28.114C237.365 -27.4225 239.559 -25.3332 240.384 -22.6108C241.965 -17.3936 242.812 -11.8665 242.812 -6.15625C242.812 25.1341 217.447 50.5 186.156 50.5C184.532 50.5 182.922 50.4315 181.329 50.2968C170.352 49.3689 161.16 51.381 156.419 57.1382L79.2461 150.848C72.486 159.057 62.4091 163.812 51.775 163.812C32.1206 163.812 16.1875 147.879 16.1875 128.225C16.1875 117.591 20.943 107.514 29.1518 100.754L122.862 23.581C128.619 18.8397 130.631 9.64845 129.703 -1.32933C129.569 -2.92219 129.5 -4.53215 129.5 -6.15625ZM44.4318 127.391C44.4318 122.921 48.0555 119.297 52.5256 119.297H52.6065C57.0766 119.297 60.7003 122.921 60.7003 127.391V127.472C60.7003 131.942 57.0766 135.566 52.6065 135.566H52.5256C48.0555 135.566 44.4318 131.942 44.4318 127.472V127.391Z" fill="white"/>
<path d="M108.737 14.2434L84.9846 -9.50861V-26.3904C84.9846 -29.2335 83.4929 -31.8681 81.055 -33.3308L40.5863 -57.612C37.4016 -59.5228 33.3251 -59.021 30.6989 -56.3948L22.6052 -48.3011C19.979 -45.6749 19.4772 -41.5984 21.388 -38.4137L45.6692 2.055C47.1319 4.49289 49.7665 5.98455 52.6096 5.98455H69.4914L91.744 28.2372L108.737 14.2434Z" fill="white"/>
<path fill-rule="evenodd" clip-rule="evenodd" d="M135.499 108.006L180.638 153.144C194.861 167.368 217.922 167.368 232.146 153.144C246.37 138.92 246.37 115.859 232.146 101.636L196.473 65.9623C193.103 66.44 189.659 66.687 186.157 66.687C184.078 66.687 182.013 66.5993 179.967 66.4263C175.712 66.0666 172.601 66.3597 170.604 66.8782C169.486 67.1684 168.97 67.4564 168.802 67.5663L135.499 108.006ZM172.34 93.3394C175.501 90.1785 180.626 90.1785 183.787 93.3394L204.021 113.574C207.182 116.735 207.182 121.859 204.021 125.02C200.86 128.181 195.736 128.181 192.575 125.02L172.34 104.786C169.18 101.625 169.18 96.5002 172.34 93.3394Z" fill="white"/>
</g>
</svg>
