<svg width="259" height="180" viewBox="0 0 259 180" fill="none" xmlns="http://www.w3.org/2000/svg">
<g opacity="0.2">
<path d="M126.259 -48.7253C128.325 -49.628 130.674 -49.628 132.74 -48.7253C172.873 -31.1908 210.908 -9.75575 246.368 15.0995C248.934 16.8982 250.231 20.0166 249.698 23.1047C249.164 26.1927 246.896 28.6954 243.876 29.5292C236.484 31.5694 229.157 33.7668 221.895 36.1086C192.423 45.6138 164.051 57.5735 137.022 71.7474L136.987 71.7658C135.762 72.4086 134.539 73.0559 133.319 73.7077C130.936 74.9812 128.074 74.9812 125.691 73.7077C124.459 73.0496 123.224 72.3962 121.987 71.7474C108.622 64.7388 94.9289 58.2716 80.9366 52.3748V49.9608C80.9366 48.5433 81.6641 47.2855 82.7898 46.6035C99.0326 36.7632 115.787 27.6836 133.003 19.414C137.033 17.4786 138.73 12.6432 136.795 8.61389C134.859 4.58455 130.024 2.88708 125.995 4.82248C108.304 13.3196 91.09 22.6486 74.4022 32.7586C69.5094 35.7228 66.2202 40.5741 65.1383 46.0092C55.9123 42.4602 46.565 39.1546 37.104 36.1035C29.8431 33.7619 22.5152 31.5692 15.1241 29.5291C12.1033 28.6953 9.83526 26.1926 9.30193 23.1046C8.7686 20.0165 10.0658 16.8981 12.632 15.0994C48.0916 -9.75586 86.1271 -31.1908 126.259 -48.7253Z" fill="white"/>
<path d="M140.948 87.985C167.267 73.9221 194.919 62.0337 223.665 52.5578C225.114 67.826 226.039 83.2458 226.422 98.7989C226.504 102.136 224.529 105.181 221.449 106.467C190.68 119.313 161.414 135.043 133.988 153.32C131.27 155.132 127.729 155.132 125.011 153.32C97.5846 135.043 68.3182 119.313 37.5497 106.467C34.4694 105.181 32.4945 102.136 32.5767 98.7989C32.9599 83.2446 33.885 67.8236 35.334 52.5542C45.2731 55.8304 55.0814 59.3949 64.7491 63.238V76.9478C59.9106 79.7467 56.6553 84.978 56.6553 90.9697C56.6553 96.315 59.2462 101.055 63.2406 104.003C62.2746 108.111 60.8449 112.13 58.9515 115.979C63.8368 118.285 68.6803 120.665 73.4806 123.117C76.2145 117.557 78.1968 111.721 79.4273 105.762C85.0859 103.239 89.0303 97.5652 89.0303 90.9697C89.0303 84.978 85.775 79.7467 80.9366 76.9478V69.9897C93.5779 75.513 105.961 81.5192 118.062 87.985C125.212 91.8055 133.797 91.8055 140.948 87.985Z" fill="white"/>
<path d="M48.1539 131.032C52.6771 126.508 56.2779 121.414 58.9515 115.979C63.8368 118.285 68.6803 120.665 73.4806 123.117C70.0429 130.109 65.4143 136.664 59.6002 142.478C56.4394 145.639 51.3147 145.639 48.1539 142.478C44.9931 139.317 44.9931 134.192 48.1539 131.032Z" fill="white"/>
</g>
</svg>
