<svg width="259" height="180" viewBox="0 0 259 180" fill="none" xmlns="http://www.w3.org/2000/svg">
<g opacity="0.2">
<path d="M59.4298 -35.3194C65.5805 -42.4952 74.5597 -46.625 84.0107 -46.625H174.988C184.439 -46.625 193.418 -42.4952 199.569 -35.3194L218.15 -13.6408C215.638 -14.0417 213.062 -14.25 210.437 -14.25H48.5617C45.9366 -14.25 43.3603 -14.0417 40.8481 -13.6408L59.4298 -35.3194Z" fill="white"/>
<path fill-rule="evenodd" clip-rule="evenodd" d="M16.1875 34.3125C16.1875 16.4323 30.6823 1.9375 48.5625 1.9375H210.438C228.318 1.9375 242.812 16.4323 242.812 34.3125C242.812 52.1927 228.318 66.6875 210.438 66.6875H48.5625C30.6823 66.6875 16.1875 52.1927 16.1875 34.3125ZM178.062 34.3125C178.062 38.7825 174.439 42.4062 169.969 42.4062C165.499 42.4062 161.875 38.7825 161.875 34.3125C161.875 29.8425 165.499 26.2188 169.969 26.2188C174.439 26.2188 178.062 29.8425 178.062 34.3125ZM202.344 42.4062C206.814 42.4062 210.438 38.7825 210.438 34.3125C210.438 29.8425 206.814 26.2188 202.344 26.2188C197.874 26.2188 194.25 29.8425 194.25 34.3125C194.25 38.7825 197.874 42.4062 202.344 42.4062Z" fill="white"/>
<path fill-rule="evenodd" clip-rule="evenodd" d="M48.5625 82.875C30.6823 82.875 16.1875 97.3698 16.1875 115.25C16.1875 133.13 30.6823 147.625 48.5625 147.625H210.438C228.318 147.625 242.812 133.13 242.812 115.25C242.812 97.3698 228.318 82.875 210.438 82.875H48.5625ZM169.969 123.344C174.439 123.344 178.062 119.72 178.062 115.25C178.062 110.78 174.439 107.156 169.969 107.156C165.499 107.156 161.875 110.78 161.875 115.25C161.875 119.72 165.499 123.344 169.969 123.344ZM210.438 115.25C210.438 119.72 206.814 123.344 202.344 123.344C197.874 123.344 194.25 119.72 194.25 115.25C194.25 110.78 197.874 107.156 202.344 107.156C206.814 107.156 210.438 110.78 210.438 115.25Z" fill="white"/>
</g>
</svg>
