<svg width="259" height="180" viewBox="0 0 259 180" fill="none" xmlns="http://www.w3.org/2000/svg">
<g opacity="0.2">
<path fill-rule="evenodd" clip-rule="evenodd" d="M172.339 -52.3481C175.5 -55.509 180.625 -55.509 183.786 -52.3481L232.348 -3.78564C233.866 -2.26777 234.719 -0.209091 234.719 1.9375C234.719 4.0841 233.866 6.14278 232.348 7.66065L183.786 56.2231C180.625 59.384 175.5 59.384 172.339 56.2231C169.179 53.0623 169.179 47.9377 172.339 44.7769L207.085 10.0313L80.9375 10.0312C76.4674 10.0312 72.8438 6.40755 72.8438 1.93749C72.8438 -2.53256 76.4674 -6.15626 80.9375 -6.15626L207.085 -6.15625L172.339 -40.9019C169.179 -44.0627 169.179 -49.1873 172.339 -52.3481ZM86.6606 44.7769C89.8214 47.9377 89.8214 53.0623 86.6606 56.2231L51.915 90.9688H178.062C182.533 90.9688 186.156 94.5925 186.156 99.0625C186.156 103.533 182.533 107.156 178.062 107.156H51.915L86.6606 141.902C89.8215 145.063 89.8215 150.187 86.6606 153.348C83.4998 156.509 78.3752 156.509 75.2144 153.348L26.6519 104.786C23.491 101.625 23.491 96.5002 26.6519 93.3394L75.2144 44.7769C78.3752 41.616 83.4998 41.616 86.6606 44.7769Z" fill="white"/>
</g>
</svg>
