<svg width="259" height="180" viewBox="0 0 259 180" fill="none" xmlns="http://www.w3.org/2000/svg">
<g opacity="0.2">
<path fill-rule="evenodd" clip-rule="evenodd" d="M32.375 -54.7188C27.9049 -54.7188 24.2812 -51.0951 24.2812 -46.625C24.2812 -42.1549 27.9049 -38.5312 32.375 -38.5312V139.531H24.2812C19.8112 139.531 16.1875 143.155 16.1875 147.625C16.1875 152.095 19.8112 155.719 24.2812 155.719H161.875V-38.5312C166.345 -38.5312 169.969 -42.1549 169.969 -46.625C169.969 -51.0951 166.345 -54.7188 161.875 -54.7188H32.375ZM72.8438 131.438V107.156C72.8438 102.686 76.4674 99.0625 80.9375 99.0625H113.312C117.783 99.0625 121.406 102.686 121.406 107.156V131.438C121.406 135.908 117.783 139.531 113.312 139.531H80.9375C76.4674 139.531 72.8438 135.908 72.8438 131.438ZM64.75 -6.15625C64.75 -10.6263 68.3737 -14.25 72.8438 -14.25H80.9375C85.4076 -14.25 89.0312 -10.6263 89.0312 -6.15625C89.0312 -1.6862 85.4076 1.9375 80.9375 1.9375H72.8438C68.3737 1.9375 64.75 -1.6862 64.75 -6.15625ZM72.8438 18.125C68.3737 18.125 64.75 21.7487 64.75 26.2188C64.75 30.6888 68.3737 34.3125 72.8438 34.3125H80.9375C85.4076 34.3125 89.0312 30.6888 89.0312 26.2188C89.0312 21.7487 85.4076 18.125 80.9375 18.125H72.8438ZM64.75 58.5938C64.75 54.1237 68.3737 50.5 72.8438 50.5H80.9375C85.4076 50.5 89.0312 54.1237 89.0312 58.5938C89.0312 63.0638 85.4076 66.6875 80.9375 66.6875H72.8438C68.3737 66.6875 64.75 63.0638 64.75 58.5938ZM113.312 -14.25C108.842 -14.25 105.219 -10.6263 105.219 -6.15625C105.219 -1.6862 108.842 1.9375 113.312 1.9375H121.406C125.876 1.9375 129.5 -1.6862 129.5 -6.15625C129.5 -10.6263 125.876 -14.25 121.406 -14.25H113.312ZM105.219 26.2188C105.219 21.7487 108.842 18.125 113.312 18.125H121.406C125.876 18.125 129.5 21.7487 129.5 26.2188C129.5 30.6888 125.876 34.3125 121.406 34.3125H113.312C108.842 34.3125 105.219 30.6888 105.219 26.2188ZM113.312 50.5C108.842 50.5 105.219 54.1237 105.219 58.5938C105.219 63.0638 108.842 66.6875 113.312 66.6875H121.406C125.876 66.6875 129.5 63.0638 129.5 58.5938C129.5 54.1237 125.876 50.5 121.406 50.5H113.312Z" fill="white"/>
<path fill-rule="evenodd" clip-rule="evenodd" d="M178.062 -6.15625V155.719H234.719C239.189 155.719 242.812 152.095 242.812 147.625C242.812 143.155 239.189 139.531 234.719 139.531H226.625V10.0312C231.095 10.0312 234.719 6.40755 234.719 1.9375C234.719 -2.53255 231.095 -6.15625 226.625 -6.15625H178.062ZM194.25 42.4062C194.25 37.9362 197.874 34.3125 202.344 34.3125H202.425C206.895 34.3125 210.518 37.9362 210.518 42.4062V42.4872C210.518 46.9572 206.895 50.5809 202.425 50.5809H202.344C197.874 50.5809 194.25 46.9572 194.25 42.4872V42.4062ZM202.344 66.6875C197.874 66.6875 194.25 70.3112 194.25 74.7812V74.8622C194.25 79.3322 197.874 82.9559 202.344 82.9559H202.425C206.895 82.9559 210.518 79.3322 210.518 74.8622V74.7812C210.518 70.3112 206.895 66.6875 202.425 66.6875H202.344ZM194.25 107.156C194.25 102.686 197.874 99.0625 202.344 99.0625H202.425C206.895 99.0625 210.518 102.686 210.518 107.156V107.237C210.518 111.707 206.895 115.331 202.425 115.331H202.344C197.874 115.331 194.25 111.707 194.25 107.237V107.156Z" fill="white"/>
</g>
</svg>
