<svg width="259" height="180" viewBox="0 0 259 180" fill="none" xmlns="http://www.w3.org/2000/svg">
<g opacity="0.2">
<path d="M24.2812 -54.7188C19.8112 -54.7188 16.1875 -51.0951 16.1875 -46.625C16.1875 -42.1549 19.8112 -38.5312 24.2812 -38.5312H39.2351C41.0686 -38.5312 42.673 -37.2986 43.1454 -35.5271L70.7476 67.9812C53.33 72.4989 40.4688 88.3257 40.4688 107.156C40.4688 111.626 44.0924 115.25 48.5625 115.25H218.531C223.001 115.25 226.625 111.626 226.625 107.156C226.625 102.686 223.001 99.0625 218.531 99.0625H58.0379C61.3712 89.6317 70.3653 82.875 80.9375 82.875H202.001C205.097 82.875 207.921 81.1095 209.277 78.3268C221.528 53.1874 232.218 27.1472 241.223 0.332317C241.939 -1.80108 241.735 -4.13644 240.659 -6.11316C239.584 -8.08987 237.734 -9.52944 235.553 -10.0863C183.518 -23.3752 129 -30.4375 72.8438 -30.4375C68.9822 -30.4375 65.1283 -30.4041 61.2824 -30.3376L58.7863 -39.698C56.4242 -48.5558 48.4022 -54.7188 39.2351 -54.7188H24.2812Z" fill="white"/>
<path d="M40.4688 139.531C40.4688 130.591 47.7161 123.344 56.6562 123.344C65.5964 123.344 72.8438 130.591 72.8438 139.531C72.8438 148.471 65.5964 155.719 56.6562 155.719C47.7161 155.719 40.4688 148.471 40.4688 139.531Z" fill="white"/>
<path d="M178.062 139.531C178.062 130.591 185.31 123.344 194.25 123.344C203.19 123.344 210.438 130.591 210.438 139.531C210.438 148.471 203.19 155.719 194.25 155.719C185.31 155.719 178.062 148.471 178.062 139.531Z" fill="white"/>
</g>
</svg>
