<svg width="259" height="180" viewBox="0 0 259 180" fill="none" xmlns="http://www.w3.org/2000/svg">
<g opacity="0.2">
<path d="M178.062 1.9375H80.9375V99.0625H178.062V1.9375Z" fill="white"/>
<path fill-rule="evenodd" clip-rule="evenodd" d="M89.0312 -54.7188C93.5013 -54.7188 97.125 -51.0951 97.125 -46.625V-38.5312H121.406V-46.625C121.406 -51.0951 125.03 -54.7188 129.5 -54.7188C133.97 -54.7188 137.594 -51.0951 137.594 -46.625V-38.5312H161.875V-46.625C161.875 -51.0951 165.499 -54.7188 169.969 -54.7188C174.439 -54.7188 178.062 -51.0951 178.062 -46.625V-38.5312H186.156C204.036 -38.5312 218.531 -24.0365 218.531 -6.15625V1.9375H226.625C231.095 1.9375 234.719 5.5612 234.719 10.0312C234.719 14.5013 231.095 18.125 226.625 18.125H218.531V42.4062H226.625C231.095 42.4062 234.719 46.0299 234.719 50.5C234.719 54.97 231.095 58.5938 226.625 58.5938H218.531V82.875H226.625C231.095 82.875 234.719 86.4987 234.719 90.9688C234.719 95.4388 231.095 99.0625 226.625 99.0625H218.531V107.156C218.531 125.036 204.036 139.531 186.156 139.531H178.062V147.625C178.062 152.095 174.439 155.719 169.969 155.719C165.499 155.719 161.875 152.095 161.875 147.625V139.531H137.594V147.625C137.594 152.095 133.97 155.719 129.5 155.719C125.03 155.719 121.406 152.095 121.406 147.625V139.531H97.125V147.625C97.125 152.095 93.5013 155.719 89.0312 155.719C84.5612 155.719 80.9375 152.095 80.9375 147.625V139.531H72.8438C54.9635 139.531 40.4688 125.036 40.4688 107.156V99.0625H32.375C27.9049 99.0625 24.2812 95.4388 24.2812 90.9688C24.2812 86.4987 27.9049 82.875 32.375 82.875H40.4688V58.5938H32.375C27.9049 58.5938 24.2812 54.97 24.2812 50.5C24.2812 46.0299 27.9049 42.4062 32.375 42.4062H40.4688V18.125H32.375C27.9049 18.125 24.2812 14.5013 24.2812 10.0312C24.2812 5.5612 27.9049 1.9375 32.375 1.9375H40.4688V-6.15625C40.4688 -24.0365 54.9635 -38.5312 72.8438 -38.5312H80.9375V-46.625C80.9375 -51.0951 84.5612 -54.7188 89.0312 -54.7188ZM64.75 -6.15625C64.75 -10.6263 68.3737 -14.25 72.8438 -14.25H186.156C190.626 -14.25 194.25 -10.6263 194.25 -6.15625V107.156C194.25 111.626 190.626 115.25 186.156 115.25H72.8438C68.3737 115.25 64.75 111.626 64.75 107.156V-6.15625Z" fill="white"/>
</g>
</svg>
