<svg width="259" height="180" viewBox="0 0 259 180" fill="none" xmlns="http://www.w3.org/2000/svg">
<g opacity="0.2">
<path fill-rule="evenodd" clip-rule="evenodd" d="M88.0759 -51.149C93.7724 -53.9972 100.478 -53.9972 106.174 -51.149L160.065 -24.2034C161.204 -23.6338 162.546 -23.6338 163.685 -24.2034L205.435 -45.0786C218.889 -51.8056 234.719 -42.0223 234.719 -26.9805V107.747C234.719 115.411 230.389 122.418 223.533 125.845L170.924 152.15C165.228 154.998 158.522 154.998 152.826 152.15L98.9348 125.205C97.7955 124.635 96.4545 124.635 95.3152 125.205L53.5647 146.08C40.1108 152.807 24.2812 143.023 24.2812 127.982V-6.74609C24.2812 -14.4103 28.6115 -21.4167 35.4665 -24.8443L88.0759 -51.149ZM97.125 -14.2495C101.595 -14.2495 105.219 -10.6258 105.219 -6.15576V82.8755C105.219 87.3455 101.595 90.9692 97.125 90.9692C92.6549 90.9692 89.0312 87.3455 89.0312 82.8755V-6.15576C89.0312 -10.6258 92.6549 -14.2495 97.125 -14.2495ZM169.969 18.1255C169.969 13.6554 166.345 10.0317 161.875 10.0317C157.405 10.0317 153.781 13.6554 153.781 18.1255V107.157C153.781 111.627 157.405 115.25 161.875 115.25C166.345 115.25 169.969 111.627 169.969 107.157V18.1255Z" fill="white"/>
</g>
</svg>
