<svg width="259" height="180" viewBox="0 0 259 180" fill="none" xmlns="http://www.w3.org/2000/svg">
<g opacity="0.2">
<path d="M112.92 15.3868C115.372 13.4389 118.284 12.0224 121.406 11.1373V41.2995C118.225 40.3961 115.32 38.9576 112.92 37.0507C108.671 33.6753 107.027 29.7039 107.027 26.2187C107.027 22.7336 108.671 18.7622 112.92 15.3868Z" fill="white"/>
<path d="M137.594 90.0149V59.547C141.341 60.4583 144.757 62.0017 147.537 64.0864C152.139 67.5382 153.781 71.4882 153.781 74.781C153.781 78.0737 152.139 82.0237 147.537 85.4755C144.757 87.5603 141.341 89.1036 137.594 90.0149Z" fill="white"/>
<path fill-rule="evenodd" clip-rule="evenodd" d="M129.5 -54.7188C71.3893 -54.7188 24.2812 -7.61071 24.2812 50.5C24.2812 108.611 71.3893 155.719 129.5 155.719C187.611 155.719 234.719 108.611 234.719 50.5C234.719 -7.61071 187.611 -54.7188 129.5 -54.7188ZM137.594 -14.25C137.594 -18.7201 133.97 -22.3438 129.5 -22.3438C125.03 -22.3438 121.406 -18.7201 121.406 -14.25V-5.44805C114.641 -4.24946 108.19 -1.52949 102.851 2.71186C95.1633 8.81886 90.8391 17.2757 90.8391 26.2187C90.8391 35.1618 95.1633 43.6186 102.851 49.7256C108.273 54.0331 114.744 56.7054 121.406 57.8851V90.0143C117.66 89.103 114.245 87.5598 111.466 85.4755L101.981 78.3618C98.4054 75.6797 93.3322 76.4044 90.6501 79.9804C87.968 83.5564 88.6926 88.6295 92.2686 91.3116L101.753 98.4253C107.507 102.741 114.369 105.382 121.406 106.512V115.25C121.406 119.72 125.03 123.344 129.5 123.344C133.97 123.344 137.594 119.72 137.594 115.25V106.513C144.631 105.382 151.495 102.742 157.249 98.4253C165.29 92.3947 169.969 83.9164 169.969 74.781C169.969 65.6455 165.29 57.1672 157.249 51.1366C151.495 46.8204 144.631 44.1796 137.594 43.0493V11.1381C140.715 12.0234 143.626 13.4396 146.077 15.3868L150.555 18.9436C154.055 21.724 159.146 21.1406 161.927 17.6406C164.707 14.1405 164.124 9.04914 160.624 6.26869L156.146 2.71187C150.808 -1.52886 144.358 -4.24866 137.594 -5.44751V-14.25Z" fill="white"/>
</g>
</svg>
