<svg width="395" height="276" viewBox="0 0 395 276" fill="none" xmlns="http://www.w3.org/2000/svg">
<path d="M124.4 276C42.4 276 5.66244e-07 220.4 5.66244e-07 138C5.66244e-07 56 42.4 -2.86102e-06 124.4 -2.86102e-06C206 -2.86102e-06 248.8 56 248.8 138C248.8 220.4 206 276 124.4 276ZM124.4 202.8C158.8 202.8 168 193.6 168 138C168 82.4 158.8 73.2 124.4 73.2C89.6 73.2 80.8 82.4 80.8 138C80.8 193.6 89.6 202.8 124.4 202.8ZM394.806 272H319.606V96H258.406V37.2H271.606C296.806 37.2 312.806 28 324.806 3.99999H394.806V272Z" fill="url(#paint0_linear_85_617)"/>
<defs>
<linearGradient id="paint0_linear_85_617" x1="3.17938" y1="5.22453" x2="554.339" y2="19.3835" gradientUnits="userSpaceOnUse">
<stop stop-color="#636361"/>
<stop offset="1" stop-color="#F9F9FA"/>
</linearGradient>
</defs>
</svg>
