<svg width="491" height="276" viewBox="0 0 491 276" fill="none" xmlns="http://www.w3.org/2000/svg">
<path d="M124.4 276C42.4 276 5.66244e-07 220.4 5.66244e-07 138C5.66244e-07 56 42.4 -2.86102e-06 124.4 -2.86102e-06C206 -2.86102e-06 248.8 56 248.8 138C248.8 220.4 206 276 124.4 276ZM124.4 202.8C158.8 202.8 168 193.6 168 138C168 82.4 158.8 73.2 124.4 73.2C89.6 73.2 80.8 82.4 80.8 138C80.8 193.6 89.6 202.8 124.4 202.8ZM488.063 272H268.463V230C268.463 180 292.863 162 327.663 145.2L398.863 110.4C410.463 104.8 415.263 100.8 415.263 88.8C415.263 73.6 407.263 68.4 378.463 68.4C346.463 68.4 341.263 76 341.263 96.8V104H266.063V97.6C266.063 44 298.863 -2.86102e-06 384.463 -2.86102e-06C458.463 -2.86102e-06 490.463 38.4 490.463 87.2C490.463 138.4 452.863 162 417.663 174L367.663 190.8C352.063 196 349.663 201.2 349.663 208.4L388.063 204.4H488.063V272Z" fill="url(#paint0_linear_85_1060)"/>
<defs>
<linearGradient id="paint0_linear_85_1060" x1="3.17938" y1="5.22453" x2="554.339" y2="19.3835" gradientUnits="userSpaceOnUse">
<stop stop-color="#636361"/>
<stop offset="1" stop-color="#F9F9FA"/>
</linearGradient>
</defs>
</svg>
