<svg width="501" height="276" viewBox="0 0 501 276" fill="none" xmlns="http://www.w3.org/2000/svg">
<path d="M124.4 276C42.4 276 5.66244e-07 220.4 5.66244e-07 138C5.66244e-07 56 42.4 -2.86102e-06 124.4 -2.86102e-06C206 -2.86102e-06 248.8 56 248.8 138C248.8 220.4 206 276 124.4 276ZM124.4 202.8C158.8 202.8 168 193.6 168 138C168 82.4 158.8 73.2 124.4 73.2C89.6 73.2 80.8 82.4 80.8 138C80.8 193.6 89.6 202.8 124.4 202.8ZM383.55 276C299.55 276 268.75 242.8 268.75 190V172H342.75V185.6C342.75 200 349.95 204.4 381.55 204.4C409.95 204.4 424.35 203.2 424.35 183.6C424.35 168.4 417.55 164.4 402.35 164.4H353.95V106H393.15C408.75 106 413.15 102.4 413.15 88.8C413.15 74.8 407.15 71.6 377.95 71.6C348.75 71.6 342.75 76 342.75 90.4V98.8H268.75V86C268.75 33.2 309.95 -2.86102e-06 384.35 -2.86102e-06C445.15 -2.86102e-06 488.35 22.4 488.35 70C488.35 103.6 470.35 124 433.55 127.2V132.4C478.75 134 500.75 159.2 500.75 196.4C500.75 246 462.75 276 383.55 276Z" fill="url(#paint0_linear_85_1073)"/>
<defs>
<linearGradient id="paint0_linear_85_1073" x1="3.17938" y1="5.22453" x2="554.339" y2="19.3835" gradientUnits="userSpaceOnUse">
<stop stop-color="#636361"/>
<stop offset="1" stop-color="#F9F9FA"/>
</linearGradient>
</defs>
</svg>
