<svg width="514" height="276" viewBox="0 0 514 276" fill="none" xmlns="http://www.w3.org/2000/svg">
<path d="M124.4 276C42.4 276 5.66244e-07 220.4 5.66244e-07 138C5.66244e-07 56 42.4 -2.86102e-06 124.4 -2.86102e-06C206 -2.86102e-06 248.8 56 248.8 138C248.8 220.4 206 276 124.4 276ZM124.4 202.8C158.8 202.8 168 193.6 168 138C168 82.4 158.8 73.2 124.4 73.2C89.6 73.2 80.8 82.4 80.8 138C80.8 193.6 89.6 202.8 124.4 202.8ZM477.225 272H402.425V225.2H261.625V170.4L390.025 3.99999H477.225V157.6H513.225V225.2H477.225V272ZM353.225 157.6H402.425V92H398.825L353.225 154V157.6Z" fill="url(#paint0_linear_85_1075)"/>
<defs>
<linearGradient id="paint0_linear_85_1075" x1="3.17938" y1="5.22453" x2="554.339" y2="19.3835" gradientUnits="userSpaceOnUse">
<stop stop-color="#636361"/>
<stop offset="1" stop-color="#F9F9FA"/>
</linearGradient>
</defs>
</svg>
