<svg width="495" height="276" viewBox="0 0 495 276" fill="none" xmlns="http://www.w3.org/2000/svg">
<path d="M124.4 276C42.4 276 5.66244e-07 220.4 5.66244e-07 138C5.66244e-07 56 42.4 -2.86102e-06 124.4 -2.86102e-06C206 -2.86102e-06 248.8 56 248.8 138C248.8 220.4 206 276 124.4 276ZM124.4 202.8C158.8 202.8 168 193.6 168 138C168 82.4 158.8 73.2 124.4 73.2C89.6 73.2 80.8 82.4 80.8 138C80.8 193.6 89.6 202.8 124.4 202.8ZM379.644 276C309.244 276 271.244 243.6 271.244 192V185.6H345.644V191.6C345.644 204.4 355.244 207.6 383.244 207.6C409.244 207.6 420.444 202.4 420.444 184C420.444 163.2 409.244 159.6 381.644 159.6C361.644 159.6 346.444 164.4 338.044 168L270.844 160L277.644 3.99999H480.044V71.6H344.444L341.644 114H344.444C353.244 107.2 373.644 96.8 407.644 96.8C465.244 96.8 494.444 130.8 494.444 181.2C494.444 234.4 464.844 276 379.644 276Z" fill="url(#paint0_linear_85_1083)"/>
<defs>
<linearGradient id="paint0_linear_85_1083" x1="3.17938" y1="5.22453" x2="554.339" y2="19.3835" gradientUnits="userSpaceOnUse">
<stop stop-color="#636361"/>
<stop offset="1" stop-color="#F9F9FA"/>
</linearGradient>
</defs>
</svg>
