<svg width="36" height="37" viewBox="0 0 36 37" fill="none" xmlns="http://www.w3.org/2000/svg">
<path fill-rule="evenodd" clip-rule="evenodd" d="M18 9.5C19.6568 9.5 21 8.15683 21 6.5C21 4.84314 19.6568 3.5 18 3.5C16.3432 3.5 15 4.84314 15 6.5C15 8.15683 16.3432 9.5 18 9.5Z" fill="white"/>
<path fill-rule="evenodd" clip-rule="evenodd" d="M18 21.5C19.6568 21.5 21 20.1568 21 18.5C21 16.8432 19.6568 15.5 18 15.5C16.3432 15.5 15 16.8432 15 18.5C15 20.1568 16.3432 21.5 18 21.5Z" fill="white"/>
<path fill-rule="evenodd" clip-rule="evenodd" d="M25.795 14.0005C26.6235 15.4354 28.4582 15.927 29.8931 15.0986C31.328 14.2701 31.8196 12.4354 30.9912 11.0005C30.1627 9.56561 28.328 9.07399 26.8931 9.90244C25.4582 10.7309 24.9666 12.5656 25.795 14.0005Z" fill="white"/>
<path fill-rule="evenodd" clip-rule="evenodd" d="M25.795 23.0005C24.9666 24.4354 25.4582 26.2701 26.8931 27.0986C28.328 27.927 30.1627 27.4354 30.9912 26.0005C31.8196 24.5656 31.328 22.7309 29.8931 21.9024C28.4582 21.074 26.6235 21.5656 25.795 23.0005Z" fill="white"/>
<path fill-rule="evenodd" clip-rule="evenodd" d="M18 27.5C16.3432 27.5 15 28.8432 15 30.5C15 32.1568 16.3432 33.5 18 33.5C19.6568 33.5 21 32.1568 21 30.5C21 28.8432 19.6568 27.5 18 27.5Z" fill="white"/>
<path fill-rule="evenodd" clip-rule="evenodd" d="M10.206 23.0005C9.37755 21.5656 7.54283 21.074 6.10792 21.9024C4.67304 22.7309 4.18142 24.5656 5.00985 26.0005C5.83827 27.4354 7.67303 27.927 9.10793 27.0986C10.5428 26.2701 11.0345 24.4354 10.206 23.0005Z" fill="white"/>
<path fill-rule="evenodd" clip-rule="evenodd" d="M10.206 14.0005C11.0345 12.5656 10.5428 10.7309 9.10793 9.90244C7.67303 9.07399 5.83827 9.56561 5.00985 11.0005C4.18142 12.4354 4.67304 14.2701 6.10792 15.0986C7.54283 15.927 9.37755 15.4354 10.206 14.0005Z" fill="white"/>
</svg>
