<svg width="36" height="37" viewBox="0 0 36 37" fill="none" xmlns="http://www.w3.org/2000/svg">
<path d="M24.6778 10.9453C23.4348 13.369 20.9111 15.0276 18 15.0276C15.0889 15.0276 12.5652 13.369 11.3222 10.9453C8.54865 12.9942 6.75 16.287 6.75 20C6.75 20.6133 6.79907 21.2151 6.89351 21.8017C7.09355 21.7857 7.29581 21.7776 7.49997 21.7776C11.6421 21.7776 15 25.1355 15 29.2776C15 29.7998 14.9466 30.3095 14.845 30.8016C15.846 31.0935 16.9048 31.25 18 31.25C19.0952 31.25 20.1539 31.0935 21.155 30.8016C21.0533 30.3095 21 29.7998 21 29.2776C21 25.1355 24.3578 21.7776 28.5 21.7776C28.7041 21.7776 28.9064 21.7857 29.1065 21.8017C29.201 21.2151 29.25 20.6133 29.25 20C29.25 16.287 27.4513 12.9942 24.6778 10.9453Z" stroke="white" stroke-width="2" stroke-linecap="round" stroke-linejoin="round"/>
<path fill-rule="evenodd" clip-rule="evenodd" d="M18 10.25C19.6568 10.25 21 8.90683 21 7.25C21 5.59314 19.6568 4.25 18 4.25C16.3432 4.25 15 5.59314 15 7.25C15 8.90683 16.3432 10.25 18 10.25Z" fill="white" stroke="white" stroke-width="2" stroke-linecap="round" stroke-linejoin="round"/>
<path fill-rule="evenodd" clip-rule="evenodd" d="M6.75 32.75C8.40683 32.75 9.75 31.4068 9.75 29.75C9.75 28.0932 8.40683 26.75 6.75 26.75C5.09314 26.75 3.75 28.0932 3.75 29.75C3.75 31.4068 5.09314 32.75 6.75 32.75Z" fill="white" stroke="white" stroke-width="2" stroke-linecap="round" stroke-linejoin="round"/>
<path fill-rule="evenodd" clip-rule="evenodd" d="M29.25 32.75C30.9068 32.75 32.25 31.4068 32.25 29.75C32.25 28.0932 30.9068 26.75 29.25 26.75C27.5932 26.75 26.25 28.0932 26.25 29.75C26.25 31.4068 27.5932 32.75 29.25 32.75Z" fill="white" stroke="white" stroke-width="2" stroke-linecap="round" stroke-linejoin="round"/>
</svg>
