<svg width="36" height="37" viewBox="0 0 36 37" fill="none" xmlns="http://www.w3.org/2000/svg">
<circle cx="18" cy="18.5" r="15" stroke="white" stroke-width="2" stroke-linejoin="round"/>
<path d="M3.30078 15.5C4.69059 22.3467 10.7439 27.5 18.0007 27.5C25.2576 27.5 31.3108 22.3467 32.7007 15.5" stroke="white" stroke-width="2" stroke-linecap="round" stroke-linejoin="round"/>
<path d="M4.24805 12.5C6.56271 17.7977 11.8489 21.5 17.9999 21.5C24.1509 21.5 29.4371 17.7977 31.7518 12.5" stroke="white" stroke-width="2" stroke-linecap="round" stroke-linejoin="round"/>
<path d="M5.99805 9.5C8.7347 13.1434 13.0917 15.5 17.9991 15.5C22.9066 15.5 27.2636 13.1434 30.0104 9.5" stroke="white" stroke-width="2" stroke-linecap="round" stroke-linejoin="round"/>
<path d="M8.99805 6.5C11.5053 8.3837 14.6221 9.5 17.9995 9.5C21.377 9.5 24.4938 8.3837 27.001 6.5" stroke="white" stroke-width="2" stroke-linecap="round" stroke-linejoin="round"/>
</svg>
