<svg width="36" height="37" viewBox="0 0 36 37" fill="none" xmlns="http://www.w3.org/2000/svg">
<path d="M30.75 25.25C31.9926 25.25 33 22.5637 33 19.25C33 15.9363 31.9926 13.25 30.75 13.25C29.5074 13.25 28.5 15.9363 28.5 19.25C28.5 22.5637 29.5074 25.25 30.75 25.25Z" stroke="white" stroke-width="2" stroke-linecap="round" stroke-linejoin="round"/>
<path d="M5.25 25.25C6.49264 25.25 7.5 22.5637 7.5 19.25C7.5 15.9363 6.49264 13.25 5.25 13.25C4.00736 13.25 3 15.9363 3 19.25C3 22.5637 4.00736 25.25 5.25 25.25Z" stroke="white" stroke-width="2" stroke-linecap="round" stroke-linejoin="round"/>
<path d="M18 33.5C20.4853 33.5 22.5 26.7843 22.5 18.5C22.5 10.2157 20.4853 3.5 18 3.5C15.5147 3.5 13.5 10.2157 13.5 18.5C13.5 26.7843 15.5147 33.5 18 33.5Z" stroke="white" stroke-width="2" stroke-linecap="round" stroke-linejoin="round"/>
<path d="M25.5 30.5C27.1569 30.5 28.5 25.1274 28.5 18.5C28.5 11.8726 27.1569 6.5 25.5 6.5C23.8431 6.5 22.5 11.8726 22.5 18.5C22.5 25.1274 23.8431 30.5 25.5 30.5Z" stroke="white" stroke-width="2" stroke-linecap="round" stroke-linejoin="round"/>
<path d="M10.5 30.5C12.1569 30.5 13.5 25.1274 13.5 18.5C13.5 11.8726 12.1569 6.5 10.5 6.5C8.84315 6.5 7.5 11.8726 7.5 18.5C7.5 25.1274 8.84315 30.5 10.5 30.5Z" stroke="white" stroke-width="2" stroke-linecap="round" stroke-linejoin="round"/>
</svg>
